<svg xmlns="http://www.w3.org/2000/svg" xmlns:xlink="http://www.w3.org/1999/xlink" width="97.863" height="106.589" viewBox="0 0 97.863 106.589">
  <defs>
    <filter id="Trazado_771226" x="0" y="0" width="97.863" height="106.589" filterUnits="userSpaceOnUse">
      <feOffset dy="3" input="SourceAlpha"/>
      <feGaussianBlur stdDeviation="3" result="blur"/>
      <feFlood flood-opacity="0.161"/>
      <feComposite operator="in" in2="blur"/>
      <feComposite in="SourceGraphic"/>
    </filter>
  </defs>
  <g id="Grupo_1071755" data-name="Grupo 1071755" transform="translate(-830 -935.843)">
    <g id="Grupo_1071655" data-name="Grupo 1071655" transform="translate(-320.5 -96.5)">
      <g transform="matrix(1, 0, 0, 1, 1150.5, 1032.34)" filter="url(#Trazado_771226)">
        <path id="Trazado_771226-2" data-name="Trazado 771226" d="M483.067,305.694V277.332a14.55,14.55,0,0,0-7.1-12.523l-23.259-13.791a14.268,14.268,0,0,0-14.1-.264L414.77,263.71A14.544,14.544,0,0,0,407.2,276.5v28.623a14.553,14.553,0,0,0,6.925,12.417l22.295,13.652a14.269,14.269,0,0,0,14.121.455l24.8-13.078A14.541,14.541,0,0,0,483.067,305.694Z" transform="translate(-396.2 -240.86)" fill="#2ec49f" stroke="#fff" stroke-miterlimit="10" stroke-width="4"/>
      </g>
    </g>
    <g id="impresora" transform="translate(851 958)">
      <g id="Grupo_54537" data-name="Grupo 54537" transform="translate(0.833 0.833)">
        <path id="Trazado_100729" data-name="Trazado 100729" d="M107.844,90.522H65.527V75.976a1.666,1.666,0,0,1,1.666-1.666h38.985a1.666,1.666,0,0,1,1.666,1.666Z" transform="translate(-59.091 -66.888)" fill="#444"/>
        <path id="Trazado_100730" data-name="Trazado 100730" d="M141.309,29.728H108.551V8.611A1.111,1.111,0,0,1,109.662,7.5H140.2a1.111,1.111,0,0,1,1.111,1.111V29.728Z" transform="translate(-97.335 -7.5)" fill="#d3e1f5"/>
        <path id="Trazado_100731" data-name="Trazado 100731" d="M59.666,229.512H10.7A3.109,3.109,0,0,1,7.587,226.4V207.6H62.776v18.8a3.109,3.109,0,0,1-3.108,3.109Z" transform="translate(-7.586 -185.371)" fill="#bfbfbf"/>
        <path id="Trazado_100732" data-name="Trazado 100732" d="M71.064,294.675V282.237A1.332,1.332,0,0,1,72.4,280.9h38.421a1.332,1.332,0,0,1,1.332,1.332v12.437Z" transform="translate(-64.013 -250.534)" fill="#5a5a5a"/>
        <path id="Trazado_100733" data-name="Trazado 100733" d="M140.2,335.451H109.663a1.111,1.111,0,0,1-1.111-1.111V314.326H141.31v20.015a1.111,1.111,0,0,1-1.111,1.111Z" transform="translate(-97.336 -280.243)" fill="#d3e1f5"/>
        <path id="Trazado_100734" data-name="Trazado 100734" d="M165.717,399.414h-6.885a.555.555,0,0,1-.555-.555v-6.884a.555.555,0,0,1,.555-.555h6.885a.555.555,0,0,1,.555.555v6.885A.555.555,0,0,1,165.717,399.414Z" transform="translate(-141.538 -348.772)" fill="#528fd8"/>
        <path id="Trazado_100735" data-name="Trazado 100735" d="M439.863,207.6v18.8a3.109,3.109,0,0,1-3.109,3.109h4.407a3.109,3.109,0,0,0,3.109-3.109V207.6Z" transform="translate(-389.08 -185.371)" fill="#acacac"/>
        <path id="Trazado_100736" data-name="Trazado 100736" d="M62.775,165.244H7.586V159.4a3.109,3.109,0,0,1,3.109-3.109H59.665a3.109,3.109,0,0,1,3.109,3.109Z" transform="translate(-7.586 -139.76)" fill="#838383"/>
        <path id="Trazado_100737" data-name="Trazado 100737" d="M441.16,156.287h-4.407a3.109,3.109,0,0,1,3.109,3.109v5.848h4.407V159.4a3.109,3.109,0,0,0-3.108-3.109Z" transform="translate(-389.08 -139.759)" fill="#5a5a5a"/>
        <path id="Trazado_100738" data-name="Trazado 100738" d="M405.873,185.718H401.82a1.555,1.555,0,1,1,0-3.109h4.053a1.555,1.555,0,1,1,0,3.109Z" transform="translate(-356.645 -163.157)" fill="#e94444"/>
      </g>
      <g id="Grupo_54538" data-name="Grupo 54538" transform="translate(0)">
        <path id="Trazado_100739" data-name="Trazado 100739" d="M53,16.528H50.5V9.92a2.5,2.5,0,0,0-2.5-2.5h-2.28V1.944A1.946,1.946,0,0,0,43.783,0H13.245A1.946,1.946,0,0,0,11.3,1.944V7.422H9.022a2.5,2.5,0,0,0-2.5,2.5v6.607H4.028A3.947,3.947,0,0,0,.086,20.47V41.865a3.947,3.947,0,0,0,3.942,3.942H11.3v1.75a.833.833,0,1,0,1.666,0V35.749H44.06V54.932a.278.278,0,0,1-.277.277H13.245a.278.278,0,0,1-.277-.277V51.446a.833.833,0,1,0-1.666,0v3.486a1.946,1.946,0,0,0,1.944,1.943H43.783a1.946,1.946,0,0,0,1.944-1.944V45.807H53a3.947,3.947,0,0,0,3.942-3.942V37.405a.833.833,0,1,0-1.666,0v4.459A2.279,2.279,0,0,1,53,44.14H49.89v-11.6a2.168,2.168,0,0,0-2.166-2.166H9.3a2.168,2.168,0,0,0-2.166,2.166v11.6H4.028a2.279,2.279,0,0,1-2.275-2.275V27.151H55.275v6.367a.833.833,0,1,0,1.666,0V20.47A3.947,3.947,0,0,0,53,16.528ZM8.8,32.536a.5.5,0,0,1,.5-.5H47.725a.5.5,0,0,1,.5.5v11.6h-2.5V34.916a.833.833,0,0,0-.833-.833H12.135a.833.833,0,0,0-.833.833v9.225H8.8ZM45.726,9.088h2.281a.833.833,0,0,1,.832.832v6.608H45.726ZM12.968,8.255V1.944a.278.278,0,0,1,.277-.277H43.783a.278.278,0,0,1,.277.277V16.528H12.968ZM8.189,9.92a.833.833,0,0,1,.832-.832H11.3v7.44H8.189ZM55.275,25.483H1.752V20.468a2.279,2.279,0,0,1,2.275-2.275H53a2.279,2.279,0,0,1,2.275,2.275Z" transform="translate(-0.086)"/>
        <path id="Trazado_100740" data-name="Trazado 100740" d="M173.321,347.932H151.611a.833.833,0,1,0,0,1.666h21.711a.833.833,0,1,0,0-1.666Z" transform="translate(-134.038 -309.283)"/>
        <path id="Trazado_100741" data-name="Trazado 100741" d="M265.52,383.919H255.331a.833.833,0,1,0,0,1.666H265.52a.833.833,0,1,0,0-1.666Z" transform="translate(-226.237 -341.272)"/>
        <path id="Trazado_100742" data-name="Trazado 100742" d="M265.52,419.907H255.331a.833.833,0,0,0,0,1.666H265.52a.833.833,0,0,0,0-1.666Z" transform="translate(-226.237 -373.262)"/>
        <path id="Trazado_100743" data-name="Trazado 100743" d="M265.52,455.895H255.331a.833.833,0,1,0,0,1.666H265.52a.833.833,0,1,0,0-1.666Z" transform="translate(-226.237 -405.253)"/>
        <path id="Trazado_100744" data-name="Trazado 100744" d="M150.777,392.19a1.39,1.39,0,0,0,1.388,1.388h6.885a1.39,1.39,0,0,0,1.388-1.388V385.3a1.39,1.39,0,0,0-1.388-1.388h-6.885a1.39,1.39,0,0,0-1.388,1.388Zm1.666-6.607h6.329v6.329h-6.329Z" transform="translate(-134.038 -341.27)"/>
        <path id="Trazado_100745" data-name="Trazado 100745" d="M399.206,175.109h-4.053a2.388,2.388,0,0,0,0,4.775h4.053a2.388,2.388,0,1,0,0-4.775Zm0,3.109h-4.053a.724.724,0,1,1,0-1.443h4.053a.724.724,0,1,1,0,1.443Z" transform="translate(-349.145 -155.657)"/>
      </g>
    </g>
  </g>
</svg>
