<svg xmlns="http://www.w3.org/2000/svg" xmlns:xlink="http://www.w3.org/1999/xlink" width="97.863" height="106.589" viewBox="0 0 97.863 106.589">
  <defs>
    <filter id="Trazado_771226" x="0" y="0" width="97.863" height="106.589" filterUnits="userSpaceOnUse">
      <feOffset dy="3" input="SourceAlpha"/>
      <feGaussianBlur stdDeviation="3" result="blur"/>
      <feFlood flood-opacity="0.161"/>
      <feComposite operator="in" in2="blur"/>
      <feComposite in="SourceGraphic"/>
    </filter>
  </defs>
  <g id="Grupo_1071760" data-name="Grupo 1071760" transform="translate(-830 -935.843)">
    <g id="Grupo_1071655" data-name="Grupo 1071655" transform="translate(-320.5 -96.5)">
      <g transform="matrix(1, 0, 0, 1, 1150.5, 1032.34)" filter="url(#Trazado_771226)">
        <path id="Trazado_771226-2" data-name="Trazado 771226" d="M483.067,305.694V277.332a14.55,14.55,0,0,0-7.1-12.523l-23.259-13.791a14.268,14.268,0,0,0-14.1-.264L414.77,263.71A14.544,14.544,0,0,0,407.2,276.5v28.623a14.553,14.553,0,0,0,6.925,12.417l22.295,13.652a14.269,14.269,0,0,0,14.121.455l24.8-13.078A14.541,14.541,0,0,0,483.067,305.694Z" transform="translate(-396.2 -240.86)" fill="#2ec49f" stroke="#fff" stroke-miterlimit="10" stroke-width="4"/>
      </g>
    </g>
    <g id="digital" transform="translate(857.764 963)">
      <path id="Trazado_100824" data-name="Trazado 100824" d="M53.377,18.3H44.151a1.542,1.542,0,0,0-1.538,1.538v1.538H38V6H51.839a1.542,1.542,0,0,1,1.538,1.538Z" transform="translate(-9.553 -2.156)" fill="#e6e9ed"/>
      <path id="Trazado_100825" data-name="Trazado 100825" d="M51.226,12.622v.138a2.626,2.626,0,0,1-.771,1.851l-3.842,3.846-3.842-3.844A2.626,2.626,0,0,1,42,12.762v-.14A2.625,2.625,0,0,1,44.622,10h.138a2.626,2.626,0,0,1,1.851.771A2.626,2.626,0,0,1,48.462,10H48.6a2.625,2.625,0,0,1,2.626,2.622Z" transform="translate(-10.477 -3.08)" fill="#ff826e"/>
      <path id="Trazado_100826" data-name="Trazado 100826" d="M53.226,34.3H44V23.538A1.542,1.542,0,0,1,45.538,22H56.3a1.542,1.542,0,0,1,1.538,1.538V34.3A1.542,1.542,0,0,1,56.3,35.84H54.764A1.542,1.542,0,0,0,53.226,34.3Z" transform="translate(-10.939 -5.854)" fill="#ffeaa7"/>
      <path id="Trazado_100827" data-name="Trazado 100827" d="M55.689,29.844,48,33.689V26Z" transform="translate(-11.864 -6.778)" fill="#ff826e"/>
      <path id="Trazado_100828" data-name="Trazado 100828" d="M53.377,39.538v12.3a1.542,1.542,0,0,1-1.538,1.538H38V38H51.839A1.542,1.542,0,0,1,53.377,39.538Z" transform="translate(-9.553 -9.552)" fill="#b4dd7f"/>
      <ellipse id="Elipse_4083" data-name="Elipse 4083" cx="1.557" cy="1.557" rx="1.557" ry="1.557" transform="translate(31.52 37.552)" fill="#fcd770"/>
      <path id="Trazado_100829" data-name="Trazado 100829" d="M29.679,29.679V45.056A3.074,3.074,0,0,1,26.6,48.131H5.075A3.074,3.074,0,0,1,2,45.056V5.075A3.074,3.074,0,0,1,5.075,2H26.6a3.074,3.074,0,0,1,3.075,3.075v24.6Z" transform="translate(-1.231 -1.231)" fill="#aab2bd"/>
      <path id="Trazado_100830" data-name="Trazado 100830" d="M27.528,10.771V43.063a.771.771,0,0,1-.771.771H6.771A.771.771,0,0,1,6,43.063V10.771A.771.771,0,0,1,6.771,10H26.759a.771.771,0,0,1,.769.771Z" transform="translate(-2.156 -3.08)" fill="#69d6f4"/>
      <path id="Trazado_100831" data-name="Trazado 100831" d="M10,22h3.075v3.075H10Z" transform="translate(-3.08 -5.854)" fill="#fcd770"/>
      <path id="Trazado_100832" data-name="Trazado 100832" d="M18,14h3.075v3.075H18Z" transform="translate(-4.929 -4.005)" fill="#fcd770"/>
      <path id="Trazado_100833" data-name="Trazado 100833" d="M26,14h3.075v3.075H26Z" transform="translate(-6.779 -4.005)" fill="#e6e9ed"/>
      <g id="Grupo_54564" data-name="Grupo 54564" transform="translate(6.92 9.995)">
        <path id="Trazado_100834" data-name="Trazado 100834" d="M26,22h3.075v3.075H26Z" transform="translate(-13.698 -15.849)" fill="#ff826e"/>
        <path id="Trazado_100835" data-name="Trazado 100835" d="M18,22h3.075v3.075H18Z" transform="translate(-11.849 -15.849)" fill="#ff826e"/>
        <path id="Trazado_100836" data-name="Trazado 100836" d="M10,14h3.075v3.075H10Z" transform="translate(-10 -14)" fill="#ff826e"/>
      </g>
      <path id="Trazado_100837" data-name="Trazado 100837" d="M26.84,38v.771L25.3,44.151H16.845L16.33,38Z" transform="translate(-4.543 -9.552)" fill="#fcd770"/>
      <ellipse id="Elipse_4084" data-name="Elipse 4084" cx="1.557" cy="1.557" rx="1.557" ry="1.557" transform="translate(19.068 34.439)" fill="#aab2bd"/>
      <ellipse id="Elipse_4085" data-name="Elipse 4085" cx="1.557" cy="1.557" rx="1.557" ry="1.557" transform="translate(10.896 34.439)" fill="#aab2bd"/>
      <path id="Trazado_100838" data-name="Trazado 100838" d="M14.613,33.538l.131,1.538H11.538a1.538,1.538,0,0,1,0-3.075h1.538A1.542,1.542,0,0,1,14.613,33.538Z" transform="translate(-3.08 -8.165)" fill="#aab2bd"/>
      <path id="Trazado_100839" data-name="Trazado 100839" d="M26.528,9H6.538A1.539,1.539,0,0,0,5,10.538V42.829a1.539,1.539,0,0,0,1.538,1.538h19.99a1.539,1.539,0,0,0,1.538-1.538V10.538A1.539,1.539,0,0,0,26.528,9ZM6.538,42.829V10.538h19.99V42.829Z" transform="translate(-1.925 -2.849)"/>
      <path id="Trazado_100840" data-name="Trazado 100840" d="M19,5h4.613V6.538H19Z" transform="translate(-5.161 -1.925)"/>
      <path id="Trazado_100841" data-name="Trazado 100841" d="M15,5h1.538V6.538H15Z" transform="translate(-4.236 -1.925)"/>
      <path id="Trazado_100842" data-name="Trazado 100842" d="M15,57h7.689v1.538H15Z" transform="translate(-4.236 -13.944)"/>
      <path id="Trazado_100843" data-name="Trazado 100843" d="M25.914,35.613H15.344l-.193-2.306A2.309,2.309,0,0,0,12.844,31H11.306a2.307,2.307,0,0,0,0,4.613h2.5l.526,6.309a2.3,2.3,0,1,0,3.128,2.148,2.281,2.281,0,0,0-.141-.771h4.126a2.262,2.262,0,0,0-.142.771,2.306,2.306,0,1,0,3.265-2.092l1.319-4.616ZM11.306,34.075a.771.771,0,0,1,0-1.538h1.538a.79.79,0,0,1,.771.833l.059.7Zm13.04,3.075-1.318,4.613h-7.17l-.386-4.613Zm-8.427,6.92a.771.771,0,1,1-.771-.771A.771.771,0,0,1,15.919,44.071Zm7.689.771a.771.771,0,1,1,.771-.771.771.771,0,0,1-.771.771Z" transform="translate(-2.849 -7.934)"/>
      <path id="Trazado_100844" data-name="Trazado 100844" d="M13.613,13H9v4.613h4.613Zm-1.538,3.075H10.538V14.538h1.538Z" transform="translate(-2.849 -3.774)"/>
      <path id="Trazado_100845" data-name="Trazado 100845" d="M21.613,13H17v4.613h4.613Zm-1.538,3.075H18.538V14.538h1.538Z" transform="translate(-4.698 -3.774)"/>
      <path id="Trazado_100846" data-name="Trazado 100846" d="M25,17.613h4.613V13H25Zm1.538-3.075h1.538v1.538H26.538Z" transform="translate(-6.548 -3.774)"/>
      <path id="Trazado_100847" data-name="Trazado 100847" d="M13.613,21H9v4.613h4.613Zm-1.538,3.075H10.538V22.538h1.538Z" transform="translate(-2.849 -5.623)"/>
      <path id="Trazado_100848" data-name="Trazado 100848" d="M21.613,21H17v4.613h4.613Zm-1.538,3.075H18.538V22.538h1.538Z" transform="translate(-4.698 -5.623)"/>
      <path id="Trazado_100849" data-name="Trazado 100849" d="M25,25.613h4.613V21H25Zm1.538-3.075h1.538v1.538H26.538Z" transform="translate(-6.548 -5.623)"/>
      <path id="Trazado_100850" data-name="Trazado 100850" d="M43.306,49a2.306,2.306,0,1,0,2.306,2.306A2.306,2.306,0,0,0,43.306,49Zm0,3.075a.771.771,0,1,1,.771-.771.771.771,0,0,1-.771.771Z" transform="translate(-10.246 -12.095)"/>
      <path id="Trazado_100851" data-name="Trazado 100851" d="M44,45v1.538a3.849,3.849,0,0,1,3.844,3.844h1.538A5.388,5.388,0,0,0,44,45Z" transform="translate(-10.939 -11.17)"/>
      <path id="Trazado_100852" data-name="Trazado 100852" d="M44,41v1.538a6.928,6.928,0,0,1,6.92,6.92h1.538A8.468,8.468,0,0,0,44,41Z" transform="translate(-10.939 -10.246)"/>
      <path id="Trazado_100853" data-name="Trazado 100853" d="M46.363,16.377h-.771v-10a2.309,2.309,0,0,0-2.306-2.306H30.139A3.851,3.851,0,0,0,26.372,1H4.844A3.849,3.849,0,0,0,1,4.844V44.825a3.849,3.849,0,0,0,3.844,3.844H26.372a3.851,3.851,0,0,0,3.766-3.075H43.287a2.309,2.309,0,0,0,2.306-2.306V31.754h.771a2.309,2.309,0,0,0,2.306-2.306V18.686a2.309,2.309,0,0,0-2.308-2.309ZM28.677,44.824a2.309,2.309,0,0,1-2.306,2.306H4.844a2.309,2.309,0,0,1-2.306-2.306V4.844A2.309,2.309,0,0,1,4.844,2.538H26.372a2.309,2.309,0,0,1,2.306,2.306ZM44.056,6.382v10H38.222l3.3-3.3a3.37,3.37,0,0,0,.994-2.4v-.132a3.4,3.4,0,0,0-3.393-3.393h-.131a3.366,3.366,0,0,0-1.856.551,3.366,3.366,0,0,0-1.856-.551h-.134a3.4,3.4,0,0,0-3.393,3.393v.132a3.37,3.37,0,0,0,.994,2.4l3.3,3.3H35.6a2.309,2.309,0,0,0-2.308,2.309v.771H30.217V5.613H43.287a.771.771,0,0,1,.771.771Zm-6.92,8.908-3.3-3.3a1.87,1.87,0,0,1-.543-1.313v-.132a1.858,1.858,0,0,1,1.856-1.856h.132a1.87,1.87,0,0,1,1.313.543l.543.543.543-.543a1.87,1.87,0,0,1,1.314-.543h.132a1.858,1.858,0,0,1,1.856,1.856v.132a1.87,1.87,0,0,1-.543,1.313Zm-6.92,13.389V20.99h3.075v7.689ZM44.056,43.287a.771.771,0,0,1-.771.771H30.217V30.217H43.287a.771.771,0,0,1,.771.771Zm3.075-13.84a.771.771,0,0,1-.771.771h-.908a2.3,2.3,0,0,0-2.165-1.538H37.318l9.226-4.613-10.177-5.09v9.7H34.829V18.686a.771.771,0,0,1,.771-.771H46.363a.771.771,0,0,1,.771.771Zm-9.226-2.781v-5.2l5.2,2.6Z" transform="translate(-1 -1)"/>
    </g>
  </g>
</svg>
