<svg xmlns="http://www.w3.org/2000/svg" width="505" height="257.039" viewBox="0 0 505 257.039">
  <g id="Grupo_1071773" data-name="Grupo 1071773" transform="translate(-233 -952)">
    <path id="Trazado_100937" data-name="Trazado 100937" d="M868-116.366a3.575,3.575,0,0,1,.64-.011l1.88.053c.413.019.877.019,1.386.061l1.66.233,1.936.278,2.163.536a35.021,35.021,0,0,1,10.485,4.571A37.623,37.623,0,0,1,899-100.083a37.948,37.948,0,0,1,6.152,17.25,38.406,38.406,0,0,1,.1,5.07c-.06.855-.043,1.729-.168,2.594s-.263,1.735-.395,2.611a37.21,37.21,0,0,1-3.524,10.317,39.731,39.731,0,0,1-6.738,9.274,38.964,38.964,0,0,1-9.708,6.972,35.3,35.3,0,0,1-11.835,3.632,23.508,23.508,0,0,1-3.157.268,28.633,28.633,0,0,1-3.19.058,37.974,37.974,0,0,1-6.391-.808A37.356,37.356,0,0,1,847.422-48.2l.386.039-12.958,5.2-.768.308.219-.8q1.963-7.134,3.81-13.855l.066.342a37.181,37.181,0,0,1-6.916-15.832,33.662,33.662,0,0,1-.5-8.111,26.22,26.22,0,0,1,.368-3.9q.148-.954.295-1.9c.116-.624.306-1.227.453-1.834a37.06,37.06,0,0,1,14.459-21.079,35.442,35.442,0,0,1,8.6-4.539l1.938-.693,1.842-.468,1.683-.417c.541-.1,1.062-.159,1.55-.234.98-.125,1.842-.294,2.595-.329l1.908-.066,1.164-.025a1.808,1.808,0,0,1,.395.014,1.742,1.742,0,0,1-.395.054c-.3.022-.677.053-1.158.091l-1.892.128c-.749.058-1.6.248-2.571.391a36.788,36.788,0,0,0-15.374,6.491,36.7,36.7,0,0,0-14.1,20.846c-.141.6-.326,1.191-.436,1.8q-.138.925-.279,1.863a25.5,25.5,0,0,0-.343,3.825,33.042,33.042,0,0,0,.526,7.952,36.522,36.522,0,0,0,6.82,15.488l.118.155-.051.188q-1.831,6.715-3.781,13.862l-.548-.488L847.5-48.932l.2-.082.184.12a36.582,36.582,0,0,0,12.44,5.229,37.121,37.121,0,0,0,6.249.789,27.807,27.807,0,0,0,3.12-.057,22.758,22.758,0,0,0,3.086-.263,34.515,34.515,0,0,0,11.573-3.539,38.2,38.2,0,0,0,9.511-6.806,39.032,39.032,0,0,0,6.618-9.061A36.544,36.544,0,0,0,903.972-72.7q.2-1.289.395-2.559c.127-.847.111-1.7.174-2.543a37.755,37.755,0,0,0-.079-4.975,37.461,37.461,0,0,0-5.96-16.981,37.4,37.4,0,0,0-10.6-10.5,35.262,35.262,0,0,0-10.314-4.65l-2.136-.569-1.916-.314-1.644-.27c-.5-.056-.966-.07-1.376-.1l-1.871-.135a3.693,3.693,0,0,1-.637-.074Z" transform="translate(-435.886 1070.386)" fill="#2b3990" stroke="#2b3990" stroke-linecap="round" stroke-linejoin="round" stroke-width="4"/>
    <path id="Trazado_100939" data-name="Trazado 100939" d="M1053.842,76.874h-15.713V-14.167H1022" transform="translate(-525.182 1114.827)" fill="none" stroke="#2b3990" stroke-miterlimit="10" stroke-width="4"/>
    <path id="Trazado_100940" data-name="Trazado 100940" d="M1266.45,22.263h-9.585V100.1h-27.336" transform="translate(-605.598 1090.937)" fill="none" stroke="#2b3990" stroke-miterlimit="10" stroke-width="4" fill-rule="evenodd"/>
    <path id="Trazado_100941" data-name="Trazado 100941" d="M1219.146-71.059v28.98h-10.795v11.235" transform="translate(-600.907 1133.811)" fill="none" stroke="#2b3990" stroke-miterlimit="10" stroke-width="4" fill-rule="evenodd"/>
    <path id="Línea_137" data-name="Línea 137" d="M0,0V40.215" transform="translate(555.515 1062.752)" fill="none" stroke="#2b3990" stroke-width="4"/>
    <path id="Línea_138" data-name="Línea 138" d="M0,0,.035,18.542" transform="translate(283.607 1094.656)" fill="none" stroke="#2b3990" stroke-width="4"/>
    <path id="Rectángulo_5350" data-name="Rectángulo 5350" d="M11.5,0h47a11.5,11.5,0,0,1,0,23h-47a11.5,11.5,0,0,1,0-23Z" transform="translate(249 1069.035)" fill="#5793ce"/>
    <path id="Rectángulo_5362" data-name="Rectángulo 5362" d="M11,0H61a11,11,0,0,1,0,22H11A11,11,0,0,1,11,0Z" transform="translate(419 1090.035)" fill="#5793ce"/>
    <path id="Rectángulo_5363" data-name="Rectángulo 5363" d="M10.5,0h50a10.5,10.5,0,0,1,0,21h-50a10.5,10.5,0,0,1,0-21Z" transform="translate(516 1036.035)" fill="#5793ce"/>
    <path id="Rectángulo_5364" data-name="Rectángulo 5364" d="M10.5,0h50a10.5,10.5,0,0,1,0,21h-50a10.5,10.5,0,0,1,0-21Z" transform="translate(592 1036.035)" fill="#5793ce"/>
    <path id="Rectángulo_5365" data-name="Rectángulo 5365" d="M11.5,0h48a11.5,11.5,0,0,1,0,23h-48a11.5,11.5,0,0,1,0-23Z" transform="translate(667 1101.035)" fill="#5793ce"/>
    <path id="Trazado_105893" data-name="Trazado 105893" d="M-26.571-4.2h-1.908v-3.32H-31.3V-4.2h-1.917v-7.95H-31.3v3.157h2.823v-3.157h1.908Zm7.295-6.47h-2.386V-4.2h-1.917v-6.47h-2.342v-1.48h6.643Zm7.136,0h-2.384V-4.2h-1.918v-6.47h-2.342v-1.48h6.643Zm2.725,3.773v2.7h-1.917v-7.95h3.172a3.7,3.7,0,0,1,1.613.335,2.53,2.53,0,0,1,1.087.956,2.609,2.609,0,0,1,.385,1.406A2.3,2.3,0,0,1-5.908-7.59a3.455,3.455,0,0,1-2.284.7Zm0-1.48h1.256a1.184,1.184,0,0,0,.849-.278,1.035,1.035,0,0,0,.292-.789,1.279,1.279,0,0,0-.3-.89,1.064,1.064,0,0,0-.819-.335H-9.415ZM3.978-10.022A1.835,1.835,0,0,1,3.692-9a2.088,2.088,0,0,1-.789.71,2.3,2.3,0,0,1,.9.762,1.965,1.965,0,0,1,.333,1.144A2.08,2.08,0,0,1,3.4-4.7a3.049,3.049,0,0,1-2.023.617A3.105,3.105,0,0,1-.66-4.707a2.066,2.066,0,0,1-.748-1.679,1.99,1.99,0,0,1,.329-1.13A2.228,2.228,0,0,1-.15-8.291,2.1,2.1,0,0,1-.952-9a1.823,1.823,0,0,1-.289-1.021,2.039,2.039,0,0,1,.7-1.638,2.828,2.828,0,0,1,1.9-.6,2.849,2.849,0,0,1,1.911.6,2.039,2.039,0,0,1,.7,1.635ZM2.291-6.536a1.052,1.052,0,0,0-.254-.756.884.884,0,0,0-.669-.263A.893.893,0,0,0,.7-7.292a1.043,1.043,0,0,0-.257.756A1.052,1.052,0,0,0,.7-5.786a.89.89,0,0,0,.679.276.855.855,0,0,0,.658-.273,1.071,1.071,0,0,0,.255-.751Zm-.928-4.3A.68.68,0,0,0,.8-10.6,1.052,1.052,0,0,0,.6-9.924a1.118,1.118,0,0,0,.2.688.678.678,0,0,0,.579.263.651.651,0,0,0,.565-.263,1.153,1.153,0,0,0,.188-.688,1.057,1.057,0,0,0-.194-.672A.689.689,0,0,0,1.362-10.84Zm9.249,3.395a3.8,3.8,0,0,1-.724,2.484,2.5,2.5,0,0,1-2.039.874A2.513,2.513,0,0,1,5.8-4.966a3.79,3.79,0,0,1-.724-2.479V-8.9A3.8,3.8,0,0,1,5.8-11.382a2.506,2.506,0,0,1,2.043-.874,2.507,2.507,0,0,1,2.048.879,3.8,3.8,0,0,1,.724,2.484ZM8.771-9.13a2.836,2.836,0,0,0-.224-1.281.749.749,0,0,0-.71-.423.731.731,0,0,0-.691.395,2.671,2.671,0,0,0-.232,1.191v2.026a2.857,2.857,0,0,0,.224,1.3.751.751,0,0,0,.71.412.741.741,0,0,0,.693-.4,2.727,2.727,0,0,0,.23-1.258Z" transform="translate(294.352 1089.113)" fill="#12263f"/>
    <path id="Trazado_105894" data-name="Trazado 105894" d="M-29.31-10.833H-31.7v6.47h-1.917v-6.47h-2.342v-1.48h6.643Zm3.1,6.578a3.037,3.037,0,0,1-2.2-.811,2.8,2.8,0,0,1-.841-2.109v-.153a3.628,3.628,0,0,1,.335-1.6A2.457,2.457,0,0,1-27.94-10a2.96,2.96,0,0,1,1.529-.38,2.557,2.557,0,0,1,1.965.773,3.036,3.036,0,0,1,.724,2.154v.715h-3.658a1.326,1.326,0,0,0,.431.781,1.283,1.283,0,0,0,.863.284,1.654,1.654,0,0,0,1.365-.612l.84.993a2.35,2.35,0,0,1-.975.756,3.293,3.293,0,0,1-1.358.281Zm-.207-4.706q-.808,0-.961,1.07h1.856v-.142a.912.912,0,0,0-.224-.685.891.891,0,0,0-.672-.241Zm5.378,4.6h-1.846V-12.75h1.846Zm2.823-5.907.061.693a2,2,0,0,1,1.687-.8,1.685,1.685,0,0,1,1.381.551,2.625,2.625,0,0,1,.472,1.66v3.806h-1.85V-8.092a1,1,0,0,0-.18-.658.833.833,0,0,0-.658-.21.877.877,0,0,0-.8.426v4.172H-19.95v-5.907Zm7.474,6.017a3.037,3.037,0,0,1-2.2-.811,2.8,2.8,0,0,1-.841-2.11v-.153a3.628,3.628,0,0,1,.335-1.6A2.457,2.457,0,0,1-12.472-10a2.96,2.96,0,0,1,1.529-.38,2.557,2.557,0,0,1,1.965.773,3.036,3.036,0,0,1,.721,2.153v.715h-3.658a1.326,1.326,0,0,0,.431.781,1.283,1.283,0,0,0,.863.284,1.654,1.654,0,0,0,1.365-.612l.84,1a2.35,2.35,0,0,1-.974.756A3.293,3.293,0,0,1-10.746-4.254Zm-.208-4.706q-.808,0-.96,1.07h1.856v-.142a.912.912,0,0,0-.224-.685A.891.891,0,0,0-10.954-8.961Zm5.58-2.779v1.469H-4.4v1.277h-.972v2.7a.69.69,0,0,0,.12.464.645.645,0,0,0,.475.132,2.7,2.7,0,0,0,.46-.033v1.316a3.4,3.4,0,0,1-1.037.159A1.927,1.927,0,0,1-6.761-4.7a1.835,1.835,0,0,1-.453-1.36V-8.994h-.753v-1.277h.753V-11.74Zm10,7.376H-.926v-1.2L1.631-8.251a3.05,3.05,0,0,0,.945-1.71,1.189,1.189,0,0,0-.224-.781.8.8,0,0,0-.647-.265.809.809,0,0,0-.683.358,1.469,1.469,0,0,0-.263.893H-1.088a2.611,2.611,0,0,1,.366-1.351,2.565,2.565,0,0,1,1.016-.969,3.016,3.016,0,0,1,1.452-.349,2.968,2.968,0,0,1,1.984.592,2.125,2.125,0,0,1,.7,1.71,2.482,2.482,0,0,1-.175.914,4.012,4.012,0,0,1-.543.933A13.685,13.685,0,0,1,2.521-6.968L1.494-5.784H4.622ZM7.23-9.108H8.1a.9.9,0,0,0,.769-.247.9.9,0,0,0,.263-.763.873.873,0,0,0-.246-.641.931.931,0,0,0-.693-.249,1,1,0,0,0-.636.213.65.65,0,0,0-.27.529H5.443a1.884,1.884,0,0,1,.349-1.118,2.307,2.307,0,0,1,.969-.767,3.313,3.313,0,0,1,1.362-.276,3.256,3.256,0,0,1,2.086.606,2.015,2.015,0,0,1,.764,1.664,1.679,1.679,0,0,1-.314.969,2.236,2.236,0,0,1-.914.74,2.137,2.137,0,0,1,.994.7A1.833,1.833,0,0,1,11.1-6.6a2.052,2.052,0,0,1-.819,1.7,3.4,3.4,0,0,1-2.152.639,3.526,3.526,0,0,1-1.447-.3,2.271,2.271,0,0,1-1.013-.824,2.144,2.144,0,0,1-.345-1.2H7.174a.829.829,0,0,0,.295.633,1.041,1.041,0,0,0,.724.268,1.091,1.091,0,0,0,.777-.268.9.9,0,0,0,.289-.691,1.056,1.056,0,0,0-.3-.852,1.256,1.256,0,0,0-.83-.251h-.9Z" transform="translate(466.965 1109.671)" fill="#12263f"/>
    <path id="Trazado_105895" data-name="Trazado 105895" d="M-21.664-7.366h-3.091V-4.2H-26.67v-7.95h5.318v1.48h-3.4V-8.84h3.091Zm7.458-3.3h-2.386V-4.2h-1.917v-6.47H-20.85v-1.48h6.643ZM-11.481-6.9v2.7H-13.4v-7.95h3.172a3.7,3.7,0,0,1,1.613.335,2.53,2.53,0,0,1,1.087.956A2.609,2.609,0,0,1-7.14-9.452a2.3,2.3,0,0,1-.833,1.859,3.455,3.455,0,0,1-2.285.7Zm0-1.48h1.256a1.184,1.184,0,0,0,.849-.278,1.035,1.035,0,0,0,.292-.789,1.279,1.279,0,0,0-.3-.887,1.064,1.064,0,0,0-.819-.339h-1.278ZM2.1-4.2H-3.449V-5.4L-.894-8.087A3.05,3.05,0,0,0,.051-9.8a1.189,1.189,0,0,0-.224-.781.8.8,0,0,0-.65-.268.809.809,0,0,0-.683.358,1.469,1.469,0,0,0-.263.893H-3.613a2.611,2.611,0,0,1,.366-1.351,2.565,2.565,0,0,1,1.016-.969,3.017,3.017,0,0,1,1.452-.349,2.968,2.968,0,0,1,1.984.592,2.125,2.125,0,0,1,.7,1.71,2.482,2.482,0,0,1-.175.914,4.012,4.012,0,0,1-.543.933A13.685,13.685,0,0,1,0-6.807L-1.031-5.623H2.1ZM7.1-4.2H5.26v-5.875l-1.813.529v-1.4l3.486-1.206H7.1Z" transform="translate(560.478 1055.57)" fill="#12263f"/>
    <path id="Trazado_105896" data-name="Trazado 105896" d="M-30.62-6.312a.789.789,0,0,0-.3-.658,3.7,3.7,0,0,0-1.046-.486,10.031,10.031,0,0,1-1.223-.486,2.316,2.316,0,0,1-1.545-2.086,1.87,1.87,0,0,1,.385-1.166,2.49,2.49,0,0,1,1.089-.789,4.239,4.239,0,0,1,1.583-.281,3.708,3.708,0,0,1,1.537.306,2.434,2.434,0,0,1,1.056.871,2.274,2.274,0,0,1,.376,1.3h-1.911a.961.961,0,0,0-.3-.754,1.16,1.16,0,0,0-.805-.268,1.308,1.308,0,0,0-.811.226.7.7,0,0,0-.3.576.7.7,0,0,0,.329.554,4.131,4.131,0,0,0,1.152.513,7.057,7.057,0,0,1,1.354.57A2.275,2.275,0,0,1-28.7-6.324a1.941,1.941,0,0,1-.789,1.638,3.5,3.5,0,0,1-2.157.592,4.279,4.279,0,0,1-1.75-.347,2.638,2.638,0,0,1-1.179-.95,2.475,2.475,0,0,1-.395-1.39h1.922a1.219,1.219,0,0,0,.329.942,1.562,1.562,0,0,0,1.073.3,1.233,1.233,0,0,0,.751-.2A.676.676,0,0,0-30.62-6.312Zm5.416-5.837,1.776,5.531,1.769-5.531h2.521V-4.2h-1.922V-6.055l.185-3.8L-22.8-4.2h-1.267L-25.99-9.861l.185,3.806V-4.2h-1.917v-7.95Zm13.366,1.48h-2.386V-4.2h-1.917v-6.47h-2.34v-1.48h6.643ZM-9.114-6.9v2.7H-11.03v-7.95h3.172a3.7,3.7,0,0,1,1.613.335,2.53,2.53,0,0,1,1.087.956,2.609,2.609,0,0,1,.385,1.406,2.3,2.3,0,0,1-.832,1.859,3.455,3.455,0,0,1-2.286.7Zm0-1.48h1.256a1.184,1.184,0,0,0,.849-.278,1.035,1.035,0,0,0,.292-.789,1.279,1.279,0,0,0-.3-.89,1.064,1.064,0,0,0-.819-.339H-9.114ZM4.465-4.2H-1.082V-5.4L1.474-8.087A3.05,3.05,0,0,0,2.418-9.8a1.189,1.189,0,0,0-.224-.781.8.8,0,0,0-.65-.268.809.809,0,0,0-.683.358A1.469,1.469,0,0,0,.6-9.595H-1.248a2.611,2.611,0,0,1,.366-1.351,2.565,2.565,0,0,1,1.016-.968,3.017,3.017,0,0,1,1.452-.349,2.968,2.968,0,0,1,1.984.592,2.125,2.125,0,0,1,.7,1.71,2.482,2.482,0,0,1-.175.914,4.012,4.012,0,0,1-.543.933A13.685,13.685,0,0,1,2.364-6.8L1.337-5.619H4.465ZM5.5-8.08l.486-4.066h4.646v1.419H7.484L7.3-9.139a2.171,2.171,0,0,1,.516-.2,2.354,2.354,0,0,1,.625-.087,2.332,2.332,0,0,1,1.819.7A2.828,2.828,0,0,1,10.9-6.76a2.821,2.821,0,0,1-.341,1.381,2.346,2.346,0,0,1-.952.956,3.026,3.026,0,0,1-1.46.333,3.255,3.255,0,0,1-1.4-.307,2.517,2.517,0,0,1-1.027-.846A2.055,2.055,0,0,1,5.35-6.456H7.2a1.044,1.044,0,0,0,.278.692.884.884,0,0,0,.658.256q.928,0,.928-1.373,0-1.269-1.136-1.269a1.133,1.133,0,0,0-.961.414Z" transform="translate(639.62 1055.57)" fill="#12263f"/>
    <path id="Trazado_105897" data-name="Trazado 105897" d="M-26.571-4.2h-1.908v-3.32H-31.3V-4.2h-1.917v-7.95H-31.3v3.157h2.823v-3.157h1.908Zm7.295-6.47h-2.386V-4.2h-1.917v-6.47h-2.342v-1.48h6.643Zm7.136,0h-2.384V-4.2h-1.918v-6.47h-2.342v-1.48h6.643Zm2.725,3.773v2.7h-1.917v-7.95h3.172a3.7,3.7,0,0,1,1.613.335,2.53,2.53,0,0,1,1.087.956,2.609,2.609,0,0,1,.385,1.406A2.3,2.3,0,0,1-5.908-7.59a3.455,3.455,0,0,1-2.284.7Zm0-1.48h1.256a1.184,1.184,0,0,0,.849-.278,1.035,1.035,0,0,0,.292-.789,1.279,1.279,0,0,0-.3-.89,1.064,1.064,0,0,0-.819-.335H-9.415ZM3.978-10.022A1.835,1.835,0,0,1,3.692-9a2.088,2.088,0,0,1-.789.71,2.3,2.3,0,0,1,.9.762,1.965,1.965,0,0,1,.333,1.144A2.08,2.08,0,0,1,3.4-4.7a3.049,3.049,0,0,1-2.023.617A3.105,3.105,0,0,1-.66-4.707a2.066,2.066,0,0,1-.748-1.679,1.99,1.99,0,0,1,.329-1.13A2.228,2.228,0,0,1-.15-8.291,2.1,2.1,0,0,1-.952-9a1.823,1.823,0,0,1-.289-1.021,2.039,2.039,0,0,1,.7-1.638,2.828,2.828,0,0,1,1.9-.6,2.849,2.849,0,0,1,1.911.6,2.039,2.039,0,0,1,.7,1.635ZM2.291-6.536a1.052,1.052,0,0,0-.254-.756.884.884,0,0,0-.669-.263A.893.893,0,0,0,.7-7.292a1.043,1.043,0,0,0-.257.756A1.052,1.052,0,0,0,.7-5.786a.89.89,0,0,0,.679.276.855.855,0,0,0,.658-.273,1.071,1.071,0,0,0,.255-.751Zm-.928-4.3A.68.68,0,0,0,.8-10.6,1.052,1.052,0,0,0,.6-9.924a1.118,1.118,0,0,0,.2.688.678.678,0,0,0,.579.263.651.651,0,0,0,.565-.263,1.153,1.153,0,0,0,.188-.688,1.057,1.057,0,0,0-.194-.672A.689.689,0,0,0,1.362-10.84Zm9.249,3.395a3.8,3.8,0,0,1-.724,2.484,2.5,2.5,0,0,1-2.039.874A2.513,2.513,0,0,1,5.8-4.966a3.79,3.79,0,0,1-.724-2.479V-8.9A3.8,3.8,0,0,1,5.8-11.382a2.506,2.506,0,0,1,2.043-.874,2.507,2.507,0,0,1,2.048.879,3.8,3.8,0,0,1,.724,2.484ZM8.771-9.13a2.836,2.836,0,0,0-.224-1.281.749.749,0,0,0-.71-.423.731.731,0,0,0-.691.395,2.671,2.671,0,0,0-.232,1.191v2.026a2.857,2.857,0,0,0,.224,1.3.751.751,0,0,0,.71.412.741.741,0,0,0,.693-.4,2.727,2.727,0,0,0,.23-1.258Z" transform="translate(713.345 1121.343)" fill="#12263f"/>
    <path id="Trazado_105134" data-name="Trazado 105134" d="M99.883,103.72H18.751a8.9,8.9,0,0,1-8.9-8.9V43.366a8.9,8.9,0,0,1,8.905-8.905H99.883a8.9,8.9,0,0,1,8.9,8.905V94.816a8.9,8.9,0,0,1-8.9,8.9Z" transform="translate(225.133 1083.553)" fill="#fffde7"/>
    <path id="Trazado_105135" data-name="Trazado 105135" d="M253.849,151.241l-18.19-4.2,4.2,18.19,4.9-4.9,5.6,5.6,4.2-4.2-5.6-5.6Z" transform="translate(44.702 993.597)" fill="#fb8c00"/>
    <path id="Trazado_105136" data-name="Trazado 105136" d="M208.892,398.865H177.231l3.958-19.788h23.745Z" transform="translate(91.388 808.195)" fill="#fb8c00"/>
    <path id="Trazado_105137" data-name="Trazado 105137" d="M9.846,300.308v6.926a8.9,8.9,0,0,0,8.9,8.9H99.883a8.9,8.9,0,0,0,8.9-8.9v-6.926Z" transform="translate(225.133 871.135)" fill="#ffecb3"/>
    <path id="Trazado_105138" data-name="Trazado 105138" d="M92.016,24.615H10.883A10.9,10.9,0,0,0,0,35.5V86.948A10.9,10.9,0,0,0,10.883,97.831h26.28L34,113.661H23.745a1.979,1.979,0,1,0,0,3.958H79.152a1.979,1.979,0,0,0,0-3.958H68.9l-3.166-15.83H92.016A10.9,10.9,0,0,0,102.9,86.948V35.5A10.9,10.9,0,0,0,92.016,24.615ZM10.883,28.573H92.015A6.934,6.934,0,0,1,98.941,35.5V78.043H3.958V74.086H15.83a1.979,1.979,0,0,0,0-3.958H3.958V35.5a6.934,6.934,0,0,1,6.926-6.926Zm53.983,85.09H38.03L41.2,97.832H61.7ZM98.938,86.948a6.934,6.934,0,0,1-6.926,6.926H10.883a6.934,6.934,0,0,1-6.926-6.926V82H98.941v4.947Z" transform="translate(233 1091.42)" fill="#12263f"/>
    <path id="Trazado_105139" data-name="Trazado 105139" d="M240.266,327.916a3.958,3.958,0,1,0-3.958-3.958A3.958,3.958,0,0,0,240.266,327.916Z" transform="translate(44.184 855.399)" fill="#12263f"/>
    <path id="Trazado_105140" data-name="Trazado 105140" d="M230.061,157.812a1.979,1.979,0,0,0,3.328.954l3.5-3.5,4.2,4.2a1.979,1.979,0,0,0,2.8,0l4.2-4.2a1.979,1.979,0,0,0,0-2.8l-4.2-4.2,3.5-3.5a1.979,1.979,0,0,0-.954-3.328l-18.187-4.2a1.979,1.979,0,0,0-2.373,2.373Zm12-13.312-2.373,2.373a1.979,1.979,0,0,0,0,2.8l4.2,4.2-1.4,1.4-4.2-4.2a1.979,1.979,0,0,0-2.8,0l-2.373,2.373-2.683-11.626Z" transform="translate(52.57 1001.464)" fill="#12263f"/>
    <path id="Trazado_105141" data-name="Trazado 105141" d="M191.374,105.559a1.979,1.979,0,0,0,2.8-2.8l-1.979-1.979a1.979,1.979,0,1,0-2.8,2.8Z" transform="translate(82.132 1031.024)" fill="#12263f"/>
    <path id="Trazado_105142" data-name="Trazado 105142" d="M174.482,143.541h2.8a1.979,1.979,0,1,0,0-3.958h-2.8a1.979,1.979,0,0,0,0,3.958Z" transform="translate(95.165 999.556)" fill="#12263f"/>
    <path id="Trazado_105143" data-name="Trazado 105143" d="M191.376,169.7l-1.979,1.979a1.979,1.979,0,1,0,2.8,2.8l1.979-1.979a1.979,1.979,0,0,0-2.8-2.8Z" transform="translate(82.13 975.954)" fill="#12263f"/>
    <path id="Trazado_105144" data-name="Trazado 105144" d="M259.719,106.139a1.973,1.973,0,0,0,1.4-.579l1.979-1.979a1.979,1.979,0,1,0-2.8-2.8l-1.978,1.979a1.979,1.979,0,0,0,1.4,3.378Z" transform="translate(27.059 1031.023)" fill="#12263f"/>
    <path id="Trazado_105145" data-name="Trazado 105145" d="M230.18,90.646a1.979,1.979,0,0,0,1.979-1.979v-2.8a1.979,1.979,0,1,0-3.958,0v2.8a1.979,1.979,0,0,0,1.979,1.977Z" transform="translate(50.661 1044.059)" fill="#12263f"/>
    <path id="Trazado_105146" data-name="Trazado 105146" d="M98.615,253.814a1.969,1.969,0,0,0,.728.888,1.962,1.962,0,0,0,.342.182,1.943,1.943,0,0,0,1.512,0,1.969,1.969,0,0,0,.888-.728,1.965,1.965,0,0,0,.182-.342,1.86,1.86,0,0,0,.112-.37,1.987,1.987,0,0,0-.112-1.144,2,2,0,0,0-.182-.341,1.921,1.921,0,0,0-.546-.546,1.963,1.963,0,0,0-.342-.182,1.86,1.86,0,0,0-.37-.112,1.948,1.948,0,0,0-.772,0,1.858,1.858,0,0,0-.37.112,1.969,1.969,0,0,0-.888.728,2.012,2.012,0,0,0-.182.341,1.987,1.987,0,0,0-.112,1.144A1.855,1.855,0,0,0,98.615,253.814Z" transform="translate(154.326 910.469)" fill="#12263f"/>
    <path id="Trazado_105147" data-name="Trazado 105147" d="M106,12.807v77.3a5.322,5.322,0,0,0,5.307,5.307l21.227-43.956L111.307,7.5A5.322,5.322,0,0,0,106,12.807Z" transform="translate(441.808 1100.449)" fill="#ffa726"/>
    <path id="Trazado_105148" data-name="Trazado 105148" d="M277.227,7.5,256,51.456l21.227,43.956a5.322,5.322,0,0,0,5.307-5.307v-77.3A5.322,5.322,0,0,0,277.227,7.5Z" transform="translate(318.341 1100.449)" fill="#ffa726"/>
    <path id="Trazado_105149" data-name="Trazado 105149" d="M271.918,7.5,256,51.456l15.918,43.956h5.307V7.5Z" transform="translate(318.341 1100.449)" fill="#3d5168"/>
    <path id="Trazado_105150" data-name="Trazado 105150" d="M136,7.5V95.412h37.146V39.34l-5.307-3.98,5.307-3.98V26.073l-5.307-3.98,5.307-3.98V7.5Z" transform="translate(417.115 1100.449)" fill="#ffecb3"/>
    <path id="Elipse_4113" data-name="Elipse 4113" d="M10.613,0A10.613,10.613,0,1,1,0,10.613,10.613,10.613,0,0,1,10.613,0Z" transform="translate(563.728 1164.022)" fill="#dae0e7"/>
    <path id="Trazado_105151" data-name="Trazado 105151" d="M291.307,150.459,286,146.48l5.307-3.98h5.307v7.959Z" transform="translate(293.648 989.329)" fill="#09213d"/>
    <path id="Trazado_105152" data-name="Trazado 105152" d="M166,142.5h26.533v7.959H166Z" transform="translate(392.421 989.329)" fill="#ffca28"/>
    <path id="Trazado_105153" data-name="Trazado 105153" d="M291.307,75.459,286,71.48l5.307-3.98h5.307v7.959Z" transform="translate(293.648 1051.063)" fill="#09213d"/>
    <path id="Trazado_105154" data-name="Trazado 105154" d="M166,67.5h26.533v7.959H166Z" transform="translate(392.421 1051.063)" fill="#ffca28"/>
    <path id="Elipse_4114" data-name="Elipse 4114" d="M5.307,0A5.307,5.307,0,1,1,0,5.307,5.307,5.307,0,0,1,5.307,0Z" transform="translate(569.035 1169.329)" fill="#039be5"/>
    <path id="Elipse_4115" data-name="Elipse 4115" d="M1.371,0A1.285,1.285,0,0,1,2.743,1.175,1.285,1.285,0,0,1,1.371,2.351,1.285,1.285,0,0,1,0,1.175,1.285,1.285,0,0,1,1.371,0Z" transform="translate(588.796 1143.903)" fill="#12263f"/>
    <path id="Trazado_105155" data-name="Trazado 105155" d="M147.586,0H105.134A6.643,6.643,0,0,0,98.5,6.634v77.3a6.643,6.643,0,0,0,6.634,6.633h42.452a6.643,6.643,0,0,0,6.633-6.634V6.634A6.643,6.643,0,0,0,147.586,0ZM101.153,83.93V6.634a3.986,3.986,0,0,1,2.653-3.749V65.36a1.327,1.327,0,0,0,2.653,0V2.653h39.8V87.912h-39.8V70.666a1.327,1.327,0,1,0-2.653,0V87.684a3.986,3.986,0,0,1-2.652-3.754Zm50.413,0a3.986,3.986,0,0,1-2.653,3.749V2.882a3.986,3.986,0,0,1,2.653,3.749Z" transform="translate(447.981 1106.623)" fill="#12263f"/>
    <path id="Trazado_105156" data-name="Trazado 105156" d="M159.827,70.613h31.84a1.327,1.327,0,0,0,1.327-1.327V61.327A1.327,1.327,0,0,0,191.666,60h-31.84a1.327,1.327,0,0,0-1.327,1.327v7.959A1.327,1.327,0,0,0,159.827,70.613Zm1.327-7.959H190.34v5.3H161.153Z" transform="translate(398.594 1057.236)" fill="#12263f"/>
    <path id="Trazado_105157" data-name="Trazado 105157" d="M159.827,145.613h31.84a1.327,1.327,0,0,0,1.327-1.327v-7.959A1.327,1.327,0,0,0,191.666,135h-31.84a1.327,1.327,0,0,0-1.327,1.327v7.959A1.327,1.327,0,0,0,159.827,145.613Zm1.327-7.959H190.34v5.3H161.153Z" transform="translate(398.594 995.502)" fill="#12263f"/>
    <path id="Trazado_105158" data-name="Trazado 105158" d="M225.134,347a6.633,6.633,0,1,0,6.634,6.633A6.633,6.633,0,0,0,225.134,347Zm0,10.613a3.98,3.98,0,1,1,3.98-3.98,3.98,3.98,0,0,1-3.98,3.98Z" transform="translate(349.208 821.003)" fill="#12263f"/>
    <path id="Trazado_105159" data-name="Trazado 105159" d="M200.438,317a11.94,11.94,0,1,0,11.937,11.939A11.94,11.94,0,0,0,200.438,317Zm0,21.227a9.286,9.286,0,1,1,9.286-9.286,9.286,9.286,0,0,1-9.286,9.286Z" transform="translate(373.903 845.695)" fill="#12263f"/>
    <path id="Trazado_105160" data-name="Trazado 105160" d="M-2882-10830.5h103.926v35.19" transform="translate(3358.366 11821.686)" fill="none" stroke="#2b3990" stroke-width="3"/>
    <path id="Trazado_105161" data-name="Trazado 105161" d="M-2778.074-10830.5H-2882v70.709" transform="translate(3165.937 11821.686)" fill="none" stroke="#2b3990" stroke-width="3"/>
  </g>
</svg>
