<svg xmlns="http://www.w3.org/2000/svg" xmlns:xlink="http://www.w3.org/1999/xlink" width="97.863" height="106.589" viewBox="0 0 97.863 106.589">
  <defs>
    <filter id="Trazado_771226" x="0" y="0" width="97.863" height="106.589" filterUnits="userSpaceOnUse">
      <feOffset dy="3" input="SourceAlpha"/>
      <feGaussianBlur stdDeviation="3" result="blur"/>
      <feFlood flood-opacity="0.161"/>
      <feComposite operator="in" in2="blur"/>
      <feComposite in="SourceGraphic"/>
    </filter>
  </defs>
  <g id="Grupo_1071744" data-name="Grupo 1071744" transform="translate(-830 -935.843)">
    <g id="Grupo_1071655" data-name="Grupo 1071655" transform="translate(-320.5 -96.5)">
      <g transform="matrix(1, 0, 0, 1, 1150.5, 1032.34)" filter="url(#Trazado_771226)">
        <path id="Trazado_771226-2" data-name="Trazado 771226" d="M483.067,305.694V277.332a14.55,14.55,0,0,0-7.1-12.523l-23.259-13.791a14.268,14.268,0,0,0-14.1-.264L414.77,263.71A14.544,14.544,0,0,0,407.2,276.5v28.623a14.553,14.553,0,0,0,6.925,12.417l22.295,13.652a14.269,14.269,0,0,0,14.121.455l24.8-13.078A14.541,14.541,0,0,0,483.067,305.694Z" transform="translate(-396.2 -240.86)" fill="#2ec49f" stroke="#fff" stroke-miterlimit="10" stroke-width="4"/>
      </g>
    </g>
    <g id="escritorio" transform="translate(848 936.701)">
      <g id="Grupo_1071743" data-name="Grupo 1071743" transform="translate(0 20.299)">
        <rect id="Rectángulo_381917" data-name="Rectángulo 381917" width="14.362" height="6.529" transform="translate(23.457 41.35)" fill="#9facba"/>
        <rect id="Rectángulo_381918" data-name="Rectángulo 381918" width="4.787" height="6.529" transform="translate(23.457 41.35)" fill="#8d9ca8"/>
        <path id="Rectángulo_381919" data-name="Rectángulo 381919" d="M-6.6-7.5H7.759a.9.9,0,0,1,.9.9V-.073a.9.9,0,0,1-.9.9H-6.6a.9.9,0,0,1-.9-.9V-6.6A.9.9,0,0,1-6.6-7.5ZM6.862-5.7H-5.7V-.971H6.862Z" transform="translate(30.06 47.952)"/>
        <path id="Trazado_771586" data-name="Trazado 771586" d="M7.5,315.868a2.394,2.394,0,0,0,2.394,2.394H64.587a2.394,2.394,0,0,0,2.394-2.394V311.8H7.5Z" transform="translate(-6.602 -276.912)" fill="#c5d3dd"/>
        <path id="Trazado_771587" data-name="Trazado 771587" d="M12.347,315.868V311.8H7.5v4.069a2.394,2.394,0,0,0,2.394,2.394h4.847A2.394,2.394,0,0,1,12.347,315.868Z" transform="translate(-6.602 -276.912)" fill="#b6c4cf"/>
        <path id="Trazado_771588" data-name="Trazado 771588" d="M57.985,312.557H53.976a.9.9,0,1,1,0-1.8h4.009a1.5,1.5,0,0,0,1.5-1.5v-3.172H1.8v3.172a1.5,1.5,0,0,0,1.5,1.5h46.5a.9.9,0,1,1,0,1.8H3.291A3.3,3.3,0,0,1,0,309.266V305.2a.9.9,0,0,1,.9-.9H60.379a.9.9,0,0,1,.9.9v4.069A3.3,3.3,0,0,1,57.985,312.557Z" transform="translate(0 -270.31)"/>
        <path id="Línea_234" data-name="Línea 234" d="M28.344-5.7H-6.6a.9.9,0,0,1-.9-.9.9.9,0,0,1,.9-.9H28.344a.9.9,0,0,1,.9.9A.9.9,0,0,1,28.344-5.7Z" transform="translate(19.767 54.481)"/>
        <rect id="Rectángulo_381920" data-name="Rectángulo 381920" width="59.481" height="29.415" transform="translate(0.898 5.472)" fill="#dff6fd"/>
        <rect id="Rectángulo_381921" data-name="Rectángulo 381921" width="4.847" height="29.415" transform="translate(0.898 5.472)" fill="#c8effe"/>
        <path id="Rectángulo_381922" data-name="Rectángulo 381922" d="M-6.6-7.5H52.879a.9.9,0,0,1,.9.9V22.813a.9.9,0,0,1-.9.9H-6.6a.9.9,0,0,1-.9-.9V-6.6A.9.9,0,0,1-6.6-7.5ZM51.981-5.7H-5.7v27.62H51.981Z" transform="translate(7.5 12.074)"/>
        <path id="Trazado_771589" data-name="Trazado 771589" d="M64.587,27.8H9.894A2.394,2.394,0,0,0,7.5,30.193v2.181H66.981V30.193A2.394,2.394,0,0,0,64.587,27.8Z" transform="translate(-6.602 -26.901)" fill="#6bd9e7"/>
        <path id="Trazado_771590" data-name="Trazado 771590" d="M60.379,26.669H.9a.9.9,0,0,1-.9-.9V23.59A3.3,3.3,0,0,1,3.291,20.3H14.242a.9.9,0,0,1,0,1.8H3.291a1.5,1.5,0,0,0-1.5,1.5v1.283H59.481V23.59a1.5,1.5,0,0,0-1.5-1.5H18.431a.9.9,0,1,1,0-1.8H57.985a3.3,3.3,0,0,1,3.291,3.291v2.181A.9.9,0,0,1,60.379,26.669Z" transform="translate(0 -20.299)"/>
        <path id="Trazado_771591" data-name="Trazado 771591" d="M9.894,27.8A2.394,2.394,0,0,0,7.5,30.193v2.181h9.585V27.8Z" transform="translate(-6.602 -26.901)" fill="#6bd9e7"/>
        <path id="Trazado_771592" data-name="Trazado 771592" d="M14.741,27.8H9.894A2.394,2.394,0,0,0,7.5,30.193v2.181h4.847V30.193A2.394,2.394,0,0,1,14.741,27.8Z" transform="translate(-6.602 -26.901)" fill="#2ed1e2"/>
        <path id="Trazado_771593" data-name="Trazado 771593" d="M3.291,20.3h7.191a.9.9,0,0,1,.9.9v4.574a.9.9,0,0,1-.9.9H.9a.9.9,0,0,1-.9-.9V23.59A3.3,3.3,0,0,1,3.291,20.3Zm6.293,1.8H3.291a1.5,1.5,0,0,0-1.5,1.5v1.283H9.585Z" transform="translate(0 -20.299)"/>
        <g id="Grupo_1071742" data-name="Grupo 1071742" transform="translate(5.356 8.737)">
          <path id="Trazado_771594" data-name="Trazado 771594" d="M358.462,100.8V121.66h11.523a.6.6,0,0,0,.6-.6V101.4a.6.6,0,0,0-.6-.6Z" transform="translate(-320.917 -99.901)" fill="#fea613"/>
          <rect id="Rectángulo_381923" data-name="Rectángulo 381923" width="4.014" height="20.861" transform="translate(37.545 0.898)" fill="#fe9901"/>
          <path id="Trazado_771595" data-name="Trazado 771595" d="M351.86,93.3h11.523a1.5,1.5,0,0,1,1.5,1.5v19.664a1.5,1.5,0,0,1-1.5,1.5H351.86a.9.9,0,0,1-.9-.9V94.2A.9.9,0,0,1,351.86,93.3Zm11.224,1.8H352.757V114.16h10.327Z" transform="translate(-314.315 -93.299)"/>
          <path id="Trazado_771596" data-name="Trazado 771596" d="M387.9,136.93V130.6a.359.359,0,0,1,.359-.359h4.356a.359.359,0,0,1,.359.359v6.329a.359.359,0,0,1-.359.359h-4.356A.359.359,0,0,1,387.9,136.93Z" transform="translate(-346.837 -125.821)" fill="#fff"/>
          <path id="Trazado_771596_-_Contorno" data-name="Trazado 771596 - Contorno" d="M386.018,131.585h-4.356a1.258,1.258,0,0,1-1.257-1.257V124a1.258,1.258,0,0,1,1.257-1.257h4.356A1.258,1.258,0,0,1,387.274,124v6.329A1.258,1.258,0,0,1,386.018,131.585Zm-3.818-1.8h3.279v-5.252H382.2Z" transform="translate(-340.234 -119.218)"/>
          <g id="Grupo_1071740" data-name="Grupo 1071740" transform="translate(0.898 0.898)">
            <path id="Trazado_771597" data-name="Trazado 771597" d="M55.884,105.028H52.852a.6.6,0,0,1-.6-.6V101.4a.6.6,0,0,1,.6-.6h3.032a.6.6,0,0,1,.6.6v3.032A.6.6,0,0,1,55.884,105.028Z" transform="translate(-52.254 -100.799)" fill="#fed402"/>
            <path id="Trazado_771598" data-name="Trazado 771598" d="M54.258,104.429V101.4a.6.6,0,0,1,.6-.6h-2a.6.6,0,0,0-.6.6v3.032a.6.6,0,0,0,.6.6h2A.6.6,0,0,1,54.258,104.429Z" transform="translate(-52.254 -100.799)" fill="#fac600"/>
            <path id="Trazado_771599" data-name="Trazado 771599" d="M55.884,174.514H52.852a.6.6,0,0,1-.6-.6v-3.032a.6.6,0,0,1,.6-.6h3.032a.6.6,0,0,1,.6.6v3.032A.6.6,0,0,1,55.884,174.514Z" transform="translate(-52.254 -161.969)" fill="#00f2a6"/>
            <path id="Trazado_771600" data-name="Trazado 771600" d="M54.258,173.914v-3.032a.6.6,0,0,1,.6-.6h-2a.6.6,0,0,0-.6.6v3.032a.6.6,0,0,0,.6.6h2A.6.6,0,0,1,54.258,173.914Z" transform="translate(-52.254 -161.968)" fill="#05e39c"/>
            <path id="Trazado_771601" data-name="Trazado 771601" d="M55.884,244H52.852a.6.6,0,0,1-.6-.6v-3.032a.6.6,0,0,1,.6-.6h3.032a.6.6,0,0,1,.6.6V243.4A.6.6,0,0,1,55.884,244Z" transform="translate(-52.254 -223.138)" fill="#6bd9e7"/>
            <path id="Trazado_771602" data-name="Trazado 771602" d="M54.258,243.4v-3.032a.6.6,0,0,1,.6-.6h-2a.6.6,0,0,0-.6.6V243.4a.6.6,0,0,0,.6.6h2A.6.6,0,0,1,54.258,243.4Z" transform="translate(-52.254 -223.138)" fill="#2ed1e2"/>
          </g>
          <g id="Grupo_1071741" data-name="Grupo 1071741">
            <path id="Trazado_771603" data-name="Trazado 771603" d="M49.282,99.323H46.25a1.5,1.5,0,0,1-1.5-1.5V94.795a1.5,1.5,0,0,1,1.5-1.5h3.032a1.5,1.5,0,0,1,1.5,1.5v3.032A1.5,1.5,0,0,1,49.282,99.323Zm-2.732-1.8h2.433V95.094H46.549Z" transform="translate(-44.754 -93.299)"/>
            <path id="Trazado_771604" data-name="Trazado 771604" d="M49.282,168.809H46.25a1.5,1.5,0,0,1-1.5-1.5v-3.032a1.5,1.5,0,0,1,1.5-1.5h3.032a1.5,1.5,0,0,1,1.5,1.5v3.032A1.5,1.5,0,0,1,49.282,168.809Zm-2.732-1.8h2.433V164.58H46.549Z" transform="translate(-44.754 -154.469)"/>
            <path id="Trazado_771605" data-name="Trazado 771605" d="M49.282,238.294H46.25a1.5,1.5,0,0,1-1.5-1.5v-3.032a1.5,1.5,0,0,1,1.5-1.5h3.032a1.5,1.5,0,0,1,1.5,1.5V236.8A1.5,1.5,0,0,1,49.282,238.294Zm-2.732-1.8h2.433v-2.433H46.549Z" transform="translate(-44.754 -215.638)"/>
          </g>
          <path id="Trazado_771606" data-name="Trazado 771606" d="M159.4,121.66H132.937a.6.6,0,0,1-.6-.6V101.4a.6.6,0,0,1,.6-.6H159.4Z" transform="translate(-121.857 -99.901)" fill="#fff"/>
          <path id="Trazado_771607" data-name="Trazado 771607" d="M152.8,115.955H126.335a1.5,1.5,0,0,1-1.5-1.5V94.8a1.5,1.5,0,0,1,1.5-1.5H152.8a.9.9,0,0,1,.9.9v20.861A.9.9,0,0,1,152.8,115.955Zm-26.165-1.8H151.9V95.094H126.634Z" transform="translate(-115.254 -93.299)"/>
          <path id="Línea_235" data-name="Línea 235" d="M8.535-5.7H-6.6a.9.9,0,0,1-.9-.9.9.9,0,0,1,.9-.9H8.535a.9.9,0,0,1,.9.9A.9.9,0,0,1,8.535-5.7Z" transform="translate(25.063 16.521)"/>
          <path id="Línea_236" data-name="Línea 236" d="M-5.563-5.7H-6.6a.9.9,0,0,1-.9-.9.9.9,0,0,1,.9-.9h1.039a.9.9,0,0,1,.9.9A.9.9,0,0,1-5.563-5.7Z" transform="translate(21.031 16.521)"/>
          <path id="Línea_237" data-name="Línea 237" d="M12.567-5.7H-6.6a.9.9,0,0,1-.9-.9.9.9,0,0,1,.9-.9H12.567a.9.9,0,0,1,.9.9A.9.9,0,0,1,12.567-5.7Z" transform="translate(21.031 20.186)"/>
          <path id="Línea_238" data-name="Línea 238" d="M3.546-5.7H-6.6a.9.9,0,0,1-.9-.9.9.9,0,0,1,.9-.9H3.546a.9.9,0,0,1,.9.9A.9.9,0,0,1,3.546-5.7Z" transform="translate(21.031 23.85)"/>
          <path id="Trazado_771608" data-name="Trazado 771608" d="M159.4,105.873H132.339V101.4a.6.6,0,0,1,.6-.6H159.4Z" transform="translate(-121.857 -99.901)" fill="#4f66d0"/>
          <path id="Trazado_771609" data-name="Trazado 771609" d="M152.8,100.168H125.737a.9.9,0,0,1-.9-.9V94.8a1.5,1.5,0,0,1,1.5-1.5H152.8a.9.9,0,0,1,.9.9v5.074A.9.9,0,0,1,152.8,100.168Zm-26.165-1.8H151.9V95.094H126.634Z" transform="translate(-115.254 -93.299)"/>
          <path id="Trazado_771610" data-name="Trazado 771610" d="M137.413,105.873h-5.074V101.4a.6.6,0,0,1,.6-.6h4.476Z" transform="translate(-121.857 -99.901)" fill="#314dc9"/>
          <path id="Trazado_771611" data-name="Trazado 771611" d="M130.811,100.168h-5.074a.9.9,0,0,1-.9-.9V94.8a1.5,1.5,0,0,1,1.5-1.5h4.476a.9.9,0,0,1,.9.9v5.074A.9.9,0,0,1,130.811,100.168Zm-4.177-1.8h3.279V95.094h-3.279Z" transform="translate(-115.254 -93.299)"/>
          <path id="Línea_239" data-name="Línea 239" d="M-1.528-5.7H-6.6a.9.9,0,0,1-.9-.9.9.9,0,0,1,.9-.9h5.074a.9.9,0,0,1,.9.9A.9.9,0,0,1-1.528-5.7Z" transform="translate(47.671 24.837)"/>
          <path id="Línea_240" data-name="Línea 240" d="M-1.528-5.7H-6.6a.9.9,0,0,1-.9-.9.9.9,0,0,1,.9-.9h5.074a.9.9,0,0,1,.9.9A.9.9,0,0,1-1.528-5.7Z" transform="translate(47.671 21.454)"/>
        </g>
      </g>
      <path id="Trazado_771612" data-name="Trazado 771612" d="M51.243,457.438H8.1a.6.6,0,0,1-.6-.6V454.4a.6.6,0,0,1,.6-.6H51.243a.6.6,0,0,1,.6.6v2.442A.6.6,0,0,1,51.243,457.438Z" transform="translate(-6.602 -381.619)" fill="#c5d3dd"/>
      <path id="Trazado_771613" data-name="Trazado 771613" d="M13.6,456.839V454.4a.6.6,0,0,1,.6-.6H8.1a.6.6,0,0,0-.6.6v2.442a.6.6,0,0,0,.6.6h6.1A.6.6,0,0,1,13.6,456.839Z" transform="translate(-6.602 -381.619)" fill="#b6c4cf"/>
      <path id="Trazado_771614" data-name="Trazado 771614" d="M44.641,451.733H1.5a1.5,1.5,0,0,1-1.5-1.5V447.8a1.5,1.5,0,0,1,1.5-1.5h9.156a.9.9,0,0,1,0,1.8H1.8v1.843H44.342v-1.843H14.84a.9.9,0,0,1,0-1.8h29.8a1.5,1.5,0,0,1,1.5,1.5v2.442A1.5,1.5,0,0,1,44.641,451.733Z" transform="translate(0 -375.016)"/>
      <path id="Trazado_771615" data-name="Trazado 771615" d="M420.87,440.028H410.1a.6.6,0,0,1-.6-.6v-1.341a4.066,4.066,0,0,1,4.066-4.066H416.8a4.066,4.066,0,0,1,4.066,4.066v1.94Z" transform="translate(-360.491 -364.209)" fill="#c5d3dd"/>
      <path id="Trazado_771616" data-name="Trazado 771616" d="M413.389,439.43v-1.341a4.065,4.065,0,0,1,3.74-4.052c-.107-.009-.216-.014-.326-.014h-3.238a4.066,4.066,0,0,0-4.066,4.066v1.341a.6.6,0,0,0,.6.6h3.89A.6.6,0,0,1,413.389,439.43Z" transform="translate(-360.49 -364.209)" fill="#b6c4cf"/>
      <path id="Trazado_771617" data-name="Trazado 771617" d="M414.267,434.324H403.5a1.5,1.5,0,0,1-1.5-1.5v-1.341a4.969,4.969,0,0,1,4.963-4.963H410.2a4.969,4.969,0,0,1,4.963,4.963v1.94A.9.9,0,0,1,414.267,434.324Zm-10.472-1.8h9.575v-1.042a3.172,3.172,0,0,0-3.168-3.168h-3.238a3.172,3.172,0,0,0-3.168,3.168Z" transform="translate(-353.889 -357.607)"/>
    </g>
  </g>
</svg>
