<svg xmlns="http://www.w3.org/2000/svg" xmlns:xlink="http://www.w3.org/1999/xlink" width="97.863" height="106.589" viewBox="0 0 97.863 106.589">
  <defs>
    <filter id="Trazado_771226" x="0" y="0" width="97.863" height="106.589" filterUnits="userSpaceOnUse">
      <feOffset dy="3" input="SourceAlpha"/>
      <feGaussianBlur stdDeviation="3" result="blur"/>
      <feFlood flood-opacity="0.161"/>
      <feComposite operator="in" in2="blur"/>
      <feComposite in="SourceGraphic"/>
    </filter>
  </defs>
  <g id="Grupo_1071750" data-name="Grupo 1071750" transform="translate(11 8.157)">
    <g id="Grupo_1071655" data-name="Grupo 1071655">
      <g transform="matrix(1, 0, 0, 1, -11, -8.16)" filter="url(#Trazado_771226)">
        <path id="Trazado_771226-2" data-name="Trazado 771226" d="M483.067,305.694V277.332a14.55,14.55,0,0,0-7.1-12.523l-23.259-13.791a14.268,14.268,0,0,0-14.1-.264L414.77,263.71A14.544,14.544,0,0,0,407.2,276.5v28.623a14.553,14.553,0,0,0,6.925,12.417l22.295,13.652a14.269,14.269,0,0,0,14.121.455l24.8-13.078A14.541,14.541,0,0,0,483.067,305.694Z" transform="translate(-396.2 -240.86)" fill="#2ec49f" stroke="#fff" stroke-miterlimit="10" stroke-width="4"/>
      </g>
    </g>
    <g id="satelite" transform="translate(10 15)">
      <g id="Grupo_54518" data-name="Grupo 54518" transform="translate(0.806 0.806)">
        <g id="Grupo_54517" data-name="Grupo 54517" transform="translate(0 0)">
          <g id="Grupo_54511" data-name="Grupo 54511" transform="translate(11.398 11.383)">
            <g id="Grupo_54510" data-name="Grupo 54510" transform="translate(0 0)">
              <path id="Trazado_100689" data-name="Trazado 100689" d="M0,0H26.383V3.819H0Z" transform="translate(4.626 23.299) rotate(-45)" fill="#c9e0fd"/>
              <g id="Grupo_54509" data-name="Grupo 54509">
                <g id="Grupo_54508" data-name="Grupo 54508">
                  <g id="Grupo_54507" data-name="Grupo 54507">
                    <path id="Trazado_100690" data-name="Trazado 100690" d="M123.726,119.184l-4.3,4.3-5.433-2.073a.661.661,0,0,1-.232-1.087l6.716-6.713a.662.662,0,0,1,1.082.22Z" transform="translate(-113.563 -113.421)" fill="#c9e0fd"/>
                    <path id="Trazado_100691" data-name="Trazado 100691" d="M170.2,162.994l-7.207,7.206a1.319,1.319,0,0,1-1.865,0l-15.247-15.246a2.2,2.2,0,0,1,0-3.111l5.961-5.961a2.2,2.2,0,0,1,3.111,0L170.2,161.129A1.319,1.319,0,0,1,170.2,162.994Z" transform="translate(-141.834 -141.819)" fill="#eaf2ff"/>
                    <path id="Trazado_100692" data-name="Trazado 100692" d="M249.672,256.878l7.2-7.2a1.319,1.319,0,0,0,0-1.865l-5.454-5.454a11.7,11.7,0,0,0-9.072,9.072l5.454,5.454a1.319,1.319,0,0,0,1.868,0Z" transform="translate(-228.511 -228.499)" fill="#c9e0fd"/>
                  </g>
                  <ellipse id="Elipse_4077" data-name="Elipse 4077" cx="2.4" cy="2.4" rx="2.4" ry="2.4" transform="translate(28.995 29.009)" fill="#bcd6f9"/>
                </g>
              </g>
            </g>
          </g>
          <g id="Grupo_54516" data-name="Grupo 54516">
            <g id="Grupo_54513" data-name="Grupo 54513" transform="translate(0 29.488)">
              <g id="Grupo_54512" data-name="Grupo 54512" transform="translate(0 0)">
                <path id="Trazado_100693" data-name="Trazado 100693" d="M30.967,292.8,18.415,305.347a1.544,1.544,0,0,1-2.179,0l-8.294-8.294a1.544,1.544,0,0,1,0-2.179l12.552-12.551a1.544,1.544,0,0,1,2.179,0l8.294,8.294a1.544,1.544,0,0,1,0,2.178Z" transform="translate(-7.493 -281.874)" fill="#9bc4f9"/>
                <path id="Trazado_100694" data-name="Trazado 100694" d="M62.368,322.014,57.4,317.049a1.543,1.543,0,0,1,0,2.179L44.852,331.779a1.544,1.544,0,0,1-2.179,0l4.965,4.965a1.543,1.543,0,0,0,2.179,0l12.552-12.552a1.543,1.543,0,0,0,0-2.179Z" transform="translate(-38.891 -313.271)" fill="#7fb2f9"/>
              </g>
            </g>
            <g id="Grupo_54515" data-name="Grupo 54515" transform="translate(29.488)">
              <g id="Grupo_54514" data-name="Grupo 54514" transform="translate(0)">
                <path id="Trazado_100695" data-name="Trazado 100695" d="M305.347,18.415,292.8,30.967a1.543,1.543,0,0,1-2.179,0l-8.294-8.294a1.543,1.543,0,0,1,0-2.179L294.874,7.943a1.544,1.544,0,0,1,2.179,0l8.294,8.294A1.543,1.543,0,0,1,305.347,18.415Z" transform="translate(-281.873 -7.493)" fill="#9bc4f9"/>
                <path id="Trazado_100696" data-name="Trazado 100696" d="M336.731,47.621l-4.966-4.966a1.54,1.54,0,0,1,0,2.179L319.214,57.385a1.543,1.543,0,0,1-2.179,0L322,62.351a1.543,1.543,0,0,0,2.179,0L336.731,49.8a1.543,1.543,0,0,0,0-2.179Z" transform="translate(-313.258 -38.877)" fill="#7fb2f9"/>
              </g>
            </g>
          </g>
        </g>
        <path id="Trazado_100697" data-name="Trazado 100697" d="M211,210.807a2.31,2.31,0,0,1-3.266,0l-3.464-3.464a2.31,2.31,0,1,1,3.266-3.266L211,207.541A2.31,2.31,0,0,1,211,210.807Z" transform="translate(-182.515 -182.348)" fill="#e2916b"/>
        <path id="Trazado_100698" data-name="Trazado 100698" d="M301.172,287.06a.614.614,0,0,0-.235-1.014,11.7,11.7,0,0,0-14.891,14.891.614.614,0,0,0,1.014.235Z" transform="translate(-255.535 -255.536)" fill="#9bc4f9"/>
      </g>
      <g id="Grupo_54519" data-name="Grupo 54519" transform="translate(0 0)">
        <path id="Trazado_100699" data-name="Trazado 100699" d="M38.467,24.852a2.349,2.349,0,0,0,3.319,0L54.337,12.3a2.349,2.349,0,0,0,0-3.319L46.043.687a2.349,2.349,0,0,0-3.319,0L30.173,13.239a2.349,2.349,0,0,0,0,3.319L32.4,18.784l-1.7,1.7-4.8-4.8a3,3,0,0,0-3.745-.407L20.941,12.3a1.469,1.469,0,0,0-2.4-.486l-6.714,6.714a1.469,1.469,0,0,0,.515,2.41l2.982,1.138a3.01,3.01,0,0,0,.357,3.819l.571.571a.806.806,0,1,0,1.14-1.14l-.571-.571a1.4,1.4,0,0,1,0-1.971l5.96-5.961a1.393,1.393,0,0,1,1.971,0L38.432,30.5A12.513,12.513,0,0,0,30.5,38.433L20.065,28a.806.806,0,0,0-1.14,1.14L20.484,30.7l-1.7,1.7-2.227-2.227a2.349,2.349,0,0,0-3.319,0L.685,42.726a2.349,2.349,0,0,0,0,3.319L8.98,54.338a2.349,2.349,0,0,0,3.319,0L24.85,41.785a2.346,2.346,0,0,0,0-3.319l-2.227-2.225,1.7-1.7,5.717,5.72a12.534,12.534,0,0,0,.511,6.212,1.42,1.42,0,0,0,2.346.542l3.648-3.646,3.866.574a3.206,3.206,0,1,0,3.528-3.528l-.576-3.865L47.013,32.9h0a1.42,1.42,0,0,0-.542-2.346,12.533,12.533,0,0,0-6.213-.509l-5.72-5.72,1.7-1.7ZM16.52,20.807l-3.4-1.3,6.4-6.4,1.355,3.336Zm-2.143,10.5a.734.734,0,0,1,1.039,0l3.577,3.577L15.182,38.7l-4.1-4.094ZM9.945,35.744l4.1,4.1-3.687,3.687-4.1-4.1ZM1.825,44.9a.735.735,0,0,1,0-1.039l3.292-3.294,4.1,4.1L5.4,48.481ZM11.158,53.2a.735.735,0,0,1-1.039,0L6.543,49.619l3.811-3.81,4.1,4.1Zm4.432-4.432-4.1-4.1,3.687-3.687,4.1,4.1Zm8.12-9.156a.734.734,0,0,1,0,1.039l-3.292,3.292-4.1-4.1,3.811-3.811ZM21.484,35.1l-1.561-1.561,1.7-1.7L23.187,33.4Zm19.165,7.244-2.682-.4,3.981-3.981.4,2.682A3.2,3.2,0,0,0,40.649,42.346Zm2.95-.34a1.593,1.593,0,1,1-1.127.466,1.593,1.593,0,0,1,1.127-.466Zm2.053-10.024L31.981,45.653A10.9,10.9,0,0,1,45.652,31.982ZM53.2,10.121a.734.734,0,0,1,0,1.039L49.9,14.452l-.8-.8a.806.806,0,1,0-1.14,1.14l.8.8-3.687,3.687-4.1-4.1L44.667,11.5l.636.636a.806.806,0,0,0,1.14-1.14l-.634-.636L49.62,6.545ZM43.865,1.827a.734.734,0,0,1,1.039,0L48.48,5.4,44.669,9.214l-4.1-4.095ZM39.433,6.26l4.1,4.1-3.687,3.687-4.1-4.1Zm-8.122,9.158a.735.735,0,0,1,0-1.039L34.6,11.087l4.1,4.1-3.811,3.811ZM33.4,23.19l-1.561-1.561,1.7-1.7.779.779h0l.779.779Zm6.446-6.867,4.1,4.1-3.292,3.292a.735.735,0,0,1-1.039,0L36.03,20.134Z" transform="translate(0.001 -0.001)"/>
        <path id="Trazado_100700" data-name="Trazado 100700" d="M204.866,204.678a3.119,3.119,0,0,0,0-4.406l-3.464-3.464A3.116,3.116,0,1,0,197,201.214l3.464,3.464a3.114,3.114,0,0,0,4.406,0Zm-6.73-6.73a1.5,1.5,0,0,1,2.126,0l3.464,3.464a1.5,1.5,0,1,1-2.126,2.126l-3.464-3.464A1.5,1.5,0,0,1,198.136,197.948Z" transform="translate(-175.01 -174.843)"/>
      </g>
    </g>
  </g>
</svg>
