<svg xmlns="http://www.w3.org/2000/svg" xmlns:xlink="http://www.w3.org/1999/xlink" width="97.863" height="106.589" viewBox="0 0 97.863 106.589">
  <defs>
    <filter id="Trazado_771226" x="0" y="0" width="97.863" height="106.589" filterUnits="userSpaceOnUse">
      <feOffset dy="3" input="SourceAlpha"/>
      <feGaussianBlur stdDeviation="3" result="blur"/>
      <feFlood flood-opacity="0.161"/>
      <feComposite operator="in" in2="blur"/>
      <feComposite in="SourceGraphic"/>
    </filter>
  </defs>
  <g id="Grupo_1071747" data-name="Grupo 1071747" transform="translate(11 8.157)">
    <g id="Grupo_1071655" data-name="Grupo 1071655">
      <g transform="matrix(1, 0, 0, 1, -11, -8.16)" filter="url(#Trazado_771226)">
        <path id="Trazado_771226-2" data-name="Trazado 771226" d="M483.067,305.694V277.332a14.55,14.55,0,0,0-7.1-12.523l-23.259-13.791a14.268,14.268,0,0,0-14.1-.264L414.77,263.71A14.544,14.544,0,0,0,407.2,276.5v28.623a14.553,14.553,0,0,0,6.925,12.417l22.295,13.652a14.269,14.269,0,0,0,14.121.455l24.8-13.078A14.541,14.541,0,0,0,483.067,305.694Z" transform="translate(-396.2 -240.86)" fill="#2ec49f" stroke="#fff" stroke-miterlimit="10" stroke-width="4"/>
      </g>
    </g>
    <g id="termometro" transform="translate(15.363 15.423)">
      <g id="Grupo_54536" data-name="Grupo 54536" transform="translate(0.893 0.893)">
        <g id="Grupo_54528" data-name="Grupo 54528" transform="translate(3.572 50.003)">
          <path id="Trazado_100712" data-name="Trazado 100712" d="M19.144,58h12.5a4.717,4.717,0,0,1-4.572,3.572h-10.5A4.717,4.717,0,0,1,12,58Z" transform="translate(-12 -58)" fill="#aab2bd"/>
        </g>
        <g id="Grupo_54529" data-name="Grupo 54529" transform="translate(7.144 0)">
          <path id="Trazado_100713" data-name="Trazado 100713" d="M26.715,9.144V19.858a1.791,1.791,0,0,1-1.786,1.786H23.144V9.144A7.141,7.141,0,0,0,16,2h3.572A7.145,7.145,0,0,1,26.715,9.144Z" transform="translate(-16 -2)" fill="#aab2bd"/>
        </g>
        <g id="Grupo_54530" data-name="Grupo 54530" transform="translate(0 0)">
          <path id="Trazado_100714" data-name="Trazado 100714" d="M22.287,9.144v12.5H9.786A1.791,1.791,0,0,1,8,19.858V9.144a7.144,7.144,0,1,1,14.287,0Z" transform="translate(-8 -2)" fill="#e6e9ed"/>
        </g>
        <g id="Grupo_54531" data-name="Grupo 54531" transform="translate(3.572 5.358)">
          <path id="Trazado_100715" data-name="Trazado 100715" d="M19.144,8.893V14.25a.9.9,0,0,1-.893.893H12.893A.9.9,0,0,1,12,14.25V8.893A.9.9,0,0,1,12.893,8H18.25A.9.9,0,0,1,19.144,8.893Z" transform="translate(-12 -8)" fill="#3bafda"/>
        </g>
        <g id="Grupo_54532" data-name="Grupo 54532" transform="translate(3.437 1.786)">
          <path id="Trazado_100716" data-name="Trazado 100716" d="M47.7,4V20.153l-9.644,2.634a8.716,8.716,0,0,0-6.372,9.376l1.706,15.314c.018.188.027.366.027.553a5.017,5.017,0,0,1-.839,2.768l-.951,1.42h-12.5A37.321,37.321,0,0,1,26.467,32.9l1.053-1.4a2.68,2.68,0,0,0-2.143-4.286,3.674,3.674,0,0,0-1.688.4L18.5,30.208a5.493,5.493,0,0,1-6.34-1.027l-.312-.312q.134-3.5.134-7.009h12.5a1.791,1.791,0,0,0,1.785-1.785V9.358A7.118,7.118,0,0,0,23.851,4Z" transform="translate(-11.85 -4)" fill="#e6e9ed"/>
        </g>
        <g id="Grupo_54533" data-name="Grupo 54533" transform="translate(1.786 25.001)">
          <path id="Trazado_100717" data-name="Trazado 100717" d="M10.75,44.287q.669-6.307.9-12.634l.312.312a5.493,5.493,0,0,0,6.34,1.027L23.49,30.4a3.674,3.674,0,0,1,1.688-.4,2.679,2.679,0,0,1,2.143,4.286l-1.052,1.4A37.321,37.321,0,0,0,18.929,55H11.786l-.964-1.447a4.8,4.8,0,0,1-.786-2.124A4.351,4.351,0,0,1,10,50.838a4.617,4.617,0,0,1,.036-.607l.3-2.375.009-.09q.214-1.741.4-3.482Z" transform="translate(-10 -30)" fill="#5cd6b3"/>
        </g>
        <g id="Grupo_54534" data-name="Grupo 54534" transform="translate(39.289 1.786)">
          <path id="Trazado_100718" data-name="Trazado 100718" d="M55.572,5.786V17.814a1.787,1.787,0,0,1-1.313,1.722L52,20.153V4h1.786A1.791,1.791,0,0,1,55.572,5.786Z" transform="translate(-52 -4)" fill="#5cd6b3"/>
        </g>
        <g id="Grupo_54535" data-name="Grupo 54535" transform="translate(21.43 5.358)">
          <path id="Trazado_100719" data-name="Trazado 100719" d="M46.287,9.786V12.8a1.788,1.788,0,0,1-1.411,1.75l-10.92,2.339a1.462,1.462,0,0,1-.339.036A1.616,1.616,0,0,1,32,15.313V9.786A1.791,1.791,0,0,1,33.786,8H44.5A1.791,1.791,0,0,1,46.287,9.786Z" transform="translate(-32 -8)" fill="#5cd6b3"/>
        </g>
      </g>
      <path id="Trazado_100720" data-name="Trazado 100720" d="M12.786,15.929h5.358a1.788,1.788,0,0,0,1.786-1.786V8.786A1.788,1.788,0,0,0,18.144,7H12.786A1.788,1.788,0,0,0,11,8.786v5.358A1.788,1.788,0,0,0,12.786,15.929Zm0-7.144h5.358v5.358H12.786Z" transform="translate(-7.428 -1.642)"/>
      <path id="Trazado_100721" data-name="Trazado 100721" d="M15,19h1.786v1.786H15Z" transform="translate(-7.856 -2.927)"/>
      <path id="Trazado_100722" data-name="Trazado 100722" d="M19,19h1.786v1.786H19Z" transform="translate(-8.285 -2.927)"/>
      <path id="Trazado_100723" data-name="Trazado 100723" d="M11,19h1.786v1.786H11Z" transform="translate(-7.428 -2.927)"/>
      <path id="Trazado_100724" data-name="Trazado 100724" d="M9.679,22.43h.881A186.321,186.321,0,0,1,9.14,44.552l-.308,2.468a5.837,5.837,0,0,0-.045.718,5.768,5.768,0,0,0,.968,3.2l.906,1.359a5.593,5.593,0,0,0,5.376,4.056h10.5A5.593,5.593,0,0,0,31.91,52.3l.89-1.336a5.855,5.855,0,0,0,.987-3.261,5.628,5.628,0,0,0-.037-.649l-1.7-15.315A8,8,0,0,1,32,30.876a7.845,7.845,0,0,1,5.768-7.552l11.9-3.247a2.685,2.685,0,0,0,1.974-2.583V5.464a2.682,2.682,0,0,0-2.682-2.679H23.648A8,8,0,0,0,18.608,1H15.037A8.046,8.046,0,0,0,7,9.037V19.751A2.682,2.682,0,0,0,9.679,22.43ZM11.942,51l-.7-1.048a3.961,3.961,0,0,1-.377-.738h3.277V47.432H10.59c0-.063,0-.127.011-.191l.2-1.595h5.127V43.86H11.011c.071-.594.13-1.19.195-1.786h6.509V40.288H11.4q.5-4.941.725-9.914a6.334,6.334,0,0,0,3.4.985,6.412,6.412,0,0,0,2.855-.674l5.185-2.59a2.9,2.9,0,0,1,1.293-.305,1.786,1.786,0,0,1,1.43,2.855l-1.048,1.4A38.19,38.19,0,0,0,17.815,51Zm14.592,3.572h-10.5a3.813,3.813,0,0,1-3.23-1.786H29.764a3.814,3.814,0,0,1-3.23,1.788ZM37.3,21.6a9.611,9.611,0,0,0-7.025,10.333l1.7,15.319A4.005,4.005,0,0,1,32,47.7a4.076,4.076,0,0,1-.689,2.27L30.631,51H19.613a36.411,36.411,0,0,1,7.054-17.888l1.049-1.4A3.572,3.572,0,0,0,24.859,26a4.7,4.7,0,0,0-2.091.494l-5.185,2.592a4.6,4.6,0,0,1-5.31-.861l-.045-.045q.1-2.879.115-5.752H23.965a2.682,2.682,0,0,0,2.679-2.679V9.037a7.989,7.989,0,0,0-1.359-4.464h21V19.153ZM49.86,5.464V17.494a.894.894,0,0,1-.658.861l-1.128.308V4.572h.893a.894.894,0,0,1,.893.893Zm-25,3.572V19.751a.894.894,0,0,1-.893.893h-.892V9.037a8.02,8.02,0,0,0-2.688-5.993,6.262,6.262,0,0,1,4.473,5.993Zm-16.074,0a6.25,6.25,0,0,1,12.5,0V20.644H9.679a.894.894,0,0,1-.893-.893Z" transform="translate(-7 -1)"/>
      <path id="Trazado_100725" data-name="Trazado 100725" d="M44.394,7H33.679A2.682,2.682,0,0,0,31,9.679v5.53a2.511,2.511,0,0,0,2.508,2.508,2.559,2.559,0,0,0,.525-.057l10.921-2.342A2.692,2.692,0,0,0,47.074,12.7V9.679A2.682,2.682,0,0,0,44.394,7Zm.893,5.7a.9.9,0,0,1-.706.873l-10.92,2.34a.724.724,0,0,1-.875-.7V9.681a.894.894,0,0,1,.893-.893H44.394a.894.894,0,0,1,.893.893Z" transform="translate(-9.57 -1.642)"/>
      <path id="Trazado_100726" data-name="Trazado 100726" d="M35,11h1.786v1.786H35Z" transform="translate(-9.998 -2.071)"/>
      <path id="Trazado_100727" data-name="Trazado 100727" d="M39,11h1.786v1.786H39Z" transform="translate(-10.427 -2.071)"/>
      <path id="Trazado_100728" data-name="Trazado 100728" d="M43,11h1.786v1.786H43Z" transform="translate(-10.855 -2.071)"/>
    </g>
  </g>
</svg>
