<svg xmlns="http://www.w3.org/2000/svg" xmlns:xlink="http://www.w3.org/1999/xlink" width="97.863" height="106.589" viewBox="0 0 97.863 106.589">
  <defs>
    <filter id="Trazado_771226" x="0" y="0" width="97.863" height="106.589" filterUnits="userSpaceOnUse">
      <feOffset dy="3" input="SourceAlpha"/>
      <feGaussianBlur stdDeviation="3" result="blur"/>
      <feFlood flood-opacity="0.161"/>
      <feComposite operator="in" in2="blur"/>
      <feComposite in="SourceGraphic"/>
    </filter>
  </defs>
  <g id="Grupo_1071745" data-name="Grupo 1071745" transform="translate(-830 -935.843)">
    <g id="Grupo_1071655" data-name="Grupo 1071655" transform="translate(-320.5 -96.5)">
      <g transform="matrix(1, 0, 0, 1, 1150.5, 1032.34)" filter="url(#Trazado_771226)">
        <path id="Trazado_771226-2" data-name="Trazado 771226" d="M483.067,305.694V277.332a14.55,14.55,0,0,0-7.1-12.523l-23.259-13.791a14.268,14.268,0,0,0-14.1-.264L414.77,263.71A14.544,14.544,0,0,0,407.2,276.5v28.623a14.553,14.553,0,0,0,6.925,12.417l22.295,13.652a14.269,14.269,0,0,0,14.121.455l24.8-13.078A14.541,14.541,0,0,0,483.067,305.694Z" transform="translate(-396.2 -240.86)" fill="#2ec49f" stroke="#fff" stroke-miterlimit="10" stroke-width="4"/>
      </g>
    </g>
    <g id="torre" transform="translate(853 954)">
      <path id="Trazado_100631" data-name="Trazado 100631" d="M99.661,106.566H92.926L82.131,71,71.337,106.566H64.6L82.131,48.8Zm0,0" transform="translate(-56.41 -42.616)" fill="#4c5275"/>
      <path id="Trazado_100632" data-name="Trazado 100632" d="M172.121,12.846A5.221,5.221,0,1,1,166.9,7.625a5.221,5.221,0,0,1,5.221,5.221Zm0,0" transform="translate(-141.179 -6.658)" fill="#ffbd48"/>
      <path id="Trazado_100633" data-name="Trazado 100633" d="M197.425,15.138a5.225,5.225,0,0,1-3.382,4.889,5.223,5.223,0,0,1,0-9.779A5.224,5.224,0,0,1,197.425,15.138Zm0,0" transform="translate(-166.485 -8.95)" fill="#ffdb45"/>
      <path id="Trazado_100634" data-name="Trazado 100634" d="M351.92.765a.967.967,0,1,0-1.368,1.368,16.479,16.479,0,0,1,0,23.279.967.967,0,1,0,1.368,1.368,18.415,18.415,0,0,0,0-26.012Zm0,0" transform="translate(-305.857 -0.421)"/>
      <path id="Trazado_100635" data-name="Trazado 100635" d="M329.252,35.438a11.928,11.928,0,0,1-3.512,8.492.967.967,0,1,0,1.368,1.368,13.959,13.959,0,0,0,0-19.72.967.967,0,0,0-1.368,1.368,11.929,11.929,0,0,1,3.512,8.492Zm0,0" transform="translate(-284.191 -22.087)"/>
      <path id="Trazado_100636" data-name="Trazado 100636" d="M300.929,63.823a.967.967,0,0,0,1.368,0,9.506,9.506,0,0,0,0-13.427.967.967,0,0,0-1.368,1.368,7.569,7.569,0,0,1,0,10.693.968.968,0,0,0,0,1.368Zm0,0" transform="translate(-262.527 -43.756)"/>
      <path id="Trazado_100637" data-name="Trazado 100637" d="M276.116,82.339a.967.967,0,0,0,1.368,0,5.051,5.051,0,0,0,0-7.136.967.967,0,1,0-1.368,1.368,3.115,3.115,0,0,1,0,4.4.967.967,0,0,0,0,1.367Zm0,0" transform="translate(-240.86 -65.421)"/>
      <path id="Trazado_100638" data-name="Trazado 100638" d="M1.934,13.772A16.346,16.346,0,0,1,6.75,2.133.968.968,0,0,0,5.379.767a18.412,18.412,0,0,0,0,26.011A.967.967,0,0,0,6.747,25.41,16.346,16.346,0,0,1,1.93,13.772Zm0,0" transform="translate(0 -0.422)"/>
      <path id="Trazado_100639" data-name="Trazado 100639" d="M39.153,45.3a.967.967,0,0,0,1.368-1.367,12.023,12.023,0,0,1,0-16.985.967.967,0,0,0-1.368-1.368,13.959,13.959,0,0,0,0,19.719Zm0,0" transform="translate(-30.628 -22.091)"/>
      <path id="Trazado_100640" data-name="Trazado 100640" d="M72.925,63.83a.967.967,0,1,0,1.368-1.368,7.571,7.571,0,0,1,0-10.693A.967.967,0,0,0,72.926,50.4a9.5,9.5,0,0,0,0,13.427Zm0,0" transform="translate(-61.254 -43.763)"/>
      <path id="Trazado_100641" data-name="Trazado 100641" d="M107.365,82.622a.967.967,0,0,0,.684-1.65,3.113,3.113,0,0,1,0-4.4.967.967,0,1,0-1.367-1.368,5.045,5.045,0,0,0,0,7.136.961.961,0,0,0,.684.283Zm0,0" transform="translate(-91.864 -65.42)"/>
      <path id="Trazado_100642" data-name="Trazado 100642" d="M89.894,11.755,76.624,55.477a.967.967,0,1,0,1.851.562L91.744,12.316a6.155,6.155,0,0,0,.849.06,6.286,6.286,0,0,0,.85-.058l4.674,15.4a.968.968,0,0,0,.925.687.957.957,0,0,0,.281-.042.967.967,0,0,0,.644-1.206l-4.674-15.4a6.181,6.181,0,1,0-5.4,0Zm2.7-9.821a4.255,4.255,0,0,1,1.5,8.237,4.255,4.255,0,1,1-1.5-8.238Zm0,0" transform="translate(-66.872 0)"/>
      <path id="Trazado_100643" data-name="Trazado 100643" d="M83.977,219.7a.967.967,0,0,0-1.851.562L91.7,251.8H86.986L76.4,216.917a.967.967,0,0,0-1.851,0L63.964,251.8H59.246l1.095-3.612a.967.967,0,1,0-1.851-.562l-1.475,4.86a.967.967,0,0,0,.925,1.248H93a.966.966,0,0,0,.925-1.248ZM71.645,233.139h5.614l-7.411,5.926Zm-2.91,9.593H79.451l-13.117,7.908Zm2.043-1.934,8.73-6.976,2.116,6.976Zm4.7-20.268,3.241,10.679H72.232Zm6.891,22.7,2.6,8.567H68.158Zm0,0" transform="translate(-49.751 -188.816)"/>
    </g>
  </g>
</svg>
