<svg xmlns="http://www.w3.org/2000/svg" width="610" height="431.809" viewBox="0 0 610 431.809">
  <g id="Grupo_1071766" data-name="Grupo 1071766" transform="translate(-810 -531.88)">
    <path id="Trazado_771650" data-name="Trazado 771650" d="M14,0H558a14,14,0,0,1,14,14V332a14,14,0,0,1-14,14H14A14,14,0,0,1,0,332V14A14,14,0,0,1,14,0Z" transform="translate(836 580)" fill="#c4d9ee"/>
    <g id="Grupo_131730" data-name="Grupo 131730" transform="translate(810 521.5)">
      <g id="Grupo_131603" data-name="Grupo 131603" transform="translate(195.696 219.203)">
        <g id="Grupo_131601" data-name="Grupo 131601">
          <g id="Grupo_131597" data-name="Grupo 131597" transform="translate(273.487 2.618)">
            <path id="Trazado_168419" data-name="Trazado 168419" d="M1595.751,1312.358h-.03a4.01,4.01,0,0,1-4.059-3.875l-.845-214.382,2.45-.009.843,214.321a1.545,1.545,0,0,0,1.629,1.495,1.561,1.561,0,0,0,1.652-1.533l21-210.929,2.438.243-20.994,210.892A4,4,0,0,1,1595.751,1312.358Z" transform="translate(-1590.816 -1094.092)" fill="#1d272b"/>
          </g>
          <g id="Grupo_131598" data-name="Grupo 131598" transform="translate(373.383 2.618)">
            <path id="Trazado_168420" data-name="Trazado 168420" d="M1891.287,1312.359a4.009,4.009,0,0,1-4.085-3.816l-20.991-210.854,2.438-.243,20.994,210.891a1.644,1.644,0,0,0,3.284.014l.844-214.26,2.45.009-.845,214.321a4.022,4.022,0,0,1-4.059,3.936Z" transform="translate(-1866.212 -1094.092)" fill="#1d272b"/>
          </g>
          <g id="Grupo_131599" data-name="Grupo 131599" transform="translate(2.879 2.618)">
            <path id="Trazado_168421" data-name="Trazado 168421" d="M849.728,1312.358h-.03a4.01,4.01,0,0,1-4.06-3.875l-.845-214.382,2.45-.009.843,214.321a1.646,1.646,0,0,0,3.281-.037l21-210.93,2.438.243-20.994,210.892A4,4,0,0,1,849.728,1312.358Z" transform="translate(-844.793 -1094.092)" fill="#12263f"/>
          </g>
          <g id="Grupo_131600" data-name="Grupo 131600" transform="translate(102.775 2.618)">
            <path id="Trazado_168422" data-name="Trazado 168422" d="M1145.264,1312.358a4.007,4.007,0,0,1-4.085-3.815l-20.991-210.854,2.438-.243,20.994,210.891a1.591,1.591,0,0,0,1.656,1.57,1.562,1.562,0,0,0,1.63-1.556l.842-214.26,2.45.009-.844,214.321a4.023,4.023,0,0,1-4.06,3.936Z" transform="translate(-1120.189 -1094.092)" fill="#1d272b"/>
          </g>
          <rect id="Rectángulo_35981" data-name="Rectángulo 35981" width="405.497" height="12.188" fill="#914a33"/>
        </g>
        <g id="Grupo_131602" data-name="Grupo 131602" transform="translate(270.526 0.881)">
          <path id="Trazado_168423" data-name="Trazado 168423" d="M1583.267,1099.512a.613.613,0,0,1-.613-.613v-8.984a.612.612,0,0,1,1.225,0v8.984A.612.612,0,0,1,1583.267,1099.512Z" transform="translate(-1582.654 -1089.303)" fill="#753521"/>
        </g>
      </g>
      <g id="Grupo_131606" data-name="Grupo 131606" transform="translate(549.763 62.692)">
        <g id="Grupo_131604" data-name="Grupo 131604" transform="translate(22.662)">
          <path id="Trazado_168424" data-name="Trazado 168424" d="M1858.19,801.464c-2.2,5.895-2.481,12.316-2.9,18.537-.479,7.154-.677,14.321-.638,21.491a.613.613,0,0,0,1.225,0c-.037-6.771.136-13.54.56-20.3.408-6.5.631-13.249,2.931-19.4C1859.648,801.051,1858.464,800.731,1858.19,801.464Z" transform="translate(-1854.507 -748.211)" fill="#727997"/>
          <path id="Trazado_168425" data-name="Trazado 168425" d="M1884.012,795.169a142.874,142.874,0,0,0-15.043,43.633c-.132.771,1.048,1.1,1.181.326a141.862,141.862,0,0,1,14.92-43.34C1885.443,795.093,1884.386,794.474,1884.012,795.169Z" transform="translate(-1863.625 -744.27)" fill="#727997"/>
          <path id="Trazado_168426" data-name="Trazado 168426" d="M1884.283,724.764c-10.537,19.121-14.2,40.806-17.638,62.1-.125.771,1.056,1.1,1.181.326,3.423-21.183,7.03-42.781,17.515-61.806C1885.721,724.692,1884.664,724.073,1884.283,724.764Z" transform="translate(-1862.144 -699.405)" fill="#727997"/>
          <path id="Trazado_168427" data-name="Trazado 168427" d="M1918.918,728.084a1.812,1.812,0,0,0-.7-.959c-1.31-.92-3.064.2-4.2,1.323-4.5,4.456-7.351,10.042-10.123,15.655-1.286,2.6-2.85,5.055-4.085,7.689-.327.7-3.962,9.467-.809,8.51a2.244,2.244,0,0,0,.984-.789,112.221,112.221,0,0,0,9.868-14.231l8.1-13.281C1918.651,730.838,1919.285,729.242,1918.918,728.084Z" transform="translate(-1881.951 -700.885)" fill="#727997"/>
          <path id="Trazado_168428" data-name="Trazado 168428" d="M1916.733,656.079a17.323,17.323,0,0,0-4.405,4.14c-2.246,2.993-3.638,6.529-5.216,9.893-1.811,3.861-3.575,7.741-5.358,11.611-.868,1.883-5.308,9.012-1.5,8.959,3.067-.042,5.244-4.246,6.424-6.45l7.418-13.847c2.045-3.818,4.736-7.726,5.888-11.938.4-1.465.149-2.521-.586-2.906C1918.8,655.229,1917.882,655.361,1916.733,656.079Z" transform="translate(-1882.599 -655.383)" fill="#727997"/>
          <path id="Trazado_168429" data-name="Trazado 168429" d="M1861.452,766.091a1.533,1.533,0,0,0-.747-.2c-1.082-.007-1.807,1.081-2.275,2.056-3.358,7-4.3,14.93-4.163,22.689a4.982,4.982,0,0,0,.373,2.163,1.77,1.77,0,0,0,1.775,1.051c.908-.167,1.35-1.183,1.634-2.062,2.347-7.271,6.232-15.358,4.824-23.192A3.626,3.626,0,0,0,1861.452,766.091Z" transform="translate(-1854.254 -725.807)" fill="#727997"/>
        </g>
        <g id="Grupo_131605" data-name="Grupo 131605" transform="translate(0 79.498)">
          <path id="Trazado_168430" data-name="Trazado 168430" d="M1839.866,951.56h-48.087s3.5-9.8,7.682-21.587c.135-.4.282-.821.429-1.238,2.034-5.758,4.19-11.921,6.162-17.617.147-.429.282-.833.429-1.25,1.629-4.717,3.087-9.054,4.214-12.472.159-.465.307-.919.441-1.348a47.654,47.654,0,0,0,1.776-6.187c0-2.756-1.838-15.314-1.838-15.314h20.252s-5.55,14.089-5.244,17.458c.086.857,1.017,5.133,2.365,11.039.086.4.172.808.27,1.225.306,1.323.625,2.732.955,4.178v.012c.11.441.208.882.319,1.336,1.593,6.885,3.455,14.788,5.133,21.844v.012c.122.515.233,1,.355,1.507.5,2.1.968,4.092,1.409,5.942q.184.717.331,1.4C1838.788,947.039,1839.866,951.56,1839.866,951.56Z" transform="translate(-1791.779 -874.547)" fill="#00978e"/>
          <path id="Trazado_168431" data-name="Trazado 168431" d="M1861.95,942.044c-6.861-.2-13.281-1.678-18.022-6.873.159-.465.307-.919.441-1.348,4.46,5.293,10.683,6.763,17.311,7C1861.766,941.223,1861.852,941.627,1861.95,942.044Z" transform="translate(-1825.012 -912.322)" fill="#fff"/>
          <path id="Trazado_168432" data-name="Trazado 168432" d="M1855.066,969.373a17.043,17.043,0,0,1-7.9,2.242c-4.239.135-8.417-.919-12.643-1-1.139-.024-2.266,0-3.394.086.147-.429.282-.833.429-1.25.453-.037.894-.049,1.348-.061,4.067-.086,8.025.747,12.068.968a17.758,17.758,0,0,0,9.777-2.316C1854.858,968.478,1854.956,968.919,1855.066,969.373Z" transform="translate(-1816.854 -934.125)" fill="#fff"/>
          <path id="Trazado_168433" data-name="Trazado 168433" d="M1848.975,1028.358a31.367,31.367,0,0,0-5.452-1.654c-9.458-1.936-19.161,1.176-28.558-.968-.674-.159-1.348-.343-2.009-.563.135-.4.282-.821.429-1.238a31.348,31.348,0,0,0,8.981,1.3c8.747.036,17.164-1.385,25.679,1.409.2.061.392.135.576.2v.012C1848.743,1027.366,1848.853,1027.856,1848.975,1028.358Z" transform="translate(-1805.274 -969.747)" fill="#fff"/>
          <path id="Trazado_168434" data-name="Trazado 168434" d="M1837.442,1043.568c-2.6,3.749,2.046,7.571,4.729,9.507a72.735,72.735,0,0,0,6.518,4.19h-2.352c-1.176-.711-2.328-1.446-3.467-2.218-2.609-1.777-5.758-3.81-6.885-6.934a6.089,6.089,0,0,1,1.041-6.211c2.193-2.267,6.383-1.323,9.115-1.078a81.325,81.325,0,0,1,18.659,3.982q.184.717.331,1.4a80.682,80.682,0,0,0-15.755-3.786C1846.067,1041.975,1839.586,1040.456,1837.442,1043.568Z" transform="translate(-1819.689 -980.252)" fill="#fff"/>
        </g>
      </g>
      <g id="Grupo_131621" data-name="Grupo 131621" transform="translate(328.684 10.38)">
        <g id="Grupo_131610" data-name="Grupo 131610" transform="translate(0 11.19)">
          <path id="Trazado_168438" data-name="Trazado 168438" d="M1395.806,1025.1h-35.163l1.225-35.163h35.163Z" transform="translate(-1257.526 -827.465)" fill="#1d272b"/>
          <path id="Trazado_168439" data-name="Trazado 168439" d="M1400.234,1007.257h0a5.282,5.282,0,0,1-5.072-5.557l.786-14.835a5.282,5.282,0,0,1,5.478-5h0a5.282,5.282,0,0,1,5.072,5.557l-.786,14.835A5.282,5.282,0,0,1,1400.234,1007.257Z" transform="translate(-1279.52 -822.32)" fill="#fff"/>
          <path id="Trazado_168440" data-name="Trazado 168440" d="M1321.511,706.8h-243.92a1.225,1.225,0,0,1-1.225-1.262l4.828-162.323a1.225,1.225,0,0,1,1.225-1.189h243.92a1.225,1.225,0,0,1,1.224,1.262l-4.828,162.323A1.225,1.225,0,0,1,1321.511,706.8Z" transform="translate(-1076.366 -542.031)" fill="#1d272b"/>
          <path id="Trazado_168441" data-name="Trazado 168441" d="M1333.109,559.642l-2.99,98.7L1329.5,679l-.172,5.868-.76,25.361a1.149,1.149,0,0,1-1.152,1.1H1097.7a1.148,1.148,0,0,1-1.152-1.176l2.34-77.331,1.911-63.426.294-9.813a1.14,1.14,0,0,1,1.152-1.1h229.715A1.138,1.138,0,0,1,1333.109,559.642Z" transform="translate(-1089.225 -552.512)" fill="#fff"/>
          <path id="Trazado_168442" data-name="Trazado 168442" d="M1286.076,954.688h-27.137a31.226,31.226,0,0,1,8.282-8.956c7.8-5.967,18.353-5.354,18.353-5.354Z" transform="translate(-1192.714 -795.873)" fill="#1d272b"/>
          <path id="Trazado_168443" data-name="Trazado 168443" d="M1671.287,816.079c-1.425-2.085-2.335-.862-3.64.843-2.669,3.486-2.938,6.805-3.023,11.077-.083,4.19-.3,8.4-.1,12.588a12.837,12.837,0,0,0-1.956-4.135,11.55,11.55,0,0,0-2.188-1.86c-1.792-1.458-2.358-3.2-3.593-5.031-1.452-2.148-8.14-7.4-9.63-2.556-1.4,4.559,3.252,8.739,6.624,10.622,2.269,1.266,2.422,2.2,3.6,3.834.9,1.245,2.354,1.934,3.27,3.192,1.305,1.792,1.761,3.767,4.016,4.54a.639.639,0,0,0,.53-.1c.3.487,1.2.4,1.131-.274-.421-4.279,2.435-7.63,3.445-11.6a12.762,12.762,0,0,0,.181-4.318c-.254-3.393,1.3-4.864,2.669-7.642C1674.157,822.156,1673.158,818.818,1671.287,816.079Z" transform="translate(-1439.95 -715.972)" fill="#45695f"/>
          <path id="Trazado_168444" data-name="Trazado 168444" d="M1720.378,835.079c-1.972,2.267-2.23,4.594-2.5,7.437-.306,3.345-4.019,4.888-4.913,8.184-.931,3.43-.98,7.216-1.323,10.757-.086.024-.159.049-.27.073-.76.233-.441,1.421.319,1.189,1.066-.331,2.083,1.053,3.21.87,1.029-.184,1.495-.98,2.021-1.789a80.971,80.971,0,0,0,4.1-7.363l.625-20.656A12.521,12.521,0,0,0,1720.378,835.079Z" transform="translate(-1480.757 -727.953)" fill="#45695f"/>
          <path id="Trazado_168445" data-name="Trazado 168445" d="M1362.854,1074.251H1248a7.185,7.185,0,0,1,7.185-7.184h100.488a7.185,7.185,0,0,1,7.185,7.184Z" transform="translate(-1185.74 -876.619)" fill="#1d272b"/>
        </g>
        <g id="Grupo_131612" data-name="Grupo 131612" transform="translate(104.186)">
          <rect id="Rectángulo_35982" data-name="Rectángulo 35982" width="35.777" height="9.761" rx="4.881" fill="#422a21"/>
          <g id="Grupo_131611" data-name="Grupo 131611" transform="translate(16.571 6.228)">
            <rect id="Rectángulo_35983" data-name="Rectángulo 35983" width="3.675" height="6.942" fill="#422a21"/>
          </g>
          <rect id="Rectángulo_35984" data-name="Rectángulo 35984" width="24.878" height="6.29" rx="3.145" transform="translate(2.667 1.736)" fill="#66524d"/>
          <path id="Trazado_168446" data-name="Trazado 168446" d="M1449.244,520.259a2.042,2.042,0,1,0-2.042,2.042A2.042,2.042,0,0,0,1449.244,520.259Z" transform="translate(-1415.572 -515.665)" fill="#66524d"/>
        </g>
        <path id="Trazado_168447" data-name="Trazado 168447" d="M1444.586,742.325c-.564,8.049-1.372,16.086-2.218,24.111-1.7,16.172-3.626,32.307-5.648,48.43-.147,1.188-.294,2.364-.441,3.553h-93.172l.7-4.962,8.588-61.049c.307-1.85.613-3.7.943-5.55a133.511,133.511,0,0,1,3.43-15.106,24.642,24.642,0,0,1,1.188-3.345c1.287-2.707,6.947-1.7,9.581-1.678,3.7.012,7.4.074,11.1.135q14.169.257,28.326.71c8.711.27,17.421.564,26.12,1,2.621.135,5.244.269,7.853.466,1.384.11,2.842-.135,3.7,1.151C1446.387,732.793,1444.794,739.433,1444.586,742.325Z" transform="translate(-1246.351 -648.413)" fill="#1d272b"/>
        <g id="Grupo_131618" data-name="Grupo 131618" transform="translate(12.123 29.443)">
          <g id="Grupo_131613" data-name="Grupo 131613" transform="translate(111.558 36.735)">
            <path id="Trazado_168448" data-name="Trazado 168448" d="M1424.185,694.939a2.044,2.044,0,0,0-2.453-1.233,2.368,2.368,0,0,0-1.552,2.4,2.154,2.154,0,0,0,4.212.773A2.5,2.5,0,0,0,1424.185,694.939Z" transform="translate(-1419.148 -693.624)" fill="#fff"/>
            <path id="Trazado_168449" data-name="Trazado 168449" d="M1423.51,710.209a5.629,5.629,0,0,0-.76-1.911,4.2,4.2,0,0,0-.4-.515,2.87,2.87,0,0,0-2.438-.943c-2.732.429-2.634,5.844-2.536,7.829a3.8,3.8,0,0,0,.944,2.7,2.664,2.664,0,0,0,3.124.1,4.827,4.827,0,0,0,1.862-2.708A8.808,8.808,0,0,0,1423.51,710.209Zm-1.629,3.32a2.436,2.436,0,0,1-.906,1.311,1.286,1.286,0,0,1-1.519-.049,1.825,1.825,0,0,1-.453-1.311c-.049-.956-.1-3.59,1.225-3.8a1.389,1.389,0,0,1,1.189.465,1.912,1.912,0,0,1,.2.245,2.778,2.778,0,0,1,.368.931A4.346,4.346,0,0,1,1421.88,713.529Z" transform="translate(-1417.335 -702.03)" fill="#422a21"/>
          </g>
          <path id="Trazado_168450" data-name="Trazado 168450" d="M1449.714,632.063c-3.7-4.006-9.8-5.464-15.143-5.182-.453.025-.968.037-1.52.049-.612.012-1.261.037-1.936.086-2.083.135-6.763,5.489-7.216,8.539v.025c-.159,1.127-.306,2.279-.416,3.357q-.055.551-.11,1.066c-.037.4-.085.8-.123,1.164-.012.172-.024.331-.037.49-.135,1.495-.2,2.5-.2,2.512-.563,4.631-.539,14.2.27,17.716a12.319,12.319,0,0,0,.8,2.352c1.58,3.32,4.533,4.974,7.951,5.807-.049,1.654-.11,3.32-.147,4.986-.012.307-.025.613-.025.919-.012.233,0,.466-.012.711a1.46,1.46,0,0,1-.012.233,39.275,39.275,0,0,0-.086,5.244.263.263,0,0,0-.1-.061c-.564-.355-1.2.453-.625.821.355.221.7.465,1.041.723a.318.318,0,0,0,.037.1.4.4,0,0,0,.465.306c.417.331.8.674,1.164,1.029a6.207,6.207,0,0,1-3.1-1.911c-.429-.5-1.262.122-.821.625a7.9,7.9,0,0,0,1.029,1h.012a8.238,8.238,0,0,0,4.031,1.543.894.894,0,0,0,.1.11.53.53,0,0,0,.833-.012c.625.037,1.237.037,1.887.012h.012c.49,0,.98-.037,1.483-.061,2.266-.135,7.233-3.624,9.476-4.641l-.025.907a.49.49,0,0,0,.282.478.515.515,0,0,0,.662-.061v-.012a.588.588,0,0,0,.1-.269l.049-1.666a5,5,0,0,0,.931-.833c.453-.5-.392-1.139-.821-.637l-.061.049c.061-1.936.123-3.872.2-5.807q.165-5.219.355-10.426c0-.208.012-.4.012-.612a18.208,18.208,0,0,0,2.151-4.351,27.417,27.417,0,0,0,1.617-6.346c.074-.576.159-1.127.208-1.7.086-.76.147-1.519.2-2.266C1454.9,642.415,1453.744,636.4,1449.714,632.063Z" transform="translate(-1309.153 -614.334)" fill="#ffa280"/>
          <path id="Trazado_168451" data-name="Trazado 168451" d="M1464.361,676.129a.912.912,0,0,1,.606-.248,1.122,1.122,0,0,1,.9.53,4.638,4.638,0,0,1,.053,3.877c-.247.547-.8,1.066-1.379.9-.529-.15-.75-.773-.832-1.316a7.585,7.585,0,0,1,.039-2.487A2.289,2.289,0,0,1,1464.361,676.129Z" transform="translate(-1335.278 -645.582)" fill="#422a21"/>
          <path id="Trazado_168452" data-name="Trazado 168452" d="M1431.983,673.182a.842.842,0,0,1,.56-.23,1.037,1.037,0,0,1,.837.49,4.285,4.285,0,0,1,.048,3.584c-.228.505-.741.985-1.275.833-.489-.139-.693-.715-.769-1.217a7.011,7.011,0,0,1,.036-2.3A2.119,2.119,0,0,1,1431.983,673.182Z" transform="translate(-1314.68 -643.716)" fill="#422a21"/>
          <path id="Trazado_168453" data-name="Trazado 168453" d="M1439.08,689.6c.259-.448.57-.868.834-1.313a19.615,19.615,0,0,0,1.2-2.456c.3-.726-.881-1.043-1.181-.325-.767,1.832-2.617,3.68-2.738,5.71a2.369,2.369,0,0,0,2.359,2.665.613.613,0,0,0,0-1.225q-1.569-1.013-.9-2.2A3.353,3.353,0,0,1,1439.08,689.6Z" transform="translate(-1318.431 -651.459)" fill="#ed774b"/>
          <path id="Trazado_168454" data-name="Trazado 168454" d="M1455.953,744.291a31.678,31.678,0,0,1-7.8,2.364c.036-1.666.1-3.332.147-4.986a14.955,14.955,0,0,0,6.579-.588c3.443-1.152,4.974-1.838,4.974-1.838S1460.474,742.073,1455.953,744.291Z" transform="translate(-1325.414 -685.961)" fill="#ed774b"/>
          <path id="Trazado_168455" data-name="Trazado 168455" d="M1469.926,666.342c-1.312-2.146-5.757-4.349-7.533-1.5-1.084,1.743,3.359,1.647,4.04,1.79.856.18,1.7.4,2.555.6a.754.754,0,0,0,.272.015A.613.613,0,0,0,1469.926,666.342Z" transform="translate(-1334.383 -637.683)" fill="#914a33"/>
          <path id="Trazado_168456" data-name="Trazado 168456" d="M1426.919,663.213c-.87-.073-1.752-.1-2.622-.135a.091.091,0,0,1-.061-.012c.012-.159.024-.318.037-.49.037-.367.086-.76.123-1.164,2.181-1.287,6.089-1.654,6.9,1.2C1431.856,664.585,1427.6,663.262,1426.919,663.213Z" transform="translate(-1310.175 -635.744)" fill="#914a33"/>
          <g id="Grupo_131614" data-name="Grupo 131614" transform="translate(117.357 43.555)">
            <path id="Trazado_168457" data-name="Trazado 168457" d="M1443.282,713.2a5.566,5.566,0,0,1-5.807,2.9,4.24,4.24,0,0,1-4.153-3.675s.258.073.7.183a20.078,20.078,0,0,0,4.251.637c1.176.025,2.364.012,3.3,0C1442.583,713.222,1443.282,713.2,1443.282,713.2Z" transform="translate(-1433.321 -712.426)" fill="#d66147"/>
            <path id="Trazado_168458" data-name="Trazado 168458" d="M1442.793,713.569a5.08,5.08,0,0,1-1.164,1.03,12.854,12.854,0,0,1-2.818.2,6.847,6.847,0,0,1-2.756-.7,3.441,3.441,0,0,1-.809-1.164,20.081,20.081,0,0,0,4.252.637C1440.673,713.594,1441.862,713.581,1442.793,713.569Z" transform="translate(-1434.548 -712.748)" fill="#fff"/>
          </g>
          <path id="Trazado_168459" data-name="Trazado 168459" d="M1460.137,619.327c-2.639-3.609-7.894-6.049-12.354-6.738-2.843-.439-14.038-1.879-18.326,4.9-3.342,5.28-3.33,8.732-3.33,8.732a6.737,6.737,0,0,1,4.913-4.541c2.554-.494,10.229-.259,12.762.817,2.486,1.056,4.75,1.933,6.109,4.154,3.488,5.7,2.672,26.82,2.672,26.82s2.907-4.08,8.881-14.85C1465.137,631.994,1462.823,623,1460.137,619.327Z" transform="translate(-1311.38 -604.972)" fill="#914a33"/>
          <path id="Trazado_168460" data-name="Trazado 168460" d="M1499.809,673.023c-2.052-2.89-6.556-.428-6.509,2.671a.587.587,0,0,0,.087.3.555.555,0,0,0-.245.473q-.03,3.964.266,7.912c.045.6.611,2.145,1.2,1.928,2.266-.831,4.441-4.51,5.322-7.274C1500.53,677.154,1500.78,674.39,1499.809,673.023Z" transform="translate(-1354.084 -642.941)" fill="#ffa280"/>
          <path id="Trazado_168461" data-name="Trazado 168461" d="M1492.409,593.006c-1.282-1.194-2.363-.507-3.833.114-1.757.741-3.957,1.29-5.513,2.414-2.942,2.126-.378,5.266,2.058,6.272,2.443,1.866,5.966,2.832,8.432.4C1496.161,599.625,1494.8,595.232,1492.409,593.006Z" transform="translate(-1346.824 -592.352)" fill="#914a33"/>
          <g id="Grupo_131615" data-name="Grupo 131615" transform="translate(138.344 38.748)">
            <path id="Trazado_168462" data-name="Trazado 168462" d="M1498.031,700.489a2.045,2.045,0,0,0-2.453-1.233,2.368,2.368,0,0,0-1.551,2.4,2.154,2.154,0,0,0,4.212.773A2.5,2.5,0,0,0,1498.031,700.489Z" transform="translate(-1492.993 -699.174)" fill="#fff"/>
            <path id="Trazado_168463" data-name="Trazado 168463" d="M1497.355,715.759a5.625,5.625,0,0,0-.76-1.911,4.112,4.112,0,0,0-.4-.515,2.871,2.871,0,0,0-2.438-.943c-2.732.429-2.634,5.844-2.536,7.829a3.8,3.8,0,0,0,.943,2.7,2.664,2.664,0,0,0,3.124.1,4.826,4.826,0,0,0,1.862-2.708A8.811,8.811,0,0,0,1497.355,715.759Zm-1.629,3.321a2.441,2.441,0,0,1-.907,1.311,1.286,1.286,0,0,1-1.519-.049,1.827,1.827,0,0,1-.453-1.311c-.049-.956-.1-3.59,1.225-3.8a1.389,1.389,0,0,1,1.189.466,1.892,1.892,0,0,1,.2.245,2.782,2.782,0,0,1,.367.931A4.344,4.344,0,0,1,1495.726,719.079Z" transform="translate(-1491.18 -707.58)" fill="#422a21"/>
          </g>
          <path id="Trazado_168464" data-name="Trazado 168464" d="M1491.931,617.56a12.412,12.412,0,0,0-7.132-3.063c-.785-.074-.78,1.151,0,1.225a10.993,10.993,0,0,1,6.266,2.7C1491.656,618.943,1492.525,618.08,1491.931,617.56Z" transform="translate(-1348.395 -606.462)" fill="#753521"/>
          <path id="Trazado_168465" data-name="Trazado 168465" d="M1504.212,630.183c-.133-.776-1.314-.447-1.181.326a14.538,14.538,0,0,1-.952,8.636c-.3.728.884,1.045,1.181.326A15.621,15.621,0,0,0,1504.212,630.183Z" transform="translate(-1359.75 -616.178)" fill="#753521"/>
          <path id="Trazado_168466" data-name="Trazado 168466" d="M1510.342,639.614a18.976,18.976,0,0,1-1.067,6.791c-.26.746.923,1.067,1.181.326a19.929,19.929,0,0,0,1.111-7.117A.613.613,0,0,0,1510.342,639.614Z" transform="translate(-1364.344 -622.094)" fill="#753521"/>
          <path id="Trazado_168467" data-name="Trazado 168467" d="M1467.045,618.827c-1.324.711-3.042.594-4.452,1.2a10.327,10.327,0,0,0-3.332,2.354c-.548.568.318,1.435.866.867a8.975,8.975,0,0,1,4-2.476c1.192-.341,2.422-.295,3.532-.891C1468.358,619.511,1467.74,618.454,1467.045,618.827Z" transform="translate(-1332.384 -609.173)" fill="#753521"/>
          <path id="Trazado_168468" data-name="Trazado 168468" d="M1427.262,759.393s-13.171,2.45-13.885,3.369,4.447,26.545,6.461,36.142a135.753,135.753,0,0,1,2.491,15.906s32.935-45.717,32.87-46.943-12.213-7.147-13.642-8.474-4.032-1.225-4.977-1.021S1427.262,759.393,1427.262,759.393Z" transform="translate(-1303.211 -698.074)" fill="#ffa280"/>
          <path id="Trazado_168469" data-name="Trazado 168469" d="M1425.079,798.732c-3.21,13.17-1.177,16.846-5.562,27.713a106.213,106.213,0,0,0-5.195,16.307h-44.314c-.073-1.409-.171-3.5-.294-6.028v-.012c-.184-4.275-.429-9.776-.625-15.13-.245-6.812-.429-13.391-.367-17.03.147-9.642,9.8-35.689,10.414-36.6.368-.564,5.293-1.629,9.14-2.389,2.524-.5,4.57-.857,4.57-.857a105.692,105.692,0,0,0,4.276,32.944s5.672-7.461,8.71-11.272c3.418-4.288,13.685-19.124,13.685-19.124s.478.208,1.261.539v.012c2.916,1.25,10.022,4.337,11.345,5.195C1433.8,774.082,1428.289,785.562,1425.079,798.732Z" transform="translate(-1274.79 -702.19)" fill="#fff"/>
          <path id="Trazado_168470" data-name="Trazado 168470" d="M1343.828,770.287a.11.11,0,0,0-.061.012,2.712,2.712,0,0,0-.294.1l-.551.184a20.36,20.36,0,0,0-3.59,1.482,6.347,6.347,0,0,0-.76.515,5.849,5.849,0,0,0-1.838,2.463c-1.335,3.32-1.36,7.277-1.752,10.781-.576,5.3-2.108,9.531-4.141,14.432-3.284,7.964-5.881,11.847-7.9,20.056-.307,1.237-.564,2.573-.809,3.969-1.041,6.138-1.494,13.513-2.193,19.86h21.415c2.083-12.007,4.423-24.074,4.374-36.264a38.88,38.88,0,0,1,.257-4.5c.6-5.44,2.23-10.622,3.933-15.9q2.15-6.6,4.533-13.134c.882-2.462,1.8-4.937,2.744-7.387.012-.025.012-.037.025-.061A118.339,118.339,0,0,0,1343.828,770.287Z" transform="translate(-1243.709 -703.577)" fill="#d49887"/>
          <path id="Trazado_168471" data-name="Trazado 168471" d="M1511.636,792.09a19.162,19.162,0,0,0-.931-8.527,11.289,11.289,0,0,0-4.827-6.579c-3.186-1.862-9.985-4.215-9.961-3.835v.012c.258,4.435,1.483,7.253,1.838,11.663.367,4.545-1.875,9.2-2.549,13.685-.723,4.8-.931,9.691-1.923,14.444-.919,4.423-3.149,8.478-3.774,12.95-.686,4.864-.343,9.789-1.139,14.653a64.336,64.336,0,0,1-1.433,6.444c-.1.355-.208.735-.318,1.1h21.918c-.147-2.034-.38-4.055-.343-6.114.086-4.435,1.4-8.711,2.119-13.06a37.783,37.783,0,0,0,.061-10.965c-.527-4.386-.085-8.735.257-13.121C1510.962,800.593,1511.306,796.341,1511.636,792.09Z" transform="translate(-1349.929 -707.542)" fill="#d49887"/>
          <path id="Trazado_168472" data-name="Trazado 168472" d="M1160.594,822.652c.331-4.092.306-8.7-3.369-11.174a.533.533,0,0,0-.38-.625c-4.582-1.47-9.115-3.051-13.6-4.778-.4-.135-.8-.294-1.188-.453-.515-.184-1.017-.392-1.531-.588-1.152-.453-2.3-.919-3.443-1.385-.87-.367-1.74-.723-2.609-1.09a10.1,10.1,0,0,0-2.34-6.812c-1.225-1.593-2.548-3.137-3.81-4.692-.919-1.115-1.531-2.107-2.891-2.6-.282-.086-.514.171-.7.4-.649.8,1.421,4.276,2.818,5.954-1.973-.527-5.109-1.066-7.008-1.813a38.317,38.317,0,0,1-4.018-2c-.7-.355-2.708-1.789-3.394-.907-.8,1.041.857,2.9,1.556,3.5a9.455,9.455,0,0,0,3.455,2.009c-.306-.073-.613-.135-.906-.233-1.507-.453-2.757-1.458-4.227-1.9-1.188-.367-2.818-.11-3.149,1.311a7.908,7.908,0,0,0,.074,2.475,2.022,2.022,0,0,0,.5,1.041c.809.906,2.683,1.482,3.761,2.009.307.159.625.294.931.441a4.66,4.66,0,0,0-1.2.172.592.592,0,0,0-.417.551c.147,2.119,2.659,3.369,4.325,4.141a61.692,61.692,0,0,0,10.107,3.884c.6.159,1.446.416,2.352.625.723.441,1.777,1.066,3.063,1.838.931.564,2,1.189,3.148,1.862.686.4,1.409.821,2.156,1.25.343.209.7.417,1.066.613,7.449,4.313,16.821,9.458,21,10.671C1161.109,826.474,1160.57,823.019,1160.594,822.652Z" transform="translate(-1109.787 -717.313)" fill="#ffa280"/>
          <path id="Trazado_168473" data-name="Trazado 168473" d="M1282.838,780.194a6.365,6.365,0,0,0-2.083-2.132c.527-.2,1.066-.392,1.605-.576a.635.635,0,0,0-.135-1.225.109.109,0,0,0-.061.012.623.623,0,0,0-.135.024c-.245.086-.478.159-.71.258-1.25.441-2.438.943-3.59,1.482-6.187,2.94-11.075,7.18-16.111,12.166a18.735,18.735,0,0,1-5.562,3.737c-2.046.968-4.2,1.715-6.42,2.732-.282.135-.552.27-.821.417-2.524,1.384-4.57,3.565-6.971,5.084a11.224,11.224,0,0,0-6.15-1.605,29.877,29.877,0,0,1-6.457.135,12.4,12.4,0,0,0-4.092.012.629.629,0,0,0-.453.588q-.7,14.242-1.421,28.484a.615.615,0,0,0,.453.588c2.23.4,4.484.968,6.738,1.188,2.634.269,4.9-.784,7.51-.894,5.378-.221,10.818.49,16.209.466a30.581,30.581,0,0,0,6.346-.882l.368-.074c1.936-.392,4.018-.245,5.856-1,3.43-1.421,5.55-5.182,7.5-8.111a37.729,37.729,0,0,0,5.807-12.435,1.1,1.1,0,0,0,.049-.2c.808-3.59,1.372-7.253,1.923-10.9.27-1.777.527-3.553.821-5.317C1283.475,788.439,1284.933,783.747,1282.838,780.194Z" transform="translate(-1182.106 -709.551)" fill="#d49887"/>
          <path id="Trazado_168474" data-name="Trazado 168474" d="M1561.21,837.024c-.919-2.867-10.843-22.31-12.031-25.52-1.139-3.1-2.781-5.905-3.516-9.127a32.994,32.994,0,0,0-2.659-8.331,27.085,27.085,0,0,0-14.138-12.117c-.846-.331-5.293,23.915-3.97,35.321a120.98,120.98,0,0,0,3.541,18.23c1.164,4.215,1.826,11.026,6.959,13.305,1.519.662,2.548,3.8,7.2,4.938h8.723c2.61-.4,5.28-1.213,6.787-3.039C1561.05,847.095,1562.435,840.846,1561.21,837.024Z" transform="translate(-1374.167 -713.161)" fill="#d49887"/>
          <path id="Trazado_168475" data-name="Trazado 168475" d="M1598.518,767.054a6.4,6.4,0,0,0-1.47-1.237,13.786,13.786,0,0,1-1.445-1.495,2.944,2.944,0,0,0-2.99-.588c.576-2.879,1.152-5.758,1.7-8.65.208-1.127.833-3.21-.809-3.59-1.494-.355-2,1.544-2.365,2.647a109.294,109.294,0,0,0-2.793,11.381v.012c-.515,1.556-1.139,3.21-1.531,4.459-.674-2.083-2.511-5.685-3.529-5.575-.294.037-.649.1-.71.38-.319,1.421.2,2.463.649,3.835.637,1.9,1.237,3.835,1.936,5.721a10.125,10.125,0,0,0,4.521,5.624,6.879,6.879,0,0,1-.269,2.523c-.1.453-.2.919-.294,1.385-.319,1.482-.65,2.891-.711,3.2-.074.417-.16.846-.245,1.262s-.159.809-.245,1.213c-.331,1.7-.7,3.394-1.066,5.084-1.739,7.817-5.4,16.784-5.035,24.895.16,3.651,1.323,7.143,4.692,8.576,4.178,1.764,7.927-3.369,8.711-7.155s1.1-7.657,1.568-11.5c.4-3.32.7-13.048.992-20.337.012-.465.037-.919.049-1.36.024-.478.037-.955.061-1.409s.037-.857.061-1.25a35.686,35.686,0,0,1,.355-4.631c.318-.882.551-1.74.735-2.316.307-.992.564-2,.8-3.014-.012-.073-.025-.147-.036-.232C1600.32,772.175,1600.2,769.2,1598.518,767.054Z" transform="translate(-1410.581 -693.74)" fill="#ffa280"/>
          <path id="Trazado_168476" data-name="Trazado 168476" d="M1278.111,827.731c-.282.135-.551.27-.821.417q-.625,2.132-1.434,4.19a48.837,48.837,0,0,1-7.743,12.595.615.615,0,0,0,.269,1.017c3.039.588,6.555,1.2,9.63.625,2.548-.49,2.193-2.512,2.548-4.8A106.3,106.3,0,0,1,1284.53,825C1282.484,825.967,1280.328,826.714,1278.111,827.731Z" transform="translate(-1210.581 -740.61)" fill="#ba7561"/>
          <path id="Trazado_168477" data-name="Trazado 168477" d="M1351.632,922.242c-.662-.772-2.193-.8-3.357-.87-.27-.012-.514-.037-.722-.061a.655.655,0,0,0-.686.282,29.642,29.642,0,0,0-3.639,6.922c-1.164,3.234-1.789,6.3-3.92,9.066-.074.1-.147.208-.233.306a26.457,26.457,0,0,0-3.026,4.656h11.223c.1-.441.183-.846.282-1.189.465-1.6.919-3.222,1.348-4.839V936.5c.906-3.357,1.74-6.713,2.487-10.107C1351.607,925.39,1352.5,923.271,1351.632,922.242Z" transform="translate(-1253.976 -801.98)" fill="#ba7561"/>
          <path id="Trazado_168478" data-name="Trazado 168478" d="M1523.77,858.3a.612.612,0,0,0-.428-.428,19.722,19.722,0,0,0-5.721-.6c-1.578.041-1.264.414-1.353,2.034a43.634,43.634,0,0,1-.48,4.4,75.61,75.61,0,0,1-2.072,8.92c-1.648,5.781-3.653,11.485-4.624,17.436a.622.622,0,0,0,.753.753,15.263,15.263,0,0,1,8.311.489.618.618,0,0,0,.776-.591c.078-6.057,1.51-11.915,2.754-17.809.558-2.644,1.1-5.293,1.51-7.964C1523.52,862.848,1524.144,860.392,1523.77,858.3Z" transform="translate(-1364.244 -761.173)" fill="#ba7561"/>
          <path id="Trazado_168479" data-name="Trazado 168479" d="M1386.245,784.06a.6.6,0,0,0-.588.453c-1.188,5.4-2.414,10.793-3.712,16.172-.147.6-.294,1.213-.441,1.813-.514,2.083-1.029,4.153-1.544,6.236a9.884,9.884,0,0,0-.429,4.864c.025.086.049.172.074.269a.629.629,0,0,0,.588.453h3.663c.6-5.44,2.23-10.622,3.933-15.9q2.15-6.6,4.533-13.134A31.83,31.83,0,0,0,1386.245,784.06Z" transform="translate(-1281.582 -714.52)" fill="#ba7561"/>
          <path id="Trazado_168480" data-name="Trazado 168480" d="M1427.482,861.179c-2.389,6.037-4.8,12.126-6.022,18.527-.523,2.734-.674,5.481-.982,8.242-.4,3.6-2,6.658-2.833,10.127-.185.766,1,1.093,1.181.326.717-2.976,2.167-5.67,2.651-8.714.51-3.208.553-6.455,1.164-9.655,1.222-6.4,3.634-12.49,6.023-18.527C1428.954,860.771,1427.77,860.453,1427.482,861.179Z" transform="translate(-1305.962 -763.405)" fill="#ede5e2"/>
          <path id="Trazado_168481" data-name="Trazado 168481" d="M1612.209,798.255a3.255,3.255,0,0,1-1.682-.038.561.561,0,0,0,.043-.082l1.572-5.4a.613.613,0,0,0-1.182-.326l-1.546,5.308a3.814,3.814,0,0,1-1.12-1.056.575.575,0,0,0,.08-.171q.7-2.879,1.655-5.683c.254-.748-.929-1.069-1.182-.326-.535,1.574-1,3.168-1.412,4.776l-.01-.012c-.252-.263-.859-.516-1.026-.871a3.871,3.871,0,0,1-.071-1.593,12.04,12.04,0,0,1,.963-3.846c.295-.731-.89-1.049-1.181-.326a12.152,12.152,0,0,0-1.024,5.129c.083,1.415.547,1.6,1.4,2.468.8.82.934,1.872,2.029,2.505a5.635,5.635,0,0,0,4.015.723A.613.613,0,0,0,1612.209,798.255Z" transform="translate(-1425.418 -717.161)" fill="#ed774b"/>
          <path id="Trazado_168482" data-name="Trazado 168482" d="M1120.695,811.481a56.383,56.383,0,0,1-8.5-3.674c-.7-.371-1.315.687-.618,1.058a58.308,58.308,0,0,0,8.795,3.8C1121.118,812.916,1121.439,811.733,1120.695,811.481Z" transform="translate(-1110.731 -729.605)" fill="#ed774b"/>
          <path id="Trazado_168483" data-name="Trazado 168483" d="M1129.995,826.258a9.658,9.658,0,0,1-3.926-1.383c-.674-.412-1.291.647-.618,1.058a11.084,11.084,0,0,0,4.544,1.55C1130.776,827.576,1130.77,826.35,1129.995,826.258Z" transform="translate(-1119.584 -740.471)" fill="#ed774b"/>
          <path id="Trazado_168484" data-name="Trazado 168484" d="M1157.745,816.267c-2.173-.969-1.618-4.881-1.357-6.793.105-.771-1.075-1.1-1.181-.326-.338,2.475-.932,6.9,1.92,8.176C1157.841,817.643,1158.465,816.588,1157.745,816.267Z" transform="translate(-1138.545 -730.226)" fill="#ed774b"/>
          <path id="Trazado_168485" data-name="Trazado 168485" d="M1610.829,839.654c-.024.392-.049.809-.061,1.25-.551.1-1.1.184-1.666.233a1.091,1.091,0,0,1-1,.588,1.072,1.072,0,0,1-1.017-.625c-.221-.024-.429-.061-.637-.1a9.992,9.992,0,0,1-4.447-2.561c.1-.465.2-.931.294-1.385a9.638,9.638,0,0,0,4.484,2.757,2.838,2.838,0,0,0,.318.049,1.092,1.092,0,0,1,1-.588,1.117,1.117,0,0,1,1.041.637A16.093,16.093,0,0,0,1610.829,839.654Z" transform="translate(-1423.455 -748.293)" fill="#fff"/>
          <path id="Trazado_168486" data-name="Trazado 168486" d="M1608.6,851.546c-.012.441-.037.894-.049,1.36a15.639,15.639,0,0,1-5.721,1.09,1.156,1.156,0,0,1-2.132-.159,11.743,11.743,0,0,1-2.01-.49c.086-.4.172-.808.245-1.213a10.1,10.1,0,0,0,1.948.5,1.077,1.077,0,0,1,.919-.453,1.111,1.111,0,0,1,1.017.588A14.711,14.711,0,0,0,1608.6,851.546Z" transform="translate(-1421.345 -757.527)" fill="#fff"/>
          <path id="Trazado_168487" data-name="Trazado 168487" d="M1181.938,831.754a29.851,29.851,0,0,1-4.019,8.8c-1.152-.674-2.217-1.3-3.148-1.862a26.408,26.408,0,0,0,3.724-8.319C1179.635,830.834,1180.786,831.3,1181.938,831.754Z" transform="translate(-1151.199 -744.032)" fill="#422a21"/>
          <path id="Trazado_168488" data-name="Trazado 168488" d="M1193.978,836.26a23.65,23.65,0,0,1-3.516,9.617c-.367-.2-.723-.4-1.066-.613a21.9,21.9,0,0,0,3.394-9.458C1193.182,835.966,1193.574,836.126,1193.978,836.26Z" transform="translate(-1160.519 -747.497)" fill="#fff"/>
          <g id="Grupo_131616" data-name="Grupo 131616" transform="translate(119.684 61.437)">
            <path id="Trazado_168489" data-name="Trazado 168489" d="M1444.694,783.311a1.831,1.831,0,0,1-.243-.017c-3.774-.54-4.561-16.161-4.713-20.935a.612.612,0,0,1,.592-.632.58.58,0,0,1,.632.592c.3,9.294,1.78,19.492,3.662,19.761,2.754.413,12.054-11.076,17.288-18.4a.613.613,0,0,1,1,.713C1460.619,767.6,1449.153,783.311,1444.694,783.311Z" transform="translate(-1439.738 -761.725)" fill="#fff"/>
          </g>
          <g id="Grupo_131617" data-name="Grupo 131617" transform="translate(119.723 62.392)">
            <path id="Trazado_168490" data-name="Trazado 168490" d="M1447.52,777.125a4.733,4.733,0,0,1-1.237-.156c-5.166-1.394-6.386-11.5-6.435-11.93a.612.612,0,1,1,1.217-.14c.012.1,1.171,9.709,5.538,10.887,3.669,1,10.35-4.623,12.611-6.87a.613.613,0,1,1,.864.869C1459.753,770.108,1452.631,777.125,1447.52,777.125Z" transform="translate(-1439.844 -764.357)" fill="#fff"/>
          </g>
          <path id="Trazado_168491" data-name="Trazado 168491" d="M1329.735,878.085q-1.307,6.844-2.615,13.689c-.147.77,1.034,1.1,1.182.326l2.615-13.689C1331.064,877.64,1329.884,877.31,1329.735,878.085Z" transform="translate(-1248.278 -774.158)" fill="#bf8473"/>
          <path id="Trazado_168492" data-name="Trazado 168492" d="M1567.635,900.334c-2.721,7.153-5.953,16.179-2.667,23.633.317.72,1.373.1,1.058-.619-3.107-7.048.219-15.929,2.79-22.688C1569.1,899.922,1567.913,899.6,1567.635,900.334Z" transform="translate(-1398.974 -788.355)" fill="#bf8473"/>
        </g>
        <path id="Trazado_168493" data-name="Trazado 168493" d="M1687.892,906.9l-.76,25.36a1.149,1.149,0,0,1-1.152,1.1h-21.391a19.2,19.2,0,0,1-.184-26.463Z" transform="translate(-1447.794 -763.362)" fill="#f2d7c6"/>
        <path id="Trazado_168494" data-name="Trazado 168494" d="M1171.117,585.869l-2.989,64.406H1103l.441-14.7,1.054-35.051.441-14.653Z" transform="translate(-1093.338 -558.777)" fill="#ede5e2"/>
        <path id="Trazado_168495" data-name="Trazado 168495" d="M1153.649,625.555l-1.63,35.051-47.805.257,1.054-35.051Z" transform="translate(-1094.113 -584.068)" fill="#fff"/>
        <path id="Trazado_168496" data-name="Trazado 168496" d="M1172.3,640.738a.567.567,0,0,0-.307-.219,2.2,2.2,0,0,0-1.333-.321c-.023,0-.038.013-.06.016a8.569,8.569,0,0,0-6.626,1.3,3.173,3.173,0,0,0-1.262,1.941c-.223.767-.04,1.969-.185,2.667a5.372,5.372,0,0,1-2.734,3.612c-1.872,1.118-4.821,1.424-5.787,3.693-.769,1.807.421,3.136,2.158,3.517a6.73,6.73,0,0,0,5.923-2.109,8.7,8.7,0,0,0,1.874-2.786c.313-.746.3-1.631.619-2.344.836-1.9,1.287-1.348,2.73-1.812,1.877-.6,4.562-2.57,5.377-4.414A2.393,2.393,0,0,0,1172.3,640.738Z" transform="translate(-1125.69 -593.309)" fill="#cfe3e1"/>
        <path id="Trazado_168497" data-name="Trazado 168497" d="M1128.9,644.962a4.687,4.687,0,0,0-2.765-1.531,37.2,37.2,0,0,0-5.656-.842,12.807,12.807,0,0,0-5.469.542c-5.568,2.12-3.216,7.566-3.816,11.972-.364,2.669-2.214,5.421-1.01,7.83,1.1,2.2,4.1,2.587,6.529,2.187,1.87-.308,3.874-1.056,4.74-2.742,1.544-3.007-1.445-6.886.027-9.929,1.206-2.491,4.6-2.874,6.7-4.673a2.6,2.6,0,0,0,1.03-1.738A1.708,1.708,0,0,0,1128.9,644.962Z" transform="translate(-1097.664 -594.881)" fill="#f2d7c6"/>
        <path id="Trazado_168498" data-name="Trazado 168498" d="M1194.253,665.68a9.563,9.563,0,0,0-2.851,3.108c-.342.721-.23,1.308-.864,1.876a17.258,17.258,0,0,1-2.2,1.568c-1.322.85-.095,2.972,1.237,2.116,1.241-.8,2.959-1.745,3.644-3.114.373-.744.329-1.4.885-2.073a11.937,11.937,0,0,1,1.88-1.748C1197.226,666.442,1195.481,664.719,1194.253,665.68Z" transform="translate(-1147.361 -609.458)" fill="#ffc7a3"/>
        <path id="Trazado_168499" data-name="Trazado 168499" d="M1194.744,695.892a1.235,1.235,0,0,0-1.732,0,6.945,6.945,0,0,1-2.659,1.95,1.232,1.232,0,0,0-.44,1.676,1.258,1.258,0,0,0,1.676.44,8.5,8.5,0,0,0,3.155-2.333A1.258,1.258,0,0,0,1194.744,695.892Z" transform="translate(-1148.626 -628.665)" fill="#ffc7a3"/>
        <path id="Trazado_168500" data-name="Trazado 168500" d="M1159.5,694.771c-.423.9-1.544.975-2.407,1.206a4.729,4.729,0,0,0-2.544,1.443c-.993,1.209.731,2.953,1.733,1.733.693-.845,1.859-.845,2.831-1.174a4,4,0,0,0,2.5-1.971C1162.285,694.589,1160.174,693.343,1159.5,694.771Z" transform="translate(-1126.002 -627.774)" fill="#ffc7a3"/>
        <g id="Grupo_131620" data-name="Grupo 131620" transform="translate(187.578 17.156)">
          <path id="Trazado_168501" data-name="Trazado 168501" d="M1593.49,614.61s2.072-19.909,19.989-19.661c15.778.219,17.425,19.468,17.425,19.468Z" transform="translate(-1593.49 -581.719)" fill="#ede5e2"/>
          <g id="Grupo_131619" data-name="Grupo 131619" transform="translate(19.22)">
            <path id="Trazado_168502" data-name="Trazado 168502" d="M1648.732,558.477l-1.029,14.837-1.225-.074,1.017-14.763Z" transform="translate(-1646.478 -558.477)" fill="#ede5e2"/>
          </g>
        </g>
      </g>
      <g id="Grupo_131643" data-name="Grupo 131643" transform="translate(0 10.38)">
        <g id="Grupo_131622" data-name="Grupo 131622" transform="translate(62.013 283.758)">
          <path id="Trazado_168503" data-name="Trazado 168503" d="M637.821,1288.339c.025,1.1.049,2.209.074,3.326,0,.442.012.9.025,1.35.012.332.012.675.024,1.006.037,1.8.074,3.609.123,5.413.049,2.823.11,5.634.172,8.457q.276,12.648.552,25.309c.061,2.639.11,5.266.172,7.9.012.54.025,1.092.037,1.632q.332,15.889.687,31.778.2,9.592.417,19.2a22.313,22.313,0,0,0,22.315,22.3h25.948a22.313,22.313,0,0,0,22.314-22.3c.086-4.185.184-8.359.27-12.532q.35-16.11.7-32.244c.012-.614.037-1.24.049-1.854.013-.65.025-1.289.037-1.939q.276-13.275.577-26.549v-.012c.086-4.456.184-8.9.282-13.354q.073-3.5.147-7c.049-2.43.111-4.86.16-7.291.012-.282.012-.565.024-.847,0-.184.012-.381.024-.577.16-3.719.97-8.825-1.35-11.709-2.5-3.093-6.382-5-10.053-6.309-8.3-2.958-17.417-3.535-26.156-3.535a110.464,110.464,0,0,0-13.809.786c-6.272.786-12.912,2.161-18.337,5.585a18.173,18.173,0,0,0-3.8,3.179C636.729,1280.507,637.735,1284.619,637.821,1288.339Z" transform="translate(-637.568 -1267.963)" fill="#914a33"/>
        </g>
        <g id="Grupo_131624" data-name="Grupo 131624" transform="translate(63.408 353.212)">
          <g id="Grupo_131623" data-name="Grupo 131623">
            <path id="Trazado_168504" data-name="Trazado 168504" d="M641.457,1449.527c.012.54.025,1.092.037,1.632l3.928-3.645,6.223,15.932a.624.624,0,0,0,.491.393.613.613,0,0,0,.565-.245l10.507-14.005,9.549,15.588a.583.583,0,0,0,.5.294h.025a.589.589,0,0,0,.491-.245l11.354-15.465,8.715,12.79a.646.646,0,0,0,.491.27.6.6,0,0,0,.5-.233l11.4-14.557,7.9,9.329c.012-.614.037-1.24.049-1.854l-7.512-8.837a.7.7,0,0,0-.479-.221.661.661,0,0,0-.467.233L694.4,1461.163l-8.739-12.814a.6.6,0,0,0-.491-.258.652.652,0,0,0-.515.246l-11.317,15.429-9.549-15.588a.616.616,0,0,0-1.019-.049l-10.384,13.845-6.137-15.748a.611.611,0,0,0-.442-.368.576.576,0,0,0-.552.147Z" transform="translate(-641.457 -1445.839)" fill="#e0baa1"/>
          </g>
        </g>
        <g id="Grupo_131625" data-name="Grupo 131625" transform="translate(62.34 305.312)">
          <path id="Trazado_168505" data-name="Trazado 168505" d="M638.251,1325.311c0,.442.012.9.025,1.35,9.979,4.284,21.1,6.248,31.974,6.7,14.729.626,30.121-1.535,43.009-8.776.012-.282.012-.565.025-.847,0-.184.012-.381.024-.577-12.814,7.438-28.3,9.6-43.058,8.972C659.338,1331.669,648.206,1329.693,638.251,1325.311Z" transform="translate(-638.251 -1323.163)" fill="#fff"/>
        </g>
        <g id="Grupo_131626" data-name="Grupo 131626" transform="translate(62.512 314.026)">
          <path id="Trazado_168506" data-name="Trazado 168506" d="M638.785,1346.685c.049,2.823.11,5.634.172,8.457L642.3,1350l9.426,20.608,10.114-15.944,10.9,16.987,9.819-17.159,9.513,14.275,9.574-16.988,11.39,14.054c.086-4.455.184-8.9.282-13.354q.073-3.5.147-7c-13.612,8.285-30.661,8.089-46.261,7.9-9.156-.11-17.969-1.006-26.169-5.4C640.27,1347.581,639.521,1347.152,638.785,1346.685Z" transform="translate(-638.785 -1345.482)" fill="#e0baa1"/>
        </g>
        <g id="Grupo_131627" data-name="Grupo 131627" transform="translate(67.618 286.827)">
          <path id="Trazado_168507" data-name="Trazado 168507" d="M651.925,1284.181c0,4.333,12.728,7.917,29.041,8.322.123.012.246.012.368.012.282.012.565.012.847.012.123.013.258.013.393.013.405.012.822.012,1.24.012h1.141c.369,0,.724-.012,1.08-.012.417-.013.822-.013,1.215-.037,16.349-.393,29.114-3.977,29.114-8.322,0-4.406-13.182-8.027-29.9-8.334-.258-.013-.515-.013-.773-.013-.147,0-.295-.012-.454,0-.246-.012-.5-.012-.761-.012h-.332c-.577,0-1.141,0-1.706.012-.417,0-.835.013-1.24.025-.368.012-.737.012-1.105.037-.4,0-.81.024-1.2.037C663.6,1276.583,651.925,1280.032,651.925,1284.181Z" transform="translate(-651.925 -1275.822)" fill="#c27961"/>
        </g>
        <g id="Grupo_131642" data-name="Grupo 131642" transform="translate(0 0)">
          <g id="Grupo_131632" data-name="Grupo 131632" transform="translate(20.26 141.259)">
            <g id="Grupo_131628" data-name="Grupo 131628" transform="translate(0)">
              <path id="Trazado_168508" data-name="Trazado 168508" d="M757.68,908.015a9.122,9.122,0,0,1,1.068-2.664c.086-.123.16-.246.258-.368a4.02,4.02,0,0,1,.9-.921c3.977-3.2,11.489,1.669,16.693,4.48a54.379,54.379,0,0,1,17.577,14.987c5.364,7.07,7.929,15.11,10.678,23.419,3.106,9.4,9,17.539,14.017,25.972a61.049,61.049,0,0,1,8,20.412c.626,3.523,1.62,8.641.589,12.163a8.664,8.664,0,0,1-1.485,3.081,3.448,3.448,0,0,1-.97.81c-5.045,2.688-13.821-13.109-16.325-17.135a151.539,151.539,0,0,1-12.74-25.629c-1.866-4.848-3.633-9.61-7.831-12.961-3.6-2.872-7.733-5.02-11.366-7.892-6.677-5.266-12.8-11.771-16.656-19.418C757.8,921.787,756.464,913.011,757.68,908.015Z" transform="translate(-757.221 -903.011)" fill="#45695f"/>
            </g>
            <g id="Grupo_131629" data-name="Grupo 131629" transform="translate(88.396 51.627)">
              <path id="Trazado_168509" data-name="Trazado 168509" d="M592.44,1086.041c.221-1.166.5-2.283.773-3.191.123-.405.246-.773.368-1.08a34.226,34.226,0,0,1,3.707-7.021c4.161-6.075,9.8-10.948,14.852-16.287a56.582,56.582,0,0,0,10.077-15.061c2.1-4.5,6.935-10.408,12.839-7.3.135.073.27.147.405.233a6.449,6.449,0,0,1,.724.528c.2.172.393.356.577.552a6.419,6.419,0,0,1,.724.994c1.6,2.6,1.608,6.383.7,9.476-2.135,7.266-7.622,13.059-13.416,17.969s-12.1,9.267-16.914,15.134c-3.3,4.026-5.953,8.972-10.237,12.1a11.144,11.144,0,0,1-1.338.847,5.077,5.077,0,0,1-1.129.491,2.39,2.39,0,0,1-1.67-.025.074.074,0,0,1-.049-.012,1.966,1.966,0,0,1-.859-.9.257.257,0,0,1-.037-.061C591.728,1091.835,591.925,1088.779,592.44,1086.041Z" transform="translate(-591.992 -1035.232)" fill="#45695f"/>
            </g>
            <g id="Grupo_131630" data-name="Grupo 131630" transform="translate(79.246 53.806)">
              <path id="Trazado_168510" data-name="Trazado 168510" d="M595.342,1149.3h1.141c.135-4,.283-8,.491-12,.061-1.571.147-3.142.246-4.714.049-.81.1-1.632.147-2.443.1-1.461.209-2.909.368-4.357a81.635,81.635,0,0,1,3.535-17.025,66.331,66.331,0,0,1,4.713-10.961c.209-.392.43-.785.651-1.178,5-8.788,11.55-16.57,18.239-24.094,8.825-9.942,17.957-19.688,25.113-30.722a6.414,6.414,0,0,0-.724-.995,133.428,133.428,0,0,1-10.519,14.2c-11.452,13.636-25.027,26.156-33.668,41.879-.994,1.78-1.9,3.609-2.749,5.487a59.136,59.136,0,0,0-2.639,7.057,75.792,75.792,0,0,0-2.173,9.157c-.43,2.418-.749,4.86-.994,7.327-.221,2.21-.381,4.419-.515,6.653-.037.7-.061,1.412-.1,2.111Q595.575,1142,595.342,1149.3Z" transform="translate(-595.342 -1040.813)" fill="#2a4d43"/>
            </g>
            <g id="Grupo_131631" data-name="Grupo 131631" transform="translate(1.784 1.052)">
              <path id="Trazado_168511" data-name="Trazado 168511" d="M739.472,906.626a144.226,144.226,0,0,0,15.146,23.886c15.318,20.093,34.2,38.148,44.641,61.518a106.166,106.166,0,0,1,6.211,19c2.111,9.021,3.412,18.264,4.8,27.335q.921,5.984,1.743,11.967,1.123,8.267,2.074,16.571c.123.012.246.012.368.012.282.012.565.012.847.012-.27-2.344-.54-4.676-.834-7.021q-.589-4.805-1.252-9.61-1.141-8.506-2.5-16.988c-1.239-7.72-2.455-15.477-4.271-23.087a103.959,103.959,0,0,0-6.861-20.436c-5.364-11.427-12.851-21.713-20.743-31.52-13.539-16.852-29-33-38.467-52.558A4.016,4.016,0,0,0,739.472,906.626Z" transform="translate(-739.472 -905.705)" fill="#2a4d43"/>
            </g>
          </g>
          <g id="Grupo_131635" data-name="Grupo 131635" transform="translate(0 36.563)">
            <g id="Grupo_131633" data-name="Grupo 131633">
              <path id="Trazado_168512" data-name="Trazado 168512" d="M785.627,638.465a8.24,8.24,0,0,1,2.786-2.258,2.957,2.957,0,0,1,.344-.16,8.464,8.464,0,0,1,1.239-.491,16.838,16.838,0,0,1,6.96-.552c16.226,1.829,27.948,16.595,34.441,31.569s9.819,31.5,18.964,45.021c3.412,5.057,7.671,9.758,9.414,15.613,2.614,8.763,3.571,19.148,4.431,28.3.221,2.332.442,6.506-.467,8.752a2.764,2.764,0,0,1-.908,1.252c-.884.626-2.258.307-4.308-1.682-11.612-11.206-13.4-28.881-20.314-43.463-12.348-26-40.922-41.671-52.362-68.072C783.921,647.843,782.657,642.295,785.627,638.465Z" transform="translate(-783.86 -634.874)" fill="#45695f"/>
            </g>
            <g id="Grupo_131634" data-name="Grupo 131634" transform="translate(4.897 0.682)">
              <path id="Trazado_168513" data-name="Trazado 168513" d="M738.413,637.112c4.234,4.272,9.328,7.806,13.6,12.053,8.223,8.174,11.378,19.43,16.288,29.618,4.615,9.623,10.985,18.215,17.024,26.966a162.4,162.4,0,0,1,16.484,29.691,271.41,271.41,0,0,1,10.678,31.14c3.155,11.145,5.745,22.462,8.065,33.7a485.386,485.386,0,0,1,9.856,85.956q.128,4.824.147,9.647c.012,2.332.012,4.676-.013,7.009.282.012.565.012.847.012.123.013.258.013.393.013q.074-8.34-.135-16.705-.331-13.274-1.387-26.524-1.123-14.122-3.081-28.145c-.54-3.879-1.117-7.745-1.755-11.6v-.025q-2.338-14.361-5.536-28.538c-1.952-8.678-4.051-17.417-6.493-26.058a236.935,236.935,0,0,0-13.636-37.5c-9.3-19.663-24.548-35.669-33.116-55.737-3.829-8.972-7.524-17.908-14.729-24.744-3.928-3.707-8.432-6.923-12.262-10.728A8.466,8.466,0,0,0,738.413,637.112Z" transform="translate(-738.413 -636.621)" fill="#2a4d43"/>
            </g>
          </g>
          <g id="Grupo_131638" data-name="Grupo 131638" transform="translate(100.006 75.589)">
            <g id="Grupo_131636" data-name="Grupo 131636" transform="translate(3.93)">
              <path id="Trazado_168514" data-name="Trazado 168514" d="M579.551,841.4c.921-12.74,4.554-25.334,9.292-37.264,6.48-16.312,15.023-31.728,22.008-47.845,3.682-8.506,7.929-18.178,16.73-21.111a6.129,6.129,0,0,1,1.227-.295,4.824,4.824,0,0,1,1.252-.037c8.85.884,5.2,27.224,3.732,32.429-3.965,14.054-15.956,24.217-23.063,36.97-4.971,8.923-7.4,18.89-10.212,28.636-2.418,8.383-5.131,21.688-12.446,27.42a6.124,6.124,0,0,1-2.381,1.142,4.982,4.982,0,0,1-1.338.159,4.167,4.167,0,0,1-2.467-.8c-1.559-1.19-1.951-3.351-2.148-5.315A80.665,80.665,0,0,1,579.551,841.4Z" transform="translate(-579.33 -734.825)" fill="#45695f"/>
            </g>
            <g id="Grupo_131637" data-name="Grupo 131637" transform="translate(0)">
              <path id="Trazado_168515" data-name="Trazado 168515" d="M594.025,899.139q-.018,6.057.061,12.114.037,5.155.147,10.3c.049,2.81.11,5.609.184,8.42.086,3.142.172,6.3.282,9.439.074,2.222.16,4.443.246,6.665.061,1.571.123,3.142.208,4.714q.24,6,.589,11.992c.417-.013.822-.013,1.215-.037q-.46-8.322-.786-16.656-.129-3.406-.258-6.812-.11-3.609-.221-7.193-.129-4.6-.221-9.206c0-.258-.012-.528-.012-.786-.086-5.081-.246-10.187-.294-15.294-.049-5.044-.012-10.089.258-15.109a52.786,52.786,0,0,1,2.958-15.416c1.681-4.554,3.94-8.874,5.511-13.477.147-.442.294-.9.417-1.35,2.639-8.715,2.185-17.92,3.559-26.844a91.405,91.405,0,0,1,6.812-22.425c11.121-25.64,31.078-48.827,34-77.327a4.823,4.823,0,0,0-1.252.037c-1.681,15.809-8.875,30.305-16.546,44.1-7.438,13.354-15.588,26.524-20.583,41.045a91.349,91.349,0,0,0-4.554,23.088,103.075,103.075,0,0,1-1.792,15.024c-.27,1.166-.6,2.32-.982,3.461-1.227,3.781-2.921,7.4-4.468,11.084C594.909,881.268,594.05,889.9,594.025,899.139Z" transform="translate(-594.022 -734.825)" fill="#2a4d43"/>
            </g>
          </g>
          <g id="Grupo_131641" data-name="Grupo 131641" transform="translate(82.827)">
            <g id="Grupo_131639" data-name="Grupo 131639">
              <path id="Trazado_168516" data-name="Trazado 168516" d="M699.431,583.315c-1.915-9.844-3.044-19.663-1.277-29.482.957-5.29,3.744-11.256,8.8-12.41a7.73,7.73,0,0,1,.958-.159,1.656,1.656,0,0,1,.245-.012c3.314-.221,6.432,1.706,8.874,3.977,11.992,11.194,12.385,29.777,11.44,46.15-1.178,20.424-3.13,40.824-6.247,61.052q-2.431,15.816-5.867,31.459c-.65,2.934-3.474,25.333-9.758,20.768a3.345,3.345,0,0,1-.847-.871,6.559,6.559,0,0,1-1.068-2.467c-.123-.527-.221-1.08-.295-1.608-4.148-28.23,4.493-57.075,1.117-85.415C704.266,603.936,701.419,593.613,699.431,583.315Z" transform="translate(-697.272 -541.235)" fill="#45695f"/>
            </g>
            <g id="Grupo_131640" data-name="Grupo 131640" transform="translate(6.857 0.017)">
              <path id="Trazado_168517" data-name="Trazado 168517" d="M733.694,725.526q1.16,23.824,2.356,47.661c.037.786,1.264.786,1.227,0-.884-17.92-1.952-35.828-2.639-53.736a132.684,132.684,0,0,1,.246-15.637,89.916,89.916,0,0,1,1.215-9.341c1.387-7.561,3.3-15.011,4.615-22.6a227.224,227.224,0,0,0,3.044-45.623c-.491-15.809-2.062-31.581-3.363-47.341q-1.547-18.8-3.105-37.632a1.672,1.672,0,0,0-.245.012,7.74,7.74,0,0,0-.958.159l3.584,43.475c1.3,15.748,2.835,31.508,2.983,47.317a220.127,220.127,0,0,1-4.7,47.538c-1.51,7.131-3.29,14.226-4.124,21.492a.155.155,0,0,1-.012.073C732.908,709.373,733.3,717.474,733.694,725.526Z" transform="translate(-733.262 -541.279)" fill="#2a4d43"/>
            </g>
          </g>
        </g>
      </g>
      <g id="Grupo_131729" data-name="Grupo 131729" transform="translate(131.688 34.911)">
        <g id="Grupo_131645" data-name="Grupo 131645" transform="translate(117.327 210.878)">
          <g id="Grupo_131644" data-name="Grupo 131644">
            <path id="Trazado_168518" data-name="Trazado 168518" d="M1181.855,1178.06s27.664-13.05,38.136-13.614,18.557,6.393,21.941,8.273-18.812,13.162-24.448,13.914S1181.855,1178.06,1181.855,1178.06Z" transform="translate(-1181.855 -1164.414)" fill="#e0baa1"/>
          </g>
        </g>
        <g id="Grupo_131647" data-name="Grupo 131647" transform="translate(242.401 290.788)">
          <g id="Grupo_131646" data-name="Grupo 131646">
            <path id="Trazado_168519" data-name="Trazado 168519" d="M1567.91,1443.322a3.347,3.347,0,0,1-1.927.483c-4.141.079-5.8-.435-9.359-2.473a37.466,37.466,0,0,1-5.153-3.586,50.9,50.9,0,0,0-4.2-3.744c-1.253-.822-2.661-.835-4.069-1.292a8.324,8.324,0,0,1-5.835-5.8c-.992-3.78,1.8-8.107,1.3-9.789,0-.013-.011-.015-.008-.028-.552-1.834-11.991-18.352-11.991-18.352l12.579-14.032s9.659,27.9,10.285,29.756a18.945,18.945,0,0,0,.962,2.324c1.759,3.654,4.582,7.194,6.759,10.334a48.579,48.579,0,0,0,5.856,7.3C1564.5,1435.785,1570.961,1441.13,1567.91,1443.322Z" transform="translate(-1526.665 -1384.713)" fill="#ffa78f"/>
          </g>
        </g>
        <g id="Grupo_131649" data-name="Grupo 131649" transform="translate(104.675 207.599)">
          <g id="Grupo_131648" data-name="Grupo 131648">
            <path id="Trazado_168520" data-name="Trazado 168520" d="M1270.544,1165.063a17.935,17.935,0,0,0-1.773-2.053c-3.2-3.172-7.215-6.272-11.713-7.193-6.9-1.41-15.1.887-21.97,2.063-8.014,1.371-15.979,3.067-23.958,4.625l-55.01,10.736a.51.51,0,0,0-.309.81c-4.167,2.73-5.919,7.578-7.249,12.235-1.847,6.474-2.608,12.023.684,18.135,3.021,5.609,6.75,12.434,11.9,16.392,4.962,3.816,11.524,3.859,17.463,3.149,14-1.675,27.121-7.145,39.867-12.892,3.384-1.525,6.754-3.08,10.138-4.6,4-1.8,9.441-4.375,12.227.656,1.324,2.392,1.54,5.289,2,7.93.611,3.533,5.148,5.07,6.192,8.5,1.913,6.289,6.266,6.3,10.492,11.377,2.262,2.719,2.884,16.292,5.314,18.842,3.575,3.751,4.211,7.8,4.146,12.82a.567.567,0,0,0,.564.564c13.759-1.279,38.709-7.774,38.709-7.774q-3.2-8.678-6.453-17.336-6.857-18.3-13.9-36.534c-4.237-10.923-8.455-21.879-13.186-32.6A39.7,39.7,0,0,0,1270.544,1165.063Z" transform="translate(-1146.976 -1155.373)" fill="#f2d7c6"/>
          </g>
        </g>
        <g id="Grupo_131651" data-name="Grupo 131651" transform="translate(136.946 239.76)">
          <g id="Grupo_131650" data-name="Grupo 131650">
            <path id="Trazado_168521" data-name="Trazado 168521" d="M1286.366,1244.05c-13.3,2.379-35.96,25.791-49.085,28.979-.072-.21-.16-.412-.224-.627a.564.564,0,0,0-1.088.3c2.44,8.2,10.982,13.692,18.654,16.321a49.044,49.044,0,0,0,14.148,2.435c2.359.088,5.218.521,7.5-.268,1.992-.689,4.413-2.478,4.8-3.234.732-1.419,2.473-2.794,6.8-5.006,4.787-2.448,11.7-6.133,14.382-11.008C1307.045,1263.24,1289.546,1243.481,1286.366,1244.05Z" transform="translate(-1235.944 -1244.038)" fill="#f2d7c6"/>
          </g>
        </g>
        <g id="Grupo_131653" data-name="Grupo 131653" transform="translate(156.936 251.48)">
          <g id="Grupo_131652" data-name="Grupo 131652">
            <path id="Trazado_168522" data-name="Trazado 168522" d="M1334.81,1278.037c-4.36-4.766-15.069,1.792-18.416,4.486a42.6,42.6,0,0,1-13.806,7.706c-3.314,1.1-8.956,2.286-10.756,5.7a.579.579,0,0,0-.154.165c-3.8,6.176,10.782,7.729,13.93,7.4,4.74-.494,9.46-1.7,14.134-2.614a25.908,25.908,0,0,0,10.344-5.353c2.229-1.9,4.182-6.709,5.217-9.375C1336.482,1283.122,1337.118,1280.559,1334.81,1278.037Z" transform="translate(-1291.052 -1276.348)" fill="#727997"/>
          </g>
        </g>
        <g id="Grupo_131655" data-name="Grupo 131655" transform="translate(60.893 90.573)">
          <g id="Grupo_131654" data-name="Grupo 131654">
            <path id="Trazado_168523" data-name="Trazado 168523" d="M1040.782,840.225l-9.933-7.474-4.572,3.737s7.173,10.365,8.16,10.365S1040.782,840.225,1040.782,840.225Z" transform="translate(-1026.276 -832.751)" fill="#ffa78f"/>
          </g>
        </g>
        <g id="Grupo_131657" data-name="Grupo 131657" transform="translate(148.219 164.401)">
          <g id="Grupo_131656" data-name="Grupo 131656">
            <path id="Trazado_168524" data-name="Trazado 168524" d="M1281.882,1036.285s12.241,4.923,18.741,7.285c8.288,3.012,13.3,4.426,13.3,4.426l2.033,6.233-5.98,3.7s-13.292-1.583-25.916-3.836-17.042-3.718-17.042-3.718Z" transform="translate(-1267.02 -1036.285)" fill="#ffa78f"/>
          </g>
        </g>
        <g id="Grupo_131676" data-name="Grupo 131676" transform="translate(15.946)">
          <g id="Grupo_131659" data-name="Grupo 131659" transform="translate(19.426 19.784)">
            <g id="Grupo_131658" data-name="Grupo 131658">
              <path id="Trazado_168525" data-name="Trazado 168525" d="M1001.911,644.182a37.372,37.372,0,0,0-16.014-6.394c-11.87-1.607-24.878,7.25-28.94,18.289-1.792,4.871-.713,9.146-.722,14.146,0,2.107,2.356,4.481,2.614,6.586a12.627,12.627,0,0,0,2.878,6.206c2.271,2.99,3.7,8.2,7.543,9.244,1.547.421,2.371-.562,3.937-.909a6.026,6.026,0,0,0,2.932-1.834c4.094-.444,8.147-2.832,11.378-5.024a47.765,47.765,0,0,0,12.4-11.785,25.847,25.847,0,0,0,3.79-7.828c.992-3.558,1.04-7.26,2.705-10.624a.614.614,0,0,1,.226-.381C1007.948,649.736,1005.09,646.467,1001.911,644.182Z" transform="translate(-955.92 -637.599)" fill="#d97652"/>
            </g>
          </g>
          <g id="Grupo_131661" data-name="Grupo 131661" transform="translate(28.135 25.706)">
            <g id="Grupo_131660" data-name="Grupo 131660">
              <path id="Trazado_168526" data-name="Trazado 168526" d="M1023.487,676.078c-.034-.868-.079-1.7-.113-2.493a62.568,62.568,0,0,0-.564-6.284,19.306,19.306,0,0,0-.9-3.632c-.959-2.381-1.918-.124-4.67-3.486-2.076-2.561-5.6-4.1-8.665-5.111-7.333-2.437-16.245-1.162-21.029,5.438-3.159,4.389-3.644,9.871-3.294,15.23a.64.64,0,0,0-.891.576c-.135,8.63-.35,17.114.2,25.609.169,2.651-.943,15.886-1.32,19.6-.3,3.01-2.708,17.788-2.257,17.788,7.829,0,23.623-3.384,23.623-3.384s1.85-9.657,3.091-16.573c.654-3.632,1.151-6.509,1.117-6.836,4.592-.925,13.674-.937,14.994-6.4a40.269,40.269,0,0,0,.711-6.307c.056-.857.09-1.76.124-2.7C1023.87,690.62,1023.758,682.362,1023.487,676.078Z" transform="translate(-979.929 -653.924)" fill="#ffa78f"/>
            </g>
          </g>
          <path id="Trazado_168527" data-name="Trazado 168527" d="M967.583,823.427l-13.165,9.562s14.716,6.613,15.139,6.473,5.029-11.975,5.029-11.975Z" transform="translate(-935.537 -736.237)" fill="#ffa78f"/>
          <g id="Grupo_131663" data-name="Grupo 131663" transform="translate(0 90.561)">
            <g id="Grupo_131662" data-name="Grupo 131662">
              <path id="Trazado_168528" data-name="Trazado 168528" d="M999.7,996.876c1.6,1.472,3.094,3.333,5.419,3.48.091.006.186,0,.279,0a24.26,24.26,0,0,0,5.947-10.965c1.247-4.943,2.982-10.964,1.253-15.988-1.781-5.177-5.161-9.877-7.143-14.8-2.033-5.053-2.171-8.04-4.429-13.058-2.373-5.274-5.2-11.3-4.123-16.869a28.882,28.882,0,0,0-.317-12.6c-1.167-4.771-1.942-17.235-3.457-21.9-1.741-5.357-3.412-2.628-3.321-8.238.08-4.91.022-9.717-1.649-14.4a59.018,59.018,0,0,0-6.219-11.967,81.69,81.69,0,0,0-9.916-12.481,49.812,49.812,0,0,0-5.419-5,17.181,17.181,0,0,0-4.753-3.032c-1.8-.6-3.649.087-5.433.382a17.1,17.1,0,0,1-4.982-.038c-2.819-.353-5.563-1.079-8.342-1.646a109.081,109.081,0,0,1-16.462-5.032c-1.219-.456-15.671,8.383-19.05,16.878-4.158,10.454-6.829,27.486-4.113,38.189,2.69,10.6,5,21.157,8.838,31.448l.109.293c1.056,2.817,2.058,5.66,3.172,8.454a8.239,8.239,0,0,0,3.031,4.168c2.152,1.427,4.807,2.289,7.156,3.337l8.826,3.939a.576.576,0,0,0,.449.015c7.065,6.019,13.424,13.081,16.406,21.9.788,2.33.905,5.015,1.925,7.241.927,2.026,2.637,2.756,4.626,3.47a128.837,128.837,0,0,1,18.357,8.105A119.17,119.17,0,0,1,992.4,990.7Q996.169,993.639,999.7,996.876Z" transform="translate(-902.366 -832.718)" fill="#db8804"/>
            </g>
          </g>
          <g id="Grupo_131665" data-name="Grupo 131665" transform="translate(67.818 51.247)">
            <g id="Grupo_131664" data-name="Grupo 131664">
              <path id="Trazado_168529" data-name="Trazado 168529" d="M1091.24,724.483a.967.967,0,0,0-.242-.111,1.262,1.262,0,0,0-1.4.794,4.84,4.84,0,0,0,.179,3.63,1.2,1.2,0,0,0,.782.677c1.644.268,1.567-2.952,1.355-3.85A1.83,1.83,0,0,0,1091.24,724.483Z" transform="translate(-1089.329 -724.336)" fill="#422a21"/>
            </g>
          </g>
          <g id="Grupo_131667" data-name="Grupo 131667" transform="translate(65.821 68.904)">
            <g id="Grupo_131666" data-name="Grupo 131666">
              <path id="Trazado_168530" data-name="Trazado 168530" d="M1089.853,773.015c-.034.937-.068,1.839-.124,2.7-.113.011-.237,0-.35,0a8.9,8.9,0,0,1-4.919-1.974c-.226-.181-.846-.654-.564-.654C1085.938,773.139,1088.059,773.083,1089.853,773.015Z" transform="translate(-1083.824 -773.015)" fill="#fff"/>
            </g>
          </g>
          <g id="Grupo_131669" data-name="Grupo 131669" transform="translate(69.179 53.82)">
            <g id="Grupo_131668" data-name="Grupo 131668">
              <path id="Trazado_168531" data-name="Trazado 168531" d="M1094.4,731.43s4.371,7.333,5.147,8.532,1.34,2.609-2.573,3.878-4.125.917-3.772,0S1094.4,731.43,1094.4,731.43Z" transform="translate(-1093.081 -731.43)" fill="#ffa78f"/>
            </g>
          </g>
          <g id="Grupo_131671" data-name="Grupo 131671" transform="translate(62.838 45.087)">
            <g id="Grupo_131670" data-name="Grupo 131670">
              <path id="Trazado_168532" data-name="Trazado 168532" d="M1084.455,710.133c-1,.079-2.132-.011-2.967.045-1.376.079-2.764.226-4.152.248-.62,0-1.094.09-1.545-.372a.566.566,0,0,1-.169-.542c.384-1.241,2.4-1.692,3.5-1.918a13.345,13.345,0,0,1,5.223.045C1084.376,708.429,1084.421,709.264,1084.455,710.133Z" transform="translate(-1075.601 -707.356)" fill="#d97652"/>
            </g>
          </g>
          <g id="Grupo_131673" data-name="Grupo 131673" transform="translate(29.218 24.433)">
            <g id="Grupo_131672" data-name="Grupo 131672">
              <path id="Trazado_168533" data-name="Trazado 168533" d="M1020.962,656.934c-2.076-2.561-7.05-4.227-10.119-5.242-7.333-2.437-17.4-1.687-22.187,4.912a29.194,29.194,0,0,0-4.844,16.967.64.64,0,0,0-.891.575c-.135,8.63,1.913,17.379,2.466,25.874a6.287,6.287,0,0,0,2.446,1c5.009,1.557,7.468-2.324,11.124-4.682a20.345,20.345,0,0,0,8.055-9.183c1.173-2.786,1.241-5.618,2.786-8.224,1.444-2.437,1.049-5.257,1.918-7.863,1.726-5.19,8.381-5.872,12.194-9.381C1022.951,659.31,1023.715,660.3,1020.962,656.934Z" transform="translate(-982.914 -650.416)" fill="#d97652"/>
            </g>
          </g>
          <g id="Grupo_131675" data-name="Grupo 131675" transform="translate(49.518 49.978)">
            <g id="Grupo_131674" data-name="Grupo 131674">
              <path id="Trazado_168534" data-name="Trazado 168534" d="M1047.125,723.678c-.9-2.353-3.525-3.717-5.859-2.2-3.141,2.042-2.6,7.281-1.629,10.308.656,2.04,2.727,5.841,5.48,4.819,1.336-.5,1.347-1.715,1.365-2.951a53.627,53.627,0,0,1,.919-9.369A.565.565,0,0,0,1047.125,723.678Z" transform="translate(-1038.881 -720.839)" fill="#ffa78f"/>
            </g>
          </g>
          <path id="Trazado_168535" data-name="Trazado 168535" d="M1000.126,589.391a2.207,2.207,0,0,1-.16-.777c-.01-.667.324-1.307.3-1.974-.058-1.391-1.563-2.212-2.891-2.632a17.99,17.99,0,0,0-8.035-.789c-5.087.761-10.249,4.9-9.514,10.522a4.679,4.679,0,0,1,.069,1.769,4.158,4.158,0,0,1-.862,1.426c-1.058,1.364-1.9,3.121-1.415,4.779a5.38,5.38,0,0,0,2.45,2.831,8.146,8.146,0,0,0,4.322,1.412,20.935,20.935,0,0,0,4.7-1.022,14.069,14.069,0,0,1,5.933-.122c1.6.312,3.228.906,4.82.55a5.028,5.028,0,0,0,3.094-2.342,8.1,8.1,0,0,0,1.069-3.8,11.838,11.838,0,0,0-2.584-7.976A7.682,7.682,0,0,1,1000.126,589.391Z" transform="translate(-950.23 -583.057)" fill="#d97652"/>
          <path id="Trazado_168536" data-name="Trazado 168536" d="M972.926,637.6a.52.52,0,0,0-.518.7c-2.74.652-7.064-1.24-8.249,2.091-.257.723-.253,1.071.28,1.511.568.469,2.253.6,2.973.733,1.342.24,2.516.538,3.857.84,1.93.434,5.117-.454,6.133-2.447C978.9,638.081,974.7,637.691,972.926,637.6Z" transform="translate(-941.639 -617.815)" fill="#d97652"/>
        </g>
        <g id="Grupo_131678" data-name="Grupo 131678" transform="translate(72.552 101.349)">
          <g id="Grupo_131677" data-name="Grupo 131677">
            <path id="Trazado_168537" data-name="Trazado 168537" d="M1148.718,931.744c.149-1.392,1.242-6.611,1.242-6.611s-22.421-7.26-27.463-14.992c-2.959-4.539-9.36-3.665-12.31-8.538-1.031-1.7-1.746-3.579-2.738-5.305-2.657-4.623-7.059-6.26-10.763-9.682-4.029-3.722-7.184-8.282-11.3-11.921-5.593-4.949-11.3-9.626-18.3-12.219-.481-.178-1.623,1.161-1.557,1.537-5.776,1.018-6.936,7.529-7.086,12.576a118.817,118.817,0,0,0,1.864,21.961c.972,6.182,1.122,15.128,5.548,19.956s10.716,8.306,16.26,11.709c3.014,1.849,6.066,3.636,9.127,5.406,2.989,1.728,6.016,3.866,9.434,4.607,3.942.855,7.715.71,11.61,2.057,3.567,1.234,6.955,2.928,10.51,4.193a41.263,41.263,0,0,0,20.433,2.014c2.048-.344,2.856-.974,3.327-2.977A134.347,134.347,0,0,0,1148.718,931.744Z" transform="translate(-1058.417 -862.459)" fill="#db8804"/>
          </g>
        </g>
        <g id="Grupo_131680" data-name="Grupo 131680" transform="translate(252.89 322.869)">
          <g id="Grupo_131679" data-name="Grupo 131679">
            <path id="Trazado_168538" data-name="Trazado 168538" d="M1581.532,1490.79a48.581,48.581,0,0,1-5.856-7.3c-2.176-3.139-5-6.68-6.759-10.334q-5.921.132-11.834.3c0,.013.01.015.008.027.5,1.682-2.287,6.01-1.3,9.789a8.324,8.324,0,0,0,5.835,5.8c1.408.457,2.816.471,4.069,1.292a50.94,50.94,0,0,1,4.2,3.744,37.468,37.468,0,0,0,5.153,3.586c3.558,2.038,5.218,2.553,9.359,2.473a3.346,3.346,0,0,0,1.927-.483C1589.389,1497.491,1582.926,1492.146,1581.532,1490.79Z" transform="translate(-1555.582 -1473.155)" fill="#727997"/>
          </g>
        </g>
        <g id="Grupo_131682" data-name="Grupo 131682" transform="translate(198.416 236.341)">
          <g id="Grupo_131681" data-name="Grupo 131681">
            <path id="Trazado_168539" data-name="Trazado 168539" d="M1413.948,1234.985a51.044,51.044,0,0,1-8.4,13.6c-.47.548.324,1.35.8.8a52.882,52.882,0,0,0,8.69-14.1C1415.316,1234.616,1414.225,1234.324,1413.948,1234.985Z" transform="translate(-1405.405 -1234.613)" fill="#e0baa1"/>
          </g>
        </g>
        <g id="Grupo_131684" data-name="Grupo 131684" transform="translate(204.552 246.46)">
          <g id="Grupo_131683" data-name="Grupo 131683">
            <path id="Trazado_168540" data-name="Trazado 168540" d="M1423.381,1262.9l-1.035,3.6a.565.565,0,0,0,1.088.3l1.035-3.6A.565.565,0,0,0,1423.381,1262.9Z" transform="translate(-1422.321 -1262.507)" fill="#e0baa1"/>
          </g>
        </g>
        <g id="Grupo_131686" data-name="Grupo 131686" transform="translate(144.517 263.807)">
          <g id="Grupo_131685" data-name="Grupo 131685">
            <path id="Trazado_168541" data-name="Trazado 168541" d="M1278.031,1310.376c-6.619,2.717-13.4,6.231-20.673,6.538-.723.03-.727,1.158,0,1.128,7.4-.312,14.239-3.814,20.973-6.578C1278.993,1311.192,1278.7,1310.1,1278.031,1310.376Z" transform="translate(-1256.814 -1310.332)" fill="#e0baa1"/>
          </g>
        </g>
        <g id="Grupo_131707" data-name="Grupo 131707" transform="translate(0 152.024)">
          <g id="Grupo_131688" data-name="Grupo 131688" transform="translate(77.062 123.192)">
            <g id="Grupo_131687" data-name="Grupo 131687">
              <path id="Trazado_168542" data-name="Trazado 168542" d="M1100.6,1347.457a7.14,7.14,0,0,0-.89,2.232l-17.2,63.613c-3.834,14.182-7.33,28.451-10.851,42.725-.26,1.057-1.313,4.148-.5,5.117,1.076,1.276,2.19-.074,2.617-1.261,13.843-38.49,24.87-78.745,36.017-118.1-2.728.947-3.973,3.179-6.7,4.126a5.588,5.588,0,0,0-2.091,1.078A3.05,3.05,0,0,0,1100.6,1347.457Z" transform="translate(-1070.851 -1341.782)" fill="#727997"/>
            </g>
          </g>
          <g id="Grupo_131690" data-name="Grupo 131690" transform="translate(48.822 143.525)">
            <g id="Grupo_131689" data-name="Grupo 131689" transform="translate(0 0)">
              <rect id="Rectángulo_35985" data-name="Rectángulo 35985" width="74.502" height="1.128" transform="translate(0 32.741) rotate(-26.07)" fill="#12263f"/>
            </g>
          </g>
          <g id="Grupo_131692" data-name="Grupo 131692" transform="translate(56.946 138.284)">
            <g id="Grupo_131691" data-name="Grupo 131691" transform="translate(0 0)">
              <rect id="Rectángulo_35986" data-name="Rectángulo 35986" width="1.128" height="85.572" transform="translate(0 0.959) rotate(-58.266)" fill="#12263f"/>
            </g>
          </g>
          <g id="Grupo_131694" data-name="Grupo 131694" transform="translate(132.4 143.601)">
            <g id="Grupo_131693" data-name="Grupo 131693" transform="translate(0 0)">
              <rect id="Rectángulo_35987" data-name="Rectángulo 35987" width="62.108" height="1.129" transform="translate(0 38.189) rotate(-37.943)" fill="#12263f"/>
            </g>
          </g>
          <g id="Grupo_131696" data-name="Grupo 131696" transform="translate(122.522 143.548)">
            <g id="Grupo_131695" data-name="Grupo 131695" transform="translate(0 0)">
              <rect id="Rectángulo_35988" data-name="Rectángulo 35988" width="1.128" height="76.24" transform="translate(0 1.002) rotate(-62.604)" fill="#12263f"/>
            </g>
          </g>
          <g id="Grupo_131698" data-name="Grupo 131698" transform="translate(24.953 128.362)">
            <g id="Grupo_131697" data-name="Grupo 131697">
              <path id="Trazado_168543" data-name="Trazado 168543" d="M956.942,1362.308a7.138,7.138,0,0,0-.89,2.231l-17.2,63.613c-3.834,14.182-7.329,28.451-10.851,42.725-.261,1.057-1.313,4.148-.5,5.117,1.076,1.276,2.19-.074,2.617-1.261,13.843-38.49,25.235-79.34,36.383-118.7-2.728.947-4.339,3.775-7.066,4.721a5.589,5.589,0,0,0-2.092,1.079A3.029,3.029,0,0,0,956.942,1362.308Z" transform="translate(-927.196 -1356.037)" fill="#727997"/>
            </g>
          </g>
          <g id="Grupo_131700" data-name="Grupo 131700" transform="translate(113.662 134.285)">
            <g id="Grupo_131699" data-name="Grupo 131699">
              <path id="Trazado_168544" data-name="Trazado 168544" d="M1181.3,1379.132a7.137,7.137,0,0,1,.889,2.231l17.2,63.613c3.834,14.182,7.33,28.451,10.851,42.725.261,1.057,1.313,4.148.5,5.117-1.076,1.276-2.19-.074-2.617-1.261-13.843-38.49-25.224-79.837-36.371-119.192,2.728.947,4.327,4.271,7.055,5.218a5.587,5.587,0,0,1,2.091,1.078A3.047,3.047,0,0,1,1181.3,1379.132Z" transform="translate(-1171.753 -1372.365)" fill="#727997"/>
            </g>
          </g>
          <g id="Grupo_131702" data-name="Grupo 131702" transform="translate(175.523 130.243)">
            <g id="Grupo_131701" data-name="Grupo 131701">
              <path id="Trazado_168545" data-name="Trazado 168545" d="M1351.781,1365.612a7.137,7.137,0,0,1,.89,2.231l17.2,63.613c3.834,14.182,7.329,28.451,10.851,42.725.26,1.057,1.313,4.148.5,5.117-1.076,1.276-2.19-.074-2.617-1.261-13.843-38.49-25.164-77.459-36.312-116.815,2.728.947,4.267,1.894,7,2.841a5.588,5.588,0,0,1,2.091,1.078A3.016,3.016,0,0,1,1351.781,1365.612Z" transform="translate(-1342.294 -1361.222)" fill="#727997"/>
            </g>
          </g>
          <g id="Grupo_131704" data-name="Grupo 131704">
            <g id="Grupo_131703" data-name="Grupo 131703">
              <path id="Trazado_168546" data-name="Trazado 168546" d="M1052.914,1143.2a2.83,2.83,0,0,1-1.692,2.268c-6.51,3-18.423,1.071-25.328,1.15q-30.257.322-60.526-.666c-10.052-.316-20.1-.733-30.145-1.387-10.277-.666-24.4.169-33.326-5.37-18.344-11.394-18.6-43.254-22.214-61.925-4.49-23.161-9.747-46.322-20.679-67.431-.011-.022-.023-.034-.023-.056a4.534,4.534,0,0,1-.429-1.139,5.259,5.259,0,0,1,5.145-6.487c18.806.068,61.992,1.083,70.1,8.687,10.436,9.77,35.819,79.716,40.332,87.241s15.422,25.192,46.627,29.332c22.755,3.023,31.126,10.029,32.1,14.474v.011A3.679,3.679,0,0,1,1052.914,1143.2Z" transform="translate(-858.404 -1002.162)" fill="#1d272b"/>
            </g>
          </g>
          <g id="Grupo_131706" data-name="Grupo 131706" transform="translate(0.15 6.487)">
            <g id="Grupo_131705" data-name="Grupo 131705">
              <path id="Trazado_168547" data-name="Trazado 168547" d="M1053.178,1154.6a76.149,76.149,0,0,0-21.6-7.491l-28.621-5.584c-10.469-2.042-18.874-6.047-25-11.925a51.011,51.011,0,0,1-8.946-12.714c-4.9-9.691-8.743-19.111-12.466-28.227-3.069-7.491-6.239-15.241-10.007-23.218-1.85-3.9-3.7-8.315-5.483-12.591-5.347-12.76-10.875-25.959-16.866-27-6.995-1.219-51.252-3.87-64.937-4.671a4.527,4.527,0,0,1-.429-1.139c13.155.756,58.315,3.429,65.558,4.693,6.6,1.151,12,14.034,17.712,27.685,1.782,4.253,3.633,8.653,5.46,12.545,3.791,8,6.961,15.76,10.03,23.274,3.711,9.082,7.559,18.479,12.432,28.137a50.5,50.5,0,0,0,8.732,12.41c5.957,5.72,14.181,9.634,24.425,11.631l28.621,5.585a77.3,77.3,0,0,1,21.334,7.288v.011A3.673,3.673,0,0,1,1053.178,1154.6Z" transform="translate(-858.818 -1020.046)" fill="#b0c0d2"/>
            </g>
          </g>
        </g>
        <g id="Grupo_131708" data-name="Grupo 131708" transform="translate(183.828 171.963)">
          <path id="Trazado_168548" data-name="Trazado 168548" d="M1397.021,1066.932a.95.95,0,0,0,.211-.881c-.212-1.333-2.6-2.6-3.647-3.246-.383-.234-.779-.433-1.175-.634a.618.618,0,0,0-.05-.319c-1.63-3.456-6.42-4.443-9.872-4.689-4.866-.348-9.533,2.2-14.343,1.34-.7-.126-.968.955-.256,1.081a12.19,12.19,0,0,0,2.581.167c-.16.11-.319.223-.472.341-2.842.544-5.889,3.693-4.435,6.667,2.038,4.167,8.428,5.39,12.476,4.768a38.555,38.555,0,0,1,8.925-.7c1.656.125,5.044,2.007,6.717.891,1.519-1.012.116-1.963-1.734-2.672.588.108,1.176.233,1.767.4,1.01.28,2.534.577,3.423-.2C1398.168,1068.342,1397.847,1067.561,1397.021,1066.932Z" transform="translate(-1365.188 -1057.13)" fill="#ffa78f"/>
        </g>
        <g id="Grupo_131709" data-name="Grupo 131709" transform="translate(67.16 84.3)">
          <path id="Trazado_168549" data-name="Trazado 168549" d="M1048.362,815.459c.034.327-.463,3.2-1.117,6.837a3.86,3.86,0,0,1-2.008-2.685c-.282-2.391-2.188-1.546-1.557-2.742S1048.362,815.459,1048.362,815.459Z" transform="translate(-1043.553 -815.459)" fill="#e87c5f"/>
        </g>
        <g id="Grupo_131710" data-name="Grupo 131710" transform="translate(204.946 181.996)">
          <path id="Trazado_168550" data-name="Trazado 168550" d="M1428.185,1085.63a24.116,24.116,0,0,0-4.254-.838c-.718-.038-.684,1.075.031,1.113a22.667,22.667,0,0,1,3.966.807A.556.556,0,0,0,1428.185,1085.63Z" transform="translate(-1423.408 -1084.79)" fill="#e87c5f"/>
        </g>
        <g id="Grupo_131711" data-name="Grupo 131711" transform="translate(202.917 177.299)">
          <path id="Trazado_168551" data-name="Trazado 168551" d="M1429.226,1075.125a21.951,21.951,0,0,0-10.889-3.283c-.719-.025-.686,1.087.031,1.113a20.754,20.754,0,0,1,10.321,3.143C1429.3,1076.476,1429.838,1075.5,1429.226,1075.125Z" transform="translate(-1417.813 -1071.842)" fill="#e87c5f"/>
        </g>
        <g id="Grupo_131712" data-name="Grupo 131712" transform="translate(201.672 174.289)">
          <path id="Trazado_168552" data-name="Trazado 168552" d="M1422.405,1064.833a15.206,15.206,0,0,0-7.625-1.165c-.709.111-.388,1.18.314,1.07a14.27,14.27,0,0,1,7.055,1.177C1422.824,1066.16,1423.076,1065.077,1422.405,1064.833Z" transform="translate(-1414.382 -1063.544)" fill="#e87c5f"/>
        </g>
        <g id="Grupo_131713" data-name="Grupo 131713" transform="translate(83.038 150.296)">
          <path id="Trazado_168553" data-name="Trazado 168553" d="M1114.834,1023.39a94.931,94.931,0,0,1-8.235-4.909c-2.622-1.921-3.742-4.8-5.43-7.442-3.343-5.24-10.694-7.083-12.7-13.22-.223-.68-1.334-.476-1.108.214,2.11,6.445,9.382,8.208,12.857,13.626,1.528,2.381,2.576,5.056,4.748,6.962,2.667,2.339,6.178,3.91,9.226,5.7C1114.813,1024.682,1115.46,1023.757,1114.834,1023.39Z" transform="translate(-1087.328 -997.4)" fill="#422a21"/>
        </g>
        <g id="Grupo_131714" data-name="Grupo 131714" transform="translate(56.521 97.522)">
          <path id="Trazado_168554" data-name="Trazado 168554" d="M1029.8,853.373a28.277,28.277,0,0,1-7.969,0c-2.391-.357-4.652-1.366-7.066-1.463-.726-.029-.724,1.1,0,1.128,2.525.1,4.97,1.215,7.489,1.536a29.036,29.036,0,0,0,7.546-.074C1030.511,854.407,1030.521,853.277,1029.8,853.373Z" transform="translate(-1014.224 -851.91)" fill="#422a21"/>
        </g>
        <g id="Grupo_131728" data-name="Grupo 131728" transform="translate(19.636 105.904)">
          <g id="Grupo_131715" data-name="Grupo 131715" transform="translate(64.681 12.188)">
            <path id="Trazado_168555" data-name="Trazado 168555" d="M1094.682,908.673a2.324,2.324,0,0,0-.741-.042c-3.221.338-4.516,7-.936,3.52a8.112,8.112,0,0,1,1.762-1,1.607,1.607,0,0,0,.958-1.627A1.279,1.279,0,0,0,1094.682,908.673Z" transform="translate(-1090.855 -908.618)" fill="#fff"/>
          </g>
          <g id="Grupo_131716" data-name="Grupo 131716" transform="translate(3.649)">
            <path id="Trazado_168556" data-name="Trazado 168556" d="M926.425,875.072a2.352,2.352,0,0,0-.741-.042c-3.222.339-4.516,7-.936,3.52a8.118,8.118,0,0,1,1.762-1,1.607,1.607,0,0,0,.959-1.628A1.281,1.281,0,0,0,926.425,875.072Z" transform="translate(-922.598 -875.018)" fill="#fff"/>
          </g>
          <g id="Grupo_131717" data-name="Grupo 131717" transform="translate(0 40.378)">
            <path id="Trazado_168557" data-name="Trazado 168557" d="M916.365,986.387a2.34,2.34,0,0,0-.741-.042c-3.222.339-4.516,7-.936,3.52a8.142,8.142,0,0,1,1.762-1,1.606,1.606,0,0,0,.959-1.627A1.28,1.28,0,0,0,916.365,986.387Z" transform="translate(-912.538 -986.333)" fill="#fff"/>
          </g>
          <g id="Grupo_131718" data-name="Grupo 131718" transform="translate(40.656 29.852)">
            <path id="Trazado_168558" data-name="Trazado 168558" d="M1028.447,957.369a2.338,2.338,0,0,0-.741-.042c-3.222.339-4.516,7-.936,3.52a8.123,8.123,0,0,1,1.762-1,1.607,1.607,0,0,0,.959-1.627A1.281,1.281,0,0,0,1028.447,957.369Z" transform="translate(-1024.62 -957.315)" fill="#fff"/>
          </g>
          <g id="Grupo_131719" data-name="Grupo 131719" transform="translate(91.127 23.274)">
            <path id="Trazado_168559" data-name="Trazado 168559" d="M1165.983,939.222a2.327,2.327,0,0,0-.693.267c-2.8,1.633-1.241,8.234.594,3.593a8.127,8.127,0,0,1,1.2-1.633,1.607,1.607,0,0,0,.2-1.878A1.279,1.279,0,0,0,1165.983,939.222Z" transform="translate(-1163.761 -939.18)" fill="#fff"/>
          </g>
          <g id="Grupo_131720" data-name="Grupo 131720" transform="translate(98.9 52.961)">
            <path id="Trazado_168560" data-name="Trazado 168560" d="M1189.018,1021.077a2.326,2.326,0,0,0-.741-.042c-3.222.339-4.516,7-.936,3.519a8.122,8.122,0,0,1,1.762-1,1.607,1.607,0,0,0,.958-1.627A1.279,1.279,0,0,0,1189.018,1021.077Z" transform="translate(-1185.191 -1021.022)" fill="#fff"/>
          </g>
          <g id="Grupo_131721" data-name="Grupo 131721" transform="translate(73.513 76.088)">
            <path id="Trazado_168561" data-name="Trazado 168561" d="M1119.03,1084.835a2.329,2.329,0,0,0-.741-.042c-3.222.339-4.516,7-.936,3.52a8.115,8.115,0,0,1,1.762-1,1.607,1.607,0,0,0,.958-1.627A1.28,1.28,0,0,0,1119.03,1084.835Z" transform="translate(-1115.203 -1084.781)" fill="#fff"/>
          </g>
          <g id="Grupo_131722" data-name="Grupo 131722" transform="translate(74.615 39.718)">
            <path id="Trazado_168562" data-name="Trazado 168562" d="M1123.868,986.279a2.339,2.339,0,0,0-.36-.649c-2-2.546-8.327-.094-3.477,1.083a8.135,8.135,0,0,1,1.782.96,1.606,1.606,0,0,0,1.888-.056A1.28,1.28,0,0,0,1123.868,986.279Z" transform="translate(-1118.241 -984.516)" fill="#fff"/>
          </g>
          <g id="Grupo_131723" data-name="Grupo 131723" transform="translate(15.191 23.001)">
            <path id="Trazado_168563" data-name="Trazado 168563" d="M960.045,940.191a2.326,2.326,0,0,0-.359-.65c-2-2.546-8.327-.093-3.477,1.083a8.141,8.141,0,0,1,1.783.96,1.606,1.606,0,0,0,1.888-.056A1.28,1.28,0,0,0,960.045,940.191Z" transform="translate(-954.418 -938.428)" fill="#fff"/>
          </g>
          <g id="Grupo_131724" data-name="Grupo 131724" transform="translate(43.107 0.55)">
            <path id="Trazado_168564" data-name="Trazado 168564" d="M1037,878.3a2.325,2.325,0,0,0-.36-.65c-2-2.546-8.327-.093-3.477,1.084a8.112,8.112,0,0,1,1.782.96,1.607,1.607,0,0,0,1.888-.056A1.28,1.28,0,0,0,1037,878.3Z" transform="translate(-1031.378 -876.534)" fill="#fff"/>
          </g>
          <g id="Grupo_131725" data-name="Grupo 131725" transform="translate(125.673 73.448)">
            <path id="Trazado_168565" data-name="Trazado 168565" d="M1259.894,1081.4a2.337,2.337,0,0,0,.725.162c3.234.19,5.594-6.168,1.5-3.32a8.137,8.137,0,0,1-1.9.7c-.635.236-1.272.775-1.211,1.45A1.281,1.281,0,0,0,1259.894,1081.4Z" transform="translate(-1259 -1077.503)" fill="#fff"/>
          </g>
          <g id="Grupo_131726" data-name="Grupo 131726" transform="translate(121.916 53.26)">
            <path id="Trazado_168566" data-name="Trazado 168566" d="M1254.267,1023.61a2.333,2.333,0,0,0-.359-.65c-2-2.545-8.327-.093-3.477,1.084a8.125,8.125,0,0,1,1.783.96,1.607,1.607,0,0,0,1.888-.056A1.28,1.28,0,0,0,1254.267,1023.61Z" transform="translate(-1248.64 -1021.846)" fill="#fff"/>
          </g>
          <g id="Grupo_131727" data-name="Grupo 131727" transform="translate(84.227 109.721)">
            <path id="Trazado_168567" data-name="Trazado 168567" d="M1150.365,1179.264a2.338,2.338,0,0,0-.359-.65c-2-2.546-8.327-.094-3.477,1.083a8.133,8.133,0,0,1,1.782.96,1.608,1.608,0,0,0,1.888-.056A1.28,1.28,0,0,0,1150.365,1179.264Z" transform="translate(-1144.738 -1177.501)" fill="#fff"/>
          </g>
        </g>
        <path id="Trazado_168568" data-name="Trazado 168568" d="M1002.4,638.722a33.362,33.362,0,0,0-9.27.957.5.5,0,0,0-.531-.6,25.192,25.192,0,0,1-10.079-1.38c-.686-.241-.982.849-.3,1.088a25.865,25.865,0,0,0,8.843,1.472,34.277,34.277,0,0,0-5.041,2.036c-.649.326-.078,1.3.569.974a32.078,32.078,0,0,1,15.808-3.422C1003.125,639.878,1003.124,638.749,1002.4,638.722Z" transform="translate(-937.061 -617.858)" fill="#ba5536"/>
        <path id="Trazado_168569" data-name="Trazado 168569" d="M1020.546,604.06a16.2,16.2,0,0,1-8.573,10.465c-.651.322-.079,1.3.57.974a17.3,17.3,0,0,0,9.092-11.139A.565.565,0,0,0,1020.546,604.06Z" transform="translate(-956.085 -596.186)" fill="#ba5536"/>
        <path id="Trazado_168570" data-name="Trazado 168570" d="M1018.988,599.778a21.726,21.726,0,0,1-1.954,7.243c-.271.673.82.966,1.088.3a22.525,22.525,0,0,0,1.994-7.543C1020.145,599.052,1019.017,599.053,1018.988,599.778Z" transform="translate(-959.466 -593.366)" fill="#ba5536"/>
        <path id="Trazado_168571" data-name="Trazado 168571" d="M1001.078,697.654c-3.125-3.76-5.42-7.291-5.87-12.28a55.808,55.808,0,0,1,.7-14.219c.12-.71-.967-1.015-1.087-.3a53.18,53.18,0,0,0-.579,15.982c.643,4.639,3.122,8.1,6.044,11.614C1000.746,699.011,1001.54,698.209,1001.078,697.654Z" transform="translate(-944.729 -638.748)" fill="#ba5536"/>
        <path id="Trazado_168572" data-name="Trazado 168572" d="M1006.46,749.859a28.044,28.044,0,0,1-7.407-7.439c-.406-.6-1.383-.034-.974.569a29.538,29.538,0,0,0,7.812,7.843C1006.491,751.244,1007.056,750.267,1006.46,749.859Z" transform="translate(-947.351 -684.452)" fill="#ba5536"/>
        <path id="Trazado_168573" data-name="Trazado 168573" d="M1040.614,672.055a24.5,24.5,0,0,0-8.39-12.2c-.566-.442-1.37.351-.8.8a23.5,23.5,0,0,1,8.1,11.706C1039.74,673.046,1040.83,672.751,1040.614,672.055Z" transform="translate(-968.54 -631.913)" fill="#ba5536"/>
        <path id="Trazado_168574" data-name="Trazado 168574" d="M1057.265,676.338a16.041,16.041,0,0,0-4.417-6.529c-.541-.481-1.341.314-.8.8a14.882,14.882,0,0,1,4.126,6.032C1056.425,677.314,1057.516,677.022,1057.265,676.338Z" transform="translate(-981.693 -638.246)" fill="#ba5536"/>
      </g>
      <g id="Grupo_131609" data-name="Grupo 131609" transform="translate(473.009 166.032)">
        <g id="Grupo_131607" data-name="Grupo 131607" transform="translate(0 27.916)">
          <path id="Trazado_168435" data-name="Trazado 168435" d="M1005.594,1042.5H988.766a3.429,3.429,0,0,1-3.429-3.429l.613-21.826h23.686l-.613,21.826A3.429,3.429,0,0,1,1005.594,1042.5Z" transform="translate(-985.337 -1017.248)" fill="#d17b5c"/>
        </g>
        <g id="Grupo_131608" data-name="Grupo 131608" transform="translate(17.207 32.306)">
          <path id="Trazado_168436" data-name="Trazado 168436" d="M1039.206,1044.767c-3.547,0-6.432-3.458-6.432-7.708s2.885-7.708,6.432-7.708,6.432,3.458,6.432,7.708S1042.753,1044.767,1039.206,1044.767Zm0-14.191c-2.871,0-5.207,2.908-5.207,6.483s2.336,6.483,5.207,6.483,5.207-2.908,5.207-6.483S1042.077,1030.576,1039.206,1030.576Z" transform="translate(-1032.774 -1029.351)" fill="#d17b5c"/>
        </g>
        <path id="Trazado_168437" data-name="Trazado 168437" d="M1030,941.184c-1.862-3.191-7.457,3.044-8.355,4.691a57.632,57.632,0,0,1-4.762,6.7c-1.629,2.21-1.887,5.1-2.233,7.8a50.363,50.363,0,0,0-1.395,5.051.613.613,0,0,0,1.181.325c1.22-3.287,2.913-6.584,5.964-8.525,1.649-1.048,3.771-1.6,4.84-3.366.659-1.086.615-2.332.923-3.533a16.434,16.434,0,0,1,2.13-4.477C1028.98,944.724,1030.863,942.67,1030,941.184Z" transform="translate(-1003.114 -940.288)" fill="#ede5e2"/>
      </g>
    </g>
    <path id="Trazado_771651" data-name="Trazado 771651" d="M11,0H93.492a11,11,0,0,1,11,11v4.78a11,11,0,0,1-11,11H11a11,11,0,0,1-11-11V11A11,11,0,0,1,11,0Z" transform="translate(1054 606)" fill="#b42218"/>
    <path id="Trazado_771652" data-name="Trazado 771652" d="M16.027,12.737A4.528,4.528,0,0,1,14.5,15.989a5.355,5.355,0,0,1-3.625,1.187,4.816,4.816,0,0,1-3.872-1.657,6.793,6.793,0,0,1-1.411-4.548v-.782a7.671,7.671,0,0,1,.65-3.252A4.874,4.874,0,0,1,8.1,4.779a5.207,5.207,0,0,1,2.808-.751A5.217,5.217,0,0,1,14.48,5.214a4.866,4.866,0,0,1,1.564,3.331H13.408a2.673,2.673,0,0,0-.69-1.8,2.555,2.555,0,0,0-1.806-.558,2.24,2.24,0,0,0-1.973.945,5.3,5.3,0,0,0-.672,2.931v.967A5.667,5.667,0,0,0,8.9,14.064a2.2,2.2,0,0,0,1.982.958,2.6,2.6,0,0,0,1.824-.558,2.521,2.521,0,0,0,.69-1.727Zm1.169-.58a5.64,5.64,0,0,1,.545-2.522A3.989,3.989,0,0,1,19.31,7.921a4.577,4.577,0,0,1,2.377-.606A4.33,4.33,0,0,1,24.83,8.492a4.727,4.727,0,0,1,1.358,3.2l.018.65a4.97,4.97,0,0,1-1.222,3.511,4.247,4.247,0,0,1-3.278,1.323,4.268,4.268,0,0,1-3.283-1.318A5.058,5.058,0,0,1,17.2,12.271Zm2.54.18a3.555,3.555,0,0,0,.51,2.073,1.831,1.831,0,0,0,2.9.009,3.89,3.89,0,0,0,.519-2.267,3.519,3.519,0,0,0-.519-2.06,1.686,1.686,0,0,0-1.459-.731,1.658,1.658,0,0,0-1.441.726A3.955,3.955,0,0,0,19.736,12.338ZM22.188,3.5h2.769L22.522,6.225H20.457Zm5.186,8.675a5.731,5.731,0,0,1,1-3.542A3.237,3.237,0,0,1,31.1,7.314a2.913,2.913,0,0,1,2.294,1.037V3.5h2.549V17H33.649l-.123-1.011a2.989,2.989,0,0,1-2.443,1.187,3.228,3.228,0,0,1-2.694-1.323A5.916,5.916,0,0,1,27.374,12.175Zm2.54.181a3.775,3.775,0,0,0,.466,2.057,1.516,1.516,0,0,0,1.354.715,1.7,1.7,0,0,0,1.661-1V10.36a1.675,1.675,0,0,0-1.644-1Q29.914,9.362,29.914,12.356ZM40.593,17H38.044V7.49h2.549Zm-2.7-11.971a1.251,1.251,0,0,1,.382-.94,1.648,1.648,0,0,1,2.079,0,1.244,1.244,0,0,1,.387.94,1.247,1.247,0,0,1-.391.949,1.629,1.629,0,0,1-2.065,0A1.247,1.247,0,0,1,37.895,5.029Zm4.421,7.146A5.573,5.573,0,0,1,43.357,8.65a3.375,3.375,0,0,1,2.808-1.336A2.96,2.96,0,0,1,48.6,8.387l.105-.9h2.3v9.193a4.064,4.064,0,0,1-.567,2.171,3.641,3.641,0,0,1-1.6,1.406,5.608,5.608,0,0,1-2.408.483,5.215,5.215,0,0,1-2.039-.417,3.619,3.619,0,0,1-1.5-1.077L44.021,17.7a2.975,2.975,0,0,0,2.3,1.063,2.178,2.178,0,0,0,1.573-.541,2.027,2.027,0,0,0,.563-1.534v-.51a2.938,2.938,0,0,1-2.312.993,3.366,3.366,0,0,1-2.773-1.34,5.572,5.572,0,0,1-1.059-3.555Zm2.54.181a3.489,3.489,0,0,0,.519,2.035,1.648,1.648,0,0,0,1.424.737,1.762,1.762,0,0,0,1.661-.874V10.236a1.758,1.758,0,0,0-1.644-.874,1.659,1.659,0,0,0-1.437.751A3.933,3.933,0,0,0,44.855,12.356Zm7.708-.2a5.64,5.64,0,0,1,.545-2.522,3.989,3.989,0,0,1,1.569-1.714,4.577,4.577,0,0,1,2.377-.606A4.33,4.33,0,0,1,60.2,8.492a4.727,4.727,0,0,1,1.358,3.2l.018.65a4.97,4.97,0,0,1-1.222,3.511,4.735,4.735,0,0,1-6.561,0,5.058,5.058,0,0,1-1.226-3.586Zm2.54.18a3.555,3.555,0,0,0,.51,2.073,1.831,1.831,0,0,0,2.9.009,3.89,3.89,0,0,0,.519-2.267,3.519,3.519,0,0,0-.519-2.06,1.686,1.686,0,0,0-1.459-.731,1.658,1.658,0,0,0-1.441.726A3.955,3.955,0,0,0,55.1,12.338Z" transform="translate(1073 609)" fill="#fff"/>
    <path id="Trazado_168575" data-name="Trazado 168575" d="M-4775.969-10323.261s4.526,3.558,2.592,11.075" transform="translate(5816.253 10945.926)" fill="none" stroke="#12263f" stroke-width="2"/>
    <path id="Trazado_168576" data-name="Trazado 168576" d="M-4775.968-10323.26s8.536,6.707,4.887,20.885" transform="translate(5819.326 10938.36)" fill="none" stroke="#12263f" stroke-width="2"/>
    <path id="Trazado_168577" data-name="Trazado 168577" d="M-4775.968-10323.26s12.363,9.715,7.078,30.247" transform="translate(5823.348 10930.801)" fill="none" stroke="#12263f" stroke-width="2"/>
    <path id="Trazado_168578" data-name="Trazado 168578" d="M-4775.968-10323.261s19.5,15.326,11.166,47.716" transform="translate(5825.121 10922.067)" fill="none" stroke="#12263f" stroke-width="2"/>
    <path id="Trazado_771653" data-name="Trazado 771653" d="M11,0H82.2a11,11,0,0,1,11,11v4.78a11,11,0,0,1-11,11H11a11,11,0,0,1-11-11V11A11,11,0,0,1,11,0Z" transform="translate(1320.662 690.216)" fill="#b42218"/>
    <path id="Trazado_771654" data-name="Trazado 771654" d="M21.475,12.737a4.528,4.528,0,0,1-1.525,3.252,5.355,5.355,0,0,1-3.625,1.187,4.816,4.816,0,0,1-3.872-1.657,6.793,6.793,0,0,1-1.411-4.548v-.782a7.671,7.671,0,0,1,.65-3.252,4.874,4.874,0,0,1,1.859-2.158,5.207,5.207,0,0,1,2.808-.751,5.217,5.217,0,0,1,3.568,1.187,4.866,4.866,0,0,1,1.564,3.331H18.856a2.673,2.673,0,0,0-.69-1.8,2.555,2.555,0,0,0-1.806-.558,2.24,2.24,0,0,0-1.973.945,5.3,5.3,0,0,0-.672,2.931v.967a5.667,5.667,0,0,0,.628,3.032,2.2,2.2,0,0,0,1.982.958,2.6,2.6,0,0,0,1.824-.558,2.521,2.521,0,0,0,.69-1.727ZM28.55,17a2.821,2.821,0,0,1-.255-.853,3.073,3.073,0,0,1-2.4,1.028,3.376,3.376,0,0,1-2.316-.809,2.6,2.6,0,0,1-.918-2.039,2.687,2.687,0,0,1,1.121-2.32,5.529,5.529,0,0,1,3.239-.817H28.19v-.545a1.567,1.567,0,0,0-.338-1.055,1.331,1.331,0,0,0-1.068-.4,1.513,1.513,0,0,0-1.006.308,1.045,1.045,0,0,0-.365.844h-2.54a2.551,2.551,0,0,1,.51-1.529,3.37,3.37,0,0,1,1.441-1.1,5.253,5.253,0,0,1,2.092-.4,4.15,4.15,0,0,1,2.791.883,3.09,3.09,0,0,1,1.033,2.483V14.8a4.546,4.546,0,0,0,.378,2.048V17Zm-2.1-1.767a2.188,2.188,0,0,0,1.037-.25,1.645,1.645,0,0,0,.7-.672V12.676H27.24q-1.907,0-2.03,1.318l-.009.149a1.017,1.017,0,0,0,.334.782A1.3,1.3,0,0,0,26.449,15.233ZM35.028,7.49l.079,1.1A3.32,3.32,0,0,1,37.84,7.314a2.759,2.759,0,0,1,2.25.888,4.142,4.142,0,0,1,.756,2.654V17h-2.54V10.9a1.654,1.654,0,0,0-.352-1.176,1.572,1.572,0,0,0-1.169-.366,1.747,1.747,0,0,0-1.608.916V17h-2.54V7.49ZM48.281,17a2.821,2.821,0,0,1-.255-.853,3.073,3.073,0,0,1-2.4,1.028,3.376,3.376,0,0,1-2.316-.809,2.6,2.6,0,0,1-.918-2.039,2.687,2.687,0,0,1,1.121-2.32,5.529,5.529,0,0,1,3.239-.817h1.169v-.545a1.567,1.567,0,0,0-.338-1.055,1.331,1.331,0,0,0-1.068-.4,1.513,1.513,0,0,0-1.006.308,1.045,1.045,0,0,0-.365.844H42.6a2.551,2.551,0,0,1,.51-1.529,3.37,3.37,0,0,1,1.441-1.1,5.253,5.253,0,0,1,2.092-.4,4.15,4.15,0,0,1,2.791.883,3.09,3.09,0,0,1,1.033,2.483V14.8a4.546,4.546,0,0,0,.378,2.048V17Zm-2.1-1.767a2.188,2.188,0,0,0,1.037-.25,1.645,1.645,0,0,0,.7-.672V12.676h-.949q-1.907,0-2.03,1.318l-.009.149a1.017,1.017,0,0,0,.334.782A1.3,1.3,0,0,0,46.181,15.233ZM55.1,17H52.553V3.5H55.1Z" transform="translate(1334.588 693.43)" fill="#fff"/>
    <path id="Trazado_168360" data-name="Trazado 168360" d="M455.856,1599.466H475.72a2,2,0,0,0,2-2.015l.037-13.355a1.945,1.945,0,0,0-1.937-1.916H455.961a2.005,2.005,0,0,0-2.005,2.02l-.037,13.35A1.945,1.945,0,0,0,455.856,1599.466Z" transform="translate(696.442 -905.837)" fill="#62a8a4"/>
    <path id="Trazado_168361" data-name="Trazado 168361" d="M569.3,1635.7v0a1.966,1.966,0,0,1-.34.466q-3.89-4.943-7.788-9.883c-.047-.061-.093-.119-.14-.181-.238-.3.242-.593.479-.293.043.058.089.112.132.17Q565.472,1630.847,569.3,1635.7Z" transform="translate(604.639 -943.15)" fill="#fff0f0"/>
    <path id="Trazado_168362" data-name="Trazado 168362" d="M463.191,1628.585l-.073.1q-3.505,4.822-7,9.641a1.842,1.842,0,0,1-.385-.477q3.447-4.747,6.89-9.494l.133-.181C462.964,1627.888,463.4,1628.3,463.191,1628.585Z" transform="translate(694.888 -945.2)" fill="#fff0f0"/>
    <path id="Trazado_168363" data-name="Trazado 168363" d="M543.49,1588.755q-3.922,2.547-7.846,5.09c-.158.1-.316.2-.471.3l-4.065,2.633a.034.034,0,0,1-.018.015c-.022.012-.041.019-.06.027a.3.3,0,0,1-.131,0,.183.183,0,0,1-.04-.015.045.045,0,0,1-.028-.012.3.3,0,0,1-.06-.508l.147-.1q6.152-3.991,12.311-7.985A1.81,1.81,0,0,1,543.49,1588.755Z" transform="translate(630.634 -911.01)" fill="#fff0f0"/>
    <path id="Trazado_168364" data-name="Trazado 168364" d="M465.53,1600.4a.034.034,0,0,1-.018.015.64.64,0,0,1-.06.027.153.153,0,0,1-.131,0,.174.174,0,0,1-.04-.015.044.044,0,0,1-.028-.011c-.008,0-.016-.008-.024-.012l-3.437-2.291c-.166-.108-.331-.219-.5-.331l-7.109-4.735v-.058a1.932,1.932,0,0,1,.075-.562l11.081,7.384c.048.031.1.065.146.1A.307.307,0,0,1,465.53,1600.4Z" transform="translate(696.213 -914.628)" fill="#fff0f0"/>
    <path id="Trazado_771655" data-name="Trazado 771655" d="M11,0H99.673a11,11,0,0,1,11,11v4.78a11,11,0,0,1-11,11H11a11,11,0,0,1-11-11V11A11,11,0,0,1,11,0Z" transform="translate(1165.655 671.595)" fill="#b42218"/>
    <path id="Trazado_771656" data-name="Trazado 771656" d="M12.382,4.2l3.287,9.281L18.939,4.2H22.4V17H19.756V13.5l.264-6.038L16.566,17H14.755L11.31,7.473l.264,6.029V17H8.937V4.2ZM28.914,17.176a4.668,4.668,0,0,1-3.406-1.283,4.561,4.561,0,0,1-1.314-3.419v-.246a5.745,5.745,0,0,1,.554-2.562,4.064,4.064,0,0,1,1.569-1.74,4.4,4.4,0,0,1,2.316-.611A3.947,3.947,0,0,1,31.7,8.545a5,5,0,0,1,1.121,3.489v1.037H26.77a2.36,2.36,0,0,0,.743,1.494,2.245,2.245,0,0,0,1.569.563,2.742,2.742,0,0,0,2.294-1.063l1.248,1.4a3.813,3.813,0,0,1-1.547,1.261A5.075,5.075,0,0,1,28.914,17.176Zm-.29-7.813a1.587,1.587,0,0,0-1.226.512,2.651,2.651,0,0,0-.6,1.466h3.533v-.2a1.891,1.891,0,0,0-.457-1.311A1.638,1.638,0,0,0,28.624,9.362ZM36.6,7.49l.079,1.1a3.32,3.32,0,0,1,2.733-1.274,2.759,2.759,0,0,1,2.25.888,4.142,4.142,0,0,1,.756,2.654V17h-2.54V10.9a1.654,1.654,0,0,0-.352-1.176,1.572,1.572,0,0,0-1.169-.366,1.747,1.747,0,0,0-1.608.916V17h-2.54V7.49ZM49.5,14.372a.818.818,0,0,0-.461-.734,5.241,5.241,0,0,0-1.481-.479q-3.393-.712-3.393-2.883a2.613,2.613,0,0,1,1.05-2.114,4.237,4.237,0,0,1,2.747-.848,4.56,4.56,0,0,1,2.9.853,2.687,2.687,0,0,1,1.085,2.215H49.4a1.229,1.229,0,0,0-.352-.9,1.488,1.488,0,0,0-1.1-.356,1.52,1.52,0,0,0-.993.29.916.916,0,0,0-.352.738.783.783,0,0,0,.4.681,4.114,4.114,0,0,0,1.349.448,11.019,11.019,0,0,1,1.6.426,2.628,2.628,0,0,1,2.013,2.558,2.481,2.481,0,0,1-1.116,2.1,4.815,4.815,0,0,1-2.883.8,5.029,5.029,0,0,1-2.123-.426,3.561,3.561,0,0,1-1.455-1.169,2.716,2.716,0,0,1-.527-1.6h2.408a1.326,1.326,0,0,0,.5,1.037,1.987,1.987,0,0,0,1.248.36,1.839,1.839,0,0,0,1.1-.277A.861.861,0,0,0,49.5,14.372ZM59.114,17a2.821,2.821,0,0,1-.255-.853,3.073,3.073,0,0,1-2.4,1.028,3.376,3.376,0,0,1-2.316-.809,2.6,2.6,0,0,1-.918-2.039,2.687,2.687,0,0,1,1.121-2.32,5.529,5.529,0,0,1,3.239-.817h1.169v-.545a1.567,1.567,0,0,0-.338-1.055,1.331,1.331,0,0,0-1.068-.4,1.513,1.513,0,0,0-1.006.308,1.045,1.045,0,0,0-.365.844h-2.54a2.551,2.551,0,0,1,.51-1.529,3.37,3.37,0,0,1,1.441-1.1,5.253,5.253,0,0,1,2.092-.4,4.15,4.15,0,0,1,2.791.883A3.09,3.09,0,0,1,61.3,10.681V14.8a4.546,4.546,0,0,0,.378,2.048V17Zm-2.1-1.767a2.188,2.188,0,0,0,1.037-.25,1.645,1.645,0,0,0,.7-.672V12.676H57.8q-1.907,0-2.03,1.318l-.009.149a1.017,1.017,0,0,0,.334.782A1.3,1.3,0,0,0,57.013,15.233Zm8.93-7.743V17.519a3.4,3.4,0,0,1-.835,2.448,3.174,3.174,0,0,1-2.408.875,5.165,5.165,0,0,1-1.257-.149V18.679a4.768,4.768,0,0,0,.8.079q1.151,0,1.151-1.222V7.49ZM63.192,5.029a1.251,1.251,0,0,1,.382-.94,1.654,1.654,0,0,1,2.083,0,1.251,1.251,0,0,1,.382.94,1.247,1.247,0,0,1-.391.949,1.629,1.629,0,0,1-2.065,0A1.247,1.247,0,0,1,63.192,5.029Zm9.114,12.146A4.668,4.668,0,0,1,68.9,15.893a4.561,4.561,0,0,1-1.314-3.419v-.246a5.745,5.745,0,0,1,.554-2.562,4.064,4.064,0,0,1,1.569-1.74,4.4,4.4,0,0,1,2.316-.611A3.947,3.947,0,0,1,75.1,8.545a5,5,0,0,1,1.121,3.489v1.037H70.161a2.36,2.36,0,0,0,.743,1.494,2.245,2.245,0,0,0,1.569.563,2.742,2.742,0,0,0,2.294-1.063l1.248,1.4a3.813,3.813,0,0,1-1.547,1.261A5.075,5.075,0,0,1,72.306,17.176Zm-.29-7.813a1.587,1.587,0,0,0-1.226.512,2.651,2.651,0,0,0-.6,1.466h3.533v-.2a1.891,1.891,0,0,0-.457-1.311A1.638,1.638,0,0,0,72.016,9.362Z" transform="translate(1179.581 674.809)" fill="#fff"/>
    <path id="Trazado_771657" data-name="Trazado 771657" d="M11,0h90.026a11,11,0,0,1,11,11v4.78a11,11,0,0,1-11,11H11a11,11,0,0,1-11-11V11A11,11,0,0,1,11,0Z" transform="translate(1220.992 540.252)" fill="#b42218"/>
    <path id="Trazado_771658" data-name="Trazado 771658" d="M12.281,12.315h-2.1V17H7.544V4.2H12.3a5.375,5.375,0,0,1,3.5,1.011,3.488,3.488,0,0,1,1.23,2.856,3.937,3.937,0,0,1-.567,2.184,3.866,3.866,0,0,1-1.718,1.393l2.769,5.229V17h-2.83Zm-2.1-2.136h2.127a2.178,2.178,0,0,0,1.538-.505,1.806,1.806,0,0,0,.545-1.393,1.933,1.933,0,0,0-.514-1.424A2.137,2.137,0,0,0,12.3,6.339H10.181Zm13.061,7a4.668,4.668,0,0,1-3.406-1.283,4.561,4.561,0,0,1-1.314-3.419v-.246a5.745,5.745,0,0,1,.554-2.562,4.064,4.064,0,0,1,1.569-1.74,4.4,4.4,0,0,1,2.316-.611,3.947,3.947,0,0,1,3.072,1.23,5,5,0,0,1,1.121,3.489v1.037H21.1a2.36,2.36,0,0,0,.743,1.494,2.245,2.245,0,0,0,1.569.563A2.742,2.742,0,0,0,25.7,14.064l1.248,1.4A3.813,3.813,0,0,1,25.4,16.723,5.075,5.075,0,0,1,23.241,17.176Zm-.29-7.813a1.587,1.587,0,0,0-1.226.512,2.651,2.651,0,0,0-.6,1.466h3.533v-.2A1.891,1.891,0,0,0,24.2,9.826,1.638,1.638,0,0,0,22.951,9.362Zm9.6,5.766a1.666,1.666,0,0,0,1.143-.387,1.355,1.355,0,0,0,.457-1.028H36.53A3.258,3.258,0,0,1,36,15.484a3.48,3.48,0,0,1-1.419,1.248,4.442,4.442,0,0,1-1.991.444,4.129,4.129,0,0,1-3.217-1.3A5.13,5.13,0,0,1,28.2,12.3v-.167a5.071,5.071,0,0,1,1.169-3.507,4.08,4.08,0,0,1,3.208-1.31A4,4,0,0,1,35.436,8.33a3.594,3.594,0,0,1,1.094,2.7H34.148a1.745,1.745,0,0,0-.457-1.206,1.7,1.7,0,0,0-2.5.183,3.749,3.749,0,0,0-.453,2.1v.264a3.8,3.8,0,0,0,.448,2.113A1.549,1.549,0,0,0,32.549,15.128Zm9.809,2.048a4.668,4.668,0,0,1-3.406-1.283,4.561,4.561,0,0,1-1.314-3.419v-.246a5.745,5.745,0,0,1,.554-2.562,4.064,4.064,0,0,1,1.569-1.74,4.4,4.4,0,0,1,2.316-.611,3.947,3.947,0,0,1,3.072,1.23,5,5,0,0,1,1.121,3.489v1.037H40.213a2.36,2.36,0,0,0,.743,1.494,2.245,2.245,0,0,0,1.569.563,2.742,2.742,0,0,0,2.294-1.063l1.248,1.4a3.813,3.813,0,0,1-1.547,1.261A5.075,5.075,0,0,1,42.357,17.176Zm-.29-7.813a1.587,1.587,0,0,0-1.226.512,2.651,2.651,0,0,0-.6,1.466h3.533v-.2a1.891,1.891,0,0,0-.457-1.311A1.638,1.638,0,0,0,42.067,9.362Zm14.2,2.971a5.7,5.7,0,0,1-1,3.52,3.2,3.2,0,0,1-2.694,1.323,2.963,2.963,0,0,1-2.329-1v4.482H47.71V7.49h2.355l.088.932a2.985,2.985,0,0,1,2.408-1.107,3.22,3.22,0,0,1,2.733,1.3A5.858,5.858,0,0,1,56.27,12.2Zm-2.54-.194a3.763,3.763,0,0,0-.47-2.054,1.53,1.53,0,0,0-1.367-.723,1.662,1.662,0,0,0-1.644.917v3.906a1.691,1.691,0,0,0,1.661.943Q53.73,15.128,53.73,12.139Zm7.154-6.987V7.49h1.626V9.354H60.885V14.1a1.133,1.133,0,0,0,.2.756,1.015,1.015,0,0,0,.773.229,4.051,4.051,0,0,0,.747-.062v1.925a5.229,5.229,0,0,1-1.538.229,2.425,2.425,0,0,1-2.725-2.7V9.354H56.956V7.49h1.389V5.152Zm2.382,7a5.64,5.64,0,0,1,.545-2.522A3.989,3.989,0,0,1,65.38,7.921a4.577,4.577,0,0,1,2.377-.606A4.33,4.33,0,0,1,70.9,8.492a4.727,4.727,0,0,1,1.358,3.2l.018.65a4.97,4.97,0,0,1-1.222,3.511,4.735,4.735,0,0,1-6.561,0,5.058,5.058,0,0,1-1.226-3.586Zm2.54.18a3.555,3.555,0,0,0,.51,2.073,1.831,1.831,0,0,0,2.9.009,3.89,3.89,0,0,0,.519-2.267,3.519,3.519,0,0,0-.519-2.06,1.686,1.686,0,0,0-1.459-.731,1.658,1.658,0,0,0-1.441.726A3.955,3.955,0,0,0,65.806,12.338ZM79.183,9.872a6.9,6.9,0,0,0-.914-.07,1.86,1.86,0,0,0-1.89.976V17H73.84V7.49h2.4l.07,1.134a2.354,2.354,0,0,1,2.118-1.31,2.662,2.662,0,0,1,.791.114Z" transform="translate(1234.917 543.466)" fill="#fff"/>
    <path id="Trazado_771659" data-name="Trazado 771659" d="M11,0H82.2a11,11,0,0,1,11,11v4.78a11,11,0,0,1-11,11H11a11,11,0,0,1-11-11V11A11,11,0,0,1,11,0Z" transform="translate(909.565 667.472)" fill="#b42218"/>
    <path id="Trazado_771660" data-name="Trazado 771660" d="M13.855,11.437H8.792v3.445h5.941V17H6.155V4.2h8.561V6.339H8.792v3.05h5.063ZM18.5,7.49l.079,1.063a3.342,3.342,0,0,1,2.733-1.239,2.536,2.536,0,0,1,2.522,1.45,3.265,3.265,0,0,1,2.856-1.45,2.836,2.836,0,0,1,2.3.9,4.141,4.141,0,0,1,.756,2.711V17H27.2V10.922a1.818,1.818,0,0,0-.316-1.185,1.4,1.4,0,0,0-1.116-.374,1.585,1.585,0,0,0-1.582,1.092L24.191,17h-2.54V10.93a1.8,1.8,0,0,0-.325-1.2,1.414,1.414,0,0,0-1.107-.37,1.645,1.645,0,0,0-1.564.9V17h-2.54V7.49ZM34.377,17H31.828V7.49h2.549Zm-2.7-11.971a1.251,1.251,0,0,1,.382-.94,1.648,1.648,0,0,1,2.079,0,1.244,1.244,0,0,1,.387.94,1.247,1.247,0,0,1-.391.949,1.629,1.629,0,0,1-2.065,0A1.247,1.247,0,0,1,31.679,5.029Zm9.94,9.343a.818.818,0,0,0-.461-.734,5.241,5.241,0,0,0-1.481-.479q-3.393-.712-3.393-2.883a2.613,2.613,0,0,1,1.05-2.114,4.237,4.237,0,0,1,2.747-.848,4.56,4.56,0,0,1,2.9.853,2.687,2.687,0,0,1,1.085,2.215h-2.54a1.229,1.229,0,0,0-.352-.9,1.488,1.488,0,0,0-1.1-.356,1.52,1.52,0,0,0-.993.29.916.916,0,0,0-.352.738.783.783,0,0,0,.4.681,4.114,4.114,0,0,0,1.349.448,11.019,11.019,0,0,1,1.6.426,2.628,2.628,0,0,1,2.013,2.558,2.481,2.481,0,0,1-1.116,2.1,4.815,4.815,0,0,1-2.883.8,5.029,5.029,0,0,1-2.123-.426,3.561,3.561,0,0,1-1.455-1.169,2.716,2.716,0,0,1-.527-1.6h2.408a1.326,1.326,0,0,0,.5,1.037,1.987,1.987,0,0,0,1.248.36,1.839,1.839,0,0,0,1.1-.277A.861.861,0,0,0,41.619,14.372Zm3.709-2.215a5.64,5.64,0,0,1,.545-2.522,3.989,3.989,0,0,1,1.569-1.714,4.577,4.577,0,0,1,2.377-.606,4.33,4.33,0,0,1,3.142,1.178,4.727,4.727,0,0,1,1.358,3.2l.018.65a4.97,4.97,0,0,1-1.222,3.511,4.735,4.735,0,0,1-6.561,0,5.058,5.058,0,0,1-1.226-3.586Zm2.54.18a3.555,3.555,0,0,0,.51,2.073,1.831,1.831,0,0,0,2.9.009,3.89,3.89,0,0,0,.519-2.267,3.519,3.519,0,0,0-.519-2.06,1.686,1.686,0,0,0-1.459-.731,1.658,1.658,0,0,0-1.441.726A3.955,3.955,0,0,0,47.868,12.338ZM61.245,9.872a6.9,6.9,0,0,0-.914-.07,1.86,1.86,0,0,0-1.89.976V17H55.9V7.49h2.4l.07,1.134a2.354,2.354,0,0,1,2.118-1.31,2.662,2.662,0,0,1,.791.114Z" transform="translate(923.491 670.686)" fill="#fff"/>
  </g>
</svg>
