<svg xmlns="http://www.w3.org/2000/svg" xmlns:xlink="http://www.w3.org/1999/xlink" width="121.956" height="133.442" viewBox="0 0 121.956 133.442">
  <defs>
    <filter id="Trazado_771226" x="0" y="0" width="121.956" height="133.442" filterUnits="userSpaceOnUse">
      <feOffset dy="3" input="SourceAlpha"/>
      <feGaussianBlur stdDeviation="3" result="blur"/>
      <feFlood flood-opacity="0.161"/>
      <feComposite operator="in" in2="blur"/>
      <feComposite in="SourceGraphic"/>
    </filter>
  </defs>
  <g id="Grupo_1071666" data-name="Grupo 1071666" transform="translate(-1150.5 -1032.3)">
    <g transform="matrix(1, 0, 0, 1, 1150.5, 1032.3)" filter="url(#Trazado_771226)">
      <path id="Trazado_771226-2" data-name="Trazado 771226" d="M507.16,323.694v-37.37a19.17,19.17,0,0,0-9.355-16.5l-30.646-18.171a18.8,18.8,0,0,0-18.585-.348l-31.4,17.07a19.163,19.163,0,0,0-9.968,16.848v37.713a19.174,19.174,0,0,0,9.125,16.36L445.7,357.286a18.8,18.8,0,0,0,18.606.6l32.673-17.231A19.159,19.159,0,0,0,507.16,323.694Z" transform="translate(-396.2 -240.82)" fill="#2ec49f" stroke="#fff" stroke-miterlimit="10" stroke-width="4"/>
    </g>
    <g id="simbolo-iso" transform="translate(1172.91 1053.017)">
      <g id="Grupo_1071639" data-name="Grupo 1071639" transform="translate(2.294 0.835)">
        <g id="Grupo_1071625" data-name="Grupo 1071625" transform="translate(4.354 0)">
          <path id="Trazado_771227" data-name="Trazado 771227" d="M95.013,40.507a5.019,5.019,0,0,0-1.824,6.8A5.019,5.019,0,0,1,88.864,54.8a4.87,4.87,0,0,0-1.353.2,5.009,5.009,0,0,0-3.624,4.776A5.019,5.019,0,0,1,76.4,64.1a5.019,5.019,0,0,0-5.715.538A4.946,4.946,0,0,0,69.6,65.922a5.021,5.021,0,0,1-8.651,0,5.007,5.007,0,0,0-6.8-1.824,5.019,5.019,0,0,1-7.492-4.326A5.009,5.009,0,0,0,43.034,55a4.87,4.87,0,0,0-1.353-.2A5.019,5.019,0,0,1,37.355,47.3a5.019,5.019,0,0,0-1.824-6.8,5.021,5.021,0,0,1,0-8.651,5.019,5.019,0,0,0,1.824-6.8,5.019,5.019,0,0,1,4.326-7.492,5.019,5.019,0,0,0,4.977-4.977A5.019,5.019,0,0,1,54.15,8.264a5.019,5.019,0,0,0,6.8-1.824,5.021,5.021,0,0,1,8.651,0,5.018,5.018,0,0,0,6.8,1.824,5.019,5.019,0,0,1,7.492,4.326,5.019,5.019,0,0,0,4.977,4.977,5.019,5.019,0,0,1,4.325,7.492,5.019,5.019,0,0,0,1.824,6.8A5.021,5.021,0,0,1,95.013,40.507Z" transform="translate(-33.06 -3.969)" fill="#efbf27"/>
        </g>
        <g id="Grupo_1071626" data-name="Grupo 1071626" transform="translate(37.176 7.812)">
          <path id="Trazado_771228" data-name="Trazado 771228" d="M131.737,80.528a.835.835,0,0,1-.3-1.143,9.416,9.416,0,0,1,.612-.914.835.835,0,0,1,1.331,1.009,7.664,7.664,0,0,0-.5.751A.835.835,0,0,1,131.737,80.528ZM143.078,77.5a7.528,7.528,0,0,0-7.453.016.835.835,0,1,1-.828-1.45,9.2,9.2,0,0,1,9.1-.019.837.837,0,0,0,1.254-.727,9.225,9.225,0,0,1,9.119-9.121A.843.843,0,0,0,155,64.938a9.238,9.238,0,0,1,3.341-12.457.845.845,0,0,0,0-1.452A9.238,9.238,0,0,1,155,38.57a.842.842,0,0,0-.734-1.253,9.238,9.238,0,0,1-9.114-9.119.835.835,0,1,1,1.67-.013,7.559,7.559,0,0,0,7.458,7.462,2.507,2.507,0,0,1,2.173,3.747,7.565,7.565,0,0,0,2.731,10.2,2.515,2.515,0,0,1,0,4.332,7.567,7.567,0,0,0-2.735,10.193,2.509,2.509,0,0,1-2.166,3.752,7.548,7.548,0,0,0-7.461,7.464A2.507,2.507,0,0,1,143.078,77.5Z" transform="translate(-131.324 -27.356)" fill="#f7e4b0"/>
        </g>
        <g id="Grupo_1071627" data-name="Grupo 1071627" transform="translate(13.769 10.285)">
          <path id="Trazado_771229" data-name="Trazado 771229" d="M104.258,56.687l2.49-8.573a2.339,2.339,0,0,0-2.246-2.99h-1.338a22.819,22.819,0,0,0-38.24,0H63.586a2.339,2.339,0,0,0-2.245,2.99l2.49,8.568-2.49,8.568a2.339,2.339,0,0,0,2.245,2.99h1.324a22.821,22.821,0,0,0,38.27,0H104.5a2.34,2.34,0,0,0,2.245-2.991Z" transform="translate(-61.246 -34.76)" fill="#ce9320"/>
        </g>
        <g id="Grupo_1071628" data-name="Grupo 1071628" transform="translate(18.757 12.623)">
          <path id="Trazado_771230" data-name="Trazado 771230" d="M111.8,52.125H76.18a20.5,20.5,0,0,1,35.619,0Z" transform="translate(-76.18 -41.76)" fill="#71c1e8"/>
        </g>
        <g id="Grupo_1071629" data-name="Grupo 1071629" transform="translate(18.757 20.649)">
          <path id="Trazado_771231" data-name="Trazado 771231" d="M111.8,68.128H76.18a20.277,20.277,0,0,1,1.553-2.338h32.513A20.277,20.277,0,0,1,111.8,68.128Z" transform="translate(-76.18 -65.79)" fill="#4ba4c7"/>
        </g>
        <g id="Grupo_1071630" data-name="Grupo 1071630" transform="translate(18.747 41.438)">
          <path id="Trazado_771232" data-name="Trazado 771232" d="M111.79,128.03a20.5,20.5,0,0,1-35.639,0Z" transform="translate(-76.15 -128.03)" fill="#71c1e8"/>
        </g>
        <g id="Grupo_1071631" data-name="Grupo 1071631" transform="translate(18.747 41.438)">
          <path id="Trazado_771233" data-name="Trazado 771233" d="M111.79,128.03a20.52,20.52,0,0,1-1.543,2.328H77.693a20.518,20.518,0,0,1-1.543-2.328Z" transform="translate(-76.15 -128.03)" fill="#4ba4c7"/>
        </g>
        <g id="Grupo_1071632" data-name="Grupo 1071632" transform="translate(16.108 22.987)">
          <path id="Trazado_771234" data-name="Trazado 771234" d="M109.167,72.789l-2.679,9.226,2.679,9.215H68.25l2.679-9.221L68.25,72.789Z" transform="translate(-68.25 -72.789)" fill="#eee"/>
        </g>
        <g id="Grupo_1071633" data-name="Grupo 1071633" transform="translate(41.974 51.028)">
          <path id="Trazado_771235" data-name="Trazado 771235" d="M174.7,179.452l-7.716-1.764a1.752,1.752,0,0,0-2.128,1.49l-.985,7.856a1.749,1.749,0,0,1-3.17.785l-13.665-19.51-1.349-1.931a5.02,5.02,0,0,1,5.715-.538,5.019,5.019,0,0,0,7.492-4.326,5.01,5.01,0,0,1,3.624-4.776l1.493,2.134,12.512,17.866A1.751,1.751,0,0,1,174.7,179.452Z" transform="translate(-145.69 -156.739)" fill="#fb5c3c"/>
        </g>
        <g id="Grupo_1071634" data-name="Grupo 1071634" transform="translate(58.701 57.062)">
          <path id="Trazado_771236" data-name="Trazado 771236" d="M204.091,187.787l-5.68-8.111a.835.835,0,1,1,1.368-.958l5.68,8.111a.835.835,0,1,1-1.368.958Zm-7.6-10.847-.575-.821a.835.835,0,0,1,1.368-.958l.575.821a.835.835,0,0,1-1.368.958Z" transform="translate(-195.768 -174.805)" fill="#ffcac2"/>
        </g>
        <g id="Grupo_1071635" data-name="Grupo 1071635" transform="translate(41.974 51.028)">
          <path id="Trazado_771237" data-name="Trazado 771237" d="M164.014,158.873a2.7,2.7,0,0,0-2.779,2.659,7.365,7.365,0,0,1-10.986,6.34,2.687,2.687,0,0,0-3.21.438l-1.349-1.931a5.02,5.02,0,0,1,5.715-.538,5.019,5.019,0,0,0,7.492-4.325,5.01,5.01,0,0,1,3.624-4.776Z" transform="translate(-145.69 -156.739)" fill="#b14e34"/>
        </g>
        <g id="Grupo_1071636" data-name="Grupo 1071636" transform="translate(0 51.028)">
          <path id="Trazado_771238" data-name="Trazado 771238" d="M51.183,166.375l-1.349,1.931-13.665,19.51a1.749,1.749,0,0,1-3.17-.785l-.985-7.853a1.75,1.75,0,0,0-2.128-1.49l-7.716,1.76a1.751,1.751,0,0,1-1.824-2.712l12.509-17.863,1.5-2.134a5.011,5.011,0,0,1,3.624,4.776,5.019,5.019,0,0,0,7.492,4.326A5.03,5.03,0,0,1,51.183,166.375Z" transform="translate(-20.024 -156.739)" fill="#0bbe6e"/>
        </g>
        <g id="Grupo_1071637" data-name="Grupo 1071637" transform="translate(14.94 64.177)">
          <path id="Trazado_771239" data-name="Trazado 771239" d="M65.11,209.423a.835.835,0,0,1-.205-1.163l5.772-8.241a.835.835,0,0,1,1.368.958l-5.772,8.241A.836.836,0,0,1,65.11,209.423ZM72.8,198.446a.835.835,0,0,1-.2-1.163l.575-.821a.835.835,0,1,1,1.368.958l-.575.821A.835.835,0,0,1,72.8,198.446Z" transform="translate(-64.754 -196.107)" fill="#73febb"/>
        </g>
        <g id="Grupo_1071638" data-name="Grupo 1071638" transform="translate(12.832 51.028)">
          <path id="Trazado_771240" data-name="Trazado 771240" d="M76.767,166.375l-1.349,1.931a2.69,2.69,0,0,0-3.213-.431,7.367,7.367,0,0,1-10.982-6.34,2.689,2.689,0,0,0-2.782-2.662l1.5-2.134a5.011,5.011,0,0,1,3.624,4.776,5.019,5.019,0,0,0,7.492,4.326,5.03,5.03,0,0,1,5.715.534Z" transform="translate(-58.44 -156.739)" fill="#0e9b6d"/>
        </g>
      </g>
      <g id="Grupo_1071646" data-name="Grupo 1071646" transform="translate(0 47.645)">
        <g id="Grupo_1071642" data-name="Grupo 1071642" transform="translate(0)">
          <g id="Grupo_1071640" data-name="Grupo 1071640">
            <path id="Trazado_771241" data-name="Trazado 771241" d="M16.673,153.479c-.392-1.693-.652-2.811-2.946-3.569a.836.836,0,0,1,0-1.586c1.332-.44,2.294-.758,2.946-3.569a.836.836,0,0,1,1.627,0c.668,2.878,1.67,3.148,2.946,3.57a.836.836,0,0,1,0,1.586c-1.332.44-2.294.759-2.946,3.569A.835.835,0,0,1,16.673,153.479Z" transform="translate(-13.155 -144.111)"/>
          </g>
          <g id="Grupo_1071641" data-name="Grupo 1071641" transform="translate(2.825 3.323)">
            <path id="Trazado_771242" data-name="Trazado 771242" d="M24.582,155.751a4.431,4.431,0,0,0-1.443,1.633,4.637,4.637,0,0,0-1.526-1.62,4.439,4.439,0,0,0,1.51-1.7A4.529,4.529,0,0,0,24.582,155.751Z" transform="translate(-21.613 -154.061)" fill="#f0c020"/>
          </g>
        </g>
        <g id="Grupo_1071645" data-name="Grupo 1071645" transform="translate(69.059)">
          <g id="Grupo_1071643" data-name="Grupo 1071643">
            <path id="Trazado_771243" data-name="Trazado 771243" d="M223.428,153.479c-.392-1.693-.652-2.811-2.946-3.569a.836.836,0,0,1,0-1.586c1.332-.44,2.294-.758,2.946-3.569a.836.836,0,0,1,1.627,0c.668,2.878,1.67,3.148,2.946,3.57a.836.836,0,0,1,0,1.586c-1.332.44-2.294.759-2.946,3.569A.835.835,0,0,1,223.428,153.479Z" transform="translate(-219.91 -144.111)"/>
          </g>
          <g id="Grupo_1071644" data-name="Grupo 1071644" transform="translate(2.825 3.323)">
            <path id="Trazado_771244" data-name="Trazado 771244" d="M231.336,155.751a4.431,4.431,0,0,0-1.443,1.633,4.637,4.637,0,0,0-1.526-1.62,4.439,4.439,0,0,0,1.51-1.7A4.529,4.529,0,0,0,231.336,155.751Z" transform="translate(-228.367 -154.061)" fill="#f0c020"/>
          </g>
        </g>
      </g>
      <g id="Grupo_1071647" data-name="Grupo 1071647" transform="translate(35.996 27.485)">
        <path id="Trazado_771245" data-name="Trazado 771245" d="M123.787,83.755a2.869,2.869,0,0,0-2.866,2.866v.667a2.869,2.869,0,0,0,2.866,2.866,1.2,1.2,0,0,1,1.2,1.2v.667a1.2,1.2,0,0,1-2.391,0V91.7a.835.835,0,0,0-1.67,0v.312a2.866,2.866,0,1,0,5.731,0v-.667a2.869,2.869,0,0,0-2.866-2.865,1.2,1.2,0,0,1-1.2-1.2v-.667a1.2,1.2,0,0,1,2.391,0v.217a.835.835,0,1,0,1.67,0v-.217A2.869,2.869,0,0,0,123.787,83.755Z" transform="translate(-120.921 -83.755)"/>
      </g>
      <g id="Grupo_1071648" data-name="Grupo 1071648" transform="translate(44.321 27.485)">
        <path id="Trazado_771246" data-name="Trazado 771246" d="M149.077,83.755a3.234,3.234,0,0,0-3.231,3.231V91.65a3.231,3.231,0,0,0,6.461,0V86.986A3.235,3.235,0,0,0,149.077,83.755Zm1.56,7.895a1.561,1.561,0,1,1-3.121,0V86.986a1.561,1.561,0,1,1,3.121,0Z" transform="translate(-145.846 -83.755)"/>
      </g>
      <g id="Grupo_1071649" data-name="Grupo 1071649" transform="translate(26.94 27.485)">
        <path id="Trazado_771247" data-name="Trazado 771247" d="M98.707,85.425a.835.835,0,0,0,0-1.67H94.646a.835.835,0,0,0,0,1.67h1.2V93.21h-1.2a.835.835,0,0,0,0,1.67h4.061a.835.835,0,1,0,0-1.67h-1.2V85.425Z" transform="translate(-93.811 -83.755)"/>
      </g>
      <g id="Grupo_1071650" data-name="Grupo 1071650" transform="translate(10.642 39.79)">
        <path id="Trazado_771248" data-name="Trazado 771248" d="M46.033,122.247a.84.84,0,0,0,.635-1,.851.851,0,0,0-1-.638.836.836,0,0,0,.361,1.633Z" transform="translate(-45.017 -120.595)"/>
      </g>
      <g id="Grupo_1071651" data-name="Grupo 1071651" transform="translate(38.113 22.987)">
        <circle id="Elipse_4701" data-name="Elipse 4701" cx="0.835" cy="0.835" r="0.835" transform="translate(0)"/>
      </g>
      <g id="Grupo_1071652" data-name="Grupo 1071652" transform="translate(17.567 12.623)">
        <path id="Trazado_771249" data-name="Trazado 771249" d="M66.584,69.736H68.74a21.316,21.316,0,0,0,36.6,0H107.5a.835.835,0,0,0,.8-1.069l-2.612-8.985,2.612-8.988a.835.835,0,0,0-.8-1.069h-2.173a21.312,21.312,0,0,0-36.571,0H66.584a.835.835,0,0,0-.8,1.069l2.612,8.985-2.612,8.988A.836.836,0,0,0,66.584,69.736Zm4.133,0h6.207a25.294,25.294,0,0,0,1.437,3.534H73.739A19.905,19.905,0,0,1,70.717,69.736Zm16.325,8.714c-2.343,0-4.3-1.62-5.7-3.511H92.745c-1.405,1.894-3.365,3.511-5.7,3.511ZM80.261,73.27a21.883,21.883,0,0,1-1.576-3.534H95.4a21.881,21.881,0,0,1-1.575,3.534Zm-4.436,1.67H79.3a14.432,14.432,0,0,0,2.184,2.72A19.389,19.389,0,0,1,75.825,74.94Zm18.957,0h3.476A19.38,19.38,0,0,1,92.6,77.66,14.4,14.4,0,0,0,94.782,74.94Zm5.563-1.67H95.724a25.293,25.293,0,0,0,1.437-3.534h6.207A19.9,19.9,0,0,1,100.345,73.27Zm3.005-23.645h-6.2a25.264,25.264,0,0,0-1.43-3.511h4.619A19.98,19.98,0,0,1,103.35,49.625Zm-5.09-5.181H94.784A14.422,14.422,0,0,0,92.6,41.722,19.378,19.378,0,0,1,98.26,44.444ZM87.042,40.931c2.351,0,4.31,1.632,5.706,3.514H81.337C82.739,42.554,84.7,40.931,87.042,40.931ZM79.3,44.444H75.824a19.376,19.376,0,0,1,5.662-2.723A14.415,14.415,0,0,0,79.3,44.444Zm-5.56,1.67h4.619a25.29,25.29,0,0,0-1.43,3.511h-6.2A19.966,19.966,0,0,1,73.74,46.114Zm-3.676,13.8a.844.844,0,0,0,0-.464L67.7,51.3H83.789a.835.835,0,0,0,0-1.67h-5.1a21.878,21.878,0,0,1,1.567-3.511H93.825a21.836,21.836,0,0,1,1.567,3.511H90.469a.835.835,0,1,0,0,1.67h15.919l-2.368,8.157a.79.79,0,0,0,0,.467l2.368,8.147H67.7Z" transform="translate(-65.748 -39.261)"/>
      </g>
      <g id="Grupo_1071653" data-name="Grupo 1071653" transform="translate(53.568 75.149)">
        <path id="Trazado_771250" data-name="Trazado 771250" d="M173.888,226.6a.835.835,0,1,0,1.162.207A.858.858,0,0,0,173.888,226.6Z" transform="translate(-173.531 -226.455)"/>
      </g>
      <g id="Grupo_1071654" data-name="Grupo 1071654" transform="translate(1.457 0)">
        <path id="Trazado_771251" data-name="Trazado 771251" d="M78.619,53.961a5.852,5.852,0,0,0,4.944-8.735,4.178,4.178,0,0,1,1.523-5.665,5.857,5.857,0,0,0,0-10.091A4.176,4.176,0,0,1,83.563,23.8a5.853,5.853,0,0,0-5.044-8.738,4.205,4.205,0,0,1-4.148-4.148,5.852,5.852,0,0,0-8.741-5.044,4.194,4.194,0,0,1-5.665-1.523,5.854,5.854,0,0,0-10.087,0,4.18,4.18,0,0,1-5.668,1.52,5.855,5.855,0,0,0-8.738,5.047,4.205,4.205,0,0,1-4.148,4.148,5.854,5.854,0,0,0-5.044,8.741,4.177,4.177,0,0,1-1.523,5.662,5.857,5.857,0,0,0,0,10.091,4.207,4.207,0,0,1,.544.381.862.862,0,0,0,1.176-.114.832.832,0,0,0-.117-1.176,5.772,5.772,0,0,0-.755-.531,4.18,4.18,0,0,1,0-7.212,5.857,5.857,0,0,0,2.128-7.926,4.187,4.187,0,0,1,3.6-6.246,5.851,5.851,0,0,0,5.805-5.805,4.188,4.188,0,0,1,6.243-3.607A5.865,5.865,0,0,0,51.317,5.2a4.178,4.178,0,0,1,7.211,0,5.856,5.856,0,0,0,7.926,2.128,4.187,4.187,0,0,1,6.246,3.6,5.854,5.854,0,0,0,5.8,5.805,4.189,4.189,0,0,1,3.611,6.243,5.856,5.856,0,0,0,2.124,7.929,4.18,4.18,0,0,1,0,7.212,5.859,5.859,0,0,0-2.124,7.929A4.191,4.191,0,0,1,78.505,52.3,5.859,5.859,0,0,0,72.7,58.1a4.188,4.188,0,0,1-6.246,3.6,5.858,5.858,0,0,0-7.93,2.128,4.182,4.182,0,0,1-7.211,0,5.853,5.853,0,0,0-7.926-2.128,4.188,4.188,0,0,1-6.246-3.6A5.854,5.854,0,0,0,31.336,52.3a4.2,4.2,0,0,1-4.155-4.2,4.669,4.669,0,0,1,.725-2.388.835.835,0,0,0-1.5-.728,6.168,6.168,0,0,0-.892,3.116,5.852,5.852,0,0,0,5.711,5.859L17.992,72.85a2.587,2.587,0,0,0,2.694,4.005l7.715-1.76a.913.913,0,0,1,1.114.78l.985,7.851a2.585,2.585,0,0,0,4.683,1.161c14.774-21.093,13.341-19.046,14.427-20.6a4.35,4.35,0,0,1,.264.391,5.853,5.853,0,0,0,10.091,0,4.474,4.474,0,0,1,.267-.394l7.633,10.9a.833.833,0,1,0,1.366-.955L61.488,63.172a4.192,4.192,0,0,1,4.144-.014,5.853,5.853,0,0,0,8.738-5.044,4.2,4.2,0,0,1,2.473-3.779L90.48,73.809a.918.918,0,0,1-.959,1.42l-7.709-1.764a2.585,2.585,0,0,0-3.143,2.2l-.985,7.856a.914.914,0,0,1-1.657.41L73.064,79.7a.858.858,0,0,0-1.165-.2.831.831,0,0,0-.2,1.162l2.963,4.229a2.585,2.585,0,0,0,4.683-1.159l.985-7.856a.91.91,0,0,1,1.112-.778l7.716,1.761a2.586,2.586,0,0,0,2.7-4ZM33.815,83.93a.914.914,0,0,1-1.657-.41l-.985-7.851a2.586,2.586,0,0,0-3.142-2.2l-7.716,1.76a.916.916,0,0,1-.954-1.419L33,54.336a4.2,4.2,0,0,1,2.473,3.779,5.855,5.855,0,0,0,8.741,5.044,4.183,4.183,0,0,1,4.139.012Z" transform="translate(-17.517 -1.469)"/>
      </g>
    </g>
  </g>
</svg>
