<svg xmlns="http://www.w3.org/2000/svg" xmlns:xlink="http://www.w3.org/1999/xlink" width="97.863" height="106.589" viewBox="0 0 97.863 106.589">
  <defs>
    <filter id="Trazado_771226" x="0" y="0" width="97.863" height="106.589" filterUnits="userSpaceOnUse">
      <feOffset dy="3" input="SourceAlpha"/>
      <feGaussianBlur stdDeviation="3" result="blur"/>
      <feFlood flood-opacity="0.161"/>
      <feComposite operator="in" in2="blur"/>
      <feComposite in="SourceGraphic"/>
    </filter>
  </defs>
  <g id="Grupo_1071761" data-name="Grupo 1071761" transform="translate(-830 -935.843)">
    <g id="Grupo_1071655" data-name="Grupo 1071655" transform="translate(-320.5 -96.5)">
      <g transform="matrix(1, 0, 0, 1, 1150.5, 1032.34)" filter="url(#Trazado_771226)">
        <path id="Trazado_771226-2" data-name="Trazado 771226" d="M483.067,305.694V277.332a14.55,14.55,0,0,0-7.1-12.523l-23.259-13.791a14.268,14.268,0,0,0-14.1-.264L414.77,263.71A14.544,14.544,0,0,0,407.2,276.5v28.623a14.553,14.553,0,0,0,6.925,12.417l22.295,13.652a14.269,14.269,0,0,0,14.121.455l24.8-13.078A14.541,14.541,0,0,0,483.067,305.694Z" transform="translate(-396.2 -240.86)" fill="#2ec49f" stroke="#fff" stroke-miterlimit="10" stroke-width="4"/>
      </g>
    </g>
    <g id="servicios-de-apoyo" transform="translate(853.374 961.447)">
      <path id="Trazado_100854" data-name="Trazado 100854" d="M58.825,13.067H44L48.357,8.71a4.937,4.937,0,0,0,5.263.543,4.632,4.632,0,0,0,.848-.543Z" transform="translate(-8.544 -2.317)" fill="#d3a06c"/>
      <path id="Trazado_100855" data-name="Trazado 100855" d="M61.067,2v9.883L56.71,7.526a4.3,4.3,0,0,0,.9-.914Z" transform="translate(-10.786 -1.133)" fill="#dfb28b"/>
      <path id="Trazado_100856" data-name="Trazado 100856" d="M48.357,7.526,44,11.883V2l3.459,4.612A4.3,4.3,0,0,0,48.357,7.526Z" transform="translate(-8.544 -1.133)" fill="#dfb28b"/>
      <path id="Trazado_100857" data-name="Trazado 100857" d="M58.825,2,55.366,6.612a4.3,4.3,0,0,1-.9.914,4.633,4.633,0,0,1-.848.543,4.936,4.936,0,0,1-5.263-.543,4.3,4.3,0,0,1-.9-.914L44,2Z" transform="translate(-8.544 -1.133)" fill="#cf9e76"/>
      <path id="Trazado_100858" data-name="Trazado 100858" d="M7.765,2A5.761,5.761,0,1,1,3.687,3.687,5.765,5.765,0,0,1,7.765,2Z" transform="translate(-1.134 -1.133)" fill="#69d6f4"/>
      <g id="Grupo_54565" data-name="Grupo 54565" transform="translate(1.008 15.879)">
        <ellipse id="Elipse_4086" data-name="Elipse 4086" cx="1.689" cy="1.448" rx="1.689" ry="1.448" transform="translate(0.483 0)" fill="#ff826e"/>
        <ellipse id="Elipse_4087" data-name="Elipse 4087" cx="1.689" cy="1.448" rx="1.689" ry="1.448" transform="translate(0.483 16.407)" fill="#ff826e"/>
        <ellipse id="Elipse_4088" data-name="Elipse 4088" cx="1.689" cy="1.93" rx="1.689" ry="1.93" transform="translate(0 7.721)" fill="#ff826e"/>
        <ellipse id="Elipse_4089" data-name="Elipse 4089" cx="1.689" cy="1.93" rx="1.689" ry="1.93" transform="translate(45.843 7.721)" fill="#ff826e"/>
        <ellipse id="Elipse_4090" data-name="Elipse 4090" cx="1.689" cy="1.448" rx="1.689" ry="1.448" transform="translate(45.36 0)" fill="#ff826e"/>
        <ellipse id="Elipse_4091" data-name="Elipse 4091" cx="1.689" cy="1.448" rx="1.689" ry="1.448" transform="translate(45.36 16.407)" fill="#ff826e"/>
      </g>
      <path id="Trazado_100859" data-name="Trazado 100859" d="M53.883,50a4.942,4.942,0,0,1,0,9.883H48.942A4.945,4.945,0,0,1,44,54.941V50Z" transform="translate(-8.544 -9.601)" fill="#e6e9ed"/>
      <path id="Trazado_100860" data-name="Trazado 100860" d="M14.411,49.1l-.543,1.171c.033.074.058.154.09.231l1.219.445v3.295l-1.219.445c-.033.074-.058.154-.09.231l.543,1.17-2.331,2.331-1.17-.543c-.074.033-.154.058-.231.09l-.445,1.219H6.942L6.5,57.96c-.074-.033-.154-.058-.231-.09l-1.17.542L2.766,56.08l.543-1.17c-.033-.074-.058-.154-.09-.231L2,54.236V50.941L3.219,50.5c.033-.074.058-.154.09-.231L2.766,49.1,5.1,46.766l1.171.543c.074-.033.154-.058.231-.09L6.942,46h3.294l.445,1.219c.074.033.154.058.231.09l1.17-.543Zm-2.528,3.492a3.294,3.294,0,1,0-3.294,3.295A3.295,3.295,0,0,0,11.883,52.589Z" transform="translate(-1.134 -8.896)" fill="#fcd770"/>
      <ellipse id="Elipse_4092" data-name="Elipse 4092" cx="14.959" cy="14.959" rx="14.959" ry="14.959" transform="translate(10.659 10.571)" fill="#b4dd7f"/>
      <path id="Trazado_100861" data-name="Trazado 100861" d="M22.154,45.155a14.465,14.465,0,0,1-3.072-2.347c-.3-.3-.593-.626-.874-.955a11.492,11.492,0,0,1,3.9-6.8,11.035,11.035,0,0,1,1.73-1.211l3.239,7.52,2.486,5.784a14.773,14.773,0,0,1-7.412-1.985Z" transform="translate(-3.993 -6.75)" fill="#ff826e"/>
      <path id="Trazado_100862" data-name="Trazado 100862" d="M39.412,45.158v.008A14.773,14.773,0,0,1,32,47.151l2.487-5.781,3.239-7.52a11.549,11.549,0,0,1,5.631,8.005,14.767,14.767,0,0,1-3.945,3.3Z" transform="translate(-6.427 -6.752)" fill="#ff826e"/>
      <path id="Trazado_100863" data-name="Trazado 100863" d="M32.464,32.041l1.491,9-2.487,5.782L28.98,41.043l1.491-9c.33-.025.659-.041,1-.041S32.134,32.016,32.464,32.041Z" transform="translate(-5.893 -6.426)" fill="#fcd770"/>
      <path id="Trazado_100864" data-name="Trazado 100864" d="M37.937,33.532,34.7,41.052l-1.488-9a11.377,11.377,0,0,1,4.73,1.482Z" transform="translate(-6.64 -6.434)" fill="#ccd1d9"/>
      <path id="Trazado_100865" data-name="Trazado 100865" d="M29.775,32.05l-1.491,9-3.239-7.52a11.377,11.377,0,0,1,4.73-1.482Z" transform="translate(-5.198 -6.434)" fill="#ccd1d9"/>
      <ellipse id="Elipse_4093" data-name="Elipse 4093" cx="5.549" cy="5.549" rx="5.549" ry="5.549" transform="translate(19.827 14.431)" fill="#f0d0b4"/>
      <path id="Trazado_100866" data-name="Trazado 100866" d="M9.645,7H8V8.988l1.888,1.888,1.164-1.164L9.645,8.306Z" transform="translate(-2.192 -2.015)"/>
      <path id="Trazado_100867" data-name="Trazado 100867" d="M47,53h1.645v1.645H47Z" transform="translate(-9.073 -10.13)"/>
      <path id="Trazado_100868" data-name="Trazado 100868" d="M51,53h6.588v1.645H51Z" transform="translate(-9.778 -10.13)"/>
      <path id="Trazado_100869" data-name="Trazado 100869" d="M47,57h9.883v1.645H47Z" transform="translate(-9.073 -10.836)"/>
      <path id="Trazado_100870" data-name="Trazado 100870" d="M9.118,49a4.118,4.118,0,1,0,4.118,4.118A4.118,4.118,0,0,0,9.118,49Zm0,6.589a2.471,2.471,0,1,1,2.471-2.471A2.471,2.471,0,0,1,9.118,55.589Z" transform="translate(-1.663 -9.425)"/>
      <path id="Trazado_100871" data-name="Trazado 100871" d="M41.656,12.489H52.022V.959H35.55v11.53h3.777l-2.387,2.387a15.552,15.552,0,0,0-20.9,0l-3.294-3.295a6.61,6.61,0,1,0-1.164,1.164l3.294,3.295a15.617,15.617,0,0,0-3.466,6.332h-.568a.823.823,0,0,1-.823-.823V19.9a2.474,2.474,0,0,0-2.471-2.471H6.572a2.471,2.471,0,1,0,0,1.645h.977a.823.823,0,0,1,.823.823v1.645a2.474,2.474,0,0,0,2.471,2.471h.215a15.688,15.688,0,0,0-.173,1.645H5.75a2.471,2.471,0,1,0,0,1.645h5.132a15.688,15.688,0,0,0,.173,1.645H10.84a2.474,2.474,0,0,0-2.471,2.471v1.645a.823.823,0,0,1-.823.823H6.57a2.471,2.471,0,1,0,0,1.645h.977a2.474,2.474,0,0,0,2.471-2.471V31.421a.823.823,0,0,1,.823-.823h.568a15.617,15.617,0,0,0,3.466,6.332l-1.846,1.846-.991-.991-1.048.491-.4-1.089H6.147l-.394,1.1L4.7,37.794,1.559,40.94l.49,1.046-1.089.4v4.449l1.088.4-.491,1.048L4.7,51.425l1.049-.493.4,1.089H10.6l.394-1.088,1.048.491,3.146-3.146-.491-1.048,1.089-.4V42.385L14.7,41.99l.491-1.048-.991-.991,1.846-1.846a15.552,15.552,0,0,0,20.9,0l2.387,2.387H35.55v5.764a5.773,5.773,0,0,0,5.765,5.765h4.942a5.765,5.765,0,0,0,0-11.53h-4.6L38.105,36.94a15.617,15.617,0,0,0,3.466-6.332h.57a.823.823,0,0,1,.823.823v1.645a2.474,2.474,0,0,0,2.468,2.474h.977a2.471,2.471,0,1,0,0-1.645h-.977a.823.823,0,0,1-.823-.823V31.437a2.474,2.474,0,0,0-2.468-2.476h-.215a15.688,15.688,0,0,0,.173-1.645h5.132a2.471,2.471,0,1,0,0-1.645H42.1a15.69,15.69,0,0,0-.173-1.645h.217a2.474,2.474,0,0,0,2.468-2.477V19.9a.823.823,0,0,1,.823-.823h.977a2.471,2.471,0,1,0,0-1.645h-.977A2.474,2.474,0,0,0,42.963,19.9v1.645a.823.823,0,0,1-.823.823h-.57a15.617,15.617,0,0,0-3.466-6.329Zm6.369-5.161a5.613,5.613,0,0,0,.372-.44l1.977-2.635V9.678ZM47.081,5.9a4.118,4.118,0,0,1-6.588,0L38.021,2.6h11.53Zm-7.907.987a5.613,5.613,0,0,0,.372.44L37.2,9.677V4.253Zm1.661,1.481a5.684,5.684,0,0,0,5.9,0l2.473,2.473H38.362ZM4.254,19.078a.823.823,0,1,1,.823-.823.823.823,0,0,1-.823.823Zm0,16.472a.823.823,0,1,1,.823-.823.823.823,0,0,1-.823.823Zm9.883,10.128-.678.247-.364.167-.352.849.463.987-1.515,1.514-.987-.463-.889.367-.374,1.028H7.3L7.055,49.7l-.167-.364-.849-.356-.987.463L3.539,47.928,4,46.941l-.369-.889L2.6,45.679V43.539l.678-.247.364-.167L4,42.276l-.463-.987,1.518-1.514.987.463.889-.367L7.3,38.843h2.14l.247.678.167.364.849.352.987-.463,1.514,1.514-.463.987.367.889,1.028.374Zm36.237.577a4.123,4.123,0,0,1-4.118,4.118H41.315A4.123,4.123,0,0,1,37.2,46.255V42.141h9.059a4.123,4.123,0,0,1,4.118,4.116ZM48.729,33.9a.823.823,0,1,1-.823.823.823.823,0,0,1,.823-.823Zm0-16.472a.823.823,0,1,1-.823.823.823.823,0,0,1,.823-.823ZM8.372,12.415V10.842H6.727v1.573A4.948,4.948,0,0,1,2.683,8.372H4.256V6.727H2.681A4.948,4.948,0,0,1,6.725,2.683V4.256H8.37V2.68a4.947,4.947,0,0,1,4.044,4.044H10.84V8.369h1.573a4.948,4.948,0,0,1-4.042,4.046Zm-4.941,14.9a.823.823,0,1,1,.823-.823.823.823,0,0,1-.823.823Zm12.6,8.452a10.656,10.656,0,0,1,4.361-6.55l4.82,11.212a13.9,13.9,0,0,1-5.31-1.59V33.9H18.258v3.885a14.1,14.1,0,0,1-2.226-2.021Zm5.517-15.04a4.942,4.942,0,1,1,4.942,4.942,4.942,4.942,0,0,1-4.942-4.942Zm4.942,6.588c.1,0,.194.011.293.013l1.342,8.1-1.635,3.8-1.635-3.8,1.342-8.1c.1,0,.193-.01.292-.01Zm2.839,5.311L28.481,27.5a10.66,10.66,0,0,1,2.673.88Zm-5.68,0-1.825-4.245A10.671,10.671,0,0,1,24.5,27.5Zm11.076,5.162V33.9H33.082v4.936a13.893,13.893,0,0,1-5.31,1.59L32.59,29.215a10.656,10.656,0,0,1,4.359,6.55,14.058,14.058,0,0,1-2.222,2.021Zm14.824-12.12a.823.823,0,1,1-.823.823A.823.823,0,0,1,49.551,25.667ZM38.209,34.129a12.307,12.307,0,0,0-8.088-7.911,6.59,6.59,0,1,0-7.261,0,12.308,12.308,0,0,0-8.088,7.91,14,14,0,1,1,23.437,0Z" transform="translate(-0.917 -0.916)"/>
      <path id="Trazado_100872" data-name="Trazado 100872" d="M44.779,30.865a10.818,10.818,0,0,1-.246,2.3l1.609.35a12.387,12.387,0,0,0,.285-2.646,12.247,12.247,0,0,0-1.189-5.3l-1.488.707a10.608,10.608,0,0,1,1.028,4.588Z" transform="translate(-8.499 -5.291)"/>
      <path id="Trazado_100873" data-name="Trazado 100873" d="M41.286,22.654a10.693,10.693,0,0,1,1.138,1.375l1.352-.941A12.309,12.309,0,0,0,42.462,21.5Z" transform="translate(-8.064 -4.573)"/>
      <path id="Trazado_100874" data-name="Trazado 100874" d="M18.893,29.18l-1.61-.346a12.533,12.533,0,0,0-.247,1.748l1.645.115a10.762,10.762,0,0,1,.213-1.515Z" transform="translate(-3.786 -5.867)"/>
      <path id="Trazado_100875" data-name="Trazado 100875" d="M17.04,33.07a12.068,12.068,0,0,0,.252,1.748l1.609-.353a10.673,10.673,0,0,1-.219-1.512Z" transform="translate(-3.787 -6.595)"/>
      <path id="Trazado_100876" data-name="Trazado 100876" d="M17.933,26.436l1.542.572a10.721,10.721,0,0,1,.633-1.388l-1.446-.788a12.2,12.2,0,0,0-.732,1.606Z" transform="translate(-3.943 -5.163)"/>
    </g>
  </g>
</svg>
