<svg xmlns="http://www.w3.org/2000/svg" xmlns:xlink="http://www.w3.org/1999/xlink" width="97.863" height="106.589" viewBox="0 0 97.863 106.589">
  <defs>
    <filter id="Trazado_771226" x="0" y="0" width="97.863" height="106.589" filterUnits="userSpaceOnUse">
      <feOffset dy="3" input="SourceAlpha"/>
      <feGaussianBlur stdDeviation="3" result="blur"/>
      <feFlood flood-opacity="0.161"/>
      <feComposite operator="in" in2="blur"/>
      <feComposite in="SourceGraphic"/>
    </filter>
  </defs>
  <g id="Grupo_1071757" data-name="Grupo 1071757" transform="translate(-830 -935.843)">
    <g id="Grupo_1071655" data-name="Grupo 1071655" transform="translate(-320.5 -96.5)">
      <g transform="matrix(1, 0, 0, 1, 1150.5, 1032.34)" filter="url(#Trazado_771226)">
        <path id="Trazado_771226-2" data-name="Trazado 771226" d="M483.067,305.694V277.332a14.55,14.55,0,0,0-7.1-12.523l-23.259-13.791a14.268,14.268,0,0,0-14.1-.264L414.77,263.71A14.544,14.544,0,0,0,407.2,276.5v28.623a14.553,14.553,0,0,0,6.925,12.417l22.295,13.652a14.269,14.269,0,0,0,14.121.455l24.8-13.078A14.541,14.541,0,0,0,483.067,305.694Z" transform="translate(-396.2 -240.86)" fill="#2ec49f" stroke="#fff" stroke-miterlimit="10" stroke-width="4"/>
      </g>
    </g>
    <g id="disco-duro" transform="translate(856 961)">
      <path id="Trazado_100763" data-name="Trazado 100763" d="M34.743,411.431h6.138V414.5H34.743Z" transform="translate(-33.234 -370.797)" fill="#e9f1ff"/>
      <g id="Grupo_54542" data-name="Grupo 54542" transform="translate(3.032 0.739)">
        <path id="Trazado_100764" data-name="Trazado 100764" d="M53.246,38.191H50.155V18.251A10.761,10.761,0,0,1,60.9,7.5h1.534A10.761,10.761,0,0,1,73.185,18.251v1.528H70.094V18.251a7.666,7.666,0,0,0-7.656-7.658H60.9a7.666,7.666,0,0,0-7.658,7.658Z" transform="translate(-50.155 -7.5)" fill="#e9f1ff"/>
      </g>
      <g id="Grupo_54543" data-name="Grupo 54543" transform="translate(3.032 0.741)">
        <path id="Trazado_100765" data-name="Trazado 100765" d="M62.66,7.505l-.22,0H60.9A10.761,10.761,0,0,0,50.156,18.252v19.94h1.975V18.252A10.762,10.762,0,0,1,62.66,7.505Z" transform="translate(-50.156 -7.503)" fill="#d7e4f7"/>
        <path id="Trazado_100766" data-name="Trazado 100766" d="M178.513,38.8h-1.534q-.11,0-.221,0a7.667,7.667,0,0,1,7.437,7.655v1.528h1.975V46.458a7.666,7.666,0,0,0-7.658-7.658Z" transform="translate(-164.255 -35.71)" fill="#d7e4f7"/>
      </g>
      <path id="Trazado_100767" data-name="Trazado 100767" d="M236.648,131.827h6.135v3.068h-6.135Z" transform="translate(-215.198 -118.808)" fill="#77d4f5"/>
      <path id="Trazado_100768" data-name="Trazado 100768" d="M236.648,131.827h2.963v3.068h-2.963Z" transform="translate(-215.198 -118.808)" fill="#68b3f3"/>
      <path id="Trazado_100769" data-name="Trazado 100769" d="M166.522,196.639H144.942a1.482,1.482,0,0,1-1.481-1.481V164.37a1.481,1.481,0,0,1,1.481-1.481h21.579A1.481,1.481,0,0,1,168,164.37v30.787a1.481,1.481,0,0,1-1.481,1.481Z" transform="translate(-131.214 -146.802)" fill="#3e4f55"/>
      <path id="Trazado_100770" data-name="Trazado 100770" d="M148.4,195.158V164.37a1.481,1.481,0,0,1,1.481-1.481h-4.938a1.481,1.481,0,0,0-1.481,1.481v30.787a1.481,1.481,0,0,0,1.481,1.481h4.938A1.482,1.482,0,0,1,148.4,195.158Z" transform="translate(-131.214 -146.802)" fill="#303d42"/>
      <path id="Trazado_100771" data-name="Trazado 100771" d="M26.978,349.125h7.669v6.149H26.978Z" transform="translate(-26.236 -314.644)" fill="#3e4f55"/>
      <path id="Trazado_100772" data-name="Trazado 100772" d="M26.978,349.125h2.963v6.149H26.978Z" transform="translate(-26.236 -314.644)" fill="#303d42"/>
      <path id="Trazado_100773" data-name="Trazado 100773" d="M42.353,318.245h4.633v3.05H42.353Z" transform="translate(-40.092 -286.814)" fill="#77d4f5"/>
      <path id="Trazado_100774" data-name="Trazado 100774" d="M42.353,318.245h2.963v3.05H42.353Z" transform="translate(-40.092 -286.814)" fill="#68b3f3"/>
      <path id="Trazado_100775" data-name="Trazado 100775" d="M216.323,197.019h-9.2a1.534,1.534,0,0,1,0-3.068h9.2a1.534,1.534,0,1,1,0,3.068Z" transform="translate(-187.204 -174.796)" fill="#77d4f5"/>
      <path id="Trazado_100776" data-name="Trazado 100776" d="M312.578,256.007h-9.2l-4.6,3.068v8.706a13.46,13.46,0,0,0,9.2,12.769,13.459,13.459,0,0,0,9.2-12.769v-8.706Z" transform="translate(-271.188 -230.723)" fill="#e9f1ff"/>
      <path id="Trazado_100777" data-name="Trazado 100777" d="M303.711,267.78v-8.706l4.6-3.068h-4.938l-4.6,3.068v8.706a13.46,13.46,0,0,0,9.2,12.769,13.471,13.471,0,0,0,2.469-1.109A13.461,13.461,0,0,1,303.711,267.78Z" transform="translate(-271.187 -230.723)" fill="#d7e4f7"/>
      <path id="Trazado_100778" data-name="Trazado 100778" d="M336.184,305.444a10.353,10.353,0,0,1-6.113-9.455v-7.051l2.445-1.631h7.331l2.445,1.631v7.051A10.354,10.354,0,0,1,336.184,305.444Z" transform="translate(-299.395 -258.932)" fill="#82d65f"/>
      <path id="Trazado_100779" data-name="Trazado 100779" d="M331.917,291.353l-1.847,1.231v7.051a10.354,10.354,0,0,0,5.384,9.092,13.451,13.451,0,0,1-3.537-9.092Z" transform="translate(-299.394 -262.578)" fill="#77bf51"/>
      <g id="Grupo_54544" data-name="Grupo 54544" transform="translate(0 0)">
        <path id="Trazado_100780" data-name="Trazado 100780" d="M211.837,188.725a2.277,2.277,0,0,0-2.274-2.274h-9.2a2.275,2.275,0,0,0,0,4.549h9.2A2.277,2.277,0,0,0,211.837,188.725Zm-12.269,0a.794.794,0,0,1,.793-.793h9.2a.793.793,0,0,1,0,1.586h-9.205a.794.794,0,0,1-.793-.793Z" transform="translate(-180.443 -168.037)"/>
        <path id="Trazado_100781" data-name="Trazado 100781" d="M65.466,32.537a.742.742,0,0,0,.742-.742V28.35a.742.742,0,0,0-.33-.616l-4.6-3.064a.742.742,0,0,0-.411-.124H57V17.569a2.227,2.227,0,0,0-2.222-2.222H47.8V13.019a.742.742,0,0,0-.742-.742h-.78V11.49A11.5,11.5,0,0,0,34.788,0H33.254a11.5,11.5,0,0,0-11.49,11.49v19.2h-.03a.742.742,0,0,0-.742.742v2.309h-.776a.742.742,0,0,0-.742.742V40.63a.742.742,0,0,0,.742.742h.026V43.7a.742.742,0,0,0,.742.742h6.134a.742.742,0,0,0,.742-.742V41.372h.026a.742.742,0,0,0,.742-.742V34.481a.742.742,0,0,0-.742-.742h-.779V31.431a.742.742,0,0,0-.742-.742h-.03V23.833a.742.742,0,0,0-1.481,0v6.855H23.246V11.49A10.02,10.02,0,0,1,33.254,1.481h1.534A10.02,10.02,0,0,1,44.8,11.49v.789h-1.61V11.49a8.408,8.408,0,0,0-8.4-8.4H33.254a8.408,8.408,0,0,0-8.4,8.4v9.119a.742.742,0,0,0,1.481,0V11.49a6.925,6.925,0,0,1,6.917-6.917h1.534a6.925,6.925,0,0,1,6.917,6.917v.789h-.782a.742.742,0,0,0-.742.742v2.327H33.2A2.227,2.227,0,0,0,30.98,17.57V48.357A2.227,2.227,0,0,0,33.2,50.579h8.486a.742.742,0,0,0,0-1.481H33.2a.742.742,0,0,1-.742-.742V17.569a.742.742,0,0,1,.742-.742H54.781a.742.742,0,0,1,.742.742v6.975H51.66a.742.742,0,0,0-.411.124l-4.6,3.068a.742.742,0,0,0-.33.616v8.706A14.18,14.18,0,0,0,52.986,49.1H44.916a.742.742,0,0,0,0,1.481h9.866a2.213,2.213,0,0,0,.875-.179q.184.067.372.131a.742.742,0,0,0,.468,0A14.379,14.379,0,0,0,66.2,37.058V35.025a.742.742,0,0,0-1.481,0v2.033a12.826,12.826,0,0,1-8.462,11.985A12.868,12.868,0,0,1,47.8,37.058V28.748l4.083-2.725h8.755l4.085,2.723v3.049a.742.742,0,0,0,.742.742ZM21.724,41.374h1.586v1.586H21.724Zm4.654,1.586H24.792V41.374h1.586Zm.767-3.072H20.957V35.221h6.188ZM22.476,33.74V32.171h3.151V33.74ZM41.666,13.76h4.653v1.586H41.666Z" transform="translate(-19.474 0)"/>
        <path id="Trazado_100782" data-name="Trazado 100782" d="M333.5,279.93a.742.742,0,0,0-.411-.124h-7.33a.742.742,0,0,0-.411.124l-2.445,1.631a.742.742,0,0,0-.33.616v7.051a11.118,11.118,0,0,0,6.549,10.13.742.742,0,0,0,.607,0,11.118,11.118,0,0,0,6.549-10.13v-7.051a.742.742,0,0,0-.33-.616Zm1.295,9.3a9.636,9.636,0,0,1-5.371,8.636,9.637,9.637,0,0,1-5.37-8.636v-6.656l1.93-1.287h6.883l1.93,1.287v6.655Z" transform="translate(-292.638 -252.172)"/>
        <path id="Trazado_100783" data-name="Trazado 100783" d="M359.643,345.044l-3.2,4.166-1.821-1.821a.742.742,0,1,0-1.048,1.048l2.418,2.418a.742.742,0,0,0,1.111-.072l3.718-4.835a.742.742,0,1,0-1.175-.9Z" transform="translate(-320.374 -310.701)"/>
      </g>
    </g>
  </g>
</svg>
