<svg xmlns="http://www.w3.org/2000/svg" xmlns:xlink="http://www.w3.org/1999/xlink" width="97.863" height="106.589" viewBox="0 0 97.863 106.589">
  <defs>
    <filter id="Trazado_771226" x="0" y="0" width="97.863" height="106.589" filterUnits="userSpaceOnUse">
      <feOffset dy="3" input="SourceAlpha"/>
      <feGaussianBlur stdDeviation="3" result="blur"/>
      <feFlood flood-opacity="0.161"/>
      <feComposite operator="in" in2="blur"/>
      <feComposite in="SourceGraphic"/>
    </filter>
  </defs>
  <g id="Grupo_1071748" data-name="Grupo 1071748" transform="translate(11 8.157)">
    <g id="Grupo_1071655" data-name="Grupo 1071655">
      <g transform="matrix(1, 0, 0, 1, -11, -8.16)" filter="url(#Trazado_771226)">
        <path id="Trazado_771226-2" data-name="Trazado 771226" d="M483.067,305.694V277.332a14.55,14.55,0,0,0-7.1-12.523l-23.259-13.791a14.268,14.268,0,0,0-14.1-.264L414.77,263.71A14.544,14.544,0,0,0,407.2,276.5v28.623a14.553,14.553,0,0,0,6.925,12.417l22.295,13.652a14.269,14.269,0,0,0,14.121.455l24.8-13.078A14.541,14.541,0,0,0,483.067,305.694Z" transform="translate(-396.2 -240.86)" fill="#2ec49f" stroke="#fff" stroke-miterlimit="10" stroke-width="4"/>
      </g>
    </g>
    <g id="bluetooth" transform="translate(10.832 15.036)">
      <g id="Grupo_54526" data-name="Grupo 54526" transform="translate(0.794 0.793)">
        <ellipse id="Elipse_4078" data-name="Elipse 4078" cx="26.305" cy="26.309" rx="26.305" ry="26.309" transform="translate(0 0)" fill="#407fff"/>
        <path id="Trazado_100701" data-name="Trazado 100701" d="M99.317,62.3A26.306,26.306,0,0,1,62.336,99.289,26.306,26.306,0,1,0,99.317,62.3Z" transform="translate(-56.535 -56.5)" fill="#406aef"/>
        <g id="Grupo_54525" data-name="Grupo 54525" transform="translate(15.239 11.344)">
          <g id="Grupo_54520" data-name="Grupo 54520" transform="translate(7.374 0)">
            <path id="Trazado_100702" data-name="Trazado 100702" d="M222.883,131.374a1.76,1.76,0,0,1-1.759-1.76V117.459a2.811,2.811,0,0,1,4.215-2.434l8.85,5.11a2.876,2.876,0,0,1,0,4.982l-10.426,6.021A1.756,1.756,0,0,1,222.883,131.374Zm1.759-12.689v7.883l6.825-3.941Z" transform="translate(-221.124 -114.649)" fill="#e3faff"/>
          </g>
          <g id="Grupo_54521" data-name="Grupo 54521" transform="translate(7.373 13.204)">
            <path id="Trazado_100703" data-name="Trazado 100703" d="M223.933,256.105a2.808,2.808,0,0,1-2.811-2.811V241.139a1.759,1.759,0,0,1,2.639-1.524l10.427,6.021a2.876,2.876,0,0,1,0,4.982l-8.85,5.11A2.811,2.811,0,0,1,223.933,256.105Zm.708-11.917v7.883l6.825-3.941Z" transform="translate(-221.122 -239.379)" fill="#e3faff"/>
          </g>
          <g id="Grupo_54522" data-name="Grupo 54522" transform="translate(9.116 14.965)">
            <path id="Trazado_100704" data-name="Trazado 100704" d="M241.109,256.014a1.071,1.071,0,0,0,.393,1.462l5.254,3.032a2.876,2.876,0,0,1,0,4.982l-8.85,5.11a2.775,2.775,0,0,1-.336.165,2.82,2.82,0,0,0,2.475-.165l8.85-5.11a2.876,2.876,0,0,0,0-4.982l-7.785-4.5Z" transform="translate(-237.57 -256.012)" fill="#ccf4ff"/>
          </g>
          <path id="Trazado_100705" data-name="Trazado 100705" d="M241.316,129.625l7.785-4.5a2.871,2.871,0,0,0,0-4.976l-8.979-5.185a2.82,2.82,0,0,0-2.321-.105l9.161,5.292a2.876,2.876,0,0,1,0,4.982l-5.248,3.032a1.076,1.076,0,0,0-.4,1.46Z" transform="translate(-228.662 -114.658)" fill="#ccf4ff"/>
          <g id="Grupo_54523" data-name="Grupo 54523" transform="translate(0 11.927)">
            <path id="Trazado_100706" data-name="Trazado 100706" d="M164.133,230.34l-10.008,5.84a1.759,1.759,0,1,1-1.772-3.04l10.009-5.84" transform="translate(-151.48 -227.3)" fill="#e3faff"/>
          </g>
          <path id="Trazado_100707" data-name="Trazado 100707" d="M204.451,243.291v4.073l6.174-3.6-3.51-2.027Z" transform="translate(-198.842 -228.284)" fill="#ccf4ff"/>
          <g id="Grupo_54524" data-name="Grupo 54524" transform="translate(0.001 8.933)">
            <path id="Trazado_100708" data-name="Trazado 100708" d="M162.373,208.107l-10.013-5.8a1.76,1.76,0,1,1,1.764-3.046l10.013,5.8" transform="translate(-151.482 -199.025)" fill="#e3faff"/>
          </g>
        </g>
      </g>
      <g id="Grupo_54527" data-name="Grupo 54527" transform="translate(0 0)">
        <path id="Trazado_100709" data-name="Trazado 100709" d="M44.786,267.721A25.511,25.511,0,0,1,1.629,249.294a.794.794,0,1,0-1.588,0,27.1,27.1,0,0,0,45.842,19.574.794.794,0,1,0-1.1-1.147Z" transform="translate(-0.041 -222.192)"/>
        <path id="Trazado_100710" data-name="Trazado 100710" d="M48.378,7.939A27.1,27.1,0,0,0,2.37,23.383a.794.794,0,0,0,1.573.216,25.512,25.512,0,0,1,50.783,3.5,25.242,25.242,0,0,1-5.575,15.922.794.794,0,1,0,1.24.992A27.109,27.109,0,0,0,48.378,7.939Z" transform="translate(-2.117 -0.002)"/>
        <path id="Trazado_100711" data-name="Trazado 100711" d="M153.9,109.005a2.018,2.018,0,0,1,2.015,0l2.887,1.667a.794.794,0,0,0,.794-1.375l-2.887-1.667a3.6,3.6,0,0,0-5.407,3.122v7.722l-3.541-2.049a2.554,2.554,0,1,0-2.556,4.423l3.593,2.079-3.6,2.1a2.553,2.553,0,1,0,2.572,4.41l3.534-2.06v7.687a3.606,3.606,0,0,0,5.407,3.122l8.849-5.11a3.67,3.67,0,0,0,0-6.358l-5.568-3.215-1.025-.593.631-.368h0l5.959-3.442a3.67,3.67,0,0,0,0-6.358l-2.722-1.572a.794.794,0,0,0-.794,1.375l2.722,1.572a2.082,2.082,0,0,1,0,3.606l-7.387,4.267-1.918-1.11,2.293-1.337.023-.013,5.061-2.922a.794.794,0,0,0,0-1.375l-6.825-3.941a.794.794,0,0,0-1.191.687v7.435l-.944.551-.986-.571v-8.642A2.022,2.022,0,0,1,153.9,109.005Zm2.509,9.482v-5.132l4.443,2.566-3.818,2.205-.009,0-.1.055Zm-9.439,9.577a.956.956,0,0,1-.486.132.966.966,0,0,1-.488-1.8l4.383-2.555,1.316.761h0l.221.127.386.22ZM165.8,129.9a2.088,2.088,0,0,1-1.042,1.8l-8.849,5.11a2.017,2.017,0,0,1-3.025-1.746v-8.614l1-.581.934.54v7.427a.794.794,0,0,0,1.191.687l6.825-3.941a.794.794,0,0,0,0-1.375L146,119.469a.965.965,0,1,1,.966-1.671l17.8,10.293a2.087,2.087,0,0,1,1.041,1.8Zm-9.4-2.566,1.295.747.005,0,3.142,1.814-4.443,2.566v-5.131Z" transform="translate(-128.688 -95.805)"/>
      </g>
    </g>
  </g>
</svg>
