<svg xmlns="http://www.w3.org/2000/svg" xmlns:xlink="http://www.w3.org/1999/xlink" width="144.352" height="175.376" viewBox="0 0 144.352 175.376">
  <defs>
    <filter id="Trazado_771252" x="0" y="16.974" width="144.352" height="158.402" filterUnits="userSpaceOnUse">
      <feOffset dy="3" input="SourceAlpha"/>
      <feGaussianBlur stdDeviation="3" result="blur"/>
      <feFlood flood-opacity="0.161"/>
      <feComposite operator="in" in2="blur"/>
      <feComposite in="SourceGraphic"/>
    </filter>
    <linearGradient id="linear-gradient" x1="129.638" y1="0.5" x2="128.638" y2="0.5" gradientUnits="objectBoundingBox">
      <stop offset="0.051" stop-color="#3d4555"/>
      <stop offset="0.583" stop-color="#3d4555"/>
      <stop offset="0.645" stop-color="#373d4a"/>
      <stop offset="0.716" stop-color="#353b47"/>
    </linearGradient>
  </defs>
  <g id="Grupo_58634" data-name="Grupo 58634" transform="translate(11)">
    <g transform="matrix(1, 0, 0, 1, -11, 0)" filter="url(#Trazado_771252)">
      <path id="Trazado_771252-2" data-name="Trazado 771252" d="M407.2,340.425V294.683a23.465,23.465,0,0,1,11.452-20.2l37.512-22.242a23.011,23.011,0,0,1,22.749-.426l38.437,20.895a23.456,23.456,0,0,1,12.2,20.623V339.5a23.47,23.47,0,0,1-11.169,20.026l-35.957,22.019a23.013,23.013,0,0,1-22.775.734l-39.993-21.092A23.451,23.451,0,0,1,407.2,340.425Z" transform="translate(-396.2 -223.8)" fill="#2ec49f" stroke="#fff" stroke-miterlimit="10" stroke-width="4"/>
    </g>
    <g id="Grupo_58562" data-name="Grupo 58562" transform="translate(3.522 0)">
      <g id="Grupo_58561" data-name="Grupo 58561" transform="translate(0 0)">
        <g id="Grupo_58507" data-name="Grupo 58507" transform="translate(49.018)">
          <g id="Grupo_58503" data-name="Grupo 58503" transform="translate(5.744 65.27)">
            <path id="Trazado_105162" data-name="Trazado 105162" d="M371.061,272.864l7.7-4.475a1.913,1.913,0,0,1,1.935.189l-7.7,4.475A1.918,1.918,0,0,0,371.061,272.864Z" transform="translate(-370.269 -268.21)" fill="#202734"/>
            <path id="Trazado_105163" data-name="Trazado 105163" d="M369.9,272.834l7.7-4.475a5.971,5.971,0,0,1,2.712,4.7,1.9,1.9,0,0,1-.794,1.741l-7.7,4.478a1.9,1.9,0,0,0,.794-1.743,5.972,5.972,0,0,0-2.712-4.7Z" transform="translate(-367.17 -267.991)" fill="#202734"/>
            <path id="Trazado_105164" data-name="Trazado 105164" d="M375.895,270.466a5.971,5.971,0,0,1,2.712,4.7c0,1.725-1.225,2.42-2.727,1.552a5.971,5.971,0,0,1-2.712-4.691C373.172,270.3,374.392,269.6,375.895,270.466Z" transform="translate(-373.167 -265.622)" fill="#27303f"/>
          </g>
          <g id="Grupo_58506" data-name="Grupo 58506" transform="translate(0)">
            <g id="Grupo_58504" data-name="Grupo 58504" transform="translate(5.689 39.69)">
              <path id="Trazado_105165" data-name="Trazado 105165" d="M371.636,259.919l2.243-1.339c.483-.291.7-.622.648-.906l4.537,25.6c.052.284-.165.615-.651.906l-2.24,1.339a3.755,3.755,0,0,1-.892.374l-4.537-25.6a3.757,3.757,0,0,0,.892-.374Z" transform="translate(-367.836 -257.003)" fill="#2c323d"/>
              <path id="Trazado_105166" data-name="Trazado 105166" d="M373.872,258.781l4.537,25.6a4.8,4.8,0,0,1-1.528.187l-4.535-25.6a4.8,4.8,0,0,0,1.526-.187Z" transform="translate(-370.965 -255.491)" fill="#3d4555"/>
              <path id="Trazado_105167" data-name="Trazado 105167" d="M374.366,259.252l4.535,25.595a2.9,2.9,0,0,1-.735-.123c-.383-.126-.6-.324-.636-.554l-4.537-25.6c.04.229.253.428.639.554a2.965,2.965,0,0,0,.735.123Z" transform="translate(-372.984 -255.774)" fill="#2e3440"/>
              <path id="Trazado_105168" data-name="Trazado 105168" d="M378.715,257.518c.864.282.86.936-.012,1.46l-2.243,1.339a4.416,4.416,0,0,1-3.153.438c-.866-.282-.86-.937.012-1.46l2.24-1.339A4.424,4.424,0,0,1,378.715,257.518Z" transform="translate(-372.661 -257.401)" fill="#313744"/>
            </g>
            <g id="Grupo_58505" data-name="Grupo 58505" transform="translate(0)">
              <path id="Trazado_105169" data-name="Trazado 105169" d="M372.985,243.638l1.679-2.132c.393-.237.615-.636.778-.636l7.036,39.732c.04.232-.132.5-.529.735l-1.632.975a3.192,3.192,0,0,1-.724.3l-6.768-38.249C373.092,244.293,372.775,243.763,372.985,243.638Z" transform="translate(-370.485 -240.26)" fill="#2c323d"/>
              <path id="Trazado_105170" data-name="Trazado 105170" d="M375.284,242.349l6.768,38.247a3.934,3.934,0,0,1-1.237.151L374.047,242.5A3.918,3.918,0,0,0,375.284,242.349Z" transform="translate(-372.942 -238.24)" fill="#3d4555"/>
              <path id="Trazado_105171" data-name="Trazado 105171" d="M375.674,242.707l6.766,38.248a2.315,2.315,0,0,1-.6-.1c-.31-.1-.483-.265-.516-.447L374.57,242.2c.03.185.194.308.506.407a2.372,2.372,0,0,0,.6.1Z" transform="translate(-374.567 -238.447)" fill="#2e3440"/>
              <path id="Trazado_105172" data-name="Trazado 105172" d="M380.242,240.829c.7.227.651.529.1,1.239l-1.7,2.352c-.463.7-1.862.6-2.559.353-.31-.106-.454-.589.012-1.181l1.587-2.408C378.279,240.363,379.542,240.6,380.242,240.829Z" transform="translate(-375.8 -240.613)" fill="#383f4e"/>
            </g>
          </g>
        </g>
        <g id="Grupo_58513" data-name="Grupo 58513" transform="translate(89.333 37.989)">
          <g id="Grupo_58509" data-name="Grupo 58509" transform="translate(0 47.24)">
            <path id="Trazado_105173" data-name="Trazado 105173" d="M362.993,276.824a1.918,1.918,0,0,1,1.932.189,5.975,5.975,0,0,1,2.712,4.7,1.9,1.9,0,0,1-.794,1.743l-7.7,4.473a1.9,1.9,0,0,0,.794-1.743,5.971,5.971,0,0,0-2.712-4.691,1.918,1.918,0,0,0-1.935-.192Z" transform="translate(-354.499 -276.647)" fill="#202734"/>
            <g id="Grupo_58508" data-name="Grupo 58508" transform="translate(0 4.472)">
              <path id="Trazado_105174" data-name="Trazado 105174" d="M361.28,278.908a5.971,5.971,0,0,1,2.712,4.691c0,1.725-1.227,2.42-2.727,1.554a5.972,5.972,0,0,1-2.712-4.7C358.558,278.733,359.778,278.037,361.28,278.908Z" transform="translate(-358.553 -278.532)" fill="#27303f"/>
            </g>
          </g>
          <g id="Grupo_58512" data-name="Grupo 58512" transform="translate(6.145 0)">
            <g id="Grupo_58510" data-name="Grupo 58510" transform="translate(0 28.49)">
              <path id="Trazado_105175" data-name="Trazado 105175" d="M359.428,271.814l2.231-1.344a1.355,1.355,0,0,0,.589-.686l-6.808,18.345a1.339,1.339,0,0,1-.587.686l-2.233,1.344Z" transform="translate(-348.911 -267.255)" fill="#20242d"/>
              <path id="Trazado_105176" data-name="Trazado 105176" d="M364.325,271.949l-6.808,18.345a2.748,2.748,0,0,1-3.108-.525,1.653,1.653,0,0,1-.534-1.739l6.808-18.345a1.653,1.653,0,0,0,.537,1.739,2.749,2.749,0,0,0,3.108.525Z" transform="translate(-353.808 -267.39)" fill="#2e3440"/>
              <path id="Trazado_105177" data-name="Trazado 105177" d="M358.593,269.519a1.46,1.46,0,0,1-.052,2.425l-2.231,1.344a2.749,2.749,0,0,1-3.108-.525,1.461,1.461,0,0,1,.052-2.425l2.233-1.344A2.745,2.745,0,0,1,358.593,269.519Z" transform="translate(-345.793 -268.728)" fill="#383f4e"/>
            </g>
            <g id="Grupo_58511" data-name="Grupo 58511" transform="translate(7.72)">
              <path id="Trazado_105178" data-name="Trazado 105178" d="M358.854,259.192l1.323-1.218c.246-.142.738-.31.821-.534l-10.461,29.074a1.085,1.085,0,0,1-.492.565l-1.639.951Z" transform="translate(-345.409 -255.622)" fill="#20252d"/>
              <path id="Trazado_105179" data-name="Trazado 105179" d="M362.757,258.57l-10.449,28.839a2.254,2.254,0,0,1-2.519-.44,1.316,1.316,0,0,1-.426-1.377l9.963-27.5a.6.6,0,0,1,.911.04,2.255,2.255,0,0,0,2.519.442Z" transform="translate(-349.311 -255)" fill="#2e3440"/>
              <path id="Trazado_105180" data-name="Trazado 105180" d="M353.556,257.327c.677.657.655,1.147-.061,1.942l-2.05,2.116a2.249,2.249,0,0,1-2.519-.442c-.674-.655-.769-1.124.026-1.935l1.826-1.859a1.538,1.538,0,0,1,.987-.475,2.418,2.418,0,0,1,1.792.653Z" transform="translate(-338.416 -256.669)" fill="#383f4e"/>
            </g>
          </g>
        </g>
        <g id="Grupo_58560" data-name="Grupo 58560" transform="translate(0 60.825)">
          <g id="Grupo_58514" data-name="Grupo 58514" transform="translate(1.287 34.084)">
            <path id="Trazado_105181" data-name="Trazado 105181" d="M411.956,340.564l-56.114-32.4c-3.439-1.984-3.007-5.453.963-7.745l30.263-17.472c3.968-2.292,8.752-3.317,13.413-.556l56.114,32.4c3.439,1.984,3.007,5.453-.963,7.745l-30.265,17.472C421.4,342.3,415.393,342.548,411.956,340.564Z" transform="translate(-353.52 -280.732)" fill="#f0f4f7" style="mix-blend-mode: multiply;isolation: isolate"/>
            <path id="Trazado_105182" data-name="Trazado 105182" d="M409.977,336.97c2.862,1.488,7.622,1.227,10.719-.561l28.347-16.365c2.976-1.72-8.594-11.187-11.173-12.675-.1-.062-42.252-24.368-42.306-24.368-3.653-2.07-7.468-1.221-10.69.639l-28.347,16.367c-2.976,1.72,8.532,11.149,11.111,12.637C367.673,312.654,409.849,336.97,409.977,336.97Z" transform="translate(-350.086 -279.279)" fill="#e6edf2" style="mix-blend-mode: multiply;isolation: isolate"/>
            <path id="Trazado_105183" data-name="Trazado 105183" d="M409.4,333.378a9.908,9.908,0,0,0,8.024-.561l26.429-15.26c1.984-1.145-21.588-16.613-23.306-17.6-.208-.123-28.392-16.339-28.5-16.339-2.645-1.379-5.5-.705-7.969.724l-26.429,15.258c-1.984,1.147,21.46,16.54,23.178,17.534C380.9,317.145,409.137,333.378,409.4,333.378Z" transform="translate(-348.05 -277.829)" fill="#dde6ed" style="mix-blend-mode: multiply;isolation: isolate"/>
            <path id="Trazado_105184" data-name="Trazado 105184" d="M408.978,329.8a7.564,7.564,0,0,0,5.327-.565l24.512-14.153c.992-.573-34.582-22.042-35.441-22.537-.31-.185-14.532-8.31-14.693-8.31-1.634-.69-3.52-.189-5.249.807l-24.51,14.153c-.992.573,34.391,21.931,35.25,22.426C394.293,321.648,408.588,329.8,408.978,329.8Z" transform="translate(-346.174 -276.388)" fill="#d3dfe8" style="mix-blend-mode: multiply;isolation: isolate"/>
            <path id="Trazado_105185" data-name="Trazado 105185" d="M408.6,326.281a5.877,5.877,0,0,0,2.635-.567l22.594-13.046L386.252,285.2a1.623,1.623,0,0,0-.882-.279,5.722,5.722,0,0,0-2.529.892l-22.6,13.044,47.323,27.32a4.391,4.391,0,0,0,1.032.106Z" transform="translate(-344.34 -275.016)" fill="#cad8e3" style="mix-blend-mode: multiply;isolation: isolate"/>
          </g>
          <path id="Trazado_105186" data-name="Trazado 105186" d="M445.313,303.491l-46.163-26.653c-2.391-1.382-6.569-1.209-9.33.386L361.3,294.194c-5.188-.339-8.317-1.008-8.317-.63,0,2.226,2.4,4.563,5.739,6.487l56.057,32.366c2.391,1.379,6.569,1.206,9.33-.388l30.431-17.569s6.411-3.605,6.411-7.3C460.947,306.273,454.742,305.031,445.313,303.491Z" transform="translate(-352.979 -253.235)" fill="#505a71"/>
          <path id="Trazado_105187" data-name="Trazado 105187" d="M460.945,309.655l-6.4-.811L401.084,274.5c-3.522-2.034-9.673-1.779-13.739.57l-30.97,21.362-3.4-.431v1.362h0a4.091,4.091,0,0,0,2.375,3.409l57.484,33.189c3.522,2.032,9.673,1.776,13.739-.57l31-17.9c2.249-1.3,3.385-2.962,3.362-4.535h0Z" transform="translate(-352.977 -257.031)" fill="#7d879e"/>
          <path id="Trazado_105188" data-name="Trazado 105188" d="M412.841,335.494l-57.484-33.189c-3.522-2.032-3.08-6.6.987-8.942l31-20.37c4.067-2.349,10.217-2.6,13.739-.57l57.483,36.669c3.522,2.034,3.08,5.585-.987,7.932l-31,17.9C422.513,337.27,416.363,337.526,412.841,335.494Z" transform="translate(-352.978 -259.872)" fill="#828ca3"/>
          <path id="Trazado_105189" data-name="Trazado 105189" d="M459.621,300.043l-15.457-1.984-43.986-25.4a11.355,11.355,0,0,0-5.547-1.265,15.111,15.111,0,0,0-7.352,1.831l-24.8,14.319-9.145-1.176v12h0v.014h0a3.285,3.285,0,0,0,1.956,2.7l57.484,33.192a11.367,11.367,0,0,0,5.549,1.257,15.145,15.145,0,0,0,7.352-1.829l31-17.9c1.871-1.079,2.943-2.451,2.943-3.759v-.026h0Z" transform="translate(-352.492 -259.384)" fill="url(#linear-gradient)"/>
          <path id="Trazado_105190" data-name="Trazado 105190" d="M374.272,304.8a14.14,14.14,0,0,1-4.178-.156V293.655a19.036,19.036,0,0,0,4.178.081Z" transform="translate(-306.793 -229.002)" fill="#505766"/>
          <path id="Trazado_105191" data-name="Trazado 105191" d="M460.946,301.588l-6.4-.809-53.458-30.864c-3.522-2.032-9.673-1.779-13.739.57l-30.97,17.881-3.4-.431v2.046h0a4.091,4.091,0,0,0,2.375,3.409l57.484,33.187c3.522,2.034,9.673,1.779,13.739-.567l31.006-17.9c2.249-1.3,3.385-2.962,3.362-4.535h0Z" transform="translate(-352.977 -263.295)" fill="#505a71"/>
          <path id="Trazado_105192" data-name="Trazado 105192" d="M460.946,302.176l-6.4-1.826-53.458-30.864c-3.522-2.032-9.673-1.776-13.739.57l-30.97,17.881-3.4.587v1.029h0a4.092,4.092,0,0,0,2.375,3.409l57.484,33.189c3.522,2.032,9.673,1.776,13.739-.57l31-17.9c2.249-1.3,3.385-2.962,3.362-4.535h0Z" transform="translate(-352.977 -263.882)" fill="#768097"/>
          <path id="Trazado_105193" data-name="Trazado 105193" d="M412.841,327.616l-57.484-33.189c-3.522-2.034-3.08-5.585.987-7.932l31-17.9c4.067-2.346,8.963-3.4,13.739-.57l57.483,33.189c3.522,2.032,3.08,5.585-.987,7.932l-31,17.9C422.513,329.394,416.363,329.649,412.841,327.616Z" transform="translate(-352.978 -266.324)" fill="#7d879e"/>
          <path id="Trazado_105194" data-name="Trazado 105194" d="M412.393,323.072l-56.057-32.366c-2.391-1.379-2.091-3.792.669-5.386l30.435-17.569c2.761-1.595,6.938-1.767,9.33-.388l56.057,32.366c2.391,1.379,2.091,3.792-.672,5.386l-30.431,17.569C418.964,324.28,414.786,324.451,412.393,323.072Z" transform="translate(-350.598 -266.178)" fill="#828ca3"/>
          <path id="Trazado_105195" data-name="Trazado 105195" d="M411.712,319.376,357.45,288.048c-1.764-1.02-1.542-2.8.495-3.974l28.42-16.41a7.649,7.649,0,0,1,6.884-.284l54.262,31.327c1.763,1.017,1.542,2.8-.495,3.974l-28.423,16.408A7.644,7.644,0,0,1,411.712,319.376Z" transform="translate(-348.496 -265.823)" fill="#828ca3"/>
          <g id="Grupo_58516" data-name="Grupo 58516" transform="translate(16.294 42.032)">
            <g id="Grupo_58515" data-name="Grupo 58515" transform="translate(0 0)">
              <path id="Trazado_105196" data-name="Trazado 105196" d="M392.784,286.595l-1.675-.968a1.323,1.323,0,0,1-.551-1.053h0c0-.4.246-.591.551-.417l1.675.968a1.315,1.315,0,0,1,.551,1.053h0C393.334,286.583,393.088,286.769,392.784,286.595Z" transform="translate(-390.558 -284.092)" fill="#63d643"/>
              <path id="Trazado_105197" data-name="Trazado 105197" d="M390.846,287.711l-1.677-.968a1.318,1.318,0,0,1-.549-1.05h0c0-.407.246-.591.549-.417l1.677.968a1.313,1.313,0,0,1,.551,1.05h0C391.4,287.7,391.151,287.889,390.846,287.711Z" transform="translate(-384.037 -282.564)" fill="#16892e"/>
              <path id="Trazado_105198" data-name="Trazado 105198" d="M388.911,288.832l-1.677-.968a1.315,1.315,0,0,1-.551-1.053h0c0-.4.246-.591.551-.416l1.677.97a1.318,1.318,0,0,1,.549,1.05h0C389.46,288.823,389.214,289.006,388.911,288.832Z" transform="translate(-377.517 -281.038)" fill="#16892e"/>
              <path id="Trazado_105199" data-name="Trazado 105199" d="M386.971,289.951l-1.677-.968a1.326,1.326,0,0,1-.549-1.053h0c0-.4.246-.591.549-.416l1.677.968a1.318,1.318,0,0,1,.551,1.053h0C387.522,289.939,387.276,290.128,386.971,289.951Z" transform="translate(-370.995 -279.509)" fill="#16892e"/>
              <path id="Trazado_105200" data-name="Trazado 105200" d="M385.035,291.068l-1.677-.968a1.323,1.323,0,0,1-.551-1.05h0c0-.407.248-.591.551-.416l1.677.968a1.323,1.323,0,0,1,.551,1.053h0C385.586,291.058,385.337,291.245,385.035,291.068Z" transform="translate(-364.474 -277.982)" fill="#63d643"/>
              <path id="Trazado_105201" data-name="Trazado 105201" d="M383.093,292.188l-1.675-.968a1.315,1.315,0,0,1-.551-1.053h0c0-.4.246-.591.551-.417l1.675.97a1.313,1.313,0,0,1,.551,1.05h0C383.641,292.178,383.4,292.362,383.093,292.188Z" transform="translate(-357.948 -276.454)" fill="#d88d43"/>
              <path id="Trazado_105202" data-name="Trazado 105202" d="M381.158,293.307l-1.677-.968a1.326,1.326,0,0,1-.549-1.053h0c0-.4.246-.591.549-.417l1.677.968a1.323,1.323,0,0,1,.551,1.053h0C381.709,293.295,381.466,293.481,381.158,293.307Z" transform="translate(-351.431 -274.926)" fill="#63d643"/>
            </g>
          </g>
          <g id="Grupo_58559" data-name="Grupo 58559" transform="translate(10.411 2.351)">
            <g id="Grupo_58558" data-name="Grupo 58558" transform="translate(0 0)">
              <g id="Grupo_58519" data-name="Grupo 58519">
                <g id="Grupo_58517" data-name="Grupo 58517">
                  <path id="Trazado_105203" data-name="Trazado 105203" d="M381.284,267.948a1,1,0,0,0,.9,0,.275.275,0,0,0,0-.52.992.992,0,0,0-.9,0,.275.275,0,0,0,0,.52Z" transform="translate(-351.342 -267.319)" fill="#2c323d"/>
                  <path id="Trazado_105204" data-name="Trazado 105204" d="M382.543,268.679a1,1,0,0,0,.9,0,.275.275,0,0,0,0-.521,1,1,0,0,0-.9,0,.274.274,0,0,0,0,.52Z" transform="translate(-355.572 -266.329)" fill="#2c323d"/>
                  <path id="Trazado_105205" data-name="Trazado 105205" d="M383.805,269.4a.992.992,0,0,0,.9,0,.275.275,0,0,0,0-.52,1,1,0,0,0-.9,0,.274.274,0,0,0,0,.52Z" transform="translate(-359.813 -265.336)" fill="#2c323d"/>
                  <path id="Trazado_105206" data-name="Trazado 105206" d="M385.061,270.125a1,1,0,0,0,.9,0,.274.274,0,0,0,0-.521.992.992,0,0,0-.9,0C384.815,269.749,384.81,269.983,385.061,270.125Z" transform="translate(-364.044 -264.344)" fill="#2c323d"/>
                  <path id="Trazado_105207" data-name="Trazado 105207" d="M386.318,270.85a.992.992,0,0,0,.9,0,.274.274,0,0,0,0-.521,1,1,0,0,0-.9,0A.275.275,0,0,0,386.318,270.85Z" transform="translate(-368.277 -263.352)" fill="#2c323d"/>
                  <path id="Trazado_105208" data-name="Trazado 105208" d="M387.575,271.578a1,1,0,0,0,.9,0,.274.274,0,0,0,0-.52.992.992,0,0,0-.9,0,.275.275,0,0,0,0,.52Z" transform="translate(-372.51 -262.36)" fill="#2c323d"/>
                  <path id="Trazado_105209" data-name="Trazado 105209" d="M388.836,272.3a1,1,0,0,0,.9,0,.275.275,0,0,0,0-.521,1,1,0,0,0-.9,0,.274.274,0,0,0,0,.521Z" transform="translate(-376.745 -261.368)" fill="#2c323d"/>
                  <path id="Trazado_105210" data-name="Trazado 105210" d="M390.093,273.03a.992.992,0,0,0,.9,0,.275.275,0,0,0,0-.521,1,1,0,0,0-.9,0,.275.275,0,0,0,0,.52Z" transform="translate(-380.978 -260.378)" fill="#2c323d"/>
                  <path id="Trazado_105211" data-name="Trazado 105211" d="M391.349,273.757a.992.992,0,0,0,.9,0,.274.274,0,0,0,0-.52,1,1,0,0,0-.9,0A.275.275,0,0,0,391.349,273.757Z" transform="translate(-385.21 -259.386)" fill="#2c323d"/>
                  <path id="Trazado_105212" data-name="Trazado 105212" d="M392.605,274.478a.992.992,0,0,0,.9,0,.275.275,0,0,0,0-.52.992.992,0,0,0-.9,0C392.359,274.1,392.357,274.339,392.605,274.478Z" transform="translate(-389.442 -258.393)" fill="#2c323d"/>
                  <path id="Trazado_105213" data-name="Trazado 105213" d="M393.868,275.207a.992.992,0,0,0,.9,0,.274.274,0,0,0,0-.52.992.992,0,0,0-.9,0,.273.273,0,0,0,0,.52Z" transform="translate(-393.678 -257.401)" fill="#2c323d"/>
                </g>
                <g id="Grupo_58518" data-name="Grupo 58518" transform="translate(0.521 0.302)">
                  <path id="Trazado_105214" data-name="Trazado 105214" d="M379.885,268.078a1,1,0,0,0,.9,0,.275.275,0,0,0,0-.521,1,1,0,0,0-.9,0,.274.274,0,0,0,0,.521Z" transform="translate(-347.14 -267.451)" fill="#2c323d"/>
                  <path id="Trazado_105215" data-name="Trazado 105215" d="M381.134,268.8a.992.992,0,0,0,.9,0c.251-.144.253-.378,0-.521a.992.992,0,0,0-.9,0,.275.275,0,0,0,0,.52Z" transform="translate(-351.353 -266.462)" fill="#2c323d"/>
                  <path id="Trazado_105216" data-name="Trazado 105216" d="M382.386,269.519a1,1,0,0,0,.9,0,.274.274,0,0,0,0-.52.992.992,0,0,0-.9,0,.275.275,0,0,0,0,.52Z" transform="translate(-355.562 -265.477)" fill="#2c323d"/>
                  <path id="Trazado_105217" data-name="Trazado 105217" d="M383.638,270.241a.992.992,0,0,0,.9,0,.274.274,0,0,0,0-.521,1,1,0,0,0-.9,0A.276.276,0,0,0,383.638,270.241Z" transform="translate(-359.775 -264.49)" fill="#2c323d"/>
                  <path id="Trazado_105218" data-name="Trazado 105218" d="M384.891,270.961a.992.992,0,0,0,.9,0,.274.274,0,0,0,0-.52.992.992,0,0,0-.9,0,.273.273,0,0,0,0,.52Z" transform="translate(-363.985 -263.502)" fill="#2c323d"/>
                  <path id="Trazado_105219" data-name="Trazado 105219" d="M386.143,271.685a1,1,0,0,0,.9,0,.275.275,0,0,0,0-.521,1,1,0,0,0-.9,0,.274.274,0,0,0,0,.521Z" transform="translate(-368.199 -262.517)" fill="#2c323d"/>
                  <path id="Trazado_105220" data-name="Trazado 105220" d="M387.389,272.407a.992.992,0,0,0,.9,0,.275.275,0,0,0,0-.521,1,1,0,0,0-.9,0C387.143,272.031,387.14,272.265,387.389,272.407Z" transform="translate(-372.404 -261.53)" fill="#2c323d"/>
                  <path id="Trazado_105221" data-name="Trazado 105221" d="M388.64,273.131a1,1,0,0,0,.9,0,.274.274,0,0,0,0-.52.992.992,0,0,0-.9,0,.275.275,0,0,0,0,.521Z" transform="translate(-376.614 -260.544)" fill="#2c323d"/>
                  <path id="Trazado_105222" data-name="Trazado 105222" d="M389.893,273.853a.992.992,0,0,0,.9,0,.275.275,0,0,0,0-.52,1,1,0,0,0-.9,0A.275.275,0,0,0,389.893,273.853Z" transform="translate(-380.828 -259.557)" fill="#2c323d"/>
                  <path id="Trazado_105223" data-name="Trazado 105223" d="M391.141,274.573a.992.992,0,0,0,.9,0,.274.274,0,0,0,0-.521,1,1,0,0,0-.9,0,.274.274,0,0,0,0,.52Z" transform="translate(-385.033 -258.57)" fill="#2c323d"/>
                  <path id="Trazado_105224" data-name="Trazado 105224" d="M392.392,275.3a1,1,0,0,0,.9,0,.275.275,0,0,0,0-.521,1,1,0,0,0-.9,0,.275.275,0,0,0,0,.521Z" transform="translate(-389.247 -257.584)" fill="#2c323d"/>
                  <path id="Trazado_105225" data-name="Trazado 105225" d="M393.646,276.019a1,1,0,0,0,.9,0,.274.274,0,0,0,0-.521.992.992,0,0,0-.9,0A.275.275,0,0,0,393.646,276.019Z" transform="translate(-393.461 -256.597)" fill="#2c323d"/>
                </g>
              </g>
              <g id="Grupo_58522" data-name="Grupo 58522" transform="translate(4.317 2.49)">
                <g id="Grupo_58520" data-name="Grupo 58520" transform="translate(0 0)">
                  <path id="Trazado_105226" data-name="Trazado 105226" d="M379.467,269a1,1,0,0,0,.9,0,.275.275,0,0,0,0-.521,1,1,0,0,0-.9,0,.274.274,0,0,0,0,.521Z" transform="translate(-349.529 -268.372)" fill="#2c323d"/>
                  <path id="Trazado_105227" data-name="Trazado 105227" d="M380.723,269.726a.992.992,0,0,0,.9,0,.274.274,0,0,0,0-.521,1,1,0,0,0-.9,0,.275.275,0,0,0,0,.521Z" transform="translate(-353.76 -267.38)" fill="#2c323d"/>
                  <path id="Trazado_105228" data-name="Trazado 105228" d="M381.98,270.451a1,1,0,0,0,.9,0,.274.274,0,0,0,0-.52.992.992,0,0,0-.9,0A.275.275,0,0,0,381.98,270.451Z" transform="translate(-357.994 -266.388)" fill="#2c323d"/>
                  <path id="Trazado_105229" data-name="Trazado 105229" d="M383.234,271.178a.992.992,0,0,0,.9,0c.251-.144.253-.378,0-.521a.992.992,0,0,0-.9,0,.275.275,0,0,0,0,.52Z" transform="translate(-362.223 -265.397)" fill="#2c323d"/>
                  <path id="Trazado_105230" data-name="Trazado 105230" d="M384.5,271.905a1,1,0,0,0,.9,0,.274.274,0,0,0,0-.52.992.992,0,0,0-.9,0,.274.274,0,0,0,0,.52Z" transform="translate(-366.459 -264.405)" fill="#2c323d"/>
                  <path id="Trazado_105231" data-name="Trazado 105231" d="M385.755,272.631a1,1,0,0,0,.9,0,.275.275,0,0,0,0-.521,1,1,0,0,0-.9,0,.275.275,0,0,0,0,.521Z" transform="translate(-370.694 -263.413)" fill="#2c323d"/>
                  <path id="Trazado_105232" data-name="Trazado 105232" d="M387.012,273.357a1,1,0,0,0,.9,0,.274.274,0,0,0,0-.521,1,1,0,0,0-.9,0,.275.275,0,0,0,0,.52Z" transform="translate(-374.927 -262.422)" fill="#2c323d"/>
                  <path id="Trazado_105233" data-name="Trazado 105233" d="M388.267,274.078a.992.992,0,0,0,.9,0,.275.275,0,0,0,0-.521,1,1,0,0,0-.9,0C388.022,273.7,388.018,273.939,388.267,274.078Z" transform="translate(-379.157 -261.429)" fill="#2c323d"/>
                  <path id="Trazado_105234" data-name="Trazado 105234" d="M389.527,274.808a.992.992,0,0,0,.9,0,.274.274,0,0,0,0-.52.992.992,0,0,0-.9,0,.274.274,0,0,0,0,.52Z" transform="translate(-383.392 -260.439)" fill="#2c323d"/>
                  <path id="Trazado_105235" data-name="Trazado 105235" d="M390.788,275.533a.992.992,0,0,0,.9,0,.274.274,0,0,0,0-.521.992.992,0,0,0-.9,0,.273.273,0,0,0,0,.521Z" transform="translate(-387.628 -259.446)" fill="#2c323d"/>
                  <path id="Trazado_105236" data-name="Trazado 105236" d="M392.04,276.262a1,1,0,0,0,.9,0,.274.274,0,0,0,0-.521.992.992,0,0,0-.9,0,.275.275,0,0,0,0,.52Z" transform="translate(-391.854 -258.455)" fill="#2c323d"/>
                </g>
                <g id="Grupo_58521" data-name="Grupo 58521" transform="translate(0.515 0.298)">
                  <path id="Trazado_105237" data-name="Trazado 105237" d="M378.061,269.125a.992.992,0,0,0,.9,0,.274.274,0,0,0,0-.521,1,1,0,0,0-.9,0C377.815,268.749,377.81,268.983,378.061,269.125Z" transform="translate(-345.317 -268.498)" fill="#2c323d"/>
                  <path id="Trazado_105238" data-name="Trazado 105238" d="M379.312,269.847a.992.992,0,0,0,.9,0,.274.274,0,0,0,0-.521,1,1,0,0,0-.9,0,.274.274,0,0,0,0,.521Z" transform="translate(-349.526 -267.51)" fill="#2c323d"/>
                  <path id="Trazado_105239" data-name="Trazado 105239" d="M380.565,270.571a1,1,0,0,0,.9,0,.275.275,0,0,0,0-.521,1,1,0,0,0-.9,0,.274.274,0,0,0,0,.521Z" transform="translate(-353.739 -266.525)" fill="#2c323d"/>
                  <path id="Trazado_105240" data-name="Trazado 105240" d="M381.812,271.292a1,1,0,0,0,.9,0,.275.275,0,0,0,0-.52.992.992,0,0,0-.9,0C381.566,270.916,381.564,271.151,381.812,271.292Z" transform="translate(-357.948 -265.538)" fill="#2c323d"/>
                  <path id="Trazado_105241" data-name="Trazado 105241" d="M383.066,272.016a1,1,0,0,0,.9,0,.274.274,0,0,0,0-.52.992.992,0,0,0-.9,0,.275.275,0,0,0,0,.52Z" transform="translate(-362.161 -264.552)" fill="#2c323d"/>
                  <path id="Trazado_105242" data-name="Trazado 105242" d="M384.318,272.737a.992.992,0,0,0,.9,0,.275.275,0,0,0,0-.521,1,1,0,0,0-.9,0,.275.275,0,0,0,0,.52Z" transform="translate(-366.372 -263.566)" fill="#2c323d"/>
                  <path id="Trazado_105243" data-name="Trazado 105243" d="M385.568,273.458a.992.992,0,0,0,.9,0,.274.274,0,0,0,0-.52,1,1,0,0,0-.9,0,.274.274,0,0,0,0,.52Z" transform="translate(-370.582 -262.578)" fill="#2c323d"/>
                  <path id="Trazado_105244" data-name="Trazado 105244" d="M386.815,274.179a1,1,0,0,0,.9,0c.251-.144.253-.376,0-.521a1,1,0,0,0-.9,0,.275.275,0,0,0,0,.52Z" transform="translate(-374.79 -261.591)" fill="#2c323d"/>
                  <path id="Trazado_105245" data-name="Trazado 105245" d="M388.07,274.9a1,1,0,0,0,.9,0,.274.274,0,0,0,0-.52.992.992,0,0,0-.9,0A.276.276,0,0,0,388.07,274.9Z" transform="translate(-379.004 -260.605)" fill="#2c323d"/>
                  <path id="Trazado_105246" data-name="Trazado 105246" d="M389.322,275.628a1,1,0,0,0,.9,0,.274.274,0,0,0,0-.52.992.992,0,0,0-.9,0,.275.275,0,0,0,0,.52Z" transform="translate(-383.216 -259.619)" fill="#2c323d"/>
                  <path id="Trazado_105247" data-name="Trazado 105247" d="M390.575,276.349a.992.992,0,0,0,.9,0,.275.275,0,0,0,0-.521,1,1,0,0,0-.9,0,.274.274,0,0,0,0,.52Z" transform="translate(-387.428 -258.633)" fill="#2c323d"/>
                  <path id="Trazado_105248" data-name="Trazado 105248" d="M391.824,277.071a.992.992,0,0,0,.9,0,.274.274,0,0,0,0-.52.992.992,0,0,0-.9,0,.274.274,0,0,0,0,.52Z" transform="translate(-391.637 -257.646)" fill="#2c323d"/>
                </g>
              </g>
              <g id="Grupo_58525" data-name="Grupo 58525" transform="translate(8.627 4.978)">
                <g id="Grupo_58523" data-name="Grupo 58523" transform="translate(0 0)">
                  <path id="Trazado_105249" data-name="Trazado 105249" d="M377.64,270.052a.992.992,0,0,0,.9,0,.274.274,0,0,0,0-.52,1,1,0,0,0-.9,0,.275.275,0,0,0,0,.52Z" transform="translate(-347.7 -269.424)" fill="#2c323d"/>
                  <path id="Trazado_105250" data-name="Trazado 105250" d="M378.9,270.778a1,1,0,0,0,.9,0,.275.275,0,0,0,0-.52.992.992,0,0,0-.9,0A.275.275,0,0,0,378.9,270.778Z" transform="translate(-351.935 -268.432)" fill="#2c323d"/>
                  <path id="Trazado_105251" data-name="Trazado 105251" d="M380.159,271.5a.992.992,0,0,0,.9,0,.275.275,0,0,0,0-.52.992.992,0,0,0-.9,0,.274.274,0,0,0,0,.52Z" transform="translate(-356.171 -267.44)" fill="#2c323d"/>
                  <path id="Trazado_105252" data-name="Trazado 105252" d="M381.416,272.231a1,1,0,0,0,.9,0,.274.274,0,0,0,0-.521.992.992,0,0,0-.9,0,.274.274,0,0,0,0,.52Z" transform="translate(-360.404 -266.449)" fill="#2c323d"/>
                  <path id="Trazado_105253" data-name="Trazado 105253" d="M382.674,272.957a1,1,0,0,0,.9,0,.274.274,0,0,0,0-.52,1,1,0,0,0-.9,0,.275.275,0,0,0,0,.52Z" transform="translate(-364.637 -265.457)" fill="#2c323d"/>
                  <path id="Trazado_105254" data-name="Trazado 105254" d="M383.932,273.678a1,1,0,0,0,.9,0,.274.274,0,0,0,0-.521,1,1,0,0,0-.9,0,.275.275,0,0,0,0,.52Z" transform="translate(-368.871 -264.464)" fill="#2c323d"/>
                  <path id="Trazado_105255" data-name="Trazado 105255" d="M385.19,274.409a1,1,0,0,0,.9,0,.275.275,0,0,0,0-.52,1,1,0,0,0-.9,0,.275.275,0,0,0,0,.52Z" transform="translate(-373.106 -263.474)" fill="#2c323d"/>
                  <path id="Trazado_105256" data-name="Trazado 105256" d="M386.448,275.134a.992.992,0,0,0,.9,0,.275.275,0,0,0,0-.521.992.992,0,0,0-.9,0,.274.274,0,0,0,0,.52Z" transform="translate(-377.336 -262.482)" fill="#2c323d"/>
                  <path id="Trazado_105257" data-name="Trazado 105257" d="M387.7,275.859a.992.992,0,0,0,.9,0,.274.274,0,0,0,0-.52,1,1,0,0,0-.9,0A.275.275,0,0,0,387.7,275.859Z" transform="translate(-381.568 -261.49)" fill="#2c323d"/>
                  <path id="Trazado_105258" data-name="Trazado 105258" d="M388.963,276.588a1,1,0,0,0,.9,0,.274.274,0,0,0,0-.52.992.992,0,0,0-.9,0,.275.275,0,0,0,0,.52Z" transform="translate(-385.804 -260.499)" fill="#2c323d"/>
                  <path id="Trazado_105259" data-name="Trazado 105259" d="M390.217,277.314a1,1,0,0,0,.9,0,.275.275,0,0,0,0-.521,1,1,0,0,0-.9,0,.275.275,0,0,0,0,.52Z" transform="translate(-390.033 -259.507)" fill="#2c323d"/>
                </g>
                <g id="Grupo_58524" data-name="Grupo 58524" transform="translate(0.516 0.298)">
                  <path id="Trazado_105260" data-name="Trazado 105260" d="M376.234,270.178a1,1,0,0,0,.9,0c.251-.144.253-.378,0-.52a.992.992,0,0,0-.9,0,.275.275,0,0,0,0,.52Z" transform="translate(-343.49 -269.549)" fill="#2c323d"/>
                  <path id="Trazado_105261" data-name="Trazado 105261" d="M377.49,270.9a1,1,0,0,0,.9,0,.274.274,0,0,0,0-.521.992.992,0,0,0-.9,0,.275.275,0,0,0,0,.52Z" transform="translate(-347.705 -268.563)" fill="#2c323d"/>
                  <path id="Trazado_105262" data-name="Trazado 105262" d="M378.74,271.623a.992.992,0,0,0,.9,0,.274.274,0,0,0,0-.52,1,1,0,0,0-.9,0,.275.275,0,0,0,0,.521Z" transform="translate(-351.914 -267.577)" fill="#2c323d"/>
                  <path id="Trazado_105263" data-name="Trazado 105263" d="M379.992,272.344a.992.992,0,0,0,.9,0,.274.274,0,0,0,0-.52.992.992,0,0,0-.9,0,.274.274,0,0,0,0,.52Z" transform="translate(-356.126 -266.59)" fill="#2c323d"/>
                  <path id="Trazado_105264" data-name="Trazado 105264" d="M381.243,273.068a1,1,0,0,0,.9,0,.275.275,0,0,0,0-.521,1,1,0,0,0-.9,0,.274.274,0,0,0,0,.521Z" transform="translate(-360.336 -265.603)" fill="#2c323d"/>
                  <path id="Trazado_105265" data-name="Trazado 105265" d="M382.492,273.789a1,1,0,0,0,.9,0,.275.275,0,0,0,0-.521.992.992,0,0,0-.9,0C382.246,273.413,382.244,273.649,382.492,273.789Z" transform="translate(-364.548 -264.617)" fill="#2c323d"/>
                  <path id="Trazado_105266" data-name="Trazado 105266" d="M383.746,274.513a1,1,0,0,0,.9,0,.274.274,0,0,0,0-.52.992.992,0,0,0-.9,0,.275.275,0,0,0,0,.52Z" transform="translate(-368.761 -263.631)" fill="#2c323d"/>
                  <path id="Trazado_105267" data-name="Trazado 105267" d="M385,275.235a.992.992,0,0,0,.9,0,.275.275,0,0,0,0-.521,1,1,0,0,0-.9,0,.275.275,0,0,0,0,.52Z" transform="translate(-372.972 -262.644)" fill="#2c323d"/>
                  <path id="Trazado_105268" data-name="Trazado 105268" d="M386.248,275.956a.992.992,0,0,0,.9,0,.274.274,0,0,0,0-.52.992.992,0,0,0-.9,0,.274.274,0,0,0,0,.52Z" transform="translate(-377.182 -261.657)" fill="#2c323d"/>
                  <path id="Trazado_105269" data-name="Trazado 105269" d="M387.5,276.678a1,1,0,0,0,.9,0,.275.275,0,0,0,0-.521,1,1,0,0,0-.9,0,.275.275,0,0,0,0,.52Z" transform="translate(-381.391 -260.67)" fill="#2c323d"/>
                  <path id="Trazado_105270" data-name="Trazado 105270" d="M388.752,277.4a.992.992,0,0,0,.9,0,.273.273,0,0,0,0-.518.992.992,0,0,0-.9,0A.273.273,0,0,0,388.752,277.4Z" transform="translate(-385.607 -259.685)" fill="#2c323d"/>
                  <path id="Trazado_105271" data-name="Trazado 105271" d="M390,278.125a1,1,0,0,0,.9,0,.275.275,0,0,0,0-.521.992.992,0,0,0-.9,0,.275.275,0,0,0,0,.52Z" transform="translate(-389.816 -258.698)" fill="#2c323d"/>
                </g>
              </g>
              <g id="Grupo_58528" data-name="Grupo 58528" transform="translate(12.936 7.469)">
                <g id="Grupo_58526" data-name="Grupo 58526" transform="translate(0 0)">
                  <path id="Trazado_105272" data-name="Trazado 105272" d="M375.818,271.1a.992.992,0,0,0,.9,0,.273.273,0,0,0,0-.518.992.992,0,0,0-.9,0,.274.274,0,0,0,0,.518Z" transform="translate(-345.876 -270.478)" fill="#2c323d"/>
                  <path id="Trazado_105273" data-name="Trazado 105273" d="M377.078,271.829a.992.992,0,0,0,.9,0,.274.274,0,0,0,0-.52.992.992,0,0,0-.9,0,.274.274,0,0,0,0,.52Z" transform="translate(-350.112 -269.485)" fill="#2c323d"/>
                  <path id="Trazado_105274" data-name="Trazado 105274" d="M378.34,272.557a1,1,0,0,0,.9,0,.274.274,0,0,0,0-.521.992.992,0,0,0-.9,0,.275.275,0,0,0,0,.52Z" transform="translate(-354.353 -268.494)" fill="#2c323d"/>
                  <path id="Trazado_105275" data-name="Trazado 105275" d="M379.594,273.279a1,1,0,0,0,.9,0,.274.274,0,0,0,0-.521,1,1,0,0,0-.9,0,.275.275,0,0,0,0,.52Z" transform="translate(-358.58 -267.5)" fill="#2c323d"/>
                  <path id="Trazado_105276" data-name="Trazado 105276" d="M380.847,274.009a1,1,0,0,0,.9,0c.251-.144.253-.376,0-.521a1,1,0,0,0-.9,0,.275.275,0,0,0,0,.52Z" transform="translate(-362.809 -266.511)" fill="#2c323d"/>
                  <path id="Trazado_105277" data-name="Trazado 105277" d="M382.111,274.734a.992.992,0,0,0,.9,0,.275.275,0,0,0,0-.521,1,1,0,0,0-.9,0,.274.274,0,0,0,0,.52Z" transform="translate(-367.047 -265.519)" fill="#2c323d"/>
                  <path id="Trazado_105278" data-name="Trazado 105278" d="M383.365,275.46a1,1,0,0,0,.9,0,.274.274,0,0,0,0-.52.992.992,0,0,0-.9,0A.275.275,0,0,0,383.365,275.46Z" transform="translate(-371.277 -264.527)" fill="#2c323d"/>
                  <path id="Trazado_105279" data-name="Trazado 105279" d="M384.624,276.186a.992.992,0,0,0,.9,0,.274.274,0,0,0,0-.521,1,1,0,0,0-.9,0A.275.275,0,0,0,384.624,276.186Z" transform="translate(-375.511 -263.535)" fill="#2c323d"/>
                  <path id="Trazado_105280" data-name="Trazado 105280" d="M385.88,276.914a1,1,0,0,0,.9,0,.275.275,0,0,0,0-.521.992.992,0,0,0-.9,0C385.634,276.538,385.632,276.77,385.88,276.914Z" transform="translate(-379.743 -262.544)" fill="#2c323d"/>
                  <path id="Trazado_105281" data-name="Trazado 105281" d="M387.143,277.639a1,1,0,0,0,.9,0,.275.275,0,0,0,0-.521,1,1,0,0,0-.9,0,.274.274,0,0,0,0,.52Z" transform="translate(-383.98 -261.552)" fill="#2c323d"/>
                  <path id="Trazado_105282" data-name="Trazado 105282" d="M388.4,278.366a.992.992,0,0,0,.9,0,.275.275,0,0,0,0-.52,1,1,0,0,0-.9,0,.274.274,0,0,0,0,.52Z" transform="translate(-388.213 -260.561)" fill="#2c323d"/>
                </g>
                <g id="Grupo_58527" data-name="Grupo 58527" transform="translate(0.518 0.296)">
                  <path id="Trazado_105283" data-name="Trazado 105283" d="M374.416,271.229a.992.992,0,0,0,.9,0,.274.274,0,0,0,0-.52.992.992,0,0,0-.9,0,.274.274,0,0,0,0,.52Z" transform="translate(-341.671 -270.6)" fill="#2c323d"/>
                  <path id="Trazado_105284" data-name="Trazado 105284" d="M375.669,271.952a1,1,0,0,0,.9,0,.275.275,0,0,0,0-.52,1,1,0,0,0-.9,0,.274.274,0,0,0,0,.52Z" transform="translate(-345.884 -269.614)" fill="#2c323d"/>
                  <path id="Trazado_105285" data-name="Trazado 105285" d="M376.916,272.679a.992.992,0,0,0,.9,0,.273.273,0,0,0,0-.518.992.992,0,0,0-.9,0A.273.273,0,0,0,376.916,272.679Z" transform="translate(-350.092 -268.63)" fill="#2c323d"/>
                  <path id="Trazado_105286" data-name="Trazado 105286" d="M378.17,273.4a1,1,0,0,0,.9,0,.274.274,0,0,0,0-.521.992.992,0,0,0-.9,0,.275.275,0,0,0,0,.52Z" transform="translate(-354.305 -267.641)" fill="#2c323d"/>
                  <path id="Trazado_105287" data-name="Trazado 105287" d="M379.422,274.12a.992.992,0,0,0,.9,0,.275.275,0,0,0,0-.521,1,1,0,0,0-.9,0,.275.275,0,0,0,0,.52Z" transform="translate(-358.516 -266.654)" fill="#2c323d"/>
                  <path id="Trazado_105288" data-name="Trazado 105288" d="M380.672,274.841a.992.992,0,0,0,.9,0,.274.274,0,0,0,0-.521.992.992,0,0,0-.9,0,.274.274,0,0,0,0,.52Z" transform="translate(-362.726 -265.668)" fill="#2c323d"/>
                  <path id="Trazado_105289" data-name="Trazado 105289" d="M381.919,275.565a1,1,0,0,0,.9,0c.251-.144.253-.376,0-.521a1,1,0,0,0-.9,0,.275.275,0,0,0,0,.521Z" transform="translate(-366.935 -264.681)" fill="#2c323d"/>
                  <path id="Trazado_105290" data-name="Trazado 105290" d="M383.174,276.287a.992.992,0,0,0,.9,0,.274.274,0,0,0,0-.52,1,1,0,0,0-.9,0A.275.275,0,0,0,383.174,276.287Z" transform="translate(-371.15 -263.695)" fill="#2c323d"/>
                  <path id="Trazado_105291" data-name="Trazado 105291" d="M384.426,277.01a1,1,0,0,0,.9,0,.274.274,0,0,0,0-.521.992.992,0,0,0-.9,0,.275.275,0,0,0,0,.521Z" transform="translate(-375.36 -262.708)" fill="#2c323d"/>
                  <path id="Trazado_105292" data-name="Trazado 105292" d="M385.679,277.732a1,1,0,0,0,.9,0,.275.275,0,0,0,0-.52,1,1,0,0,0-.9,0,.274.274,0,0,0,0,.52Z" transform="translate(-379.573 -261.722)" fill="#2c323d"/>
                  <path id="Trazado_105293" data-name="Trazado 105293" d="M386.928,278.453a.992.992,0,0,0,.9,0,.274.274,0,0,0,0-.521.992.992,0,0,0-.9,0,.274.274,0,0,0,0,.52Z" transform="translate(-383.782 -260.735)" fill="#2c323d"/>
                  <path id="Trazado_105294" data-name="Trazado 105294" d="M388.177,279.179a1,1,0,0,0,.9,0,.275.275,0,0,0,0-.521,1,1,0,0,0-.9,0A.274.274,0,0,0,388.177,279.179Z" transform="translate(-387.992 -259.749)" fill="#2c323d"/>
                </g>
              </g>
              <g id="Grupo_58531" data-name="Grupo 58531" transform="translate(17.248 9.955)">
                <g id="Grupo_58529" data-name="Grupo 58529" transform="translate(0 0)">
                  <path id="Trazado_105295" data-name="Trazado 105295" d="M374,272.155a.992.992,0,0,0,.9,0,.274.274,0,0,0,0-.521.992.992,0,0,0-.9,0A.275.275,0,0,0,374,272.155Z" transform="translate(-344.056 -271.526)" fill="#2c323d"/>
                  <path id="Trazado_105296" data-name="Trazado 105296" d="M375.256,272.883a1,1,0,0,0,.9,0,.274.274,0,0,0,0-.521.992.992,0,0,0-.9,0,.275.275,0,0,0,0,.52Z" transform="translate(-348.292 -270.535)" fill="#2c323d"/>
                  <path id="Trazado_105297" data-name="Trazado 105297" d="M376.51,273.609a1,1,0,0,0,.9,0,.275.275,0,0,0,0-.521.992.992,0,0,0-.9,0,.275.275,0,0,0,0,.52Z" transform="translate(-352.521 -269.543)" fill="#2c323d"/>
                  <path id="Trazado_105298" data-name="Trazado 105298" d="M377.773,274.335a1,1,0,0,0,.9,0,.275.275,0,0,0,0-.52,1,1,0,0,0-.9,0,.274.274,0,0,0,0,.52Z" transform="translate(-356.759 -268.551)" fill="#2c323d"/>
                  <path id="Trazado_105299" data-name="Trazado 105299" d="M379.031,275.06a.992.992,0,0,0,.9,0,.275.275,0,0,0,0-.52,1,1,0,0,0-.9,0,.274.274,0,0,0,0,.52Z" transform="translate(-360.993 -267.56)" fill="#2c323d"/>
                  <path id="Trazado_105300" data-name="Trazado 105300" d="M380.286,275.786a1,1,0,0,0,.9,0,.274.274,0,0,0,0-.521.992.992,0,0,0-.9,0A.275.275,0,0,0,380.286,275.786Z" transform="translate(-365.224 -266.568)" fill="#2c323d"/>
                  <path id="Trazado_105301" data-name="Trazado 105301" d="M381.544,276.512a.992.992,0,0,0,.9,0,.274.274,0,0,0,0-.52,1,1,0,0,0-.9,0A.275.275,0,0,0,381.544,276.512Z" transform="translate(-369.458 -265.576)" fill="#2c323d"/>
                  <path id="Trazado_105302" data-name="Trazado 105302" d="M382.8,277.24a1,1,0,0,0,.9,0,.274.274,0,0,0,0-.52.992.992,0,0,0-.9,0,.275.275,0,0,0,0,.52Z" transform="translate(-373.69 -264.585)" fill="#2c323d"/>
                  <path id="Trazado_105303" data-name="Trazado 105303" d="M384.062,277.966a1,1,0,0,0,.9,0,.275.275,0,0,0,0-.52,1,1,0,0,0-.9,0,.274.274,0,0,0,0,.52Z" transform="translate(-377.925 -263.593)" fill="#2c323d"/>
                  <path id="Trazado_105304" data-name="Trazado 105304" d="M385.319,278.692a.992.992,0,0,0,.9,0,.275.275,0,0,0,0-.52,1,1,0,0,0-.9,0,.275.275,0,0,0,0,.52Z" transform="translate(-382.157 -262.601)" fill="#2c323d"/>
                  <path id="Trazado_105305" data-name="Trazado 105305" d="M386.575,279.418a.992.992,0,0,0,.9,0,.274.274,0,0,0,0-.521,1,1,0,0,0-.9,0A.275.275,0,0,0,386.575,279.418Z" transform="translate(-386.39 -261.61)" fill="#2c323d"/>
                </g>
                <g id="Grupo_58530" data-name="Grupo 58530" transform="translate(0.516 0.3)">
                  <path id="Trazado_105306" data-name="Trazado 105306" d="M372.594,272.283a1,1,0,0,0,.9,0,.274.274,0,0,0,0-.521.992.992,0,0,0-.9,0,.275.275,0,0,0,0,.52Z" transform="translate(-339.849 -271.654)" fill="#2c323d"/>
                  <path id="Trazado_105307" data-name="Trazado 105307" d="M373.845,273a1,1,0,0,0,.9,0,.274.274,0,0,0,0-.52,1,1,0,0,0-.9,0,.275.275,0,0,0,0,.52Z" transform="translate(-344.059 -270.667)" fill="#2c323d"/>
                  <path id="Trazado_105308" data-name="Trazado 105308" d="M375.1,273.726a.992.992,0,0,0,.9,0,.274.274,0,0,0,0-.52.992.992,0,0,0-.9,0,.274.274,0,0,0,0,.52Z" transform="translate(-348.27 -269.681)" fill="#2c323d"/>
                  <path id="Trazado_105309" data-name="Trazado 105309" d="M376.349,274.449a1,1,0,0,0,.9,0,.275.275,0,0,0,0-.521,1,1,0,0,0-.9,0,.274.274,0,0,0,0,.52Z" transform="translate(-352.483 -268.695)" fill="#2c323d"/>
                  <path id="Trazado_105310" data-name="Trazado 105310" d="M377.6,275.172a.992.992,0,0,0,.9,0,.275.275,0,0,0,0-.521,1,1,0,0,0-.9,0C377.35,274.8,377.348,275.029,377.6,275.172Z" transform="translate(-356.691 -267.708)" fill="#2c323d"/>
                  <path id="Trazado_105311" data-name="Trazado 105311" d="M378.85,275.9a1,1,0,0,0,.9,0,.274.274,0,0,0,0-.52.992.992,0,0,0-.9,0,.275.275,0,0,0,0,.52Z" transform="translate(-360.904 -266.722)" fill="#2c323d"/>
                  <path id="Trazado_105312" data-name="Trazado 105312" d="M380.1,276.616a1,1,0,0,0,.9,0,.275.275,0,0,0,0-.52,1,1,0,0,0-.9,0,.275.275,0,0,0,0,.52Z" transform="translate(-365.115 -265.735)" fill="#2c323d"/>
                  <path id="Trazado_105313" data-name="Trazado 105313" d="M381.353,277.338a.992.992,0,0,0,.9,0,.275.275,0,0,0,0-.52.992.992,0,0,0-.9,0,.274.274,0,0,0,0,.52Z" transform="translate(-369.326 -264.749)" fill="#2c323d"/>
                  <path id="Trazado_105314" data-name="Trazado 105314" d="M382.6,278.062a1,1,0,0,0,.9,0,.275.275,0,0,0,0-.521.992.992,0,0,0-.9,0,.275.275,0,0,0,0,.52Z" transform="translate(-373.535 -263.762)" fill="#2c323d"/>
                  <path id="Trazado_105315" data-name="Trazado 105315" d="M383.854,278.784a.992.992,0,0,0,.9,0,.274.274,0,0,0,0-.52,1,1,0,0,0-.9,0A.275.275,0,0,0,383.854,278.784Z" transform="translate(-377.748 -262.776)" fill="#2c323d"/>
                  <path id="Trazado_105316" data-name="Trazado 105316" d="M385.11,279.5a.992.992,0,0,0,.9,0,.274.274,0,0,0,0-.52.992.992,0,0,0-.9,0,.273.273,0,0,0,0,.52Z" transform="translate(-381.963 -261.788)" fill="#2c323d"/>
                  <path id="Trazado_105317" data-name="Trazado 105317" d="M386.359,280.229a1,1,0,0,0,.9,0,.275.275,0,0,0,0-.521,1,1,0,0,0-.9,0,.274.274,0,0,0,0,.52Z" transform="translate(-386.172 -260.803)" fill="#2c323d"/>
                </g>
              </g>
              <g id="Grupo_58534" data-name="Grupo 58534" transform="translate(21.558 12.443)">
                <g id="Grupo_58532" data-name="Grupo 58532" transform="translate(0 0)">
                  <path id="Trazado_105318" data-name="Trazado 105318" d="M372.173,273.205a.992.992,0,0,0,.9,0,.275.275,0,0,0,0-.521.992.992,0,0,0-.9,0C371.927,272.829,371.925,273.064,372.173,273.205Z" transform="translate(-342.234 -272.576)" fill="#2c323d"/>
                  <path id="Trazado_105319" data-name="Trazado 105319" d="M373.435,273.935a1,1,0,0,0,.9,0,.275.275,0,0,0,0-.521.992.992,0,0,0-.9,0,.274.274,0,0,0,0,.52Z" transform="translate(-346.47 -271.586)" fill="#2c323d"/>
                  <path id="Trazado_105320" data-name="Trazado 105320" d="M374.693,274.66a1,1,0,0,0,.9,0,.275.275,0,0,0,0-.521,1,1,0,0,0-.9,0,.274.274,0,0,0,0,.52Z" transform="translate(-350.704 -270.594)" fill="#2c323d"/>
                  <path id="Trazado_105321" data-name="Trazado 105321" d="M375.949,275.387a.992.992,0,0,0,.9,0,.274.274,0,0,0,0-.52,1,1,0,0,0-.9,0,.275.275,0,0,0,0,.52Z" transform="translate(-354.935 -269.602)" fill="#2c323d"/>
                  <path id="Trazado_105322" data-name="Trazado 105322" d="M377.206,276.112a1,1,0,0,0,.9,0,.274.274,0,0,0,0-.52.992.992,0,0,0-.9,0A.275.275,0,0,0,377.206,276.112Z" transform="translate(-359.168 -268.61)" fill="#2c323d"/>
                  <path id="Trazado_105323" data-name="Trazado 105323" d="M378.46,276.838a.992.992,0,0,0,.9,0c.251-.144.253-.378,0-.52a.992.992,0,0,0-.9,0,.275.275,0,0,0,0,.52Z" transform="translate(-363.398 -267.619)" fill="#2c323d"/>
                  <path id="Trazado_105324" data-name="Trazado 105324" d="M379.722,277.566a1,1,0,0,0,.9,0,.274.274,0,0,0,0-.521.992.992,0,0,0-.9,0,.274.274,0,0,0,0,.52Z" transform="translate(-367.634 -266.627)" fill="#2c323d"/>
                  <path id="Trazado_105325" data-name="Trazado 105325" d="M380.981,278.292a1,1,0,0,0,.9,0,.275.275,0,0,0,0-.52,1,1,0,0,0-.9,0,.275.275,0,0,0,0,.52Z" transform="translate(-371.869 -265.636)" fill="#2c323d"/>
                  <path id="Trazado_105326" data-name="Trazado 105326" d="M382.24,279.018a1,1,0,0,0,.9,0,.274.274,0,0,0,0-.521,1,1,0,0,0-.9,0,.275.275,0,0,0,0,.52Z" transform="translate(-376.104 -264.644)" fill="#2c323d"/>
                  <path id="Trazado_105327" data-name="Trazado 105327" d="M383.493,279.744a.992.992,0,0,0,.9,0,.275.275,0,0,0,0-.52,1,1,0,0,0-.9,0C383.247,279.37,383.245,279.6,383.493,279.744Z" transform="translate(-380.333 -263.653)" fill="#2c323d"/>
                  <path id="Trazado_105328" data-name="Trazado 105328" d="M384.753,280.469a.992.992,0,0,0,.9,0,.275.275,0,0,0,0-.521.992.992,0,0,0-.9,0,.274.274,0,0,0,0,.52Z" transform="translate(-384.566 -262.661)" fill="#2c323d"/>
                </g>
                <g id="Grupo_58533" data-name="Grupo 58533" transform="translate(0.517 0.301)">
                  <path id="Trazado_105329" data-name="Trazado 105329" d="M370.773,273.335a1,1,0,0,0,.9,0,.275.275,0,0,0,0-.52.992.992,0,0,0-.9,0,.274.274,0,0,0,0,.52Z" transform="translate(-338.027 -272.706)" fill="#2c323d"/>
                  <path id="Trazado_105330" data-name="Trazado 105330" d="M372.02,274.057a.992.992,0,0,0,.9,0,.275.275,0,0,0,0-.521,1,1,0,0,0-.9,0C371.774,273.68,371.772,273.915,372.02,274.057Z" transform="translate(-342.236 -271.719)" fill="#2c323d"/>
                  <path id="Trazado_105331" data-name="Trazado 105331" d="M373.278,274.778a.992.992,0,0,0,.9,0,.274.274,0,0,0,0-.521.992.992,0,0,0-.9,0,.273.273,0,0,0,0,.52Z" transform="translate(-346.453 -270.732)" fill="#2c323d"/>
                  <path id="Trazado_105332" data-name="Trazado 105332" d="M374.526,275.5a1,1,0,0,0,.9,0,.275.275,0,0,0,0-.52,1,1,0,0,0-.9,0,.275.275,0,0,0,0,.52Z" transform="translate(-350.661 -269.746)" fill="#2c323d"/>
                  <path id="Trazado_105333" data-name="Trazado 105333" d="M375.776,276.223a.992.992,0,0,0,.9,0,.274.274,0,0,0,0-.52.992.992,0,0,0-.9,0,.274.274,0,0,0,0,.52Z" transform="translate(-354.87 -268.76)" fill="#2c323d"/>
                  <path id="Trazado_105334" data-name="Trazado 105334" d="M377.023,276.947a1,1,0,0,0,.9,0c.251-.144.253-.376,0-.521a.992.992,0,0,0-.9,0,.275.275,0,0,0,0,.52Z" transform="translate(-359.078 -267.774)" fill="#2c323d"/>
                  <path id="Trazado_105335" data-name="Trazado 105335" d="M378.278,277.668a.992.992,0,0,0,.9,0,.274.274,0,0,0,0-.52,1,1,0,0,0-.9,0A.275.275,0,0,0,378.278,277.668Z" transform="translate(-363.293 -266.787)" fill="#2c323d"/>
                  <path id="Trazado_105336" data-name="Trazado 105336" d="M379.529,278.39a.992.992,0,0,0,.9,0,.274.274,0,0,0,0-.521,1,1,0,0,0-.9,0A.275.275,0,0,0,379.529,278.39Z" transform="translate(-367.504 -265.8)" fill="#2c323d"/>
                  <path id="Trazado_105337" data-name="Trazado 105337" d="M380.783,279.114a1,1,0,0,0,.9,0,.275.275,0,0,0,0-.521,1,1,0,0,0-.9,0,.274.274,0,0,0,0,.52Z" transform="translate(-371.717 -264.814)" fill="#2c323d"/>
                  <path id="Trazado_105338" data-name="Trazado 105338" d="M382.032,279.835a1,1,0,0,0,.9,0,.274.274,0,0,0,0-.52.992.992,0,0,0-.9,0,.274.274,0,0,0,0,.52Z" transform="translate(-375.925 -263.827)" fill="#2c323d"/>
                  <path id="Trazado_105339" data-name="Trazado 105339" d="M383.281,280.559a1,1,0,0,0,.9,0,.275.275,0,0,0,0-.52.992.992,0,0,0-.9,0C383.035,280.183,383.033,280.415,383.281,280.559Z" transform="translate(-380.136 -262.841)" fill="#2c323d"/>
                  <path id="Trazado_105340" data-name="Trazado 105340" d="M384.535,281.279a.992.992,0,0,0,.9,0,.274.274,0,0,0,0-.52,1,1,0,0,0-.9,0,.275.275,0,0,0,0,.52Z" transform="translate(-384.349 -261.854)" fill="#2c323d"/>
                </g>
              </g>
              <g id="Grupo_58537" data-name="Grupo 58537" transform="translate(25.87 14.934)">
                <g id="Grupo_58535" data-name="Grupo 58535" transform="translate(0 0)">
                  <path id="Trazado_105341" data-name="Trazado 105341" d="M370.355,274.261a1,1,0,0,0,.9,0,.275.275,0,0,0,0-.52.992.992,0,0,0-.9,0,.274.274,0,0,0,0,.52Z" transform="translate(-340.415 -273.632)" fill="#2c323d"/>
                  <path id="Trazado_105342" data-name="Trazado 105342" d="M371.611,274.987a1,1,0,0,0,.9,0,.274.274,0,0,0,0-.521,1,1,0,0,0-.9,0,.275.275,0,0,0,0,.52Z" transform="translate(-344.647 -272.64)" fill="#2c323d"/>
                  <path id="Trazado_105343" data-name="Trazado 105343" d="M372.869,275.713a.992.992,0,0,0,.9,0,.274.274,0,0,0,0-.521,1,1,0,0,0-.9,0,.275.275,0,0,0,0,.52Z" transform="translate(-348.881 -271.649)" fill="#2c323d"/>
                  <path id="Trazado_105344" data-name="Trazado 105344" d="M374.119,276.439a.992.992,0,0,0,.9,0,.273.273,0,0,0,0-.518.992.992,0,0,0-.9,0,.275.275,0,0,0,0,.518Z" transform="translate(-353.106 -270.658)" fill="#2c323d"/>
                  <path id="Trazado_105345" data-name="Trazado 105345" d="M375.384,277.164a.992.992,0,0,0,.9,0,.274.274,0,0,0,0-.52.992.992,0,0,0-.9,0,.274.274,0,0,0,0,.52Z" transform="translate(-357.345 -269.665)" fill="#2c323d"/>
                  <path id="Trazado_105346" data-name="Trazado 105346" d="M376.641,277.892a1,1,0,0,0,.9,0,.274.274,0,0,0,0-.52.992.992,0,0,0-.9,0,.274.274,0,0,0,0,.52Z" transform="translate(-361.578 -268.673)" fill="#2c323d"/>
                  <path id="Trazado_105347" data-name="Trazado 105347" d="M377.9,278.618a1,1,0,0,0,.9,0,.274.274,0,0,0,0-.521,1,1,0,0,0-.9,0,.275.275,0,0,0,0,.52Z" transform="translate(-365.813 -267.681)" fill="#2c323d"/>
                  <path id="Trazado_105348" data-name="Trazado 105348" d="M379.158,279.344a1,1,0,0,0,.9,0,.274.274,0,0,0,0-.52,1,1,0,0,0-.9,0,.275.275,0,0,0,0,.52Z" transform="translate(-370.046 -266.691)" fill="#2c323d"/>
                  <path id="Trazado_105349" data-name="Trazado 105349" d="M380.417,280.069a.992.992,0,0,0,.9,0,.275.275,0,0,0,0-.521,1,1,0,0,0-.9,0,.274.274,0,0,0,0,.52Z" transform="translate(-374.28 -265.699)" fill="#2c323d"/>
                  <path id="Trazado_105350" data-name="Trazado 105350" d="M381.673,280.8a.992.992,0,0,0,.9,0,.274.274,0,0,0,0-.52.992.992,0,0,0-.9,0,.274.274,0,0,0,0,.52Z" transform="translate(-378.511 -264.707)" fill="#2c323d"/>
                  <path id="Trazado_105351" data-name="Trazado 105351" d="M382.929,281.521a.992.992,0,0,0,.9,0,.274.274,0,0,0,0-.521,1,1,0,0,0-.9,0A.275.275,0,0,0,382.929,281.521Z" transform="translate(-382.744 -263.715)" fill="#2c323d"/>
                </g>
                <g id="Grupo_58536" data-name="Grupo 58536" transform="translate(0.516 0.299)">
                  <path id="Trazado_105352" data-name="Trazado 105352" d="M368.949,274.387a1,1,0,0,0,.9,0,.274.274,0,0,0,0-.521,1,1,0,0,0-.9,0,.275.275,0,0,0,0,.521Z" transform="translate(-336.204 -273.759)" fill="#2c323d"/>
                  <path id="Trazado_105353" data-name="Trazado 105353" d="M370.2,275.108a1,1,0,0,0,.9,0,.274.274,0,0,0,0-.52.992.992,0,0,0-.9,0,.274.274,0,0,0,0,.52Z" transform="translate(-340.414 -272.772)" fill="#2c323d"/>
                  <path id="Trazado_105354" data-name="Trazado 105354" d="M371.453,275.832a1,1,0,0,0,.9,0,.275.275,0,0,0,0-.521.992.992,0,0,0-.9,0,.274.274,0,0,0,0,.52Z" transform="translate(-344.627 -271.786)" fill="#2c323d"/>
                  <path id="Trazado_105355" data-name="Trazado 105355" d="M372.7,276.554a.992.992,0,0,0,.9,0,.275.275,0,0,0,0-.521,1,1,0,0,0-.9,0C372.454,276.177,372.452,276.409,372.7,276.554Z" transform="translate(-348.836 -270.799)" fill="#2c323d"/>
                  <path id="Trazado_105356" data-name="Trazado 105356" d="M373.953,277.279a.992.992,0,0,0,.9,0,.274.274,0,0,0,0-.52,1,1,0,0,0-.9,0A.275.275,0,0,0,373.953,277.279Z" transform="translate(-353.048 -269.814)" fill="#2c323d"/>
                  <path id="Trazado_105357" data-name="Trazado 105357" d="M375.206,278a1,1,0,0,0,.9,0,.275.275,0,0,0,0-.521,1,1,0,0,0-.9,0,.275.275,0,0,0,0,.52Z" transform="translate(-357.26 -268.827)" fill="#2c323d"/>
                  <path id="Trazado_105358" data-name="Trazado 105358" d="M376.456,278.72a1,1,0,0,0,.9,0,.274.274,0,0,0,0-.521.992.992,0,0,0-.9,0,.274.274,0,0,0,0,.52Z" transform="translate(-361.47 -267.84)" fill="#2c323d"/>
                  <path id="Trazado_105359" data-name="Trazado 105359" d="M377.7,279.444a1,1,0,0,0,.9,0,.275.275,0,0,0,0-.521.992.992,0,0,0-.9,0,.275.275,0,0,0,0,.52Z" transform="translate(-365.679 -266.853)" fill="#2c323d"/>
                  <path id="Trazado_105360" data-name="Trazado 105360" d="M378.959,280.166a.992.992,0,0,0,.9,0,.274.274,0,0,0,0-.521,1,1,0,0,0-.9,0,.275.275,0,0,0,0,.52Z" transform="translate(-369.893 -265.867)" fill="#2c323d"/>
                  <path id="Trazado_105361" data-name="Trazado 105361" d="M380.209,280.887a.992.992,0,0,0,.9,0,.275.275,0,0,0,0-.521.992.992,0,0,0-.9,0A.275.275,0,0,0,380.209,280.887Z" transform="translate(-374.104 -264.881)" fill="#2c323d"/>
                  <path id="Trazado_105362" data-name="Trazado 105362" d="M381.463,281.611a1,1,0,0,0,.9,0,.275.275,0,0,0,0-.521,1,1,0,0,0-.9,0,.274.274,0,0,0,0,.52Z" transform="translate(-378.316 -263.894)" fill="#2c323d"/>
                  <path id="Trazado_105363" data-name="Trazado 105363" d="M382.712,282.332a1,1,0,0,0,.9,0,.274.274,0,0,0,0-.521.992.992,0,0,0-.9,0,.274.274,0,0,0,0,.52Z" transform="translate(-382.525 -262.907)" fill="#2c323d"/>
                </g>
              </g>
              <g id="Grupo_58540" data-name="Grupo 58540" transform="translate(30.181 17.424)">
                <g id="Grupo_58538" data-name="Grupo 58538" transform="translate(0 0)">
                  <path id="Trazado_105364" data-name="Trazado 105364" d="M368.531,275.313a1,1,0,0,0,.9,0,.274.274,0,0,0,0-.521,1,1,0,0,0-.9,0,.275.275,0,0,0,0,.521Z" transform="translate(-338.592 -274.685)" fill="#2c323d"/>
                  <path id="Trazado_105365" data-name="Trazado 105365" d="M369.786,276.039a.992.992,0,0,0,.9,0,.275.275,0,0,0,0-.52,1,1,0,0,0-.9,0C369.54,275.662,369.538,275.894,369.786,276.039Z" transform="translate(-342.823 -273.693)" fill="#2c323d"/>
                  <path id="Trazado_105366" data-name="Trazado 105366" d="M371.039,276.765a.992.992,0,0,0,.9,0,.273.273,0,0,0,0-.518.992.992,0,0,0-.9,0,.274.274,0,0,0,0,.518Z" transform="translate(-347.046 -272.702)" fill="#2c323d"/>
                  <path id="Trazado_105367" data-name="Trazado 105367" d="M372.3,277.49a.992.992,0,0,0,.9,0,.274.274,0,0,0,0-.52.992.992,0,0,0-.9,0,.274.274,0,0,0,0,.52Z" transform="translate(-351.29 -271.71)" fill="#2c323d"/>
                  <path id="Trazado_105368" data-name="Trazado 105368" d="M373.562,278.218a1,1,0,0,0,.9,0,.274.274,0,0,0,0-.52.992.992,0,0,0-.9,0,.275.275,0,0,0,0,.52Z" transform="translate(-355.524 -270.718)" fill="#2c323d"/>
                  <path id="Trazado_105369" data-name="Trazado 105369" d="M374.82,278.944a1,1,0,0,0,.9,0,.274.274,0,0,0,0-.521.992.992,0,0,0-.9,0,.275.275,0,0,0,0,.52Z" transform="translate(-359.758 -269.727)" fill="#2c323d"/>
                  <path id="Trazado_105370" data-name="Trazado 105370" d="M376.073,279.669a1,1,0,0,0,.9,0c.251-.144.253-.376,0-.521a1,1,0,0,0-.9,0,.275.275,0,0,0,0,.521Z" transform="translate(-363.987 -268.735)" fill="#2c323d"/>
                  <path id="Trazado_105371" data-name="Trazado 105371" d="M377.337,280.4a.992.992,0,0,0,.9,0,.275.275,0,0,0,0-.521,1,1,0,0,0-.9,0,.274.274,0,0,0,0,.521Z" transform="translate(-368.225 -267.743)" fill="#2c323d"/>
                  <path id="Trazado_105372" data-name="Trazado 105372" d="M378.592,281.121a1,1,0,0,0,.9,0,.275.275,0,0,0,0-.52.992.992,0,0,0-.9,0A.275.275,0,0,0,378.592,281.121Z" transform="translate(-372.455 -266.751)" fill="#2c323d"/>
                  <path id="Trazado_105373" data-name="Trazado 105373" d="M379.85,281.846a.992.992,0,0,0,.9,0,.274.274,0,0,0,0-.52,1,1,0,0,0-.9,0A.275.275,0,0,0,379.85,281.846Z" transform="translate(-376.69 -265.759)" fill="#2c323d"/>
                  <path id="Trazado_105374" data-name="Trazado 105374" d="M381.106,282.578a1,1,0,0,0,.9,0,.275.275,0,0,0,0-.521.992.992,0,0,0-.9,0A.274.274,0,0,0,381.106,282.578Z" transform="translate(-380.921 -264.769)" fill="#2c323d"/>
                </g>
                <g id="Grupo_58539" data-name="Grupo 58539" transform="translate(0.517 0.298)">
                  <path id="Trazado_105375" data-name="Trazado 105375" d="M367.124,275.439a.992.992,0,0,0,.9,0,.275.275,0,0,0,0-.52,1,1,0,0,0-.9,0C366.878,275.062,366.876,275.294,367.124,275.439Z" transform="translate(-334.381 -274.811)" fill="#2c323d"/>
                  <path id="Trazado_105376" data-name="Trazado 105376" d="M368.377,276.16a.992.992,0,0,0,.9,0,.274.274,0,0,0,0-.52.992.992,0,0,0-.9,0A.275.275,0,0,0,368.377,276.16Z" transform="translate(-338.594 -273.824)" fill="#2c323d"/>
                  <path id="Trazado_105377" data-name="Trazado 105377" d="M369.63,276.884a1,1,0,0,0,.9,0,.275.275,0,0,0,0-.521,1,1,0,0,0-.9,0,.275.275,0,0,0,0,.521Z" transform="translate(-342.805 -272.838)" fill="#2c323d"/>
                  <path id="Trazado_105378" data-name="Trazado 105378" d="M370.88,277.605a1,1,0,0,0,.9,0,.274.274,0,0,0,0-.52.992.992,0,0,0-.9,0,.274.274,0,0,0,0,.521Z" transform="translate(-347.015 -271.851)" fill="#2c323d"/>
                  <path id="Trazado_105379" data-name="Trazado 105379" d="M372.127,278.329a1,1,0,0,0,.9,0c.251-.144.253-.378,0-.52a.992.992,0,0,0-.9,0,.275.275,0,0,0,0,.52Z" transform="translate(-351.224 -270.865)" fill="#2c323d"/>
                  <path id="Trazado_105380" data-name="Trazado 105380" d="M373.383,279.051a.992.992,0,0,0,.9,0,.274.274,0,0,0,0-.52,1,1,0,0,0-.9,0,.275.275,0,0,0,0,.52Z" transform="translate(-355.439 -269.878)" fill="#2c323d"/>
                  <path id="Trazado_105381" data-name="Trazado 105381" d="M374.633,279.772a.992.992,0,0,0,.9,0,.274.274,0,0,0,0-.521.992.992,0,0,0-.9,0A.275.275,0,0,0,374.633,279.772Z" transform="translate(-359.649 -268.892)" fill="#2c323d"/>
                  <path id="Trazado_105382" data-name="Trazado 105382" d="M375.887,280.5a1,1,0,0,0,.9,0,.275.275,0,0,0,0-.52,1,1,0,0,0-.9,0,.274.274,0,0,0,0,.52Z" transform="translate(-363.862 -267.905)" fill="#2c323d"/>
                  <path id="Trazado_105383" data-name="Trazado 105383" d="M377.139,281.218a.992.992,0,0,0,.9,0,.273.273,0,0,0,0-.518.992.992,0,0,0-.9,0,.274.274,0,0,0,0,.518Z" transform="translate(-368.077 -266.92)" fill="#2c323d"/>
                  <path id="Trazado_105384" data-name="Trazado 105384" d="M378.385,281.941a1,1,0,0,0,.9,0,.275.275,0,0,0,0-.521.992.992,0,0,0-.9,0C378.139,281.565,378.137,281.8,378.385,281.941Z" transform="translate(-372.281 -265.932)" fill="#2c323d"/>
                  <path id="Trazado_105385" data-name="Trazado 105385" d="M379.64,282.663a.992.992,0,0,0,.9,0,.274.274,0,0,0,0-.52,1,1,0,0,0-.9,0,.275.275,0,0,0,0,.52Z" transform="translate(-376.496 -264.946)" fill="#2c323d"/>
                  <path id="Trazado_105386" data-name="Trazado 105386" d="M380.888,283.384a.992.992,0,0,0,.9,0,.274.274,0,0,0,0-.52.992.992,0,0,0-.9,0A.275.275,0,0,0,380.888,283.384Z" transform="translate(-380.703 -263.959)" fill="#2c323d"/>
                </g>
              </g>
              <g id="Grupo_58543" data-name="Grupo 58543" transform="translate(34.491 19.913)">
                <g id="Grupo_58541" data-name="Grupo 58541" transform="translate(0 0)">
                  <path id="Trazado_105387" data-name="Trazado 105387" d="M366.71,276.365a.992.992,0,0,0,.9,0,.275.275,0,0,0,0-.521,1,1,0,0,0-.9,0,.274.274,0,0,0,0,.521Z" transform="translate(-336.768 -275.737)" fill="#2c323d"/>
                  <path id="Trazado_105388" data-name="Trazado 105388" d="M367.968,277.091a.992.992,0,0,0,.9,0,.275.275,0,0,0,0-.521,1,1,0,0,0-.9,0,.274.274,0,0,0,0,.52Z" transform="translate(-341.003 -274.745)" fill="#2c323d"/>
                  <path id="Trazado_105389" data-name="Trazado 105389" d="M369.223,277.816a.992.992,0,0,0,.9,0,.274.274,0,0,0,0-.52.992.992,0,0,0-.9,0A.275.275,0,0,0,369.223,277.816Z" transform="translate(-345.234 -273.753)" fill="#2c323d"/>
                  <path id="Trazado_105390" data-name="Trazado 105390" d="M370.482,278.544a1,1,0,0,0,.9,0,.274.274,0,0,0,0-.521.992.992,0,0,0-.9,0,.275.275,0,0,0,0,.52Z" transform="translate(-349.468 -272.762)" fill="#2c323d"/>
                  <path id="Trazado_105391" data-name="Trazado 105391" d="M371.736,279.27a1,1,0,0,0,.9,0,.275.275,0,0,0,0-.521.992.992,0,0,0-.9,0,.275.275,0,0,0,0,.52Z" transform="translate(-353.698 -271.77)" fill="#2c323d"/>
                  <path id="Trazado_105392" data-name="Trazado 105392" d="M373,280a1,1,0,0,0,.9,0,.275.275,0,0,0,0-.521,1,1,0,0,0-.9,0,.274.274,0,0,0,0,.521Z" transform="translate(-357.935 -270.779)" fill="#2c323d"/>
                  <path id="Trazado_105393" data-name="Trazado 105393" d="M374.257,280.721a.992.992,0,0,0,.9,0,.275.275,0,0,0,0-.521,1,1,0,0,0-.9,0,.274.274,0,0,0,0,.52Z" transform="translate(-362.169 -269.787)" fill="#2c323d"/>
                  <path id="Trazado_105394" data-name="Trazado 105394" d="M375.513,281.447a1,1,0,0,0,.9,0,.274.274,0,0,0,0-.521.992.992,0,0,0-.9,0,.275.275,0,0,0,0,.52Z" transform="translate(-366.4 -268.795)" fill="#2c323d"/>
                  <path id="Trazado_105395" data-name="Trazado 105395" d="M376.769,282.173a.992.992,0,0,0,.9,0,.274.274,0,0,0,0-.52.992.992,0,0,0-.9,0A.276.276,0,0,0,376.769,282.173Z" transform="translate(-370.633 -267.803)" fill="#2c323d"/>
                  <path id="Trazado_105396" data-name="Trazado 105396" d="M378.028,282.9a1,1,0,0,0,.9,0,.274.274,0,0,0,0-.52.992.992,0,0,0-.9,0,.274.274,0,0,0,0,.52Z" transform="translate(-374.865 -266.812)" fill="#2c323d"/>
                  <path id="Trazado_105397" data-name="Trazado 105397" d="M379.288,283.626a1,1,0,0,0,.9,0,.275.275,0,0,0,0-.52,1,1,0,0,0-.9,0,.274.274,0,0,0,0,.52Z" transform="translate(-379.101 -265.82)" fill="#2c323d"/>
                </g>
                <g id="Grupo_58542" data-name="Grupo 58542" transform="translate(0.517 0.298)">
                  <path id="Trazado_105398" data-name="Trazado 105398" d="M365.306,276.491a.992.992,0,0,0,.9,0,.275.275,0,0,0,0-.521,1,1,0,0,0-.9,0,.274.274,0,0,0,0,.52Z" transform="translate(-332.56 -275.863)" fill="#2c323d"/>
                  <path id="Trazado_105399" data-name="Trazado 105399" d="M366.555,277.214a1,1,0,0,0,.9,0,.274.274,0,0,0,0-.521.992.992,0,0,0-.9,0,.274.274,0,0,0,0,.52Z" transform="translate(-336.769 -274.876)" fill="#2c323d"/>
                  <path id="Trazado_105400" data-name="Trazado 105400" d="M367.8,277.936a.992.992,0,0,0,.9,0,.275.275,0,0,0,0-.521,1,1,0,0,0-.9,0C367.558,277.559,367.556,277.791,367.8,277.936Z" transform="translate(-340.98 -273.89)" fill="#2c323d"/>
                  <path id="Trazado_105401" data-name="Trazado 105401" d="M369.057,278.657a.992.992,0,0,0,.9,0,.274.274,0,0,0,0-.52.992.992,0,0,0-.9,0A.275.275,0,0,0,369.057,278.657Z" transform="translate(-345.192 -272.903)" fill="#2c323d"/>
                  <path id="Trazado_105402" data-name="Trazado 105402" d="M370.31,279.378a1,1,0,0,0,.9,0,.275.275,0,0,0,0-.52,1,1,0,0,0-.9,0,.275.275,0,0,0,0,.52Z" transform="translate(-349.404 -271.916)" fill="#2c323d"/>
                  <path id="Trazado_105403" data-name="Trazado 105403" d="M371.562,280.1a.992.992,0,0,0,.9,0,.275.275,0,0,0,0-.52,1,1,0,0,0-.9,0,.274.274,0,0,0,0,.52Z" transform="translate(-353.616 -270.93)" fill="#2c323d"/>
                  <path id="Trazado_105404" data-name="Trazado 105404" d="M372.807,280.826a1,1,0,0,0,.9,0c.251-.144.253-.378,0-.52a.992.992,0,0,0-.9,0,.275.275,0,0,0,0,.52Z" transform="translate(-357.822 -269.944)" fill="#2c323d"/>
                  <path id="Trazado_105405" data-name="Trazado 105405" d="M374.063,281.548a1,1,0,0,0,.9,0,.274.274,0,0,0,0-.521,1,1,0,0,0-.9,0,.275.275,0,0,0,0,.521Z" transform="translate(-362.037 -268.957)" fill="#2c323d"/>
                  <path id="Trazado_105406" data-name="Trazado 105406" d="M375.313,282.269a.992.992,0,0,0,.9,0,.274.274,0,0,0,0-.521.992.992,0,0,0-.9,0A.275.275,0,0,0,375.313,282.269Z" transform="translate(-366.247 -267.97)" fill="#2c323d"/>
                  <path id="Trazado_105407" data-name="Trazado 105407" d="M376.567,282.993a1,1,0,0,0,.9,0,.275.275,0,0,0,0-.52.992.992,0,0,0-.9,0,.274.274,0,0,0,0,.52Z" transform="translate(-370.46 -266.985)" fill="#2c323d"/>
                  <path id="Trazado_105408" data-name="Trazado 105408" d="M377.818,283.715a.992.992,0,0,0,.9,0,.275.275,0,0,0,0-.521,1,1,0,0,0-.9,0,.274.274,0,0,0,0,.52Z" transform="translate(-374.671 -265.998)" fill="#2c323d"/>
                  <path id="Trazado_105409" data-name="Trazado 105409" d="M379.068,284.438a1,1,0,0,0,.9,0,.274.274,0,0,0,0-.52.992.992,0,0,0-.9,0,.275.275,0,0,0,0,.521Z" transform="translate(-378.882 -265.011)" fill="#2c323d"/>
                </g>
              </g>
              <g id="Grupo_58546" data-name="Grupo 58546" transform="translate(38.802 22.401)">
                <g id="Grupo_58544" data-name="Grupo 58544" transform="translate(0 0)">
                  <path id="Trazado_105410" data-name="Trazado 105410" d="M364.887,277.417a.992.992,0,0,0,.9,0,.275.275,0,0,0,0-.521,1,1,0,0,0-.9,0A.275.275,0,0,0,364.887,277.417Z" transform="translate(-334.946 -276.789)" fill="#2c323d"/>
                  <path id="Trazado_105411" data-name="Trazado 105411" d="M366.141,278.142a.992.992,0,0,0,.9,0,.274.274,0,0,0,0-.52.992.992,0,0,0-.9,0C365.893,277.769,365.89,278,366.141,278.142Z" transform="translate(-339.174 -275.797)" fill="#2c323d"/>
                  <path id="Trazado_105412" data-name="Trazado 105412" d="M367.4,278.867a.992.992,0,0,0,.9,0,.275.275,0,0,0,0-.521.992.992,0,0,0-.9,0C367.153,278.491,367.151,278.725,367.4,278.867Z" transform="translate(-343.411 -274.804)" fill="#2c323d"/>
                  <path id="Trazado_105413" data-name="Trazado 105413" d="M368.661,279.6a1,1,0,0,0,.9,0,.275.275,0,0,0,0-.521.992.992,0,0,0-.9,0,.274.274,0,0,0,0,.52Z" transform="translate(-347.647 -273.814)" fill="#2c323d"/>
                  <path id="Trazado_105414" data-name="Trazado 105414" d="M369.919,280.322a1,1,0,0,0,.9,0,.275.275,0,0,0,0-.52,1,1,0,0,0-.9,0,.274.274,0,0,0,0,.52Z" transform="translate(-351.88 -272.821)" fill="#2c323d"/>
                  <path id="Trazado_105415" data-name="Trazado 105415" d="M371.175,281.048a.992.992,0,0,0,.9,0,.274.274,0,0,0,0-.52,1,1,0,0,0-.9,0,.275.275,0,0,0,0,.521Z" transform="translate(-356.112 -271.831)" fill="#2c323d"/>
                  <path id="Trazado_105416" data-name="Trazado 105416" d="M372.432,281.773a1,1,0,0,0,.9,0,.274.274,0,0,0,0-.521.992.992,0,0,0-.9,0A.275.275,0,0,0,372.432,281.773Z" transform="translate(-360.345 -270.839)" fill="#2c323d"/>
                  <path id="Trazado_105417" data-name="Trazado 105417" d="M373.686,282.5a.992.992,0,0,0,.9,0c.251-.144.253-.378,0-.521a.992.992,0,0,0-.9,0,.275.275,0,0,0,0,.52Z" transform="translate(-364.574 -269.847)" fill="#2c323d"/>
                  <path id="Trazado_105418" data-name="Trazado 105418" d="M374.948,283.227a1,1,0,0,0,.9,0,.274.274,0,0,0,0-.52.992.992,0,0,0-.9,0,.274.274,0,0,0,0,.52Z" transform="translate(-368.811 -268.855)" fill="#2c323d"/>
                  <path id="Trazado_105419" data-name="Trazado 105419" d="M376.207,283.953a1,1,0,0,0,.9,0,.275.275,0,0,0,0-.52,1,1,0,0,0-.9,0,.275.275,0,0,0,0,.52Z" transform="translate(-373.045 -267.863)" fill="#2c323d"/>
                  <path id="Trazado_105420" data-name="Trazado 105420" d="M377.464,284.679a1,1,0,0,0,.9,0,.274.274,0,0,0,0-.521,1,1,0,0,0-.9,0,.275.275,0,0,0,0,.52Z" transform="translate(-377.278 -266.872)" fill="#2c323d"/>
                </g>
                <g id="Grupo_58545" data-name="Grupo 58545" transform="translate(0.519 0.297)">
                  <path id="Trazado_105421" data-name="Trazado 105421" d="M363.481,277.542a.992.992,0,0,0,.9,0,.274.274,0,0,0,0-.52.992.992,0,0,0-.9,0A.275.275,0,0,0,363.481,277.542Z" transform="translate(-330.739 -276.913)" fill="#2c323d"/>
                  <path id="Trazado_105422" data-name="Trazado 105422" d="M364.734,278.266a1,1,0,0,0,.9,0,.275.275,0,0,0,0-.521.992.992,0,0,0-.9,0,.275.275,0,0,0,0,.52Z" transform="translate(-334.951 -275.928)" fill="#2c323d"/>
                  <path id="Trazado_105423" data-name="Trazado 105423" d="M365.986,278.988a.992.992,0,0,0,.9,0,.275.275,0,0,0,0-.52,1,1,0,0,0-.9,0,.274.274,0,0,0,0,.52Z" transform="translate(-339.163 -274.941)" fill="#2c323d"/>
                  <path id="Trazado_105424" data-name="Trazado 105424" d="M367.234,279.711a1,1,0,0,0,.9,0c.251-.144.253-.378,0-.52a.992.992,0,0,0-.9,0,.275.275,0,0,0,0,.52Z" transform="translate(-343.374 -273.954)" fill="#2c323d"/>
                  <path id="Trazado_105425" data-name="Trazado 105425" d="M368.487,280.433a1,1,0,0,0,.9,0,.274.274,0,0,0,0-.52,1,1,0,0,0-.9,0,.275.275,0,0,0,0,.52Z" transform="translate(-347.584 -272.967)" fill="#2c323d"/>
                  <path id="Trazado_105426" data-name="Trazado 105426" d="M369.738,281.154a.992.992,0,0,0,.9,0,.274.274,0,0,0,0-.52.992.992,0,0,0-.9,0A.276.276,0,0,0,369.738,281.154Z" transform="translate(-351.796 -271.981)" fill="#2c323d"/>
                  <path id="Trazado_105427" data-name="Trazado 105427" d="M370.991,281.878a1,1,0,0,0,.9,0,.275.275,0,0,0,0-.521.992.992,0,0,0-.9,0,.274.274,0,0,0,0,.52Z" transform="translate(-356.007 -270.995)" fill="#2c323d"/>
                  <path id="Trazado_105428" data-name="Trazado 105428" d="M372.243,282.6a.992.992,0,0,0,.9,0,.275.275,0,0,0,0-.521,1,1,0,0,0-.9,0,.274.274,0,0,0,0,.52Z" transform="translate(-360.22 -270.008)" fill="#2c323d"/>
                  <path id="Trazado_105429" data-name="Trazado 105429" d="M373.489,283.32a.992.992,0,0,0,.9,0,.275.275,0,0,0,0-.52.992.992,0,0,0-.9,0C373.243,282.944,373.241,283.178,373.489,283.32Z" transform="translate(-364.427 -269.02)" fill="#2c323d"/>
                  <path id="Trazado_105430" data-name="Trazado 105430" d="M374.74,284.045a1,1,0,0,0,.9,0,.274.274,0,0,0,0-.521,1,1,0,0,0-.9,0,.275.275,0,0,0,0,.52Z" transform="translate(-368.634 -268.035)" fill="#2c323d"/>
                  <path id="Trazado_105431" data-name="Trazado 105431" d="M375.992,284.766a.992.992,0,0,0,.9,0,.274.274,0,0,0,0-.521.992.992,0,0,0-.9,0A.275.275,0,0,0,375.992,284.766Z" transform="translate(-372.848 -267.048)" fill="#2c323d"/>
                  <path id="Trazado_105432" data-name="Trazado 105432" d="M377.243,285.49a1,1,0,0,0,.9,0,.275.275,0,0,0,0-.521.992.992,0,0,0-.9,0,.274.274,0,0,0,0,.52Z" transform="translate(-377.056 -266.062)" fill="#2c323d"/>
                </g>
              </g>
              <g id="Grupo_58549" data-name="Grupo 58549" transform="translate(43.114 24.889)">
                <g id="Grupo_58547" data-name="Grupo 58547" transform="translate(0 0)">
                  <path id="Trazado_105433" data-name="Trazado 105433" d="M363.064,278.468a.992.992,0,0,0,.9,0,.274.274,0,0,0,0-.521.992.992,0,0,0-.9,0A.275.275,0,0,0,363.064,278.468Z" transform="translate(-333.125 -277.839)" fill="#2c323d"/>
                  <path id="Trazado_105434" data-name="Trazado 105434" d="M364.321,279.194a.992.992,0,0,0,.9,0,.274.274,0,0,0,0-.52,1,1,0,0,0-.9,0,.274.274,0,0,0,0,.521Z" transform="translate(-337.355 -276.848)" fill="#2c323d"/>
                  <path id="Trazado_105435" data-name="Trazado 105435" d="M365.581,279.922a1,1,0,0,0,.9,0,.275.275,0,0,0,0-.521.992.992,0,0,0-.9,0,.274.274,0,0,0,0,.52Z" transform="translate(-341.591 -275.856)" fill="#2c323d"/>
                  <path id="Trazado_105436" data-name="Trazado 105436" d="M366.84,280.647a1,1,0,0,0,.9,0,.274.274,0,0,0,0-.521,1,1,0,0,0-.9,0,.275.275,0,0,0,0,.52Z" transform="translate(-345.827 -274.865)" fill="#2c323d"/>
                  <path id="Trazado_105437" data-name="Trazado 105437" d="M368.095,281.379a.992.992,0,0,0,.9,0,.274.274,0,0,0,0-.52,1,1,0,0,0-.9,0,.275.275,0,0,0,0,.52Z" transform="translate(-350.057 -273.875)" fill="#2c323d"/>
                  <path id="Trazado_105438" data-name="Trazado 105438" d="M369.349,282.1a.992.992,0,0,0,.9,0,.273.273,0,0,0,0-.518.992.992,0,0,0-.9,0A.273.273,0,0,0,369.349,282.1Z" transform="translate(-354.286 -272.883)" fill="#2c323d"/>
                  <path id="Trazado_105439" data-name="Trazado 105439" d="M370.61,282.825a.992.992,0,0,0,.9,0,.274.274,0,0,0,0-.521.992.992,0,0,0-.9,0,.274.274,0,0,0,0,.52Z" transform="translate(-358.522 -271.89)" fill="#2c323d"/>
                  <path id="Trazado_105440" data-name="Trazado 105440" d="M371.868,283.553a1,1,0,0,0,.9,0,.274.274,0,0,0,0-.521.992.992,0,0,0-.9,0,.274.274,0,0,0,0,.52Z" transform="translate(-362.755 -270.898)" fill="#2c323d"/>
                  <path id="Trazado_105441" data-name="Trazado 105441" d="M373.126,284.278a1,1,0,0,0,.9,0,.274.274,0,0,0,0-.521.992.992,0,0,0-.9,0,.275.275,0,0,0,0,.52Z" transform="translate(-366.989 -269.906)" fill="#2c323d"/>
                  <path id="Trazado_105442" data-name="Trazado 105442" d="M374.384,285a1,1,0,0,0,.9,0,.274.274,0,0,0,0-.52,1,1,0,0,0-.9,0,.275.275,0,0,0,0,.52Z" transform="translate(-371.223 -268.915)" fill="#2c323d"/>
                  <path id="Trazado_105443" data-name="Trazado 105443" d="M375.643,285.731a.992.992,0,0,0,.9,0,.275.275,0,0,0,0-.52,1,1,0,0,0-.9,0,.274.274,0,0,0,0,.52Z" transform="translate(-375.456 -267.923)" fill="#2c323d"/>
                </g>
                <g id="Grupo_58548" data-name="Grupo 58548" transform="translate(0.517 0.297)">
                  <path id="Trazado_105444" data-name="Trazado 105444" d="M361.662,278.592a.992.992,0,0,0,.9,0,.274.274,0,0,0,0-.52.992.992,0,0,0-.9,0,.273.273,0,0,0,0,.52Z" transform="translate(-328.916 -277.963)" fill="#2c323d"/>
                  <path id="Trazado_105445" data-name="Trazado 105445" d="M362.908,279.318a1,1,0,0,0,.9,0,.275.275,0,0,0,0-.52,1,1,0,0,0-.9,0C362.662,278.941,362.66,279.173,362.908,279.318Z" transform="translate(-333.124 -276.978)" fill="#2c323d"/>
                  <path id="Trazado_105446" data-name="Trazado 105446" d="M364.162,280.039a.992.992,0,0,0,.9,0,.274.274,0,0,0,0-.521.992.992,0,0,0-.9,0A.275.275,0,0,0,364.162,280.039Z" transform="translate(-337.337 -275.991)" fill="#2c323d"/>
                  <path id="Trazado_105447" data-name="Trazado 105447" d="M365.414,280.763a1,1,0,0,0,.9,0,.275.275,0,0,0,0-.52.992.992,0,0,0-.9,0,.275.275,0,0,0,0,.52Z" transform="translate(-341.549 -275.005)" fill="#2c323d"/>
                  <path id="Trazado_105448" data-name="Trazado 105448" d="M366.666,281.485a.992.992,0,0,0,.9,0,.275.275,0,0,0,0-.521,1,1,0,0,0-.9,0,.274.274,0,0,0,0,.521Z" transform="translate(-345.76 -274.019)" fill="#2c323d"/>
                  <path id="Trazado_105449" data-name="Trazado 105449" d="M367.911,282.206a.992.992,0,0,0,.9,0c.251-.144.253-.378,0-.52a1,1,0,0,0-.9,0,.275.275,0,0,0,0,.52Z" transform="translate(-349.966 -273.032)" fill="#2c323d"/>
                  <path id="Trazado_105450" data-name="Trazado 105450" d="M369.167,282.93a1,1,0,0,0,.9,0,.274.274,0,0,0,0-.52,1,1,0,0,0-.9,0,.275.275,0,0,0,0,.52Z" transform="translate(-354.182 -272.046)" fill="#2c323d"/>
                  <path id="Trazado_105451" data-name="Trazado 105451" d="M370.417,283.651a1,1,0,0,0,.9,0,.274.274,0,0,0,0-.521.992.992,0,0,0-.9,0A.275.275,0,0,0,370.417,283.651Z" transform="translate(-358.392 -271.059)" fill="#2c323d"/>
                  <path id="Trazado_105452" data-name="Trazado 105452" d="M371.671,284.378a1,1,0,0,0,.9,0,.275.275,0,0,0,0-.521.992.992,0,0,0-.9,0,.274.274,0,0,0,0,.52Z" transform="translate(-362.605 -270.074)" fill="#2c323d"/>
                  <path id="Trazado_105453" data-name="Trazado 105453" d="M372.922,285.1a.992.992,0,0,0,.9,0,.275.275,0,0,0,0-.52,1,1,0,0,0-.9,0,.274.274,0,0,0,0,.52Z" transform="translate(-366.815 -269.087)" fill="#2c323d"/>
                  <path id="Trazado_105454" data-name="Trazado 105454" d="M374.169,285.818a.992.992,0,0,0,.9,0,.275.275,0,0,0,0-.52,1,1,0,0,0-.9,0C373.925,285.441,373.92,285.675,374.169,285.818Z" transform="translate(-371.023 -268.099)" fill="#2c323d"/>
                  <path id="Trazado_105455" data-name="Trazado 105455" d="M375.423,286.542a1,1,0,0,0,.9,0,.274.274,0,0,0,0-.52,1,1,0,0,0-.9,0,.275.275,0,0,0,0,.52Z" transform="translate(-375.237 -267.113)" fill="#2c323d"/>
                </g>
              </g>
              <g id="Grupo_58552" data-name="Grupo 58552" transform="translate(47.426 27.378)">
                <g id="Grupo_58550" data-name="Grupo 58550" transform="translate(0 0)">
                  <path id="Trazado_105456" data-name="Trazado 105456" d="M361.242,279.52a.992.992,0,0,0,.9,0,.275.275,0,0,0,0-.52,1,1,0,0,0-.9,0,.274.274,0,0,0,0,.52Z" transform="translate(-331.301 -278.892)" fill="#2c323d"/>
                  <path id="Trazado_105457" data-name="Trazado 105457" d="M362.5,280.248a1,1,0,0,0,.9,0,.275.275,0,0,0,0-.52.992.992,0,0,0-.9,0,.275.275,0,0,0,0,.52Z" transform="translate(-335.536 -277.901)" fill="#2c323d"/>
                  <path id="Trazado_105458" data-name="Trazado 105458" d="M363.757,280.978a1,1,0,0,0,.9,0,.274.274,0,0,0,0-.52,1,1,0,0,0-.9,0,.275.275,0,0,0,0,.52Z" transform="translate(-339.769 -276.91)" fill="#2c323d"/>
                  <path id="Trazado_105459" data-name="Trazado 105459" d="M365.012,281.7a.992.992,0,0,0,.9,0,.275.275,0,0,0,0-.521,1,1,0,0,0-.9,0C364.766,281.323,364.764,281.553,365.012,281.7Z" transform="translate(-344 -275.917)" fill="#2c323d"/>
                  <path id="Trazado_105460" data-name="Trazado 105460" d="M366.274,282.426a.992.992,0,0,0,.9,0,.275.275,0,0,0,0-.52,1,1,0,0,0-.9,0,.274.274,0,0,0,0,.52Z" transform="translate(-348.235 -274.926)" fill="#2c323d"/>
                  <path id="Trazado_105461" data-name="Trazado 105461" d="M367.53,283.151a.992.992,0,0,0,.9,0,.274.274,0,0,0,0-.52.992.992,0,0,0-.9,0,.274.274,0,0,0,0,.52Z" transform="translate(-352.467 -273.934)" fill="#2c323d"/>
                  <path id="Trazado_105462" data-name="Trazado 105462" d="M368.788,283.878a1,1,0,0,0,.9,0,.274.274,0,0,0,0-.52.992.992,0,0,0-.9,0,.275.275,0,0,0,0,.52Z" transform="translate(-356.701 -272.942)" fill="#2c323d"/>
                  <path id="Trazado_105463" data-name="Trazado 105463" d="M370.046,284.605a1,1,0,0,0,.9,0,.274.274,0,0,0,0-.521.992.992,0,0,0-.9,0,.275.275,0,0,0,0,.52Z" transform="translate(-360.935 -271.95)" fill="#2c323d"/>
                  <path id="Trazado_105464" data-name="Trazado 105464" d="M371.3,285.331a1,1,0,0,0,.9,0c.251-.144.253-.376,0-.521a1,1,0,0,0-.9,0,.275.275,0,0,0,0,.521Z" transform="translate(-365.164 -270.958)" fill="#2c323d"/>
                  <path id="Trazado_105465" data-name="Trazado 105465" d="M372.563,286.057a.992.992,0,0,0,.9,0,.275.275,0,0,0,0-.52,1,1,0,0,0-.9,0,.274.274,0,0,0,0,.52Z" transform="translate(-369.402 -269.967)" fill="#2c323d"/>
                  <path id="Trazado_105466" data-name="Trazado 105466" d="M373.817,286.778a1,1,0,0,0,.9,0,.274.274,0,0,0,0-.52.992.992,0,0,0-.9,0C373.571,286.4,373.569,286.638,373.817,286.778Z" transform="translate(-373.632 -268.974)" fill="#2c323d"/>
                </g>
                <g id="Grupo_58551" data-name="Grupo 58551" transform="translate(0.518 0.299)">
                  <path id="Trazado_105467" data-name="Trazado 105467" d="M359.842,279.648a1,1,0,0,0,.9,0,.275.275,0,0,0,0-.52.992.992,0,0,0-.9,0,.275.275,0,0,0,0,.52Z" transform="translate(-327.101 -279.019)" fill="#2c323d"/>
                  <path id="Trazado_105468" data-name="Trazado 105468" d="M361.09,280.37a.992.992,0,0,0,.9,0,.275.275,0,0,0,0-.52,1,1,0,0,0-.9,0,.274.274,0,0,0,0,.52Z" transform="translate(-331.306 -278.032)" fill="#2c323d"/>
                  <path id="Trazado_105469" data-name="Trazado 105469" d="M362.334,281.09a.992.992,0,0,0,.9,0c.251-.144.253-.378,0-.52a1,1,0,0,0-.9,0,.275.275,0,0,0,0,.52Z" transform="translate(-335.511 -277.046)" fill="#2c323d"/>
                  <path id="Trazado_105470" data-name="Trazado 105470" d="M363.591,281.815a1,1,0,0,0,.9,0,.274.274,0,0,0,0-.52,1,1,0,0,0-.9,0,.275.275,0,0,0,0,.52Z" transform="translate(-339.728 -276.06)" fill="#2c323d"/>
                  <path id="Trazado_105471" data-name="Trazado 105471" d="M364.84,282.536a1,1,0,0,0,.9,0,.274.274,0,0,0,0-.521.992.992,0,0,0-.9,0A.275.275,0,0,0,364.84,282.536Z" transform="translate(-343.935 -275.073)" fill="#2c323d"/>
                  <path id="Trazado_105472" data-name="Trazado 105472" d="M366.1,283.26a1,1,0,0,0,.9,0,.275.275,0,0,0,0-.521.992.992,0,0,0-.9,0,.274.274,0,0,0,0,.52Z" transform="translate(-348.151 -274.086)" fill="#2c323d"/>
                  <path id="Trazado_105473" data-name="Trazado 105473" d="M367.343,283.979a.992.992,0,0,0,.9,0,.275.275,0,0,0,0-.52,1,1,0,0,0-.9,0,.274.274,0,0,0,0,.52Z" transform="translate(-352.356 -273.099)" fill="#2c323d"/>
                  <path id="Trazado_105474" data-name="Trazado 105474" d="M368.593,284.7a.992.992,0,0,0,.9,0,.275.275,0,0,0,0-.521.992.992,0,0,0-.9,0C368.347,284.327,368.345,284.561,368.593,284.7Z" transform="translate(-356.569 -272.114)" fill="#2c323d"/>
                  <path id="Trazado_105475" data-name="Trazado 105475" d="M369.847,285.427a1,1,0,0,0,.9,0,.274.274,0,0,0,0-.52,1,1,0,0,0-.9,0,.275.275,0,0,0,0,.52Z" transform="translate(-360.783 -271.127)" fill="#2c323d"/>
                  <path id="Trazado_105476" data-name="Trazado 105476" d="M371.1,286.149a.992.992,0,0,0,.9,0,.273.273,0,0,0,0-.518.992.992,0,0,0-.9,0A.273.273,0,0,0,371.1,286.149Z" transform="translate(-364.993 -270.141)" fill="#2c323d"/>
                  <path id="Trazado_105477" data-name="Trazado 105477" d="M372.349,286.872a1,1,0,0,0,.9,0,.274.274,0,0,0,0-.52.992.992,0,0,0-.9,0,.274.274,0,0,0,0,.52Z" transform="translate(-369.204 -269.154)" fill="#2c323d"/>
                  <path id="Trazado_105478" data-name="Trazado 105478" d="M373.6,287.594a.992.992,0,0,0,.9,0c.251-.144.253-.376,0-.521a1,1,0,0,0-.9,0,.275.275,0,0,0,0,.521Z" transform="translate(-373.412 -268.168)" fill="#2c323d"/>
                </g>
              </g>
              <g id="Grupo_58555" data-name="Grupo 58555" transform="translate(51.736 29.87)">
                <g id="Grupo_58553" data-name="Grupo 58553" transform="translate(0 0)">
                  <path id="Trazado_105479" data-name="Trazado 105479" d="M359.419,280.578a1,1,0,0,0,.9,0,.274.274,0,0,0,0-.521.992.992,0,0,0-.9,0,.275.275,0,0,0,0,.521Z" transform="translate(-329.479 -279.949)" fill="#2c323d"/>
                  <path id="Trazado_105480" data-name="Trazado 105480" d="M360.677,281.3a1,1,0,0,0,.9,0,.274.274,0,0,0,0-.521,1,1,0,0,0-.9,0,.275.275,0,0,0,0,.52Z" transform="translate(-333.713 -278.956)" fill="#2c323d"/>
                  <path id="Trazado_105481" data-name="Trazado 105481" d="M361.936,282.026a.992.992,0,0,0,.9,0,.275.275,0,0,0,0-.52,1,1,0,0,0-.9,0,.274.274,0,0,0,0,.52Z" transform="translate(-337.946 -277.964)" fill="#2c323d"/>
                  <path id="Trazado_105482" data-name="Trazado 105482" d="M363.194,282.752a.992.992,0,0,0,.9,0,.275.275,0,0,0,0-.52,1,1,0,0,0-.9,0,.274.274,0,0,0,0,.52Z" transform="translate(-342.18 -276.973)" fill="#2c323d"/>
                  <path id="Trazado_105483" data-name="Trazado 105483" d="M364.449,283.478a.992.992,0,0,0,.9,0,.274.274,0,0,0,0-.52.992.992,0,0,0-.9,0A.275.275,0,0,0,364.449,283.478Z" transform="translate(-346.411 -275.981)" fill="#2c323d"/>
                  <path id="Trazado_105484" data-name="Trazado 105484" d="M365.712,284.2a.992.992,0,0,0,.9,0,.274.274,0,0,0,0-.52.992.992,0,0,0-.9,0,.273.273,0,0,0,0,.52Z" transform="translate(-350.649 -274.988)" fill="#2c323d"/>
                  <path id="Trazado_105485" data-name="Trazado 105485" d="M366.962,284.931a1,1,0,0,0,.9,0,.275.275,0,0,0,0-.52.992.992,0,0,0-.9,0,.275.275,0,0,0,0,.52Z" transform="translate(-354.875 -273.998)" fill="#2c323d"/>
                  <path id="Trazado_105486" data-name="Trazado 105486" d="M368.225,285.656a1,1,0,0,0,.9,0,.275.275,0,0,0,0-.52,1,1,0,0,0-.9,0,.274.274,0,0,0,0,.52Z" transform="translate(-359.112 -273.006)" fill="#2c323d"/>
                  <path id="Trazado_105487" data-name="Trazado 105487" d="M369.483,286.379a.992.992,0,0,0,.9,0,.275.275,0,0,0,0-.52,1,1,0,0,0-.9,0,.274.274,0,0,0,0,.52Z" transform="translate(-363.346 -272.013)" fill="#2c323d"/>
                  <path id="Trazado_105488" data-name="Trazado 105488" d="M370.739,287.108a1,1,0,0,0,.9,0,.274.274,0,0,0,0-.521.992.992,0,0,0-.9,0A.276.276,0,0,0,370.739,287.108Z" transform="translate(-367.579 -271.023)" fill="#2c323d"/>
                  <path id="Trazado_105489" data-name="Trazado 105489" d="M372,287.834a.992.992,0,0,0,.9,0,.274.274,0,0,0,0-.52.992.992,0,0,0-.9,0A.275.275,0,0,0,372,287.834Z" transform="translate(-371.811 -270.031)" fill="#2c323d"/>
                </g>
                <g id="Grupo_58554" data-name="Grupo 58554" transform="translate(0.518 0.297)">
                  <path id="Trazado_105490" data-name="Trazado 105490" d="M358.012,280.7a1,1,0,0,0,.9,0,.275.275,0,0,0,0-.521,1,1,0,0,0-.9,0C357.766,280.323,357.764,280.553,358.012,280.7Z" transform="translate(-325.269 -280.072)" fill="#2c323d"/>
                  <path id="Trazado_105491" data-name="Trazado 105491" d="M359.267,281.422a.992.992,0,0,0,.9,0,.273.273,0,0,0,0-.518.992.992,0,0,0-.9,0A.273.273,0,0,0,359.267,281.422Z" transform="translate(-329.484 -279.086)" fill="#2c323d"/>
                  <path id="Trazado_105492" data-name="Trazado 105492" d="M360.516,282.145a1,1,0,0,0,.9,0,.274.274,0,0,0,0-.521.992.992,0,0,0-.9,0,.275.275,0,0,0,0,.52Z" transform="translate(-333.691 -278.099)" fill="#2c323d"/>
                  <path id="Trazado_105493" data-name="Trazado 105493" d="M361.77,282.866a.992.992,0,0,0,.9,0,.275.275,0,0,0,0-.52,1,1,0,0,0-.9,0,.274.274,0,0,0,0,.52Z" transform="translate(-337.905 -277.112)" fill="#2c323d"/>
                  <path id="Trazado_105494" data-name="Trazado 105494" d="M363.015,283.588a.992.992,0,0,0,.9,0c.251-.144.253-.378,0-.521a.992.992,0,0,0-.9,0,.275.275,0,0,0,0,.52Z" transform="translate(-342.112 -276.126)" fill="#2c323d"/>
                  <path id="Trazado_105495" data-name="Trazado 105495" d="M364.271,284.312a1,1,0,0,0,.9,0,.274.274,0,0,0,0-.52,1,1,0,0,0-.9,0,.275.275,0,0,0,0,.52Z" transform="translate(-346.327 -275.14)" fill="#2c323d"/>
                  <path id="Trazado_105496" data-name="Trazado 105496" d="M365.521,285.034a.992.992,0,0,0,.9,0,.274.274,0,0,0,0-.52,1,1,0,0,0-.9,0A.275.275,0,0,0,365.521,285.034Z" transform="translate(-350.537 -274.153)" fill="#2c323d"/>
                  <path id="Trazado_105497" data-name="Trazado 105497" d="M366.773,285.757a1,1,0,0,0,.9,0,.274.274,0,0,0,0-.52.992.992,0,0,0-.9,0,.274.274,0,0,0,0,.52Z" transform="translate(-354.748 -273.167)" fill="#2c323d"/>
                  <path id="Trazado_105498" data-name="Trazado 105498" d="M368.026,286.479a.992.992,0,0,0,.9,0,.275.275,0,0,0,0-.521,1,1,0,0,0-.9,0,.274.274,0,0,0,0,.521Z" transform="translate(-358.961 -272.18)" fill="#2c323d"/>
                  <path id="Trazado_105499" data-name="Trazado 105499" d="M369.273,287.2a.992.992,0,0,0,.9,0,.275.275,0,0,0,0-.52.992.992,0,0,0-.9,0C369.027,286.824,369.025,287.058,369.273,287.2Z" transform="translate(-363.169 -271.194)" fill="#2c323d"/>
                  <path id="Trazado_105500" data-name="Trazado 105500" d="M370.527,287.923a1,1,0,0,0,.9,0,.274.274,0,0,0,0-.52,1,1,0,0,0-.9,0,.275.275,0,0,0,0,.52Z" transform="translate(-367.382 -270.207)" fill="#2c323d"/>
                  <path id="Trazado_105501" data-name="Trazado 105501" d="M371.778,288.646a.992.992,0,0,0,.9,0,.275.275,0,0,0,0-.521,1,1,0,0,0-.9,0A.275.275,0,0,0,371.778,288.646Z" transform="translate(-371.593 -269.22)" fill="#2c323d"/>
                </g>
              </g>
              <g id="Grupo_58557" data-name="Grupo 58557" transform="translate(56.047 32.358)">
                <g id="Grupo_58556" data-name="Grupo 58556" transform="translate(0 0)">
                  <path id="Trazado_105502" data-name="Trazado 105502" d="M357.592,281.626a1,1,0,0,0,.9,0c.251-.144.253-.376,0-.521a1,1,0,0,0-.9,0,.275.275,0,0,0,0,.521Z" transform="translate(-327.653 -280.998)" fill="#2c323d"/>
                  <path id="Trazado_105503" data-name="Trazado 105503" d="M358.856,282.352a1,1,0,0,0,.9,0,.275.275,0,0,0,0-.521,1,1,0,0,0-.9,0,.274.274,0,0,0,0,.521Z" transform="translate(-331.89 -280.006)" fill="#2c323d"/>
                  <path id="Trazado_105504" data-name="Trazado 105504" d="M360.112,283.079a.992.992,0,0,0,.9,0,.275.275,0,0,0,0-.521,1,1,0,0,0-.9,0A.275.275,0,0,0,360.112,283.079Z" transform="translate(-336.123 -279.016)" fill="#2c323d"/>
                  <path id="Trazado_105505" data-name="Trazado 105505" d="M361.369,283.8a.992.992,0,0,0,.9,0,.274.274,0,0,0,0-.52.992.992,0,0,0-.9,0A.276.276,0,0,0,361.369,283.8Z" transform="translate(-340.355 -278.023)" fill="#2c323d"/>
                  <path id="Trazado_105506" data-name="Trazado 105506" d="M362.625,284.529a.992.992,0,0,0,.9,0,.275.275,0,0,0,0-.52,1,1,0,0,0-.9,0C362.379,284.152,362.377,284.386,362.625,284.529Z" transform="translate(-344.587 -277.031)" fill="#2c323d"/>
                  <path id="Trazado_105507" data-name="Trazado 105507" d="M363.887,285.257a1,1,0,0,0,.9,0,.275.275,0,0,0,0-.521.992.992,0,0,0-.9,0,.274.274,0,0,0,0,.52Z" transform="translate(-348.823 -276.04)" fill="#2c323d"/>
                  <path id="Trazado_105508" data-name="Trazado 105508" d="M365.143,285.979a1,1,0,0,0,.9,0,.275.275,0,0,0,0-.52,1,1,0,0,0-.9,0,.274.274,0,0,0,0,.52Z" transform="translate(-353.053 -275.047)" fill="#2c323d"/>
                  <path id="Trazado_105509" data-name="Trazado 105509" d="M366.4,286.708a.992.992,0,0,0,.9,0,.274.274,0,0,0,0-.52,1,1,0,0,0-.9,0,.275.275,0,0,0,0,.52Z" transform="translate(-357.288 -274.057)" fill="#2c323d"/>
                  <path id="Trazado_105510" data-name="Trazado 105510" d="M367.657,287.435a.992.992,0,0,0,.9,0,.273.273,0,0,0,0-.518.992.992,0,0,0-.9,0,.275.275,0,0,0,0,.518Z" transform="translate(-361.52 -273.066)" fill="#2c323d"/>
                  <path id="Trazado_105511" data-name="Trazado 105511" d="M368.912,288.16a.992.992,0,0,0,.9,0c.251-.144.253-.378,0-.521a.992.992,0,0,0-.9,0,.275.275,0,0,0,0,.52Z" transform="translate(-365.751 -272.073)" fill="#2c323d"/>
                  <path id="Trazado_105512" data-name="Trazado 105512" d="M370.174,288.888a1,1,0,0,0,.9,0,.274.274,0,0,0,0-.52.992.992,0,0,0-.9,0,.274.274,0,0,0,0,.521Z" transform="translate(-369.987 -271.081)" fill="#2c323d"/>
                </g>
              </g>
            </g>
          </g>
        </g>
      </g>
    </g>
  </g>
</svg>
