<svg xmlns="http://www.w3.org/2000/svg" xmlns:xlink="http://www.w3.org/1999/xlink" width="97.863" height="106.589" viewBox="0 0 97.863 106.589">
  <defs>
    <filter id="Trazado_771226" x="0" y="0" width="97.863" height="106.589" filterUnits="userSpaceOnUse">
      <feOffset dy="3" input="SourceAlpha"/>
      <feGaussianBlur stdDeviation="3" result="blur"/>
      <feFlood flood-opacity="0.161"/>
      <feComposite operator="in" in2="blur"/>
      <feComposite in="SourceGraphic"/>
    </filter>
  </defs>
  <g id="Grupo_1071758" data-name="Grupo 1071758" transform="translate(-830 -935.843)">
    <g id="Grupo_1071655" data-name="Grupo 1071655" transform="translate(-320.5 -96.5)">
      <g transform="matrix(1, 0, 0, 1, 1150.5, 1032.34)" filter="url(#Trazado_771226)">
        <path id="Trazado_771226-2" data-name="Trazado 771226" d="M483.067,305.694V277.332a14.55,14.55,0,0,0-7.1-12.523l-23.259-13.791a14.268,14.268,0,0,0-14.1-.264L414.77,263.71A14.544,14.544,0,0,0,407.2,276.5v28.623a14.553,14.553,0,0,0,6.925,12.417l22.295,13.652a14.269,14.269,0,0,0,14.121.455l24.8-13.078A14.541,14.541,0,0,0,483.067,305.694Z" transform="translate(-396.2 -240.86)" fill="#2ec49f" stroke="#fff" stroke-miterlimit="10" stroke-width="4"/>
      </g>
    </g>
    <g id="carpeta" transform="translate(853.963 962.619)">
      <g id="Grupo_54545" data-name="Grupo 54545" transform="translate(0.689 0.689)">
        <path id="Trazado_100784" data-name="Trazado 100784" d="M75.087,7.5H44.505A4.506,4.506,0,0,0,40,12.005V32.613H79.594V12.006A4.506,4.506,0,0,0,75.087,7.5Z" transform="translate(-37.014 -7.5)" fill="#dddaec"/>
        <path id="Trazado_100785" data-name="Trazado 100785" d="M75.087,60.19H44.505A4.506,4.506,0,0,0,40,64.7V85.3H79.594V64.7A4.506,4.506,0,0,0,75.087,60.19Z" transform="translate(-37.014 -55.35)" fill="#f9f6f9"/>
        <path id="Trazado_100786" data-name="Trazado 100786" d="M53.16,120.8v15.416a6.469,6.469,0,0,1-6.469,6.469H13.969A6.469,6.469,0,0,1,7.5,136.214V114.329a8.249,8.249,0,0,1,8.249-8.249h6.232a8.249,8.249,0,0,1,8.249,8.249H46.691A6.469,6.469,0,0,1,53.16,120.8Z" transform="translate(-7.5 -97.023)" fill="#ffe07d"/>
        <path id="Trazado_100787" data-name="Trazado 100787" d="M20.4,142.683H13.97a6.47,6.47,0,0,1-6.47-6.469V114.329a8.249,8.249,0,0,1,8.249-8.249h6.335a8.249,8.249,0,0,0-8.147,8.248v21.885a6.47,6.47,0,0,0,6.468,6.47Z" transform="translate(-7.5 -97.023)" fill="#ffd064"/>
      </g>
      <path id="Trazado_100788" data-name="Trazado 100788" d="M43.957,18.586V5.2A5.2,5.2,0,0,0,38.765,0H8.181a5.2,5.2,0,0,0-5.2,5.2v6.138A8.918,8.918,0,0,0,0,17.994v19.13a.689.689,0,1,0,1.378,0V17.994a7.568,7.568,0,0,1,7.558-7.558H15.17a7.568,7.568,0,0,1,7.56,7.558.689.689,0,0,0,.689.689H39.88a5.786,5.786,0,0,1,5.78,5.78V39.88a5.786,5.786,0,0,1-5.78,5.78H7.158a5.786,5.786,0,0,1-5.78-5.78A.689.689,0,1,0,0,39.88a7.166,7.166,0,0,0,7.158,7.158H39.88a7.166,7.166,0,0,0,7.158-7.158V24.464A7.154,7.154,0,0,0,43.957,18.586Zm-19.876-1.28A8.95,8.95,0,0,0,15.17,9.057H8.938a8.882,8.882,0,0,0-4.576,1.262v-.283A3.821,3.821,0,0,1,8.181,6.221h29.2a.689.689,0,0,0,0-1.378H8.181A5.182,5.182,0,0,0,4.364,6.519V5.2a3.821,3.821,0,0,1,3.817-3.82H38.765A3.821,3.821,0,0,1,42.581,5.2V6.5a5.189,5.189,0,0,0-2.246-1.421A.689.689,0,0,0,39.92,6.4a3.8,3.8,0,0,1,2.662,3.639v7.8a7.117,7.117,0,0,0-2.7-.53Z" transform="translate(0)"/>
    </g>
  </g>
</svg>
