<svg xmlns="http://www.w3.org/2000/svg" xmlns:xlink="http://www.w3.org/1999/xlink" width="97.863" height="106.589" viewBox="0 0 97.863 106.589">
  <defs>
    <filter id="Trazado_771226" x="0" y="0" width="97.863" height="106.589" filterUnits="userSpaceOnUse">
      <feOffset dy="3" input="SourceAlpha"/>
      <feGaussianBlur stdDeviation="3" result="blur"/>
      <feFlood flood-opacity="0.161"/>
      <feComposite operator="in" in2="blur"/>
      <feComposite in="SourceGraphic"/>
    </filter>
  </defs>
  <g id="Grupo_1071756" data-name="Grupo 1071756" transform="translate(-830 -935.843)">
    <g id="Grupo_1071655" data-name="Grupo 1071655" transform="translate(-320.5 -96.5)">
      <g transform="matrix(1, 0, 0, 1, 1150.5, 1032.34)" filter="url(#Trazado_771226)">
        <path id="Trazado_771226-2" data-name="Trazado 771226" d="M483.067,305.694V277.332a14.55,14.55,0,0,0-7.1-12.523l-23.259-13.791a14.268,14.268,0,0,0-14.1-.264L414.77,263.71A14.544,14.544,0,0,0,407.2,276.5v28.623a14.553,14.553,0,0,0,6.925,12.417l22.295,13.652a14.269,14.269,0,0,0,14.121.455l24.8-13.078A14.541,14.541,0,0,0,483.067,305.694Z" transform="translate(-396.2 -240.86)" fill="#2ec49f" stroke="#fff" stroke-miterlimit="10" stroke-width="4"/>
      </g>
    </g>
    <g id="scanner" transform="translate(854 961)">
      <g id="Grupo_54540" data-name="Grupo 54540" transform="translate(0.692 0.689)">
        <path id="Trazado_100746" data-name="Trazado 100746" d="M1.75,95.688H50.941v6.791a2.371,2.371,0,0,1-2.371,2.371H1.75Z" transform="translate(-1.75 -58.569)" fill="#393444"/>
        <path id="Trazado_100747" data-name="Trazado 100747" d="M9.75,103.688h5.235v2.842H9.75Z" transform="translate(-6.589 -63.408)" fill="#d261e8"/>
        <path id="Trazado_100748" data-name="Trazado 100748" d="M1.75,118.877H47.275v2.866H1.75Z" transform="translate(-1.75 -72.595)" fill="#19cffc"/>
        <path id="Trazado_100749" data-name="Trazado 100749" d="M38.867,4.078,37.23,2.437a2.371,2.371,0,0,0-3.352,0L3.255,33.058a5.136,5.136,0,0,0-1.5,3.635v2.17H4.084Z" transform="translate(-1.75 -1.743)" fill="#635a70"/>
        <path id="Trazado_100750" data-name="Trazado 100750" d="M109.578,103.688h-3.316v2.842h3.316a1.421,1.421,0,1,0,0-2.842Z" transform="translate(-64.968 -63.408)" fill="#19cffc"/>
        <path id="Trazado_100751" data-name="Trazado 100751" d="M95.693,103.688a1.421,1.421,0,0,0,0,2.842H99.01v-2.842Z" transform="translate(-57.715 -63.408)" fill="#fff04a"/>
        <path id="Trazado_100752" data-name="Trazado 100752" d="M25.625,87.563H65.383v3.21H25.625Z" transform="translate(-16.192 -53.654)" fill="#fff5f5"/>
        <g id="Grupo_54539" data-name="Grupo 54539" transform="translate(20.715 24.815)">
          <path id="Trazado_100753" data-name="Trazado 100753" d="M57.688,74.149a.687.687,0,0,1-.482-.2l-2.82-2.766a.691.691,0,0,1,.968-.988l2.822,2.766a.692.692,0,0,1-.482,1.185Z" transform="translate(-54.179 -67.845)" fill="#fff04a"/>
          <path id="Trazado_100754" data-name="Trazado 100754" d="M87.759,74.148a.692.692,0,0,1-.482-1.185L90.1,70.2a.692.692,0,1,1,.968.988L88.24,73.949a.688.688,0,0,1-.482.2Z" transform="translate(-74.074 -67.845)" fill="#fff04a"/>
          <path id="Trazado_100755" data-name="Trazado 100755" d="M74.879,69.459a.692.692,0,0,1-.692-.692V65.211a.692.692,0,0,1,1.383,0v3.556a.691.691,0,0,1-.692.692Z" transform="translate(-66.282 -64.538)" fill="#fff04a"/>
        </g>
      </g>
      <g id="Grupo_54541" data-name="Grupo 54541" transform="translate(0 0)">
        <path id="Trazado_100756" data-name="Trazado 100756" d="M13.924,101.938H8.692A.691.691,0,0,0,8,102.63v2.842a.691.691,0,0,0,.692.692h5.233a.691.691,0,0,0,.692-.692V102.63a.691.691,0,0,0-.692-.692Zm-.692,2.842H9.379v-1.458h3.853Z" transform="translate(-4.839 -61.66)"/>
        <path id="Trazado_100757" data-name="Trazado 100757" d="M57.349,41.8l2-2a.691.691,0,1,0-.978-.978l-2,2a.691.691,0,1,0,.977.977Z" transform="translate(-33.976 -23.363)"/>
        <path id="Trazado_100758" data-name="Trazado 100758" d="M94.635,106.161h6.633a2.112,2.112,0,0,0,0-4.224H94.635a2.112,2.112,0,0,0,0,4.224ZM102,104.049a.729.729,0,0,1-.729.729H98.644V103.32h2.625A.729.729,0,0,1,102,104.049Zm-7.362-.729H97.26v1.458H94.635a.729.729,0,0,1,0-1.458Z" transform="translate(-55.966 -61.66)"/>
        <path id="Trazado_100759" data-name="Trazado 100759" d="M49.883,33.9H10.124a.691.691,0,0,0-.692.692v2.519H4.694L19.885,21.924a.691.691,0,1,0-.978-.978L2.739,37.115H1.383V35.638a4.416,4.416,0,0,1,1.3-3.143L33.308,1.874a1.679,1.679,0,0,1,2.375,0l1.15,1.15-8.954,8.951a.691.691,0,1,0,.977.977L38.3,3.512a.692.692,0,0,0,0-.978L36.659.9a3.061,3.061,0,0,0-4.331,0L1.706,31.516A5.79,5.79,0,0,0,0,35.638v14.2a.691.691,0,0,0,.692.691H46.216a.692.692,0,0,0,.692-.692V47.662h.6a3.066,3.066,0,0,0,3.062-3.06V34.6a.691.691,0,0,0-.692-.692ZM10.816,35.288H49.191v1.827H10.816ZM49.191,44.6a1.681,1.681,0,0,1-1.679,1.679H35.091a.692.692,0,0,0,0,1.383H45.525v1.483H1.383V47.66H29.312a.692.692,0,1,0,0-1.383H1.383V38.5H49.191Z" transform="translate(0 0.001)"/>
        <path id="Trazado_100760" data-name="Trazado 100760" d="M54.37,70.207a.692.692,0,0,0,.011.978L57.2,73.949a.691.691,0,0,0,.968-.988L55.349,70.2a.692.692,0,0,0-.979.01Z" transform="translate(-32.769 -42.341)"/>
        <path id="Trazado_100761" data-name="Trazado 100761" d="M90.066,70.2l-2.821,2.766a.691.691,0,1,0,.966.986l2.822-2.766a.692.692,0,1,0-.968-.988Z" transform="translate(-52.638 -42.34)"/>
        <path id="Trazado_100762" data-name="Trazado 100762" d="M74.187,65.211v3.556a.692.692,0,0,0,1.383,0V65.211a.692.692,0,0,0-1.383,0Z" transform="translate(-44.875 -39.034)"/>
      </g>
    </g>
  </g>
</svg>
