<svg xmlns="http://www.w3.org/2000/svg" xmlns:xlink="http://www.w3.org/1999/xlink" width="144.352" height="175.376" viewBox="0 0 144.352 175.376">
  <defs>
    <filter id="Trazado_771252" x="0" y="16.974" width="144.352" height="158.402" filterUnits="userSpaceOnUse">
      <feOffset dy="3" input="SourceAlpha"/>
      <feGaussianBlur stdDeviation="3" result="blur"/>
      <feFlood flood-opacity="0.161"/>
      <feComposite operator="in" in2="blur"/>
      <feComposite in="SourceGraphic"/>
    </filter>
    <linearGradient id="linear-gradient" x1="-128.638" y1="0.5" x2="-127.638" y2="0.5" gradientUnits="objectBoundingBox">
      <stop offset="0.051" stop-color="#3d4555"/>
      <stop offset="0.583" stop-color="#3d4555"/>
      <stop offset="0.645" stop-color="#373d4a"/>
      <stop offset="0.716" stop-color="#353b47"/>
    </linearGradient>
  </defs>
  <g id="Grupo_58634" data-name="Grupo 58634" transform="translate(-385 -1140.002)">
    <g transform="matrix(1, 0, 0, 1, 385, 1140)" filter="url(#Trazado_771252)">
      <path id="Trazado_771252-2" data-name="Trazado 771252" d="M529.556,340.425V294.683a23.465,23.465,0,0,0-11.452-20.2l-37.512-22.242a23.011,23.011,0,0,0-22.749-.426l-38.437,20.895a23.456,23.456,0,0,0-12.2,20.623V339.5a23.47,23.47,0,0,0,11.169,20.026l35.957,22.019a23.013,23.013,0,0,0,22.775.734L517.1,361.186A23.451,23.451,0,0,0,529.556,340.425Z" transform="translate(-396.2 -223.8)" fill="#2ec49f" stroke="#fff" stroke-miterlimit="10" stroke-width="4"/>
    </g>
    <g id="Grupo_58562" data-name="Grupo 58562" transform="translate(396 1140.002)">
      <g id="Grupo_58561" data-name="Grupo 58561" transform="translate(0 0)">
        <g id="Grupo_58507" data-name="Grupo 58507" transform="translate(50.917 0)">
          <g id="Grupo_58503" data-name="Grupo 58503" transform="translate(0 65.27)">
            <path id="Trazado_105162" data-name="Trazado 105162" d="M380.7,272.864l-7.7-4.475a1.913,1.913,0,0,0-1.935.189l7.7,4.475A1.918,1.918,0,0,1,380.7,272.864Z" transform="translate(-368.34 -268.21)" fill="#202734"/>
            <path id="Trazado_105163" data-name="Trazado 105163" d="M380.321,272.834l-7.7-4.475a5.971,5.971,0,0,0-2.712,4.7,1.9,1.9,0,0,0,.794,1.741l7.7,4.478a1.9,1.9,0,0,1-.794-1.743,5.972,5.972,0,0,1,2.712-4.7Z" transform="translate(-369.897 -267.991)" fill="#202734"/>
            <path id="Trazado_105164" data-name="Trazado 105164" d="M375.879,270.466a5.971,5.971,0,0,0-2.712,4.7c0,1.725,1.225,2.42,2.727,1.552a5.971,5.971,0,0,0,2.712-4.691C378.6,270.3,377.381,269.6,375.879,270.466Z" transform="translate(-365.456 -265.622)" fill="#27303f"/>
          </g>
          <g id="Grupo_58506" data-name="Grupo 58506" transform="translate(1.97)">
            <g id="Grupo_58504" data-name="Grupo 58504" transform="translate(0 39.69)">
              <path id="Trazado_105165" data-name="Trazado 105165" d="M378.179,259.919l-2.243-1.339c-.483-.291-.7-.622-.648-.906l-4.537,25.6c-.052.284.165.615.651.906l2.24,1.339a3.755,3.755,0,0,0,.892.374l4.537-25.6a3.757,3.757,0,0,1-.892-.374Z" transform="translate(-370.744 -257.003)" fill="#2c323d"/>
              <path id="Trazado_105166" data-name="Trazado 105166" d="M376.883,258.781l-4.537,25.6a4.8,4.8,0,0,0,1.528.187l4.535-25.6a4.8,4.8,0,0,1-1.526-.187Z" transform="translate(-368.555 -255.491)" fill="#3d4555"/>
              <path id="Trazado_105167" data-name="Trazado 105167" d="M377.527,259.252l-4.535,25.595a2.9,2.9,0,0,0,.735-.123c.383-.126.6-.324.636-.554l4.537-25.6c-.04.229-.253.428-.639.554a2.965,2.965,0,0,1-.735.123Z" transform="translate(-367.674 -255.774)" fill="#2e3440"/>
              <path id="Trazado_105168" data-name="Trazado 105168" d="M373.306,257.518c-.864.282-.86.936.012,1.46l2.243,1.339a4.416,4.416,0,0,0,3.153.438c.866-.282.86-.937-.012-1.46l-2.24-1.339A4.424,4.424,0,0,0,373.306,257.518Z" transform="translate(-368.124 -257.401)" fill="#313744"/>
            </g>
            <g id="Grupo_58505" data-name="Grupo 58505" transform="translate(4.924)">
              <path id="Trazado_105169" data-name="Trazado 105169" d="M382.324,243.638l-1.679-2.132c-.393-.237-.615-.636-.778-.636L372.831,280.6c-.04.232.132.5.529.735l1.632.975a3.192,3.192,0,0,0,.724.3l6.768-38.249C382.218,244.293,382.535,243.763,382.324,243.638Z" transform="translate(-372.825 -240.26)" fill="#2c323d"/>
              <path id="Trazado_105170" data-name="Trazado 105170" d="M380.815,242.349,374.047,280.6a3.934,3.934,0,0,0,1.237.151l6.768-38.247A3.918,3.918,0,0,1,380.815,242.349Z" transform="translate(-371.157 -238.24)" fill="#3d4555"/>
              <path id="Trazado_105171" data-name="Trazado 105171" d="M381.336,242.707l-6.766,38.248a2.315,2.315,0,0,0,.6-.1c.31-.1.483-.265.516-.447L382.44,242.2c-.03.185-.194.308-.506.407a2.372,2.372,0,0,1-.6.1Z" transform="translate(-370.443 -238.447)" fill="#2e3440"/>
              <path id="Trazado_105172" data-name="Trazado 105172" d="M376.32,240.829c-.7.227-.651.529-.1,1.239l1.7,2.352c.463.7,1.862.6,2.559.353.31-.106.454-.589-.012-1.181l-1.587-2.408C378.284,240.363,377.021,240.6,376.32,240.829Z" transform="translate(-368.763 -240.613)" fill="#383f4e"/>
            </g>
          </g>
        </g>
        <g id="Grupo_58513" data-name="Grupo 58513" transform="translate(0 37.989)">
          <g id="Grupo_58509" data-name="Grupo 58509" transform="translate(16.348 47.24)">
            <path id="Trazado_105173" data-name="Trazado 105173" d="M359.94,276.824a1.918,1.918,0,0,0-1.932.189,5.975,5.975,0,0,0-2.712,4.7,1.9,1.9,0,0,0,.794,1.743l7.7,4.473a1.9,1.9,0,0,1-.794-1.743,5.971,5.971,0,0,1,2.712-4.691,1.918,1.918,0,0,1,1.935-.192Z" transform="translate(-355.286 -276.647)" fill="#202734"/>
            <g id="Grupo_58508" data-name="Grupo 58508" transform="translate(7.709 4.472)">
              <path id="Trazado_105174" data-name="Trazado 105174" d="M361.265,278.908a5.971,5.971,0,0,0-2.712,4.691c0,1.725,1.227,2.42,2.727,1.554a5.972,5.972,0,0,0,2.712-4.7C363.987,278.733,362.767,278.037,361.265,278.908Z" transform="translate(-358.553 -278.532)" fill="#27303f"/>
            </g>
          </g>
          <g id="Grupo_58512" data-name="Grupo 58512" transform="translate(0 0)">
            <g id="Grupo_58510" data-name="Grupo 58510" transform="translate(9.935 28.49)">
              <path id="Trazado_105175" data-name="Trazado 105175" d="M355.44,271.814l-2.231-1.344a1.355,1.355,0,0,1-.589-.686l6.808,18.345a1.339,1.339,0,0,0,.587.686l2.233,1.344Z" transform="translate(-352.541 -267.255)" fill="#20242d"/>
              <path id="Trazado_105176" data-name="Trazado 105176" d="M353.811,271.949l6.808,18.345a2.748,2.748,0,0,0,3.108-.525,1.653,1.653,0,0,0,.534-1.739l-6.808-18.345a1.653,1.653,0,0,1-.537,1.739,2.749,2.749,0,0,1-3.108.525Z" transform="translate(-350.912 -267.39)" fill="#2e3440"/>
              <path id="Trazado_105177" data-name="Trazado 105177" d="M353.2,269.519a1.46,1.46,0,0,0,.052,2.425l2.231,1.344a2.749,2.749,0,0,0,3.108-.525,1.461,1.461,0,0,0-.052-2.425l-2.233-1.344A2.745,2.745,0,0,0,353.2,269.519Z" transform="translate(-352.587 -268.728)" fill="#383f4e"/>
            </g>
            <g id="Grupo_58511" data-name="Grupo 58511">
              <path id="Trazado_105178" data-name="Trazado 105178" d="M350.548,259.192l-1.323-1.218c-.246-.142-.738-.31-.821-.534l10.461,29.074a1.085,1.085,0,0,0,.492.565l1.639.951Z" transform="translate(-348.362 -255.622)" fill="#20252d"/>
              <path id="Trazado_105179" data-name="Trazado 105179" d="M349.311,258.57l10.449,28.839a2.254,2.254,0,0,0,2.519-.44,1.316,1.316,0,0,0,.426-1.377l-9.963-27.5a.6.6,0,0,0-.911.04,2.255,2.255,0,0,1-2.519.442Z" transform="translate(-347.125 -255)" fill="#2e3440"/>
              <path id="Trazado_105180" data-name="Trazado 105180" d="M348.879,257.327c-.677.657-.655,1.147.061,1.942l2.05,2.116a2.249,2.249,0,0,0,2.519-.442c.674-.655.769-1.124-.026-1.935l-1.826-1.859a1.538,1.538,0,0,0-.987-.475,2.418,2.418,0,0,0-1.792.653Z" transform="translate(-348.387 -256.669)" fill="#383f4e"/>
            </g>
          </g>
        </g>
        <g id="Grupo_58560" data-name="Grupo 58560" transform="translate(10.861 60.825)">
          <g id="Grupo_58514" data-name="Grupo 58514" transform="translate(1.285 34.084)">
            <path id="Trazado_105181" data-name="Trazado 105181" d="M400.48,340.564l56.114-32.4c3.439-1.984,3.007-5.453-.963-7.745L425.369,282.95c-3.968-2.292-8.752-3.317-13.413-.556l-56.114,32.4c-3.439,1.984-3.007,5.453.963,7.745l30.265,17.472C391.04,342.3,397.043,342.548,400.48,340.564Z" transform="translate(-353.52 -280.732)" fill="#f0f4f7" style="mix-blend-mode: multiply;isolation: isolate"/>
            <path id="Trazado_105182" data-name="Trazado 105182" d="M395.59,336.97c-2.862,1.488-7.622,1.227-10.719-.561l-28.347-16.365c-2.976-1.72,8.594-11.187,11.173-12.675C367.8,307.307,409.949,283,410,283c3.653-2.07,7.468-1.221,10.69.639l28.347,16.367c2.976,1.72-8.532,11.149-11.111,12.637C437.893,312.654,395.717,336.97,395.59,336.97Z" transform="translate(-350.084 -279.279)" fill="#e6edf2" style="mix-blend-mode: multiply;isolation: isolate"/>
            <path id="Trazado_105183" data-name="Trazado 105183" d="M392.1,333.378a9.908,9.908,0,0,1-8.024-.561l-26.429-15.26c-1.984-1.145,21.588-16.613,23.306-17.6.208-.123,28.392-16.339,28.5-16.339,2.645-1.379,5.5-.705,7.969.724l26.429,15.258c1.984,1.147-21.46,16.54-23.178,17.534C420.592,317.145,392.359,333.378,392.1,333.378Z" transform="translate(-348.05 -277.829)" fill="#dde6ed" style="mix-blend-mode: multiply;isolation: isolate"/>
            <path id="Trazado_105184" data-name="Trazado 105184" d="M388.764,329.8a7.564,7.564,0,0,1-5.327-.565l-24.512-14.153c-.992-.573,34.582-22.042,35.441-22.537.31-.185,14.532-8.31,14.693-8.31,1.634-.69,3.52-.189,5.249.807l24.51,14.153c.992.573-34.391,21.931-35.25,22.426C403.449,321.648,389.154,329.8,388.764,329.8Z" transform="translate(-346.172 -276.388)" fill="#d3dfe8" style="mix-blend-mode: multiply;isolation: isolate"/>
            <path id="Trazado_105185" data-name="Trazado 105185" d="M385.475,326.281a5.877,5.877,0,0,1-2.635-.567l-22.594-13.046L407.822,285.2a1.623,1.623,0,0,1,.882-.279,5.722,5.722,0,0,1,2.529.892l22.6,13.044-47.323,27.32a4.391,4.391,0,0,1-1.032.106Z" transform="translate(-344.338 -275.016)" fill="#cad8e3" style="mix-blend-mode: multiply;isolation: isolate"/>
          </g>
          <path id="Trazado_105186" data-name="Trazado 105186" d="M368.612,303.491l46.163-26.653c2.391-1.382,6.569-1.209,9.33.386l28.524,16.971c5.188-.339,8.317-1.008,8.317-.63,0,2.226-2.4,4.563-5.739,6.487l-56.057,32.366c-2.391,1.379-6.569,1.206-9.33-.388L359.39,314.46s-6.411-3.605-6.411-7.3C352.978,306.273,359.183,305.031,368.612,303.491Z" transform="translate(-352.978 -253.235)" fill="#505a71"/>
          <path id="Trazado_105187" data-name="Trazado 105187" d="M352.978,309.655l6.4-.811L412.839,274.5c3.522-2.034,9.673-1.779,13.739.57l30.97,21.362,3.4-.431v1.362h0a4.091,4.091,0,0,1-2.375,3.409l-57.484,33.189c-3.522,2.032-9.673,1.776-13.739-.57l-31-17.9c-2.249-1.3-3.385-2.962-3.362-4.535h0Z" transform="translate(-352.978 -257.031)" fill="#7d879e"/>
          <path id="Trazado_105188" data-name="Trazado 105188" d="M401.085,335.494l57.484-33.189c3.522-2.032,3.08-6.6-.987-8.942l-31-20.37c-4.067-2.349-10.217-2.6-13.739-.57l-57.483,36.669c-3.522,2.034-3.08,5.585.987,7.932l31,17.9C391.413,337.27,397.563,337.526,401.085,335.494Z" transform="translate(-352.979 -259.872)" fill="#828ca3"/>
          <path id="Trazado_105189" data-name="Trazado 105189" d="M353.333,300.043l15.457-1.984,43.986-25.4a11.355,11.355,0,0,1,5.547-1.265,15.111,15.111,0,0,1,7.352,1.831l24.8,14.319,9.145-1.176v12h0v.014h0a3.285,3.285,0,0,1-1.956,2.7L400.181,334.28a11.367,11.367,0,0,1-5.549,1.257,15.145,15.145,0,0,1-7.352-1.829l-31-17.9c-1.871-1.079-2.943-2.451-2.943-3.759v-.026h0Z" transform="translate(-352.494 -259.384)" fill="url(#linear-gradient)"/>
          <path id="Trazado_105190" data-name="Trazado 105190" d="M370.094,304.8a14.14,14.14,0,0,0,4.178-.156V293.655a19.036,19.036,0,0,1-4.178.081Z" transform="translate(-329.605 -229.002)" fill="#505766"/>
          <path id="Trazado_105191" data-name="Trazado 105191" d="M352.978,301.588l6.4-.809,53.458-30.864c3.522-2.032,9.673-1.779,13.739.57l30.97,17.881,3.4-.431v2.046h0a4.091,4.091,0,0,1-2.375,3.409l-57.484,33.187c-3.522,2.034-9.673,1.779-13.739-.567l-31.006-17.9c-2.249-1.3-3.385-2.962-3.362-4.535h0Z" transform="translate(-352.978 -263.295)" fill="#505a71"/>
          <path id="Trazado_105192" data-name="Trazado 105192" d="M352.978,302.176l6.4-1.826,53.458-30.864c3.522-2.032,9.673-1.776,13.739.57l30.97,17.881,3.4.587v1.029h0a4.092,4.092,0,0,1-2.375,3.409L401.087,326.15c-3.522,2.032-9.673,1.776-13.739-.57l-31-17.9c-2.249-1.3-3.385-2.962-3.362-4.535h0Z" transform="translate(-352.978 -263.882)" fill="#768097"/>
          <path id="Trazado_105193" data-name="Trazado 105193" d="M401.085,327.616l57.484-33.189c3.522-2.034,3.08-5.585-.987-7.932l-31-17.9c-4.067-2.346-8.963-3.4-13.739-.57l-57.483,33.189c-3.522,2.032-3.08,5.585.987,7.932l31,17.9C391.413,329.394,397.563,329.649,401.085,327.616Z" transform="translate(-352.979 -266.324)" fill="#7d879e"/>
          <path id="Trazado_105194" data-name="Trazado 105194" d="M396.77,323.072l56.057-32.366c2.391-1.379,2.091-3.792-.669-5.386l-30.435-17.569c-2.761-1.595-6.938-1.767-9.33-.388l-56.057,32.366c-2.391,1.379-2.091,3.792.672,5.386l30.431,17.569C390.2,324.28,394.377,324.451,396.77,323.072Z" transform="translate(-350.597 -266.178)" fill="#828ca3"/>
          <path id="Trazado_105195" data-name="Trazado 105195" d="M393.248,319.376l54.262-31.327c1.764-1.02,1.542-2.8-.495-3.974l-28.42-16.41a7.649,7.649,0,0,0-6.884-.284L357.45,298.707c-1.763,1.017-1.542,2.8.495,3.974l28.423,16.408A7.644,7.644,0,0,0,393.248,319.376Z" transform="translate(-348.496 -265.823)" fill="#828ca3"/>
          <g id="Grupo_58516" data-name="Grupo 58516" transform="translate(61.396 42.032)">
            <g id="Grupo_58515" data-name="Grupo 58515" transform="translate(0 0)">
              <path id="Trazado_105196" data-name="Trazado 105196" d="M391.109,286.595l1.675-.968a1.323,1.323,0,0,0,.551-1.053h0c0-.4-.246-.591-.551-.417l-1.675.968a1.315,1.315,0,0,0-.551,1.053h0C390.558,286.583,390.8,286.769,391.109,286.595Z" transform="translate(-363.056 -284.092)" fill="#63d643"/>
              <path id="Trazado_105197" data-name="Trazado 105197" d="M389.171,287.711l1.677-.968a1.318,1.318,0,0,0,.549-1.05h0c0-.407-.246-.591-.549-.417l-1.677.968a1.313,1.313,0,0,0-.551,1.05h0C388.62,287.7,388.866,287.889,389.171,287.711Z" transform="translate(-365.702 -282.564)" fill="#16892e"/>
              <path id="Trazado_105198" data-name="Trazado 105198" d="M387.232,288.832l1.677-.968a1.315,1.315,0,0,0,.551-1.053h0c0-.4-.246-.591-.551-.416l-1.677.97a1.318,1.318,0,0,0-.549,1.05h0C386.683,288.823,386.929,289.006,387.232,288.832Z" transform="translate(-368.347 -281.038)" fill="#16892e"/>
              <path id="Trazado_105199" data-name="Trazado 105199" d="M385.3,289.951l1.677-.968a1.326,1.326,0,0,0,.549-1.053h0c0-.4-.246-.591-.549-.416l-1.677.968a1.318,1.318,0,0,0-.551,1.053h0C384.745,289.939,384.991,290.128,385.3,289.951Z" transform="translate(-370.994 -279.509)" fill="#16892e"/>
              <path id="Trazado_105200" data-name="Trazado 105200" d="M383.358,291.068l1.677-.968a1.323,1.323,0,0,0,.551-1.05h0c0-.407-.248-.591-.551-.416l-1.677.968a1.323,1.323,0,0,0-.551,1.053h0C382.807,291.058,383.056,291.245,383.358,291.068Z" transform="translate(-373.641 -277.982)" fill="#63d643"/>
              <path id="Trazado_105201" data-name="Trazado 105201" d="M381.418,292.188l1.675-.968a1.315,1.315,0,0,0,.551-1.053h0c0-.4-.246-.591-.551-.417l-1.675.97a1.313,1.313,0,0,0-.551,1.05h0C380.869,292.178,381.115,292.362,381.418,292.188Z" transform="translate(-376.284 -276.454)" fill="#d88d43"/>
              <path id="Trazado_105202" data-name="Trazado 105202" d="M379.483,293.307l1.677-.968a1.326,1.326,0,0,0,.549-1.053h0c0-.4-.246-.591-.549-.417l-1.677.968a1.323,1.323,0,0,0-.551,1.053h0C378.932,293.295,379.175,293.481,379.483,293.307Z" transform="translate(-378.932 -274.926)" fill="#63d643"/>
            </g>
          </g>
          <g id="Grupo_58559" data-name="Grupo 58559" transform="translate(10.481 2.351)">
            <g id="Grupo_58558" data-name="Grupo 58558" transform="translate(0 0)">
              <g id="Grupo_58519" data-name="Grupo 58519" transform="translate(52.723)">
                <g id="Grupo_58517" data-name="Grupo 58517" transform="translate(3.322)">
                  <path id="Trazado_105203" data-name="Trazado 105203" d="M382.19,267.948a1,1,0,0,1-.9,0,.275.275,0,0,1,0-.52.992.992,0,0,1,.9,0,.275.275,0,0,1,0,.52Z" transform="translate(-381.1 -267.319)" fill="#2c323d"/>
                  <path id="Trazado_105204" data-name="Trazado 105204" d="M383.443,268.679a1,1,0,0,1-.9,0,.275.275,0,0,1,0-.521,1,1,0,0,1,.9,0,.274.274,0,0,1,0,.52Z" transform="translate(-379.383 -266.329)" fill="#2c323d"/>
                  <path id="Trazado_105205" data-name="Trazado 105205" d="M384.705,269.4a.992.992,0,0,1-.9,0,.275.275,0,0,1,0-.52,1,1,0,0,1,.9,0,.274.274,0,0,1,0,.52Z" transform="translate(-377.666 -265.336)" fill="#2c323d"/>
                  <path id="Trazado_105206" data-name="Trazado 105206" d="M385.964,270.125a1,1,0,0,1-.9,0,.274.274,0,0,1,0-.521.992.992,0,0,1,.9,0C386.21,269.749,386.214,269.983,385.964,270.125Z" transform="translate(-375.949 -264.344)" fill="#2c323d"/>
                  <path id="Trazado_105207" data-name="Trazado 105207" d="M387.222,270.85a.992.992,0,0,1-.9,0,.274.274,0,0,1,0-.521,1,1,0,0,1,.9,0A.275.275,0,0,1,387.222,270.85Z" transform="translate(-374.231 -263.352)" fill="#2c323d"/>
                  <path id="Trazado_105208" data-name="Trazado 105208" d="M388.481,271.578a1,1,0,0,1-.9,0,.274.274,0,0,1,0-.52.992.992,0,0,1,.9,0,.275.275,0,0,1,0,.52Z" transform="translate(-372.514 -262.36)" fill="#2c323d"/>
                  <path id="Trazado_105209" data-name="Trazado 105209" d="M389.736,272.3a1,1,0,0,1-.9,0,.275.275,0,0,1,0-.521,1,1,0,0,1,.9,0,.274.274,0,0,1,0,.521Z" transform="translate(-370.796 -261.368)" fill="#2c323d"/>
                  <path id="Trazado_105210" data-name="Trazado 105210" d="M390.994,273.03a.992.992,0,0,1-.9,0,.275.275,0,0,1,0-.521,1,1,0,0,1,.9,0,.275.275,0,0,1,0,.52Z" transform="translate(-369.078 -260.378)" fill="#2c323d"/>
                  <path id="Trazado_105211" data-name="Trazado 105211" d="M392.253,273.757a.992.992,0,0,1-.9,0,.274.274,0,0,1,0-.52,1,1,0,0,1,.9,0A.275.275,0,0,1,392.253,273.757Z" transform="translate(-367.361 -259.386)" fill="#2c323d"/>
                  <path id="Trazado_105212" data-name="Trazado 105212" d="M393.51,274.478a.992.992,0,0,1-.9,0,.275.275,0,0,1,0-.52.992.992,0,0,1,.9,0C393.756,274.1,393.759,274.339,393.51,274.478Z" transform="translate(-365.642 -258.393)" fill="#2c323d"/>
                  <path id="Trazado_105213" data-name="Trazado 105213" d="M394.767,275.207a.992.992,0,0,1-.9,0,.274.274,0,0,1,0-.52.992.992,0,0,1,.9,0,.273.273,0,0,1,0,.52Z" transform="translate(-363.925 -257.401)" fill="#2c323d"/>
                </g>
                <g id="Grupo_58518" data-name="Grupo 58518" transform="translate(0 0.302)">
                  <path id="Trazado_105214" data-name="Trazado 105214" d="M380.785,268.078a1,1,0,0,1-.9,0,.275.275,0,0,1,0-.521,1,1,0,0,1,.9,0,.274.274,0,0,1,0,.521Z" transform="translate(-379.698 -267.451)" fill="#2c323d"/>
                  <path id="Trazado_105215" data-name="Trazado 105215" d="M382.041,268.8a.992.992,0,0,1-.9,0c-.251-.144-.253-.378,0-.521a.992.992,0,0,1,.9,0,.275.275,0,0,1,0,.52Z" transform="translate(-377.99 -266.462)" fill="#2c323d"/>
                  <path id="Trazado_105216" data-name="Trazado 105216" d="M383.289,269.519a1,1,0,0,1-.9,0,.274.274,0,0,1,0-.52.992.992,0,0,1,.9,0,.275.275,0,0,1,0,.52Z" transform="translate(-376.28 -265.477)" fill="#2c323d"/>
                  <path id="Trazado_105217" data-name="Trazado 105217" d="M384.543,270.241a.992.992,0,0,1-.9,0,.274.274,0,0,1,0-.521,1,1,0,0,1,.9,0A.276.276,0,0,1,384.543,270.241Z" transform="translate(-374.573 -264.49)" fill="#2c323d"/>
                  <path id="Trazado_105218" data-name="Trazado 105218" d="M385.79,270.961a.992.992,0,0,1-.9,0,.274.274,0,0,1,0-.52.992.992,0,0,1,.9,0,.273.273,0,0,1,0,.52Z" transform="translate(-372.863 -263.502)" fill="#2c323d"/>
                  <path id="Trazado_105219" data-name="Trazado 105219" d="M387.043,271.685a1,1,0,0,1-.9,0,.275.275,0,0,1,0-.521,1,1,0,0,1,.9,0,.274.274,0,0,1,0,.521Z" transform="translate(-371.155 -262.517)" fill="#2c323d"/>
                  <path id="Trazado_105220" data-name="Trazado 105220" d="M388.293,272.407a.992.992,0,0,1-.9,0,.275.275,0,0,1,0-.521,1,1,0,0,1,.9,0C388.539,272.031,388.542,272.265,388.293,272.407Z" transform="translate(-369.445 -261.53)" fill="#2c323d"/>
                  <path id="Trazado_105221" data-name="Trazado 105221" d="M389.543,273.131a1,1,0,0,1-.9,0,.274.274,0,0,1,0-.52.992.992,0,0,1,.9,0,.275.275,0,0,1,0,.521Z" transform="translate(-367.736 -260.544)" fill="#2c323d"/>
                  <path id="Trazado_105222" data-name="Trazado 105222" d="M390.8,273.853a.992.992,0,0,1-.9,0,.275.275,0,0,1,0-.52,1,1,0,0,1,.9,0A.275.275,0,0,1,390.8,273.853Z" transform="translate(-366.028 -259.557)" fill="#2c323d"/>
                  <path id="Trazado_105223" data-name="Trazado 105223" d="M392.043,274.573a.992.992,0,0,1-.9,0,.274.274,0,0,1,0-.521,1,1,0,0,1,.9,0,.274.274,0,0,1,0,.52Z" transform="translate(-364.318 -258.57)" fill="#2c323d"/>
                  <path id="Trazado_105224" data-name="Trazado 105224" d="M393.3,275.3a1,1,0,0,1-.9,0,.275.275,0,0,1,0-.521,1,1,0,0,1,.9,0,.275.275,0,0,1,0,.521Z" transform="translate(-362.61 -257.584)" fill="#2c323d"/>
                  <path id="Trazado_105225" data-name="Trazado 105225" d="M394.55,276.019a1,1,0,0,1-.9,0,.274.274,0,0,1,0-.521.992.992,0,0,1,.9,0A.275.275,0,0,1,394.55,276.019Z" transform="translate(-360.902 -256.597)" fill="#2c323d"/>
                </g>
              </g>
              <g id="Grupo_58522" data-name="Grupo 58522" transform="translate(48.412 2.49)">
                <g id="Grupo_58520" data-name="Grupo 58520" transform="translate(3.322 0)">
                  <path id="Trazado_105226" data-name="Trazado 105226" d="M380.367,269a1,1,0,0,1-.9,0,.275.275,0,0,1,0-.521,1,1,0,0,1,.9,0,.274.274,0,0,1,0,.521Z" transform="translate(-379.28 -268.372)" fill="#2c323d"/>
                  <path id="Trazado_105227" data-name="Trazado 105227" d="M381.626,269.726a.992.992,0,0,1-.9,0,.274.274,0,0,1,0-.521,1,1,0,0,1,.9,0,.275.275,0,0,1,0,.521Z" transform="translate(-377.562 -267.38)" fill="#2c323d"/>
                  <path id="Trazado_105228" data-name="Trazado 105228" d="M382.884,270.451a1,1,0,0,1-.9,0,.274.274,0,0,1,0-.52.992.992,0,0,1,.9,0A.275.275,0,0,1,382.884,270.451Z" transform="translate(-375.844 -266.388)" fill="#2c323d"/>
                  <path id="Trazado_105229" data-name="Trazado 105229" d="M384.141,271.178a.992.992,0,0,1-.9,0c-.251-.144-.253-.378,0-.521a.992.992,0,0,1,.9,0,.275.275,0,0,1,0,.52Z" transform="translate(-374.126 -265.397)" fill="#2c323d"/>
                  <path id="Trazado_105230" data-name="Trazado 105230" d="M385.4,271.905a1,1,0,0,1-.9,0,.274.274,0,0,1,0-.52.992.992,0,0,1,.9,0,.274.274,0,0,1,0,.52Z" transform="translate(-372.409 -264.405)" fill="#2c323d"/>
                  <path id="Trazado_105231" data-name="Trazado 105231" d="M386.656,272.631a1,1,0,0,1-.9,0,.275.275,0,0,1,0-.521,1,1,0,0,1,.9,0,.275.275,0,0,1,0,.521Z" transform="translate(-370.692 -263.413)" fill="#2c323d"/>
                  <path id="Trazado_105232" data-name="Trazado 105232" d="M387.915,273.357a1,1,0,0,1-.9,0,.274.274,0,0,1,0-.521,1,1,0,0,1,.9,0,.275.275,0,0,1,0,.52Z" transform="translate(-368.974 -262.422)" fill="#2c323d"/>
                  <path id="Trazado_105233" data-name="Trazado 105233" d="M389.172,274.078a.992.992,0,0,1-.9,0,.275.275,0,0,1,0-.521,1,1,0,0,1,.9,0C389.417,273.7,389.421,273.939,389.172,274.078Z" transform="translate(-367.256 -261.429)" fill="#2c323d"/>
                  <path id="Trazado_105234" data-name="Trazado 105234" d="M390.429,274.808a.992.992,0,0,1-.9,0,.274.274,0,0,1,0-.52.992.992,0,0,1,.9,0,.274.274,0,0,1,0,.52Z" transform="translate(-365.538 -260.439)" fill="#2c323d"/>
                  <path id="Trazado_105235" data-name="Trazado 105235" d="M391.687,275.533a.992.992,0,0,1-.9,0,.274.274,0,0,1,0-.521.992.992,0,0,1,.9,0,.273.273,0,0,1,0,.521Z" transform="translate(-363.821 -259.446)" fill="#2c323d"/>
                  <path id="Trazado_105236" data-name="Trazado 105236" d="M392.943,276.262a1,1,0,0,1-.9,0,.274.274,0,0,1,0-.521.992.992,0,0,1,.9,0,.275.275,0,0,1,0,.52Z" transform="translate(-362.103 -258.455)" fill="#2c323d"/>
                </g>
                <g id="Grupo_58521" data-name="Grupo 58521" transform="translate(0 0.298)">
                  <path id="Trazado_105237" data-name="Trazado 105237" d="M378.964,269.125a.992.992,0,0,1-.9,0,.274.274,0,0,1,0-.521,1,1,0,0,1,.9,0C379.21,268.749,379.214,268.983,378.964,269.125Z" transform="translate(-377.875 -268.498)" fill="#2c323d"/>
                  <path id="Trazado_105238" data-name="Trazado 105238" d="M380.214,269.847a.992.992,0,0,1-.9,0,.274.274,0,0,1,0-.521,1,1,0,0,1,.9,0,.274.274,0,0,1,0,.521Z" transform="translate(-376.166 -267.51)" fill="#2c323d"/>
                  <path id="Trazado_105239" data-name="Trazado 105239" d="M381.465,270.571a1,1,0,0,1-.9,0,.275.275,0,0,1,0-.521,1,1,0,0,1,.9,0,.274.274,0,0,1,0,.521Z" transform="translate(-374.458 -266.525)" fill="#2c323d"/>
                  <path id="Trazado_105240" data-name="Trazado 105240" d="M382.717,271.292a1,1,0,0,1-.9,0,.275.275,0,0,1,0-.52.992.992,0,0,1,.9,0C382.963,270.916,382.966,271.151,382.717,271.292Z" transform="translate(-372.748 -265.538)" fill="#2c323d"/>
                  <path id="Trazado_105241" data-name="Trazado 105241" d="M383.969,272.016a1,1,0,0,1-.9,0,.274.274,0,0,1,0-.52.992.992,0,0,1,.9,0,.275.275,0,0,1,0,.52Z" transform="translate(-371.04 -264.552)" fill="#2c323d"/>
                  <path id="Trazado_105242" data-name="Trazado 105242" d="M385.219,272.737a.992.992,0,0,1-.9,0,.275.275,0,0,1,0-.521,1,1,0,0,1,.9,0,.275.275,0,0,1,0,.52Z" transform="translate(-369.331 -263.566)" fill="#2c323d"/>
                  <path id="Trazado_105243" data-name="Trazado 105243" d="M386.47,273.458a.992.992,0,0,1-.9,0,.274.274,0,0,1,0-.52,1,1,0,0,1,.9,0,.274.274,0,0,1,0,.52Z" transform="translate(-367.623 -262.578)" fill="#2c323d"/>
                  <path id="Trazado_105244" data-name="Trazado 105244" d="M387.722,274.179a1,1,0,0,1-.9,0c-.251-.144-.253-.376,0-.521a1,1,0,0,1,.9,0,.275.275,0,0,1,0,.52Z" transform="translate(-365.914 -261.591)" fill="#2c323d"/>
                  <path id="Trazado_105245" data-name="Trazado 105245" d="M388.974,274.9a1,1,0,0,1-.9,0,.274.274,0,0,1,0-.52.992.992,0,0,1,.9,0A.276.276,0,0,1,388.974,274.9Z" transform="translate(-364.206 -260.605)" fill="#2c323d"/>
                  <path id="Trazado_105246" data-name="Trazado 105246" d="M390.225,275.628a1,1,0,0,1-.9,0,.274.274,0,0,1,0-.52.992.992,0,0,1,.9,0,.275.275,0,0,1,0,.52Z" transform="translate(-362.497 -259.619)" fill="#2c323d"/>
                  <path id="Trazado_105247" data-name="Trazado 105247" d="M391.475,276.349a.992.992,0,0,1-.9,0,.275.275,0,0,1,0-.521,1,1,0,0,1,.9,0,.274.274,0,0,1,0,.52Z" transform="translate(-360.789 -258.633)" fill="#2c323d"/>
                  <path id="Trazado_105248" data-name="Trazado 105248" d="M392.726,277.071a.992.992,0,0,1-.9,0,.274.274,0,0,1,0-.52.992.992,0,0,1,.9,0,.274.274,0,0,1,0,.52Z" transform="translate(-359.079 -257.646)" fill="#2c323d"/>
                </g>
              </g>
              <g id="Grupo_58525" data-name="Grupo 58525" transform="translate(44.099 4.978)">
                <g id="Grupo_58523" data-name="Grupo 58523" transform="translate(3.322 0)">
                  <path id="Trazado_105249" data-name="Trazado 105249" d="M378.543,270.052a.992.992,0,0,1-.9,0,.274.274,0,0,1,0-.52,1,1,0,0,1,.9,0,.275.275,0,0,1,0,.52Z" transform="translate(-377.454 -269.424)" fill="#2c323d"/>
                  <path id="Trazado_105250" data-name="Trazado 105250" d="M379.8,270.778a1,1,0,0,1-.9,0,.275.275,0,0,1,0-.52.992.992,0,0,1,.9,0A.275.275,0,0,1,379.8,270.778Z" transform="translate(-375.737 -268.432)" fill="#2c323d"/>
                  <path id="Trazado_105251" data-name="Trazado 105251" d="M381.06,271.5a.992.992,0,0,1-.9,0,.275.275,0,0,1,0-.52.992.992,0,0,1,.9,0,.274.274,0,0,1,0,.52Z" transform="translate(-374.019 -267.44)" fill="#2c323d"/>
                  <path id="Trazado_105252" data-name="Trazado 105252" d="M382.318,272.231a1,1,0,0,1-.9,0,.274.274,0,0,1,0-.521.992.992,0,0,1,.9,0,.274.274,0,0,1,0,.52Z" transform="translate(-372.302 -266.449)" fill="#2c323d"/>
                  <path id="Trazado_105253" data-name="Trazado 105253" d="M383.577,272.957a1,1,0,0,1-.9,0,.274.274,0,0,1,0-.52,1,1,0,0,1,.9,0,.275.275,0,0,1,0,.52Z" transform="translate(-370.585 -265.457)" fill="#2c323d"/>
                  <path id="Trazado_105254" data-name="Trazado 105254" d="M384.835,273.678a1,1,0,0,1-.9,0,.274.274,0,0,1,0-.521,1,1,0,0,1,.9,0,.275.275,0,0,1,0,.52Z" transform="translate(-368.867 -264.464)" fill="#2c323d"/>
                  <path id="Trazado_105255" data-name="Trazado 105255" d="M386.094,274.409a1,1,0,0,1-.9,0,.275.275,0,0,1,0-.52,1,1,0,0,1,.9,0,.275.275,0,0,1,0,.52Z" transform="translate(-367.15 -263.474)" fill="#2c323d"/>
                  <path id="Trazado_105256" data-name="Trazado 105256" d="M387.349,275.134a.992.992,0,0,1-.9,0,.275.275,0,0,1,0-.521.992.992,0,0,1,.9,0,.274.274,0,0,1,0,.52Z" transform="translate(-365.432 -262.482)" fill="#2c323d"/>
                  <path id="Trazado_105257" data-name="Trazado 105257" d="M388.607,275.859a.992.992,0,0,1-.9,0,.274.274,0,0,1,0-.52,1,1,0,0,1,.9,0A.275.275,0,0,1,388.607,275.859Z" transform="translate(-363.714 -261.49)" fill="#2c323d"/>
                  <path id="Trazado_105258" data-name="Trazado 105258" d="M389.866,276.588a1,1,0,0,1-.9,0,.274.274,0,0,1,0-.52.992.992,0,0,1,.9,0,.275.275,0,0,1,0,.52Z" transform="translate(-361.996 -260.499)" fill="#2c323d"/>
                  <path id="Trazado_105259" data-name="Trazado 105259" d="M391.123,277.314a1,1,0,0,1-.9,0,.275.275,0,0,1,0-.521,1,1,0,0,1,.9,0,.275.275,0,0,1,0,.52Z" transform="translate(-360.278 -259.507)" fill="#2c323d"/>
                </g>
                <g id="Grupo_58524" data-name="Grupo 58524" transform="translate(0 0.298)">
                  <path id="Trazado_105260" data-name="Trazado 105260" d="M377.141,270.178a1,1,0,0,1-.9,0c-.251-.144-.253-.378,0-.52a.992.992,0,0,1,.9,0,.275.275,0,0,1,0,.52Z" transform="translate(-376.05 -269.549)" fill="#2c323d"/>
                  <path id="Trazado_105261" data-name="Trazado 105261" d="M378.393,270.9a1,1,0,0,1-.9,0,.274.274,0,0,1,0-.521.992.992,0,0,1,.9,0,.275.275,0,0,1,0,.52Z" transform="translate(-374.342 -268.563)" fill="#2c323d"/>
                  <path id="Trazado_105262" data-name="Trazado 105262" d="M379.643,271.623a.992.992,0,0,1-.9,0,.274.274,0,0,1,0-.52,1,1,0,0,1,.9,0,.275.275,0,0,1,0,.521Z" transform="translate(-372.633 -267.577)" fill="#2c323d"/>
                  <path id="Trazado_105263" data-name="Trazado 105263" d="M380.894,272.344a.992.992,0,0,1-.9,0,.274.274,0,0,1,0-.52.992.992,0,0,1,.9,0,.274.274,0,0,1,0,.52Z" transform="translate(-370.924 -266.59)" fill="#2c323d"/>
                  <path id="Trazado_105264" data-name="Trazado 105264" d="M382.143,273.068a1,1,0,0,1-.9,0,.275.275,0,0,1,0-.521,1,1,0,0,1,.9,0,.274.274,0,0,1,0,.521Z" transform="translate(-369.216 -265.603)" fill="#2c323d"/>
                  <path id="Trazado_105265" data-name="Trazado 105265" d="M383.4,273.789a1,1,0,0,1-.9,0,.275.275,0,0,1,0-.521.992.992,0,0,1,.9,0C383.643,273.413,383.646,273.649,383.4,273.789Z" transform="translate(-367.507 -264.617)" fill="#2c323d"/>
                  <path id="Trazado_105266" data-name="Trazado 105266" d="M384.649,274.513a1,1,0,0,1-.9,0,.274.274,0,0,1,0-.52.992.992,0,0,1,.9,0,.275.275,0,0,1,0,.52Z" transform="translate(-365.799 -263.631)" fill="#2c323d"/>
                  <path id="Trazado_105267" data-name="Trazado 105267" d="M385.9,275.235a.992.992,0,0,1-.9,0,.275.275,0,0,1,0-.521,1,1,0,0,1,.9,0,.275.275,0,0,1,0,.52Z" transform="translate(-364.09 -262.644)" fill="#2c323d"/>
                  <path id="Trazado_105268" data-name="Trazado 105268" d="M387.15,275.956a.992.992,0,0,1-.9,0,.274.274,0,0,1,0-.52.992.992,0,0,1,.9,0,.274.274,0,0,1,0,.52Z" transform="translate(-362.381 -261.657)" fill="#2c323d"/>
                  <path id="Trazado_105269" data-name="Trazado 105269" d="M388.4,276.678a1,1,0,0,1-.9,0,.275.275,0,0,1,0-.521,1,1,0,0,1,.9,0,.275.275,0,0,1,0,.52Z" transform="translate(-360.672 -260.67)" fill="#2c323d"/>
                  <path id="Trazado_105270" data-name="Trazado 105270" d="M389.654,277.4a.992.992,0,0,1-.9,0,.273.273,0,0,1,0-.518.992.992,0,0,1,.9,0A.273.273,0,0,1,389.654,277.4Z" transform="translate(-358.965 -259.685)" fill="#2c323d"/>
                  <path id="Trazado_105271" data-name="Trazado 105271" d="M390.9,278.125a1,1,0,0,1-.9,0,.275.275,0,0,1,0-.521.992.992,0,0,1,.9,0,.275.275,0,0,1,0,.52Z" transform="translate(-357.256 -258.698)" fill="#2c323d"/>
                </g>
              </g>
              <g id="Grupo_58528" data-name="Grupo 58528" transform="translate(39.789 7.469)">
                <g id="Grupo_58526" data-name="Grupo 58526" transform="translate(3.322 0)">
                  <path id="Trazado_105272" data-name="Trazado 105272" d="M376.722,271.1a.992.992,0,0,1-.9,0,.273.273,0,0,1,0-.518.992.992,0,0,1,.9,0,.274.274,0,0,1,0,.518Z" transform="translate(-375.635 -270.478)" fill="#2c323d"/>
                  <path id="Trazado_105273" data-name="Trazado 105273" d="M377.98,271.829a.992.992,0,0,1-.9,0,.274.274,0,0,1,0-.52.992.992,0,0,1,.9,0,.274.274,0,0,1,0,.52Z" transform="translate(-373.916 -269.485)" fill="#2c323d"/>
                  <path id="Trazado_105274" data-name="Trazado 105274" d="M379.242,272.557a1,1,0,0,1-.9,0,.274.274,0,0,1,0-.521.992.992,0,0,1,.9,0,.275.275,0,0,1,0,.52Z" transform="translate(-372.2 -268.494)" fill="#2c323d"/>
                  <path id="Trazado_105275" data-name="Trazado 105275" d="M380.5,273.279a1,1,0,0,1-.9,0,.274.274,0,0,1,0-.521,1,1,0,0,1,.9,0,.275.275,0,0,1,0,.52Z" transform="translate(-370.481 -267.5)" fill="#2c323d"/>
                  <path id="Trazado_105276" data-name="Trazado 105276" d="M381.754,274.009a1,1,0,0,1-.9,0c-.251-.144-.253-.376,0-.521a1,1,0,0,1,.9,0,.275.275,0,0,1,0,.52Z" transform="translate(-368.763 -266.511)" fill="#2c323d"/>
                  <path id="Trazado_105277" data-name="Trazado 105277" d="M383.011,274.734a.992.992,0,0,1-.9,0,.275.275,0,0,1,0-.521,1,1,0,0,1,.9,0,.274.274,0,0,1,0,.52Z" transform="translate(-367.046 -265.519)" fill="#2c323d"/>
                  <path id="Trazado_105278" data-name="Trazado 105278" d="M384.269,275.46a1,1,0,0,1-.9,0,.274.274,0,0,1,0-.52.992.992,0,0,1,.9,0A.275.275,0,0,1,384.269,275.46Z" transform="translate(-365.328 -264.527)" fill="#2c323d"/>
                  <path id="Trazado_105279" data-name="Trazado 105279" d="M385.528,276.186a.992.992,0,0,1-.9,0,.274.274,0,0,1,0-.521,1,1,0,0,1,.9,0A.275.275,0,0,1,385.528,276.186Z" transform="translate(-363.611 -263.535)" fill="#2c323d"/>
                  <path id="Trazado_105280" data-name="Trazado 105280" d="M386.785,276.914a1,1,0,0,1-.9,0,.275.275,0,0,1,0-.521.992.992,0,0,1,.9,0C387.031,276.538,387.034,276.77,386.785,276.914Z" transform="translate(-361.893 -262.544)" fill="#2c323d"/>
                  <path id="Trazado_105281" data-name="Trazado 105281" d="M388.043,277.639a1,1,0,0,1-.9,0,.275.275,0,0,1,0-.521,1,1,0,0,1,.9,0,.274.274,0,0,1,0,.52Z" transform="translate(-360.177 -261.552)" fill="#2c323d"/>
                  <path id="Trazado_105282" data-name="Trazado 105282" d="M389.3,278.366a.992.992,0,0,1-.9,0,.275.275,0,0,1,0-.52,1,1,0,0,1,.9,0,.274.274,0,0,1,0,.52Z" transform="translate(-358.458 -260.561)" fill="#2c323d"/>
                </g>
                <g id="Grupo_58527" data-name="Grupo 58527" transform="translate(0 0.296)">
                  <path id="Trazado_105283" data-name="Trazado 105283" d="M375.318,271.229a.992.992,0,0,1-.9,0,.274.274,0,0,1,0-.52.992.992,0,0,1,.9,0,.274.274,0,0,1,0,.52Z" transform="translate(-374.229 -270.6)" fill="#2c323d"/>
                  <path id="Trazado_105284" data-name="Trazado 105284" d="M376.569,271.952a1,1,0,0,1-.9,0,.275.275,0,0,1,0-.52,1,1,0,0,1,.9,0,.274.274,0,0,1,0,.52Z" transform="translate(-372.521 -269.614)" fill="#2c323d"/>
                  <path id="Trazado_105285" data-name="Trazado 105285" d="M377.821,272.679a.992.992,0,0,1-.9,0,.273.273,0,0,1,0-.518.992.992,0,0,1,.9,0A.273.273,0,0,1,377.821,272.679Z" transform="translate(-370.811 -268.63)" fill="#2c323d"/>
                  <path id="Trazado_105286" data-name="Trazado 105286" d="M379.073,273.4a1,1,0,0,1-.9,0,.274.274,0,0,1,0-.521.992.992,0,0,1,.9,0,.275.275,0,0,1,0,.52Z" transform="translate(-369.103 -267.641)" fill="#2c323d"/>
                  <path id="Trazado_105287" data-name="Trazado 105287" d="M380.323,274.12a.992.992,0,0,1-.9,0,.275.275,0,0,1,0-.521,1,1,0,0,1,.9,0,.275.275,0,0,1,0,.52Z" transform="translate(-367.395 -266.654)" fill="#2c323d"/>
                  <path id="Trazado_105288" data-name="Trazado 105288" d="M381.574,274.841a.992.992,0,0,1-.9,0,.274.274,0,0,1,0-.521.992.992,0,0,1,.9,0,.274.274,0,0,1,0,.52Z" transform="translate(-365.686 -265.668)" fill="#2c323d"/>
                  <path id="Trazado_105289" data-name="Trazado 105289" d="M382.826,275.565a1,1,0,0,1-.9,0c-.251-.144-.253-.376,0-.521a1,1,0,0,1,.9,0,.275.275,0,0,1,0,.521Z" transform="translate(-363.977 -264.681)" fill="#2c323d"/>
                  <path id="Trazado_105290" data-name="Trazado 105290" d="M384.078,276.287a.992.992,0,0,1-.9,0,.274.274,0,0,1,0-.52,1,1,0,0,1,.9,0A.275.275,0,0,1,384.078,276.287Z" transform="translate(-362.268 -263.695)" fill="#2c323d"/>
                  <path id="Trazado_105291" data-name="Trazado 105291" d="M385.329,277.01a1,1,0,0,1-.9,0,.274.274,0,0,1,0-.521.992.992,0,0,1,.9,0,.275.275,0,0,1,0,.521Z" transform="translate(-360.561 -262.708)" fill="#2c323d"/>
                  <path id="Trazado_105292" data-name="Trazado 105292" d="M386.579,277.732a1,1,0,0,1-.9,0,.275.275,0,0,1,0-.52,1,1,0,0,1,.9,0,.274.274,0,0,1,0,.52Z" transform="translate(-358.852 -261.722)" fill="#2c323d"/>
                  <path id="Trazado_105293" data-name="Trazado 105293" d="M387.83,278.453a.992.992,0,0,1-.9,0,.274.274,0,0,1,0-.521.992.992,0,0,1,.9,0,.274.274,0,0,1,0,.52Z" transform="translate(-357.142 -260.735)" fill="#2c323d"/>
                  <path id="Trazado_105294" data-name="Trazado 105294" d="M389.082,279.179a1,1,0,0,1-.9,0,.275.275,0,0,1,0-.521,1,1,0,0,1,.9,0A.274.274,0,0,1,389.082,279.179Z" transform="translate(-355.433 -259.749)" fill="#2c323d"/>
                </g>
              </g>
              <g id="Grupo_58531" data-name="Grupo 58531" transform="translate(35.48 9.955)">
                <g id="Grupo_58529" data-name="Grupo 58529" transform="translate(3.321 0)">
                  <path id="Trazado_105295" data-name="Trazado 105295" d="M374.9,272.155a.992.992,0,0,1-.9,0,.274.274,0,0,1,0-.521.992.992,0,0,1,.9,0A.275.275,0,0,1,374.9,272.155Z" transform="translate(-373.811 -271.526)" fill="#2c323d"/>
                  <path id="Trazado_105296" data-name="Trazado 105296" d="M376.159,272.883a1,1,0,0,1-.9,0,.274.274,0,0,1,0-.521.992.992,0,0,1,.9,0,.275.275,0,0,1,0,.52Z" transform="translate(-372.094 -270.535)" fill="#2c323d"/>
                  <path id="Trazado_105297" data-name="Trazado 105297" d="M377.416,273.609a1,1,0,0,1-.9,0,.275.275,0,0,1,0-.521.992.992,0,0,1,.9,0,.275.275,0,0,1,0,.52Z" transform="translate(-370.376 -269.543)" fill="#2c323d"/>
                  <path id="Trazado_105298" data-name="Trazado 105298" d="M378.673,274.335a1,1,0,0,1-.9,0,.275.275,0,0,1,0-.52,1,1,0,0,1,.9,0,.274.274,0,0,1,0,.52Z" transform="translate(-368.659 -268.551)" fill="#2c323d"/>
                  <path id="Trazado_105299" data-name="Trazado 105299" d="M379.931,275.06a.992.992,0,0,1-.9,0,.275.275,0,0,1,0-.52,1,1,0,0,1,.9,0,.274.274,0,0,1,0,.52Z" transform="translate(-366.941 -267.56)" fill="#2c323d"/>
                  <path id="Trazado_105300" data-name="Trazado 105300" d="M381.19,275.786a1,1,0,0,1-.9,0,.274.274,0,0,1,0-.521.992.992,0,0,1,.9,0A.275.275,0,0,1,381.19,275.786Z" transform="translate(-365.224 -266.568)" fill="#2c323d"/>
                  <path id="Trazado_105301" data-name="Trazado 105301" d="M382.448,276.512a.992.992,0,0,1-.9,0,.274.274,0,0,1,0-.52,1,1,0,0,1,.9,0A.275.275,0,0,1,382.448,276.512Z" transform="translate(-363.505 -265.576)" fill="#2c323d"/>
                  <path id="Trazado_105302" data-name="Trazado 105302" d="M383.707,277.24a1,1,0,0,1-.9,0,.274.274,0,0,1,0-.52.992.992,0,0,1,.9,0,.275.275,0,0,1,0,.52Z" transform="translate(-361.788 -264.585)" fill="#2c323d"/>
                  <path id="Trazado_105303" data-name="Trazado 105303" d="M384.962,277.966a1,1,0,0,1-.9,0,.275.275,0,0,1,0-.52,1,1,0,0,1,.9,0,.274.274,0,0,1,0,.52Z" transform="translate(-360.071 -263.593)" fill="#2c323d"/>
                  <path id="Trazado_105304" data-name="Trazado 105304" d="M386.22,278.692a.992.992,0,0,1-.9,0,.275.275,0,0,1,0-.52,1,1,0,0,1,.9,0,.275.275,0,0,1,0,.52Z" transform="translate(-358.353 -262.601)" fill="#2c323d"/>
                  <path id="Trazado_105305" data-name="Trazado 105305" d="M387.479,279.418a.992.992,0,0,1-.9,0,.274.274,0,0,1,0-.521,1,1,0,0,1,.9,0A.275.275,0,0,1,387.479,279.418Z" transform="translate(-356.635 -261.61)" fill="#2c323d"/>
                </g>
                <g id="Grupo_58530" data-name="Grupo 58530" transform="translate(0 0.3)">
                  <path id="Trazado_105306" data-name="Trazado 105306" d="M373.5,272.283a1,1,0,0,1-.9,0,.274.274,0,0,1,0-.521.992.992,0,0,1,.9,0,.275.275,0,0,1,0,.52Z" transform="translate(-372.408 -271.654)" fill="#2c323d"/>
                  <path id="Trazado_105307" data-name="Trazado 105307" d="M374.748,273a1,1,0,0,1-.9,0,.274.274,0,0,1,0-.52,1,1,0,0,1,.9,0,.275.275,0,0,1,0,.52Z" transform="translate(-370.7 -270.667)" fill="#2c323d"/>
                  <path id="Trazado_105308" data-name="Trazado 105308" d="M376,273.726a.992.992,0,0,1-.9,0,.274.274,0,0,1,0-.52.992.992,0,0,1,.9,0,.274.274,0,0,1,0,.52Z" transform="translate(-368.99 -269.681)" fill="#2c323d"/>
                  <path id="Trazado_105309" data-name="Trazado 105309" d="M377.249,274.449a1,1,0,0,1-.9,0,.275.275,0,0,1,0-.521,1,1,0,0,1,.9,0,.274.274,0,0,1,0,.52Z" transform="translate(-367.282 -268.695)" fill="#2c323d"/>
                  <path id="Trazado_105310" data-name="Trazado 105310" d="M378.5,275.172a.992.992,0,0,1-.9,0,.275.275,0,0,1,0-.521,1,1,0,0,1,.9,0C378.747,274.8,378.75,275.029,378.5,275.172Z" transform="translate(-365.573 -267.708)" fill="#2c323d"/>
                  <path id="Trazado_105311" data-name="Trazado 105311" d="M379.753,275.9a1,1,0,0,1-.9,0,.274.274,0,0,1,0-.52.992.992,0,0,1,.9,0,.275.275,0,0,1,0,.52Z" transform="translate(-363.865 -266.722)" fill="#2c323d"/>
                  <path id="Trazado_105312" data-name="Trazado 105312" d="M381,276.616a1,1,0,0,1-.9,0,.275.275,0,0,1,0-.52,1,1,0,0,1,.9,0,.275.275,0,0,1,0,.52Z" transform="translate(-362.156 -265.735)" fill="#2c323d"/>
                  <path id="Trazado_105313" data-name="Trazado 105313" d="M382.254,277.338a.992.992,0,0,1-.9,0,.275.275,0,0,1,0-.52.992.992,0,0,1,.9,0,.274.274,0,0,1,0,.52Z" transform="translate(-360.447 -264.749)" fill="#2c323d"/>
                  <path id="Trazado_105314" data-name="Trazado 105314" d="M383.506,278.062a1,1,0,0,1-.9,0,.275.275,0,0,1,0-.521.992.992,0,0,1,.9,0,.275.275,0,0,1,0,.52Z" transform="translate(-358.738 -263.762)" fill="#2c323d"/>
                  <path id="Trazado_105315" data-name="Trazado 105315" d="M384.758,278.784a.992.992,0,0,1-.9,0,.274.274,0,0,1,0-.52,1,1,0,0,1,.9,0A.275.275,0,0,1,384.758,278.784Z" transform="translate(-357.031 -262.776)" fill="#2c323d"/>
                  <path id="Trazado_105316" data-name="Trazado 105316" d="M386.009,279.5a.992.992,0,0,1-.9,0,.274.274,0,0,1,0-.52.992.992,0,0,1,.9,0,.273.273,0,0,1,0,.52Z" transform="translate(-355.322 -261.788)" fill="#2c323d"/>
                  <path id="Trazado_105317" data-name="Trazado 105317" d="M387.259,280.229a1,1,0,0,1-.9,0,.275.275,0,0,1,0-.521,1,1,0,0,1,.9,0,.274.274,0,0,1,0,.52Z" transform="translate(-353.613 -260.803)" fill="#2c323d"/>
                </g>
              </g>
              <g id="Grupo_58534" data-name="Grupo 58534" transform="translate(31.168 12.443)">
                <g id="Grupo_58532" data-name="Grupo 58532" transform="translate(3.322 0)">
                  <path id="Trazado_105318" data-name="Trazado 105318" d="M373.078,273.205a.992.992,0,0,1-.9,0,.275.275,0,0,1,0-.521.992.992,0,0,1,.9,0C373.324,272.829,373.327,273.064,373.078,273.205Z" transform="translate(-371.988 -272.576)" fill="#2c323d"/>
                  <path id="Trazado_105319" data-name="Trazado 105319" d="M374.335,273.935a1,1,0,0,1-.9,0,.275.275,0,0,1,0-.521.992.992,0,0,1,.9,0,.274.274,0,0,1,0,.52Z" transform="translate(-370.272 -271.586)" fill="#2c323d"/>
                  <path id="Trazado_105320" data-name="Trazado 105320" d="M375.593,274.66a1,1,0,0,1-.9,0,.275.275,0,0,1,0-.521,1,1,0,0,1,.9,0,.274.274,0,0,1,0,.52Z" transform="translate(-368.554 -270.594)" fill="#2c323d"/>
                  <path id="Trazado_105321" data-name="Trazado 105321" d="M376.852,275.387a.992.992,0,0,1-.9,0,.274.274,0,0,1,0-.52,1,1,0,0,1,.9,0,.275.275,0,0,1,0,.52Z" transform="translate(-366.837 -269.602)" fill="#2c323d"/>
                  <path id="Trazado_105322" data-name="Trazado 105322" d="M378.11,276.112a1,1,0,0,1-.9,0,.274.274,0,0,1,0-.52.992.992,0,0,1,.9,0A.275.275,0,0,1,378.11,276.112Z" transform="translate(-365.119 -268.61)" fill="#2c323d"/>
                  <path id="Trazado_105323" data-name="Trazado 105323" d="M379.367,276.838a.992.992,0,0,1-.9,0c-.251-.144-.253-.378,0-.52a.992.992,0,0,1,.9,0,.275.275,0,0,1,0,.52Z" transform="translate(-363.4 -267.619)" fill="#2c323d"/>
                  <path id="Trazado_105324" data-name="Trazado 105324" d="M380.624,277.566a1,1,0,0,1-.9,0,.274.274,0,0,1,0-.521.992.992,0,0,1,.9,0,.274.274,0,0,1,0,.52Z" transform="translate(-361.683 -266.627)" fill="#2c323d"/>
                  <path id="Trazado_105325" data-name="Trazado 105325" d="M381.882,278.292a1,1,0,0,1-.9,0,.275.275,0,0,1,0-.52,1,1,0,0,1,.9,0,.275.275,0,0,1,0,.52Z" transform="translate(-359.966 -265.636)" fill="#2c323d"/>
                  <path id="Trazado_105326" data-name="Trazado 105326" d="M383.143,279.018a1,1,0,0,1-.9,0,.274.274,0,0,1,0-.521,1,1,0,0,1,.9,0,.275.275,0,0,1,0,.52Z" transform="translate(-358.249 -264.644)" fill="#2c323d"/>
                  <path id="Trazado_105327" data-name="Trazado 105327" d="M384.4,279.744a.992.992,0,0,1-.9,0,.275.275,0,0,1,0-.52,1,1,0,0,1,.9,0C384.644,279.37,384.647,279.6,384.4,279.744Z" transform="translate(-356.53 -263.653)" fill="#2c323d"/>
                  <path id="Trazado_105328" data-name="Trazado 105328" d="M385.655,280.469a.992.992,0,0,1-.9,0,.275.275,0,0,1,0-.521.992.992,0,0,1,.9,0,.274.274,0,0,1,0,.52Z" transform="translate(-354.813 -262.661)" fill="#2c323d"/>
                </g>
                <g id="Grupo_58533" data-name="Grupo 58533" transform="translate(0 0.301)">
                  <path id="Trazado_105329" data-name="Trazado 105329" d="M371.673,273.335a1,1,0,0,1-.9,0,.275.275,0,0,1,0-.52.992.992,0,0,1,.9,0,.274.274,0,0,1,0,.52Z" transform="translate(-370.586 -272.706)" fill="#2c323d"/>
                  <path id="Trazado_105330" data-name="Trazado 105330" d="M372.925,274.057a.992.992,0,0,1-.9,0,.275.275,0,0,1,0-.521,1,1,0,0,1,.9,0C373.171,273.68,373.174,273.915,372.925,274.057Z" transform="translate(-368.876 -271.719)" fill="#2c323d"/>
                  <path id="Trazado_105331" data-name="Trazado 105331" d="M374.177,274.778a.992.992,0,0,1-.9,0,.274.274,0,0,1,0-.521.992.992,0,0,1,.9,0,.273.273,0,0,1,0,.52Z" transform="translate(-367.168 -270.732)" fill="#2c323d"/>
                  <path id="Trazado_105332" data-name="Trazado 105332" d="M375.427,275.5a1,1,0,0,1-.9,0,.275.275,0,0,1,0-.52,1,1,0,0,1,.9,0,.275.275,0,0,1,0,.52Z" transform="translate(-365.459 -269.746)" fill="#2c323d"/>
                  <path id="Trazado_105333" data-name="Trazado 105333" d="M376.678,276.223a.992.992,0,0,1-.9,0,.274.274,0,0,1,0-.52.992.992,0,0,1,.9,0,.274.274,0,0,1,0,.52Z" transform="translate(-363.751 -268.76)" fill="#2c323d"/>
                  <path id="Trazado_105334" data-name="Trazado 105334" d="M377.93,276.947a1,1,0,0,1-.9,0c-.251-.144-.253-.376,0-.521a.992.992,0,0,1,.9,0,.275.275,0,0,1,0,.52Z" transform="translate(-362.042 -267.774)" fill="#2c323d"/>
                  <path id="Trazado_105335" data-name="Trazado 105335" d="M379.182,277.668a.992.992,0,0,1-.9,0,.274.274,0,0,1,0-.52,1,1,0,0,1,.9,0A.275.275,0,0,1,379.182,277.668Z" transform="translate(-360.333 -266.787)" fill="#2c323d"/>
                  <path id="Trazado_105336" data-name="Trazado 105336" d="M380.433,278.39a.992.992,0,0,1-.9,0,.274.274,0,0,1,0-.521,1,1,0,0,1,.9,0A.275.275,0,0,1,380.433,278.39Z" transform="translate(-358.625 -265.8)" fill="#2c323d"/>
                  <path id="Trazado_105337" data-name="Trazado 105337" d="M381.683,279.114a1,1,0,0,1-.9,0,.275.275,0,0,1,0-.521,1,1,0,0,1,.9,0,.274.274,0,0,1,0,.52Z" transform="translate(-356.916 -264.814)" fill="#2c323d"/>
                  <path id="Trazado_105338" data-name="Trazado 105338" d="M382.934,279.835a1,1,0,0,1-.9,0,.274.274,0,0,1,0-.52.992.992,0,0,1,.9,0,.274.274,0,0,1,0,.52Z" transform="translate(-355.207 -263.827)" fill="#2c323d"/>
                  <path id="Trazado_105339" data-name="Trazado 105339" d="M384.186,280.559a1,1,0,0,1-.9,0,.275.275,0,0,1,0-.52.992.992,0,0,1,.9,0C384.432,280.183,384.435,280.415,384.186,280.559Z" transform="translate(-353.498 -262.841)" fill="#2c323d"/>
                  <path id="Trazado_105340" data-name="Trazado 105340" d="M385.438,281.279a.992.992,0,0,1-.9,0,.274.274,0,0,1,0-.52,1,1,0,0,1,.9,0,.275.275,0,0,1,0,.52Z" transform="translate(-351.79 -261.854)" fill="#2c323d"/>
                </g>
              </g>
              <g id="Grupo_58537" data-name="Grupo 58537" transform="translate(26.857 14.934)">
                <g id="Grupo_58535" data-name="Grupo 58535" transform="translate(3.322 0)">
                  <path id="Trazado_105341" data-name="Trazado 105341" d="M371.255,274.261a1,1,0,0,1-.9,0,.275.275,0,0,1,0-.52.992.992,0,0,1,.9,0,.274.274,0,0,1,0,.52Z" transform="translate(-370.168 -273.632)" fill="#2c323d"/>
                  <path id="Trazado_105342" data-name="Trazado 105342" d="M372.514,274.987a1,1,0,0,1-.9,0,.274.274,0,0,1,0-.521,1,1,0,0,1,.9,0,.275.275,0,0,1,0,.52Z" transform="translate(-368.45 -272.64)" fill="#2c323d"/>
                  <path id="Trazado_105343" data-name="Trazado 105343" d="M373.772,275.713a.992.992,0,0,1-.9,0,.274.274,0,0,1,0-.521,1,1,0,0,1,.9,0,.275.275,0,0,1,0,.52Z" transform="translate(-366.732 -271.649)" fill="#2c323d"/>
                  <path id="Trazado_105344" data-name="Trazado 105344" d="M375.029,276.439a.992.992,0,0,1-.9,0,.273.273,0,0,1,0-.518.992.992,0,0,1,.9,0,.275.275,0,0,1,0,.518Z" transform="translate(-365.014 -270.658)" fill="#2c323d"/>
                  <path id="Trazado_105345" data-name="Trazado 105345" d="M376.286,277.164a.992.992,0,0,1-.9,0,.274.274,0,0,1,0-.52.992.992,0,0,1,.9,0,.274.274,0,0,1,0,.52Z" transform="translate(-363.297 -269.665)" fill="#2c323d"/>
                  <path id="Trazado_105346" data-name="Trazado 105346" d="M377.543,277.892a1,1,0,0,1-.9,0,.274.274,0,0,1,0-.52.992.992,0,0,1,.9,0,.274.274,0,0,1,0,.52Z" transform="translate(-361.579 -268.673)" fill="#2c323d"/>
                  <path id="Trazado_105347" data-name="Trazado 105347" d="M378.8,278.618a1,1,0,0,1-.9,0,.274.274,0,0,1,0-.521,1,1,0,0,1,.9,0,.275.275,0,0,1,0,.52Z" transform="translate(-359.862 -267.681)" fill="#2c323d"/>
                  <path id="Trazado_105348" data-name="Trazado 105348" d="M380.061,279.344a1,1,0,0,1-.9,0,.274.274,0,0,1,0-.52,1,1,0,0,1,.9,0,.275.275,0,0,1,0,.52Z" transform="translate(-358.144 -266.691)" fill="#2c323d"/>
                  <path id="Trazado_105349" data-name="Trazado 105349" d="M381.317,280.069a.992.992,0,0,1-.9,0,.275.275,0,0,1,0-.521,1,1,0,0,1,.9,0,.274.274,0,0,1,0,.52Z" transform="translate(-356.427 -265.699)" fill="#2c323d"/>
                  <path id="Trazado_105350" data-name="Trazado 105350" d="M382.575,280.8a.992.992,0,0,1-.9,0,.274.274,0,0,1,0-.52.992.992,0,0,1,.9,0,.274.274,0,0,1,0,.52Z" transform="translate(-354.709 -264.707)" fill="#2c323d"/>
                  <path id="Trazado_105351" data-name="Trazado 105351" d="M383.833,281.521a.992.992,0,0,1-.9,0,.274.274,0,0,1,0-.521,1,1,0,0,1,.9,0A.275.275,0,0,1,383.833,281.521Z" transform="translate(-352.991 -263.715)" fill="#2c323d"/>
                </g>
                <g id="Grupo_58536" data-name="Grupo 58536" transform="translate(0 0.299)">
                  <path id="Trazado_105352" data-name="Trazado 105352" d="M369.852,274.387a1,1,0,0,1-.9,0,.274.274,0,0,1,0-.521,1,1,0,0,1,.9,0,.275.275,0,0,1,0,.521Z" transform="translate(-368.763 -273.759)" fill="#2c323d"/>
                  <path id="Trazado_105353" data-name="Trazado 105353" d="M371.1,275.108a1,1,0,0,1-.9,0,.274.274,0,0,1,0-.52.992.992,0,0,1,.9,0,.274.274,0,0,1,0,.52Z" transform="translate(-367.054 -272.772)" fill="#2c323d"/>
                  <path id="Trazado_105354" data-name="Trazado 105354" d="M372.353,275.832a1,1,0,0,1-.9,0,.275.275,0,0,1,0-.521.992.992,0,0,1,.9,0,.274.274,0,0,1,0,.52Z" transform="translate(-365.346 -271.786)" fill="#2c323d"/>
                  <path id="Trazado_105355" data-name="Trazado 105355" d="M373.605,276.554a.992.992,0,0,1-.9,0,.275.275,0,0,1,0-.521,1,1,0,0,1,.9,0C373.851,276.177,373.854,276.409,373.605,276.554Z" transform="translate(-363.636 -270.799)" fill="#2c323d"/>
                  <path id="Trazado_105356" data-name="Trazado 105356" d="M374.857,277.279a.992.992,0,0,1-.9,0,.274.274,0,0,1,0-.52,1,1,0,0,1,.9,0A.275.275,0,0,1,374.857,277.279Z" transform="translate(-361.928 -269.814)" fill="#2c323d"/>
                  <path id="Trazado_105357" data-name="Trazado 105357" d="M376.107,278a1,1,0,0,1-.9,0,.275.275,0,0,1,0-.521,1,1,0,0,1,.9,0,.275.275,0,0,1,0,.52Z" transform="translate(-360.219 -268.827)" fill="#2c323d"/>
                  <path id="Trazado_105358" data-name="Trazado 105358" d="M377.358,278.72a1,1,0,0,1-.9,0,.274.274,0,0,1,0-.521.992.992,0,0,1,.9,0,.274.274,0,0,1,0,.52Z" transform="translate(-358.511 -267.84)" fill="#2c323d"/>
                  <path id="Trazado_105359" data-name="Trazado 105359" d="M378.61,279.444a1,1,0,0,1-.9,0,.275.275,0,0,1,0-.521.992.992,0,0,1,.9,0,.275.275,0,0,1,0,.52Z" transform="translate(-356.802 -266.853)" fill="#2c323d"/>
                  <path id="Trazado_105360" data-name="Trazado 105360" d="M379.862,280.166a.992.992,0,0,1-.9,0,.274.274,0,0,1,0-.521,1,1,0,0,1,.9,0,.275.275,0,0,1,0,.52Z" transform="translate(-355.094 -265.867)" fill="#2c323d"/>
                  <path id="Trazado_105361" data-name="Trazado 105361" d="M381.113,280.887a.992.992,0,0,1-.9,0,.275.275,0,0,1,0-.521.992.992,0,0,1,.9,0A.275.275,0,0,1,381.113,280.887Z" transform="translate(-353.385 -264.881)" fill="#2c323d"/>
                  <path id="Trazado_105362" data-name="Trazado 105362" d="M382.363,281.611a1,1,0,0,1-.9,0,.275.275,0,0,1,0-.521,1,1,0,0,1,.9,0,.274.274,0,0,1,0,.52Z" transform="translate(-351.677 -263.894)" fill="#2c323d"/>
                  <path id="Trazado_105363" data-name="Trazado 105363" d="M383.614,282.332a1,1,0,0,1-.9,0,.274.274,0,0,1,0-.521.992.992,0,0,1,.9,0,.274.274,0,0,1,0,.52Z" transform="translate(-349.967 -262.907)" fill="#2c323d"/>
                </g>
              </g>
              <g id="Grupo_58540" data-name="Grupo 58540" transform="translate(22.546 17.424)">
                <g id="Grupo_58538" data-name="Grupo 58538" transform="translate(3.322 0)">
                  <path id="Trazado_105364" data-name="Trazado 105364" d="M369.434,275.313a1,1,0,0,1-.9,0,.274.274,0,0,1,0-.521,1,1,0,0,1,.9,0,.275.275,0,0,1,0,.521Z" transform="translate(-368.345 -274.685)" fill="#2c323d"/>
                  <path id="Trazado_105365" data-name="Trazado 105365" d="M370.691,276.039a.992.992,0,0,1-.9,0,.275.275,0,0,1,0-.52,1,1,0,0,1,.9,0C370.937,275.662,370.94,275.894,370.691,276.039Z" transform="translate(-366.627 -273.693)" fill="#2c323d"/>
                  <path id="Trazado_105366" data-name="Trazado 105366" d="M371.943,276.765a.992.992,0,0,1-.9,0,.273.273,0,0,1,0-.518.992.992,0,0,1,.9,0,.274.274,0,0,1,0,.518Z" transform="translate(-364.908 -272.702)" fill="#2c323d"/>
                  <path id="Trazado_105367" data-name="Trazado 105367" d="M373.206,277.49a.992.992,0,0,1-.9,0,.274.274,0,0,1,0-.52.992.992,0,0,1,.9,0,.274.274,0,0,1,0,.52Z" transform="translate(-363.192 -271.71)" fill="#2c323d"/>
                  <path id="Trazado_105368" data-name="Trazado 105368" d="M374.465,278.218a1,1,0,0,1-.9,0,.274.274,0,0,1,0-.52.992.992,0,0,1,.9,0,.275.275,0,0,1,0,.52Z" transform="translate(-361.475 -270.718)" fill="#2c323d"/>
                  <path id="Trazado_105369" data-name="Trazado 105369" d="M375.723,278.944a1,1,0,0,1-.9,0,.274.274,0,0,1,0-.521.992.992,0,0,1,.9,0,.275.275,0,0,1,0,.52Z" transform="translate(-359.757 -269.727)" fill="#2c323d"/>
                  <path id="Trazado_105370" data-name="Trazado 105370" d="M376.98,279.669a1,1,0,0,1-.9,0c-.251-.144-.253-.376,0-.521a1,1,0,0,1,.9,0,.275.275,0,0,1,0,.521Z" transform="translate(-358.039 -268.735)" fill="#2c323d"/>
                  <path id="Trazado_105371" data-name="Trazado 105371" d="M378.237,280.4a.992.992,0,0,1-.9,0,.275.275,0,0,1,0-.521,1,1,0,0,1,.9,0,.274.274,0,0,1,0,.521Z" transform="translate(-356.322 -267.743)" fill="#2c323d"/>
                  <path id="Trazado_105372" data-name="Trazado 105372" d="M379.495,281.121a1,1,0,0,1-.9,0,.275.275,0,0,1,0-.52.992.992,0,0,1,.9,0A.275.275,0,0,1,379.495,281.121Z" transform="translate(-354.604 -266.751)" fill="#2c323d"/>
                  <path id="Trazado_105373" data-name="Trazado 105373" d="M380.754,281.846a.992.992,0,0,1-.9,0,.274.274,0,0,1,0-.52,1,1,0,0,1,.9,0A.275.275,0,0,1,380.754,281.846Z" transform="translate(-352.886 -265.759)" fill="#2c323d"/>
                  <path id="Trazado_105374" data-name="Trazado 105374" d="M382.011,282.578a1,1,0,0,1-.9,0,.275.275,0,0,1,0-.521.992.992,0,0,1,.9,0A.274.274,0,0,1,382.011,282.578Z" transform="translate(-351.168 -264.769)" fill="#2c323d"/>
                </g>
                <g id="Grupo_58539" data-name="Grupo 58539" transform="translate(0 0.298)">
                  <path id="Trazado_105375" data-name="Trazado 105375" d="M368.029,275.439a.992.992,0,0,1-.9,0,.275.275,0,0,1,0-.52,1,1,0,0,1,.9,0C368.275,275.062,368.278,275.294,368.029,275.439Z" transform="translate(-366.939 -274.811)" fill="#2c323d"/>
                  <path id="Trazado_105376" data-name="Trazado 105376" d="M369.281,276.16a.992.992,0,0,1-.9,0,.274.274,0,0,1,0-.52.992.992,0,0,1,.9,0A.275.275,0,0,1,369.281,276.16Z" transform="translate(-365.231 -273.824)" fill="#2c323d"/>
                  <path id="Trazado_105377" data-name="Trazado 105377" d="M370.531,276.884a1,1,0,0,1-.9,0,.275.275,0,0,1,0-.521,1,1,0,0,1,.9,0,.275.275,0,0,1,0,.521Z" transform="translate(-363.523 -272.838)" fill="#2c323d"/>
                  <path id="Trazado_105378" data-name="Trazado 105378" d="M371.782,277.605a1,1,0,0,1-.9,0,.274.274,0,0,1,0-.52.992.992,0,0,1,.9,0,.274.274,0,0,1,0,.521Z" transform="translate(-361.814 -271.851)" fill="#2c323d"/>
                  <path id="Trazado_105379" data-name="Trazado 105379" d="M373.034,278.329a1,1,0,0,1-.9,0c-.251-.144-.253-.378,0-.52a.992.992,0,0,1,.9,0,.275.275,0,0,1,0,.52Z" transform="translate(-360.105 -270.865)" fill="#2c323d"/>
                  <path id="Trazado_105380" data-name="Trazado 105380" d="M374.286,279.051a.992.992,0,0,1-.9,0,.274.274,0,0,1,0-.52,1,1,0,0,1,.9,0,.275.275,0,0,1,0,.52Z" transform="translate(-358.397 -269.878)" fill="#2c323d"/>
                  <path id="Trazado_105381" data-name="Trazado 105381" d="M375.536,279.772a.992.992,0,0,1-.9,0,.274.274,0,0,1,0-.521.992.992,0,0,1,.9,0A.275.275,0,0,1,375.536,279.772Z" transform="translate(-356.688 -268.892)" fill="#2c323d"/>
                  <path id="Trazado_105382" data-name="Trazado 105382" d="M376.787,280.5a1,1,0,0,1-.9,0,.275.275,0,0,1,0-.52,1,1,0,0,1,.9,0,.274.274,0,0,1,0,.52Z" transform="translate(-354.98 -267.905)" fill="#2c323d"/>
                  <path id="Trazado_105383" data-name="Trazado 105383" d="M378.043,281.218a.992.992,0,0,1-.9,0,.273.273,0,0,1,0-.518.992.992,0,0,1,.9,0,.274.274,0,0,1,0,.518Z" transform="translate(-353.273 -266.92)" fill="#2c323d"/>
                  <path id="Trazado_105384" data-name="Trazado 105384" d="M379.29,281.941a1,1,0,0,1-.9,0,.275.275,0,0,1,0-.521.992.992,0,0,1,.9,0C379.536,281.565,379.539,281.8,379.29,281.941Z" transform="translate(-351.562 -265.932)" fill="#2c323d"/>
                  <path id="Trazado_105385" data-name="Trazado 105385" d="M380.543,282.663a.992.992,0,0,1-.9,0,.274.274,0,0,1,0-.52,1,1,0,0,1,.9,0,.275.275,0,0,1,0,.52Z" transform="translate(-349.854 -264.946)" fill="#2c323d"/>
                  <path id="Trazado_105386" data-name="Trazado 105386" d="M381.792,283.384a.992.992,0,0,1-.9,0,.274.274,0,0,1,0-.52.992.992,0,0,1,.9,0A.275.275,0,0,1,381.792,283.384Z" transform="translate(-348.145 -263.959)" fill="#2c323d"/>
                </g>
              </g>
              <g id="Grupo_58543" data-name="Grupo 58543" transform="translate(18.235 19.913)">
                <g id="Grupo_58541" data-name="Grupo 58541" transform="translate(3.321 0)">
                  <path id="Trazado_105387" data-name="Trazado 105387" d="M367.61,276.365a.992.992,0,0,1-.9,0,.275.275,0,0,1,0-.521,1,1,0,0,1,.9,0,.274.274,0,0,1,0,.521Z" transform="translate(-366.523 -275.737)" fill="#2c323d"/>
                  <path id="Trazado_105388" data-name="Trazado 105388" d="M368.868,277.091a.992.992,0,0,1-.9,0,.275.275,0,0,1,0-.521,1,1,0,0,1,.9,0,.274.274,0,0,1,0,.52Z" transform="translate(-364.805 -274.745)" fill="#2c323d"/>
                  <path id="Trazado_105389" data-name="Trazado 105389" d="M370.127,277.816a.992.992,0,0,1-.9,0,.274.274,0,0,1,0-.52.992.992,0,0,1,.9,0A.275.275,0,0,1,370.127,277.816Z" transform="translate(-363.087 -273.753)" fill="#2c323d"/>
                  <path id="Trazado_105390" data-name="Trazado 105390" d="M371.385,278.544a1,1,0,0,1-.9,0,.274.274,0,0,1,0-.521.992.992,0,0,1,.9,0,.275.275,0,0,1,0,.52Z" transform="translate(-361.37 -272.762)" fill="#2c323d"/>
                  <path id="Trazado_105391" data-name="Trazado 105391" d="M372.642,279.27a1,1,0,0,1-.9,0,.275.275,0,0,1,0-.521.992.992,0,0,1,.9,0,.275.275,0,0,1,0,.52Z" transform="translate(-359.651 -271.77)" fill="#2c323d"/>
                  <path id="Trazado_105392" data-name="Trazado 105392" d="M373.9,280a1,1,0,0,1-.9,0,.275.275,0,0,1,0-.521,1,1,0,0,1,.9,0,.274.274,0,0,1,0,.521Z" transform="translate(-357.935 -270.779)" fill="#2c323d"/>
                  <path id="Trazado_105393" data-name="Trazado 105393" d="M375.157,280.721a.992.992,0,0,1-.9,0,.275.275,0,0,1,0-.521,1,1,0,0,1,.9,0,.274.274,0,0,1,0,.52Z" transform="translate(-356.217 -269.787)" fill="#2c323d"/>
                  <path id="Trazado_105394" data-name="Trazado 105394" d="M376.416,281.447a1,1,0,0,1-.9,0,.274.274,0,0,1,0-.521.992.992,0,0,1,.9,0,.275.275,0,0,1,0,.52Z" transform="translate(-354.499 -268.795)" fill="#2c323d"/>
                  <path id="Trazado_105395" data-name="Trazado 105395" d="M377.674,282.173a.992.992,0,0,1-.9,0,.274.274,0,0,1,0-.52.992.992,0,0,1,.9,0A.276.276,0,0,1,377.674,282.173Z" transform="translate(-352.781 -267.803)" fill="#2c323d"/>
                  <path id="Trazado_105396" data-name="Trazado 105396" d="M378.93,282.9a1,1,0,0,1-.9,0,.274.274,0,0,1,0-.52.992.992,0,0,1,.9,0,.274.274,0,0,1,0,.52Z" transform="translate(-351.064 -266.812)" fill="#2c323d"/>
                  <path id="Trazado_105397" data-name="Trazado 105397" d="M380.188,283.626a1,1,0,0,1-.9,0,.275.275,0,0,1,0-.52,1,1,0,0,1,.9,0,.274.274,0,0,1,0,.52Z" transform="translate(-349.346 -265.82)" fill="#2c323d"/>
                </g>
                <g id="Grupo_58542" data-name="Grupo 58542" transform="translate(0 0.298)">
                  <path id="Trazado_105398" data-name="Trazado 105398" d="M366.206,276.491a.992.992,0,0,1-.9,0,.275.275,0,0,1,0-.521,1,1,0,0,1,.9,0,.274.274,0,0,1,0,.52Z" transform="translate(-365.119 -275.863)" fill="#2c323d"/>
                  <path id="Trazado_105399" data-name="Trazado 105399" d="M367.457,277.214a1,1,0,0,1-.9,0,.274.274,0,0,1,0-.521.992.992,0,0,1,.9,0,.274.274,0,0,1,0,.52Z" transform="translate(-363.41 -274.876)" fill="#2c323d"/>
                  <path id="Trazado_105400" data-name="Trazado 105400" d="M368.709,277.936a.992.992,0,0,1-.9,0,.275.275,0,0,1,0-.521,1,1,0,0,1,.9,0C368.955,277.559,368.958,277.791,368.709,277.936Z" transform="translate(-361.701 -273.89)" fill="#2c323d"/>
                  <path id="Trazado_105401" data-name="Trazado 105401" d="M369.961,278.657a.992.992,0,0,1-.9,0,.274.274,0,0,1,0-.52.992.992,0,0,1,.9,0A.275.275,0,0,1,369.961,278.657Z" transform="translate(-359.993 -272.903)" fill="#2c323d"/>
                  <path id="Trazado_105402" data-name="Trazado 105402" d="M371.211,279.378a1,1,0,0,1-.9,0,.275.275,0,0,1,0-.52,1,1,0,0,1,.9,0,.275.275,0,0,1,0,.52Z" transform="translate(-358.284 -271.916)" fill="#2c323d"/>
                  <path id="Trazado_105403" data-name="Trazado 105403" d="M372.462,280.1a.992.992,0,0,1-.9,0,.275.275,0,0,1,0-.52,1,1,0,0,1,.9,0,.274.274,0,0,1,0,.52Z" transform="translate(-356.576 -270.93)" fill="#2c323d"/>
                  <path id="Trazado_105404" data-name="Trazado 105404" d="M373.714,280.826a1,1,0,0,1-.9,0c-.251-.144-.253-.378,0-.52a.992.992,0,0,1,.9,0,.275.275,0,0,1,0,.52Z" transform="translate(-354.866 -269.944)" fill="#2c323d"/>
                  <path id="Trazado_105405" data-name="Trazado 105405" d="M374.966,281.548a1,1,0,0,1-.9,0,.274.274,0,0,1,0-.521,1,1,0,0,1,.9,0,.275.275,0,0,1,0,.521Z" transform="translate(-353.158 -268.957)" fill="#2c323d"/>
                  <path id="Trazado_105406" data-name="Trazado 105406" d="M376.217,282.269a.992.992,0,0,1-.9,0,.274.274,0,0,1,0-.521.992.992,0,0,1,.9,0A.275.275,0,0,1,376.217,282.269Z" transform="translate(-351.45 -267.97)" fill="#2c323d"/>
                  <path id="Trazado_105407" data-name="Trazado 105407" d="M377.467,282.993a1,1,0,0,1-.9,0,.275.275,0,0,1,0-.52.992.992,0,0,1,.9,0,.274.274,0,0,1,0,.52Z" transform="translate(-349.741 -266.985)" fill="#2c323d"/>
                  <path id="Trazado_105408" data-name="Trazado 105408" d="M378.718,283.715a.992.992,0,0,1-.9,0,.275.275,0,0,1,0-.521,1,1,0,0,1,.9,0,.274.274,0,0,1,0,.52Z" transform="translate(-348.033 -265.998)" fill="#2c323d"/>
                  <path id="Trazado_105409" data-name="Trazado 105409" d="M379.971,284.438a1,1,0,0,1-.9,0,.274.274,0,0,1,0-.52.992.992,0,0,1,.9,0,.275.275,0,0,1,0,.521Z" transform="translate(-346.323 -265.011)" fill="#2c323d"/>
                </g>
              </g>
              <g id="Grupo_58546" data-name="Grupo 58546" transform="translate(13.925 22.401)">
                <g id="Grupo_58544" data-name="Grupo 58544" transform="translate(3.322 0)">
                  <path id="Trazado_105410" data-name="Trazado 105410" d="M365.788,277.417a.992.992,0,0,1-.9,0,.275.275,0,0,1,0-.521,1,1,0,0,1,.9,0A.275.275,0,0,1,365.788,277.417Z" transform="translate(-364.701 -276.789)" fill="#2c323d"/>
                  <path id="Trazado_105411" data-name="Trazado 105411" d="M367.043,278.142a.992.992,0,0,1-.9,0,.274.274,0,0,1,0-.52.992.992,0,0,1,.9,0C367.291,277.769,367.294,278,367.043,278.142Z" transform="translate(-362.982 -275.797)" fill="#2c323d"/>
                  <path id="Trazado_105412" data-name="Trazado 105412" d="M368.3,278.867a.992.992,0,0,1-.9,0,.275.275,0,0,1,0-.521.992.992,0,0,1,.9,0C368.55,278.491,368.553,278.725,368.3,278.867Z" transform="translate(-361.265 -274.804)" fill="#2c323d"/>
                  <path id="Trazado_105413" data-name="Trazado 105413" d="M369.561,279.6a1,1,0,0,1-.9,0,.275.275,0,0,1,0-.521.992.992,0,0,1,.9,0,.274.274,0,0,1,0,.52Z" transform="translate(-359.548 -273.814)" fill="#2c323d"/>
                  <path id="Trazado_105414" data-name="Trazado 105414" d="M370.819,280.322a1,1,0,0,1-.9,0,.275.275,0,0,1,0-.52,1,1,0,0,1,.9,0,.274.274,0,0,1,0,.52Z" transform="translate(-357.831 -272.821)" fill="#2c323d"/>
                  <path id="Trazado_105415" data-name="Trazado 105415" d="M372.078,281.048a.992.992,0,0,1-.9,0,.274.274,0,0,1,0-.52,1,1,0,0,1,.9,0,.275.275,0,0,1,0,.521Z" transform="translate(-356.113 -271.831)" fill="#2c323d"/>
                  <path id="Trazado_105416" data-name="Trazado 105416" d="M373.336,281.773a1,1,0,0,1-.9,0,.274.274,0,0,1,0-.521.992.992,0,0,1,.9,0A.275.275,0,0,1,373.336,281.773Z" transform="translate(-354.395 -270.839)" fill="#2c323d"/>
                  <path id="Trazado_105417" data-name="Trazado 105417" d="M374.593,282.5a.992.992,0,0,1-.9,0c-.251-.144-.253-.378,0-.521a.992.992,0,0,1,.9,0,.275.275,0,0,1,0,.52Z" transform="translate(-352.677 -269.847)" fill="#2c323d"/>
                  <path id="Trazado_105418" data-name="Trazado 105418" d="M375.85,283.227a1,1,0,0,1-.9,0,.274.274,0,0,1,0-.52.992.992,0,0,1,.9,0,.274.274,0,0,1,0,.52Z" transform="translate(-350.959 -268.855)" fill="#2c323d"/>
                  <path id="Trazado_105419" data-name="Trazado 105419" d="M377.108,283.953a1,1,0,0,1-.9,0,.275.275,0,0,1,0-.52,1,1,0,0,1,.9,0,.275.275,0,0,1,0,.52Z" transform="translate(-349.243 -267.863)" fill="#2c323d"/>
                  <path id="Trazado_105420" data-name="Trazado 105420" d="M378.367,284.679a1,1,0,0,1-.9,0,.274.274,0,0,1,0-.521,1,1,0,0,1,.9,0,.275.275,0,0,1,0,.52Z" transform="translate(-347.525 -266.872)" fill="#2c323d"/>
                </g>
                <g id="Grupo_58545" data-name="Grupo 58545" transform="translate(0 0.297)">
                  <path id="Trazado_105421" data-name="Trazado 105421" d="M364.385,277.542a.992.992,0,0,1-.9,0,.274.274,0,0,1,0-.52.992.992,0,0,1,.9,0A.275.275,0,0,1,364.385,277.542Z" transform="translate(-363.296 -276.913)" fill="#2c323d"/>
                  <path id="Trazado_105422" data-name="Trazado 105422" d="M365.635,278.266a1,1,0,0,1-.9,0,.275.275,0,0,1,0-.521.992.992,0,0,1,.9,0,.275.275,0,0,1,0,.52Z" transform="translate(-361.588 -275.928)" fill="#2c323d"/>
                  <path id="Trazado_105423" data-name="Trazado 105423" d="M366.886,278.988a.992.992,0,0,1-.9,0,.275.275,0,0,1,0-.52,1,1,0,0,1,.9,0,.274.274,0,0,1,0,.52Z" transform="translate(-359.879 -274.941)" fill="#2c323d"/>
                  <path id="Trazado_105424" data-name="Trazado 105424" d="M368.141,279.711a1,1,0,0,1-.9,0c-.251-.144-.253-.378,0-.52a.992.992,0,0,1,.9,0,.275.275,0,0,1,0,.52Z" transform="translate(-358.171 -273.954)" fill="#2c323d"/>
                  <path id="Trazado_105425" data-name="Trazado 105425" d="M369.39,280.433a1,1,0,0,1-.9,0,.274.274,0,0,1,0-.52,1,1,0,0,1,.9,0,.275.275,0,0,1,0,.52Z" transform="translate(-356.461 -272.967)" fill="#2c323d"/>
                  <path id="Trazado_105426" data-name="Trazado 105426" d="M370.643,281.154a.992.992,0,0,1-.9,0,.274.274,0,0,1,0-.52.992.992,0,0,1,.9,0A.276.276,0,0,1,370.643,281.154Z" transform="translate(-354.754 -271.981)" fill="#2c323d"/>
                  <path id="Trazado_105427" data-name="Trazado 105427" d="M371.891,281.878a1,1,0,0,1-.9,0,.275.275,0,0,1,0-.521.992.992,0,0,1,.9,0,.274.274,0,0,1,0,.52Z" transform="translate(-353.044 -270.995)" fill="#2c323d"/>
                  <path id="Trazado_105428" data-name="Trazado 105428" d="M373.143,282.6a.992.992,0,0,1-.9,0,.275.275,0,0,1,0-.521,1,1,0,0,1,.9,0,.274.274,0,0,1,0,.52Z" transform="translate(-351.336 -270.008)" fill="#2c323d"/>
                  <path id="Trazado_105429" data-name="Trazado 105429" d="M374.394,283.32a.992.992,0,0,1-.9,0,.275.275,0,0,1,0-.52.992.992,0,0,1,.9,0C374.64,282.944,374.643,283.178,374.394,283.32Z" transform="translate(-349.626 -269.02)" fill="#2c323d"/>
                  <path id="Trazado_105430" data-name="Trazado 105430" d="M375.643,284.045a1,1,0,0,1-.9,0,.274.274,0,0,1,0-.521,1,1,0,0,1,.9,0,.275.275,0,0,1,0,.52Z" transform="translate(-347.918 -268.035)" fill="#2c323d"/>
                  <path id="Trazado_105431" data-name="Trazado 105431" d="M376.9,284.766a.992.992,0,0,1-.9,0,.274.274,0,0,1,0-.521.992.992,0,0,1,.9,0A.275.275,0,0,1,376.9,284.766Z" transform="translate(-346.209 -267.048)" fill="#2c323d"/>
                  <path id="Trazado_105432" data-name="Trazado 105432" d="M378.143,285.49a1,1,0,0,1-.9,0,.275.275,0,0,1,0-.521.992.992,0,0,1,.9,0,.274.274,0,0,1,0,.52Z" transform="translate(-344.5 -266.062)" fill="#2c323d"/>
                </g>
              </g>
              <g id="Grupo_58549" data-name="Grupo 58549" transform="translate(9.611 24.889)">
                <g id="Grupo_58547" data-name="Grupo 58547" transform="translate(3.324 0)">
                  <path id="Trazado_105433" data-name="Trazado 105433" d="M363.967,278.468a.992.992,0,0,1-.9,0,.274.274,0,0,1,0-.521.992.992,0,0,1,.9,0A.275.275,0,0,1,363.967,278.468Z" transform="translate(-362.878 -277.839)" fill="#2c323d"/>
                  <path id="Trazado_105434" data-name="Trazado 105434" d="M365.223,279.194a.992.992,0,0,1-.9,0,.274.274,0,0,1,0-.52,1,1,0,0,1,.9,0,.274.274,0,0,1,0,.521Z" transform="translate(-361.16 -276.848)" fill="#2c323d"/>
                  <path id="Trazado_105435" data-name="Trazado 105435" d="M366.481,279.922a1,1,0,0,1-.9,0,.275.275,0,0,1,0-.521.992.992,0,0,1,.9,0,.274.274,0,0,1,0,.52Z" transform="translate(-359.444 -275.856)" fill="#2c323d"/>
                  <path id="Trazado_105436" data-name="Trazado 105436" d="M367.743,280.647a1,1,0,0,1-.9,0,.274.274,0,0,1,0-.521,1,1,0,0,1,.9,0,.275.275,0,0,1,0,.52Z" transform="translate(-357.727 -274.865)" fill="#2c323d"/>
                  <path id="Trazado_105437" data-name="Trazado 105437" d="M369,281.379a.992.992,0,0,1-.9,0,.274.274,0,0,1,0-.52,1,1,0,0,1,.9,0,.275.275,0,0,1,0,.52Z" transform="translate(-356.008 -273.875)" fill="#2c323d"/>
                  <path id="Trazado_105438" data-name="Trazado 105438" d="M370.255,282.1a.992.992,0,0,1-.9,0,.273.273,0,0,1,0-.518.992.992,0,0,1,.9,0A.273.273,0,0,1,370.255,282.1Z" transform="translate(-354.29 -272.883)" fill="#2c323d"/>
                  <path id="Trazado_105439" data-name="Trazado 105439" d="M371.512,282.825a.992.992,0,0,1-.9,0,.274.274,0,0,1,0-.521.992.992,0,0,1,.9,0,.274.274,0,0,1,0,.52Z" transform="translate(-352.572 -271.89)" fill="#2c323d"/>
                  <path id="Trazado_105440" data-name="Trazado 105440" d="M372.77,283.553a1,1,0,0,1-.9,0,.274.274,0,0,1,0-.521.992.992,0,0,1,.9,0,.274.274,0,0,1,0,.52Z" transform="translate(-350.855 -270.898)" fill="#2c323d"/>
                  <path id="Trazado_105441" data-name="Trazado 105441" d="M374.029,284.278a1,1,0,0,1-.9,0,.274.274,0,0,1,0-.521.992.992,0,0,1,.9,0,.275.275,0,0,1,0,.52Z" transform="translate(-349.138 -269.906)" fill="#2c323d"/>
                  <path id="Trazado_105442" data-name="Trazado 105442" d="M375.287,285a1,1,0,0,1-.9,0,.274.274,0,0,1,0-.52,1,1,0,0,1,.9,0,.275.275,0,0,1,0,.52Z" transform="translate(-347.419 -268.915)" fill="#2c323d"/>
                  <path id="Trazado_105443" data-name="Trazado 105443" d="M376.543,285.731a.992.992,0,0,1-.9,0,.275.275,0,0,1,0-.52,1,1,0,0,1,.9,0,.274.274,0,0,1,0,.52Z" transform="translate(-345.703 -267.923)" fill="#2c323d"/>
                </g>
                <g id="Grupo_58548" data-name="Grupo 58548" transform="translate(0 0.297)">
                  <path id="Trazado_105444" data-name="Trazado 105444" d="M362.561,278.592a.992.992,0,0,1-.9,0,.274.274,0,0,1,0-.52.992.992,0,0,1,.9,0,.273.273,0,0,1,0,.52Z" transform="translate(-361.472 -277.963)" fill="#2c323d"/>
                  <path id="Trazado_105445" data-name="Trazado 105445" d="M363.813,279.318a1,1,0,0,1-.9,0,.275.275,0,0,1,0-.52,1,1,0,0,1,.9,0C364.059,278.941,364.062,279.173,363.813,279.318Z" transform="translate(-359.763 -276.978)" fill="#2c323d"/>
                  <path id="Trazado_105446" data-name="Trazado 105446" d="M365.065,280.039a.992.992,0,0,1-.9,0,.274.274,0,0,1,0-.521.992.992,0,0,1,.9,0A.275.275,0,0,1,365.065,280.039Z" transform="translate(-358.055 -275.991)" fill="#2c323d"/>
                  <path id="Trazado_105447" data-name="Trazado 105447" d="M366.315,280.763a1,1,0,0,1-.9,0,.275.275,0,0,1,0-.52.992.992,0,0,1,.9,0,.275.275,0,0,1,0,.52Z" transform="translate(-356.346 -275.005)" fill="#2c323d"/>
                  <path id="Trazado_105448" data-name="Trazado 105448" d="M367.566,281.485a.992.992,0,0,1-.9,0,.275.275,0,0,1,0-.521,1,1,0,0,1,.9,0,.274.274,0,0,1,0,.521Z" transform="translate(-354.638 -274.019)" fill="#2c323d"/>
                  <path id="Trazado_105449" data-name="Trazado 105449" d="M368.818,282.206a.992.992,0,0,1-.9,0c-.251-.144-.253-.378,0-.52a1,1,0,0,1,.9,0,.275.275,0,0,1,0,.52Z" transform="translate(-352.928 -273.032)" fill="#2c323d"/>
                  <path id="Trazado_105450" data-name="Trazado 105450" d="M370.07,282.93a1,1,0,0,1-.9,0,.274.274,0,0,1,0-.52,1,1,0,0,1,.9,0,.275.275,0,0,1,0,.52Z" transform="translate(-351.22 -272.046)" fill="#2c323d"/>
                  <path id="Trazado_105451" data-name="Trazado 105451" d="M371.321,283.651a1,1,0,0,1-.9,0,.274.274,0,0,1,0-.521.992.992,0,0,1,.9,0A.275.275,0,0,1,371.321,283.651Z" transform="translate(-349.511 -271.059)" fill="#2c323d"/>
                  <path id="Trazado_105452" data-name="Trazado 105452" d="M372.571,284.378a1,1,0,0,1-.9,0,.275.275,0,0,1,0-.521.992.992,0,0,1,.9,0,.274.274,0,0,1,0,.52Z" transform="translate(-347.803 -270.074)" fill="#2c323d"/>
                  <path id="Trazado_105453" data-name="Trazado 105453" d="M373.822,285.1a.992.992,0,0,1-.9,0,.275.275,0,0,1,0-.52,1,1,0,0,1,.9,0,.274.274,0,0,1,0,.52Z" transform="translate(-346.095 -269.087)" fill="#2c323d"/>
                  <path id="Trazado_105454" data-name="Trazado 105454" d="M375.074,285.818a.992.992,0,0,1-.9,0,.275.275,0,0,1,0-.52,1,1,0,0,1,.9,0C375.317,285.441,375.323,285.675,375.074,285.818Z" transform="translate(-344.385 -268.099)" fill="#2c323d"/>
                  <path id="Trazado_105455" data-name="Trazado 105455" d="M376.326,286.542a1,1,0,0,1-.9,0,.274.274,0,0,1,0-.52,1,1,0,0,1,.9,0,.275.275,0,0,1,0,.52Z" transform="translate(-342.677 -267.113)" fill="#2c323d"/>
                </g>
              </g>
              <g id="Grupo_58552" data-name="Grupo 58552" transform="translate(5.305 27.378)">
                <g id="Grupo_58550" data-name="Grupo 58550" transform="translate(3.318 0)">
                  <path id="Trazado_105456" data-name="Trazado 105456" d="M362.143,279.52a.992.992,0,0,1-.9,0,.275.275,0,0,1,0-.52,1,1,0,0,1,.9,0,.274.274,0,0,1,0,.52Z" transform="translate(-361.054 -278.892)" fill="#2c323d"/>
                  <path id="Trazado_105457" data-name="Trazado 105457" d="M363.4,280.248a1,1,0,0,1-.9,0,.275.275,0,0,1,0-.52.992.992,0,0,1,.9,0,.275.275,0,0,1,0,.52Z" transform="translate(-359.337 -277.901)" fill="#2c323d"/>
                  <path id="Trazado_105458" data-name="Trazado 105458" d="M364.66,280.978a1,1,0,0,1-.9,0,.274.274,0,0,1,0-.52,1,1,0,0,1,.9,0,.275.275,0,0,1,0,.52Z" transform="translate(-357.619 -276.91)" fill="#2c323d"/>
                  <path id="Trazado_105459" data-name="Trazado 105459" d="M365.917,281.7a.992.992,0,0,1-.9,0,.275.275,0,0,1,0-.521,1,1,0,0,1,.9,0C366.163,281.323,366.166,281.553,365.917,281.7Z" transform="translate(-355.901 -275.917)" fill="#2c323d"/>
                  <path id="Trazado_105460" data-name="Trazado 105460" d="M367.174,282.426a.992.992,0,0,1-.9,0,.275.275,0,0,1,0-.52,1,1,0,0,1,.9,0,.274.274,0,0,1,0,.52Z" transform="translate(-354.185 -274.926)" fill="#2c323d"/>
                  <path id="Trazado_105461" data-name="Trazado 105461" d="M368.432,283.151a.992.992,0,0,1-.9,0,.274.274,0,0,1,0-.52.992.992,0,0,1,.9,0,.274.274,0,0,1,0,.52Z" transform="translate(-352.466 -273.934)" fill="#2c323d"/>
                  <path id="Trazado_105462" data-name="Trazado 105462" d="M369.691,283.878a1,1,0,0,1-.9,0,.274.274,0,0,1,0-.52.992.992,0,0,1,.9,0,.275.275,0,0,1,0,.52Z" transform="translate(-350.749 -272.942)" fill="#2c323d"/>
                  <path id="Trazado_105463" data-name="Trazado 105463" d="M370.949,284.605a1,1,0,0,1-.9,0,.274.274,0,0,1,0-.521.992.992,0,0,1,.9,0,.275.275,0,0,1,0,.52Z" transform="translate(-349.031 -271.95)" fill="#2c323d"/>
                  <path id="Trazado_105464" data-name="Trazado 105464" d="M372.206,285.331a1,1,0,0,1-.9,0c-.251-.144-.253-.376,0-.521a1,1,0,0,1,.9,0,.275.275,0,0,1,0,.521Z" transform="translate(-347.313 -270.958)" fill="#2c323d"/>
                  <path id="Trazado_105465" data-name="Trazado 105465" d="M373.463,286.057a.992.992,0,0,1-.9,0,.275.275,0,0,1,0-.52,1,1,0,0,1,.9,0,.274.274,0,0,1,0,.52Z" transform="translate(-345.596 -269.967)" fill="#2c323d"/>
                  <path id="Trazado_105466" data-name="Trazado 105466" d="M374.721,286.778a1,1,0,0,1-.9,0,.274.274,0,0,1,0-.52.992.992,0,0,1,.9,0C374.967,286.4,374.969,286.638,374.721,286.778Z" transform="translate(-343.878 -268.974)" fill="#2c323d"/>
                </g>
                <g id="Grupo_58551" data-name="Grupo 58551" transform="translate(0 0.299)">
                  <path id="Trazado_105467" data-name="Trazado 105467" d="M360.743,279.648a1,1,0,0,1-.9,0,.275.275,0,0,1,0-.52.992.992,0,0,1,.9,0,.275.275,0,0,1,0,.52Z" transform="translate(-359.656 -279.019)" fill="#2c323d"/>
                  <path id="Trazado_105468" data-name="Trazado 105468" d="M361.99,280.37a.992.992,0,0,1-.9,0,.275.275,0,0,1,0-.52,1,1,0,0,1,.9,0,.274.274,0,0,1,0,.52Z" transform="translate(-357.946 -278.032)" fill="#2c323d"/>
                  <path id="Trazado_105469" data-name="Trazado 105469" d="M363.241,281.09a.992.992,0,0,1-.9,0c-.251-.144-.253-.378,0-.52a1,1,0,0,1,.9,0,.275.275,0,0,1,0,.52Z" transform="translate(-356.236 -277.046)" fill="#2c323d"/>
                  <path id="Trazado_105470" data-name="Trazado 105470" d="M364.494,281.815a1,1,0,0,1-.9,0,.274.274,0,0,1,0-.52,1,1,0,0,1,.9,0,.275.275,0,0,1,0,.52Z" transform="translate(-354.528 -276.06)" fill="#2c323d"/>
                  <path id="Trazado_105471" data-name="Trazado 105471" d="M365.743,282.536a1,1,0,0,1-.9,0,.274.274,0,0,1,0-.521.992.992,0,0,1,.9,0A.275.275,0,0,1,365.743,282.536Z" transform="translate(-352.82 -275.073)" fill="#2c323d"/>
                  <path id="Trazado_105472" data-name="Trazado 105472" d="M367,283.26a1,1,0,0,1-.9,0,.275.275,0,0,1,0-.521.992.992,0,0,1,.9,0,.274.274,0,0,1,0,.52Z" transform="translate(-351.111 -274.086)" fill="#2c323d"/>
                  <path id="Trazado_105473" data-name="Trazado 105473" d="M368.243,283.979a.992.992,0,0,1-.9,0,.275.275,0,0,1,0-.52,1,1,0,0,1,.9,0,.274.274,0,0,1,0,.52Z" transform="translate(-349.402 -273.099)" fill="#2c323d"/>
                  <path id="Trazado_105474" data-name="Trazado 105474" d="M369.5,284.7a.992.992,0,0,1-.9,0,.275.275,0,0,1,0-.521.992.992,0,0,1,.9,0C369.744,284.327,369.747,284.561,369.5,284.7Z" transform="translate(-347.694 -272.114)" fill="#2c323d"/>
                  <path id="Trazado_105475" data-name="Trazado 105475" d="M370.75,285.427a1,1,0,0,1-.9,0,.274.274,0,0,1,0-.52,1,1,0,0,1,.9,0,.275.275,0,0,1,0,.52Z" transform="translate(-345.985 -271.127)" fill="#2c323d"/>
                  <path id="Trazado_105476" data-name="Trazado 105476" d="M372,286.149a.992.992,0,0,1-.9,0,.273.273,0,0,1,0-.518.992.992,0,0,1,.9,0A.273.273,0,0,1,372,286.149Z" transform="translate(-344.277 -270.141)" fill="#2c323d"/>
                  <path id="Trazado_105477" data-name="Trazado 105477" d="M373.251,286.872a1,1,0,0,1-.9,0,.274.274,0,0,1,0-.52.992.992,0,0,1,.9,0,.274.274,0,0,1,0,.52Z" transform="translate(-342.567 -269.154)" fill="#2c323d"/>
                  <path id="Trazado_105478" data-name="Trazado 105478" d="M374.5,287.594a.992.992,0,0,1-.9,0c-.251-.144-.253-.376,0-.521a1,1,0,0,1,.9,0,.275.275,0,0,1,0,.521Z" transform="translate(-340.859 -268.168)" fill="#2c323d"/>
                </g>
              </g>
              <g id="Grupo_58555" data-name="Grupo 58555" transform="translate(0.99 29.87)">
                <g id="Grupo_58553" data-name="Grupo 58553" transform="translate(3.322 0)">
                  <path id="Trazado_105479" data-name="Trazado 105479" d="M360.322,280.578a1,1,0,0,1-.9,0,.274.274,0,0,1,0-.521.992.992,0,0,1,.9,0,.275.275,0,0,1,0,.521Z" transform="translate(-359.233 -279.949)" fill="#2c323d"/>
                  <path id="Trazado_105480" data-name="Trazado 105480" d="M361.58,281.3a1,1,0,0,1-.9,0,.274.274,0,0,1,0-.521,1,1,0,0,1,.9,0,.275.275,0,0,1,0,.52Z" transform="translate(-357.515 -278.956)" fill="#2c323d"/>
                  <path id="Trazado_105481" data-name="Trazado 105481" d="M362.836,282.026a.992.992,0,0,1-.9,0,.275.275,0,0,1,0-.52,1,1,0,0,1,.9,0,.274.274,0,0,1,0,.52Z" transform="translate(-355.798 -277.964)" fill="#2c323d"/>
                  <path id="Trazado_105482" data-name="Trazado 105482" d="M364.094,282.752a.992.992,0,0,1-.9,0,.275.275,0,0,1,0-.52,1,1,0,0,1,.9,0,.274.274,0,0,1,0,.52Z" transform="translate(-354.081 -276.973)" fill="#2c323d"/>
                  <path id="Trazado_105483" data-name="Trazado 105483" d="M365.353,283.478a.992.992,0,0,1-.9,0,.274.274,0,0,1,0-.52.992.992,0,0,1,.9,0A.275.275,0,0,1,365.353,283.478Z" transform="translate(-352.363 -275.981)" fill="#2c323d"/>
                  <path id="Trazado_105484" data-name="Trazado 105484" d="M366.611,284.2a.992.992,0,0,1-.9,0,.274.274,0,0,1,0-.52.992.992,0,0,1,.9,0,.273.273,0,0,1,0,.52Z" transform="translate(-350.645 -274.988)" fill="#2c323d"/>
                  <path id="Trazado_105485" data-name="Trazado 105485" d="M367.868,284.931a1,1,0,0,1-.9,0,.275.275,0,0,1,0-.52.992.992,0,0,1,.9,0,.275.275,0,0,1,0,.52Z" transform="translate(-348.927 -273.998)" fill="#2c323d"/>
                  <path id="Trazado_105486" data-name="Trazado 105486" d="M369.125,285.656a1,1,0,0,1-.9,0,.275.275,0,0,1,0-.52,1,1,0,0,1,.9,0,.274.274,0,0,1,0,.52Z" transform="translate(-347.21 -273.006)" fill="#2c323d"/>
                  <path id="Trazado_105487" data-name="Trazado 105487" d="M370.383,286.379a.992.992,0,0,1-.9,0,.275.275,0,0,1,0-.52,1,1,0,0,1,.9,0,.274.274,0,0,1,0,.52Z" transform="translate(-345.492 -272.013)" fill="#2c323d"/>
                  <path id="Trazado_105488" data-name="Trazado 105488" d="M371.643,287.108a1,1,0,0,1-.9,0,.274.274,0,0,1,0-.521.992.992,0,0,1,.9,0A.276.276,0,0,1,371.643,287.108Z" transform="translate(-343.775 -271.023)" fill="#2c323d"/>
                  <path id="Trazado_105489" data-name="Trazado 105489" d="M372.9,287.834a.992.992,0,0,1-.9,0,.274.274,0,0,1,0-.52.992.992,0,0,1,.9,0A.275.275,0,0,1,372.9,287.834Z" transform="translate(-342.057 -270.031)" fill="#2c323d"/>
                </g>
                <g id="Grupo_58554" data-name="Grupo 58554" transform="translate(0 0.297)">
                  <path id="Trazado_105490" data-name="Trazado 105490" d="M358.917,280.7a1,1,0,0,1-.9,0,.275.275,0,0,1,0-.521,1,1,0,0,1,.9,0C359.163,280.323,359.166,280.553,358.917,280.7Z" transform="translate(-357.827 -280.072)" fill="#2c323d"/>
                  <path id="Trazado_105491" data-name="Trazado 105491" d="M360.169,281.422a.992.992,0,0,1-.9,0,.273.273,0,0,1,0-.518.992.992,0,0,1,.9,0A.273.273,0,0,1,360.169,281.422Z" transform="translate(-356.12 -279.086)" fill="#2c323d"/>
                  <path id="Trazado_105492" data-name="Trazado 105492" d="M361.419,282.145a1,1,0,0,1-.9,0,.274.274,0,0,1,0-.521.992.992,0,0,1,.9,0,.275.275,0,0,1,0,.52Z" transform="translate(-354.41 -278.099)" fill="#2c323d"/>
                  <path id="Trazado_105493" data-name="Trazado 105493" d="M362.67,282.866a.992.992,0,0,1-.9,0,.275.275,0,0,1,0-.52,1,1,0,0,1,.9,0,.274.274,0,0,1,0,.52Z" transform="translate(-352.703 -277.112)" fill="#2c323d"/>
                  <path id="Trazado_105494" data-name="Trazado 105494" d="M363.922,283.588a.992.992,0,0,1-.9,0c-.251-.144-.253-.378,0-.521a.992.992,0,0,1,.9,0,.275.275,0,0,1,0,.52Z" transform="translate(-350.993 -276.126)" fill="#2c323d"/>
                  <path id="Trazado_105495" data-name="Trazado 105495" d="M365.174,284.312a1,1,0,0,1-.9,0,.274.274,0,0,1,0-.52,1,1,0,0,1,.9,0,.275.275,0,0,1,0,.52Z" transform="translate(-349.285 -275.14)" fill="#2c323d"/>
                  <path id="Trazado_105496" data-name="Trazado 105496" d="M366.425,285.034a.992.992,0,0,1-.9,0,.274.274,0,0,1,0-.52,1,1,0,0,1,.9,0A.275.275,0,0,1,366.425,285.034Z" transform="translate(-347.577 -274.153)" fill="#2c323d"/>
                  <path id="Trazado_105497" data-name="Trazado 105497" d="M367.675,285.757a1,1,0,0,1-.9,0,.274.274,0,0,1,0-.52.992.992,0,0,1,.9,0,.274.274,0,0,1,0,.52Z" transform="translate(-345.867 -273.167)" fill="#2c323d"/>
                  <path id="Trazado_105498" data-name="Trazado 105498" d="M368.926,286.479a.992.992,0,0,1-.9,0,.275.275,0,0,1,0-.521,1,1,0,0,1,.9,0,.274.274,0,0,1,0,.521Z" transform="translate(-344.159 -272.18)" fill="#2c323d"/>
                  <path id="Trazado_105499" data-name="Trazado 105499" d="M370.178,287.2a.992.992,0,0,1-.9,0,.275.275,0,0,1,0-.52.992.992,0,0,1,.9,0C370.424,286.824,370.427,287.058,370.178,287.2Z" transform="translate(-342.45 -271.194)" fill="#2c323d"/>
                  <path id="Trazado_105500" data-name="Trazado 105500" d="M371.43,287.923a1,1,0,0,1-.9,0,.274.274,0,0,1,0-.52,1,1,0,0,1,.9,0,.275.275,0,0,1,0,.52Z" transform="translate(-340.741 -270.207)" fill="#2c323d"/>
                  <path id="Trazado_105501" data-name="Trazado 105501" d="M372.68,288.646a.992.992,0,0,1-.9,0,.275.275,0,0,1,0-.521,1,1,0,0,1,.9,0A.275.275,0,0,1,372.68,288.646Z" transform="translate(-339.033 -269.22)" fill="#2c323d"/>
                </g>
              </g>
              <g id="Grupo_58557" data-name="Grupo 58557" transform="translate(0 32.358)">
                <g id="Grupo_58556" data-name="Grupo 58556" transform="translate(0 0)">
                  <path id="Trazado_105502" data-name="Trazado 105502" d="M358.5,281.626a1,1,0,0,1-.9,0c-.251-.144-.253-.376,0-.521a1,1,0,0,1,.9,0,.275.275,0,0,1,0,.521Z" transform="translate(-357.408 -280.998)" fill="#2c323d"/>
                  <path id="Trazado_105503" data-name="Trazado 105503" d="M359.756,282.352a1,1,0,0,1-.9,0,.275.275,0,0,1,0-.521,1,1,0,0,1,.9,0,.274.274,0,0,1,0,.521Z" transform="translate(-355.692 -280.006)" fill="#2c323d"/>
                  <path id="Trazado_105504" data-name="Trazado 105504" d="M361.014,283.079a.992.992,0,0,1-.9,0,.275.275,0,0,1,0-.521,1,1,0,0,1,.9,0A.275.275,0,0,1,361.014,283.079Z" transform="translate(-353.974 -279.016)" fill="#2c323d"/>
                  <path id="Trazado_105505" data-name="Trazado 105505" d="M362.273,283.8a.992.992,0,0,1-.9,0,.274.274,0,0,1,0-.52.992.992,0,0,1,.9,0A.276.276,0,0,1,362.273,283.8Z" transform="translate(-352.256 -278.023)" fill="#2c323d"/>
                  <path id="Trazado_105506" data-name="Trazado 105506" d="M363.53,284.529a.992.992,0,0,1-.9,0,.275.275,0,0,1,0-.52,1,1,0,0,1,.9,0C363.776,284.152,363.779,284.386,363.53,284.529Z" transform="translate(-350.538 -277.031)" fill="#2c323d"/>
                  <path id="Trazado_105507" data-name="Trazado 105507" d="M364.787,285.257a1,1,0,0,1-.9,0,.275.275,0,0,1,0-.521.992.992,0,0,1,.9,0,.274.274,0,0,1,0,.52Z" transform="translate(-348.821 -276.04)" fill="#2c323d"/>
                  <path id="Trazado_105508" data-name="Trazado 105508" d="M366.043,285.979a1,1,0,0,1-.9,0,.275.275,0,0,1,0-.52,1,1,0,0,1,.9,0,.274.274,0,0,1,0,.52Z" transform="translate(-347.103 -275.047)" fill="#2c323d"/>
                  <path id="Trazado_105509" data-name="Trazado 105509" d="M367.3,286.708a.992.992,0,0,1-.9,0,.274.274,0,0,1,0-.52,1,1,0,0,1,.9,0,.275.275,0,0,1,0,.52Z" transform="translate(-345.386 -274.057)" fill="#2c323d"/>
                  <path id="Trazado_105510" data-name="Trazado 105510" d="M368.562,287.435a.992.992,0,0,1-.9,0,.273.273,0,0,1,0-.518.992.992,0,0,1,.9,0,.275.275,0,0,1,0,.518Z" transform="translate(-343.668 -273.066)" fill="#2c323d"/>
                  <path id="Trazado_105511" data-name="Trazado 105511" d="M369.819,288.16a.992.992,0,0,1-.9,0c-.251-.144-.253-.378,0-.521a.992.992,0,0,1,.9,0,.275.275,0,0,1,0,.52Z" transform="translate(-341.95 -272.073)" fill="#2c323d"/>
                  <path id="Trazado_105512" data-name="Trazado 105512" d="M371.076,288.888a1,1,0,0,1-.9,0,.274.274,0,0,1,0-.52.992.992,0,0,1,.9,0,.274.274,0,0,1,0,.521Z" transform="translate(-340.233 -271.081)" fill="#2c323d"/>
                </g>
              </g>
            </g>
          </g>
        </g>
      </g>
    </g>
  </g>
</svg>
