<svg xmlns="http://www.w3.org/2000/svg" xmlns:xlink="http://www.w3.org/1999/xlink" width="97.863" height="106.589" viewBox="0 0 97.863 106.589">
  <defs>
    <filter id="Trazado_771226" x="0" y="0" width="97.863" height="106.589" filterUnits="userSpaceOnUse">
      <feOffset dy="3" input="SourceAlpha"/>
      <feGaussianBlur stdDeviation="3" result="blur"/>
      <feFlood flood-opacity="0.161"/>
      <feComposite operator="in" in2="blur"/>
      <feComposite in="SourceGraphic"/>
    </filter>
  </defs>
  <g id="Grupo_1071749" data-name="Grupo 1071749" transform="translate(-830 -935.843)">
    <g id="Grupo_1071655" data-name="Grupo 1071655" transform="translate(-320.5 -96.5)">
      <g transform="matrix(1, 0, 0, 1, 1150.5, 1032.34)" filter="url(#Trazado_771226)">
        <path id="Trazado_771226-2" data-name="Trazado 771226" d="M483.067,305.694V277.332a14.55,14.55,0,0,0-7.1-12.523l-23.259-13.791a14.268,14.268,0,0,0-14.1-.264L414.77,263.71A14.544,14.544,0,0,0,407.2,276.5v28.623a14.553,14.553,0,0,0,6.925,12.417l22.295,13.652a14.269,14.269,0,0,0,14.121.455l24.8-13.078A14.541,14.541,0,0,0,483.067,305.694Z" transform="translate(-396.2 -240.86)" fill="#2ec49f" stroke="#fff" stroke-miterlimit="10" stroke-width="4"/>
      </g>
    </g>
    <g id="wifi" transform="translate(853 961)">
      <g id="Grupo_54505" data-name="Grupo 54505" transform="translate(0.771 0.769)">
        <g id="Grupo_54500" data-name="Grupo 54500" transform="translate(2.435 0)">
          <g id="Grupo_54499" data-name="Grupo 54499" transform="translate(0 0.002)">
            <path id="Trazado_100673" data-name="Trazado 100673" d="M40.308,54.382l-5.407.772L31.213,20.329a1.449,1.449,0,0,1,2.867-.41Z" transform="translate(-31.204 -18.724)" fill="#bcd6f9"/>
          </g>
          <path id="Trazado_100674" data-name="Trazado 100674" d="M392.217,54.38l5.407.772,3.688-34.827a1.449,1.449,0,0,0-2.867-.41Z" transform="translate(-355.115 -18.72)" fill="#bcd6f9"/>
        </g>
        <g id="Grupo_54504" data-name="Grupo 54504" transform="translate(0 28.993)">
          <g id="Grupo_54501" data-name="Grupo 54501" transform="translate(5.457 13.874)">
            <path id="Trazado_100675" data-name="Trazado 100675" d="M63.573,441.691H61.691a1.09,1.09,0,0,1-1.09-1.09v-4.818h4.062V440.6a1.09,1.09,0,0,1-1.09,1.09Z" transform="translate(-60.601 -435.783)" fill="#756e78"/>
            <path id="Trazado_100676" data-name="Trazado 100676" d="M414.85,441.691h-1.881a1.09,1.09,0,0,1-1.09-1.09v-4.818h4.062V440.6A1.09,1.09,0,0,1,414.85,441.691Z" transform="translate(-375.777 -435.783)" fill="#756e78"/>
          </g>
          <g id="Grupo_54503" data-name="Grupo 54503">
            <g id="Grupo_54502" data-name="Grupo 54502" transform="translate(1.773)">
              <path id="Trazado_100677" data-name="Trazado 100677" d="M70.7,317.532H26.334a1.583,1.583,0,0,1-1.583-1.583V302.368a1.583,1.583,0,0,1,1.583-1.583H70.7a1.583,1.583,0,0,1,1.583,1.583v13.581a1.583,1.583,0,0,1-1.583,1.583Z" transform="translate(-24.751 -300.785)" fill="#c9e0fd"/>
            </g>
            <path id="Trazado_100678" data-name="Trazado 100678" d="M413.145,300.785H406.42A1.583,1.583,0,0,1,408,302.368v13.581a1.583,1.583,0,0,1-1.583,1.583h6.725a1.583,1.583,0,0,0,1.583-1.583V302.368A1.583,1.583,0,0,0,413.145,300.785Z" transform="translate(-365.424 -300.785)" fill="#bcd6f9"/>
            <path id="Trazado_100679" data-name="Trazado 100679" d="M56.8,339.744H9.273A1.773,1.773,0,0,1,7.5,337.97v-7.455a1.773,1.773,0,0,1,1.773-1.773H56.8a1.773,1.773,0,0,1,1.773,1.773v7.455A1.773,1.773,0,0,1,56.8,339.744Z" transform="translate(-7.5 -325.869)" fill="#eaf2ff"/>
            <path id="Trazado_100680" data-name="Trazado 100680" d="M428.552,328.742h-6.725a1.773,1.773,0,0,1,1.773,1.773v7.455a1.773,1.773,0,0,1-1.773,1.773h6.725a1.773,1.773,0,0,0,1.773-1.773v-7.455A1.773,1.773,0,0,0,428.552,328.742Z" transform="translate(-379.248 -325.869)" fill="#dbe8f9"/>
          </g>
        </g>
        <ellipse id="Elipse_4076" data-name="Elipse 4076" cx="2.669" cy="2.669" rx="2.669" ry="2.669" transform="translate(4.839 34.697)" fill="#7fb2f9"/>
        <path id="Trazado_100681" data-name="Trazado 100681" d="M248.7,366.688H225.453a.679.679,0,0,1-.679-.679v-2.671a.679.679,0,0,1,.679-.679H248.7a.679.679,0,0,1,.679.679v2.671A.679.679,0,0,1,248.7,366.688Z" transform="translate(-202.444 -327.307)" fill="#a0f2bf"/>
        <path id="Trazado_100682" data-name="Trazado 100682" d="M440.983,362.659h-1.9v4.029h1.9a.679.679,0,0,0,.679-.679v-2.671a.68.68,0,0,0-.679-.679Z" transform="translate(-394.726 -327.308)" fill="#86efa5"/>
      </g>
      <g id="Grupo_54506" data-name="Grupo 54506" transform="translate(0 0)">
        <path id="Trazado_100683" data-name="Trazado 100683" d="M160.813,112.354a12.168,12.168,0,0,1,17.208,0,.772.772,0,0,0,1.09-1.09,13.71,13.71,0,0,0-19.388,0,.772.772,0,0,0,1.09,1.09Z" transform="translate(-143.108 -97.377)"/>
        <path id="Trazado_100684" data-name="Trazado 100684" d="M204.679,156.573a.772.772,0,0,0,0-1.09,9.024,9.024,0,0,0-12.762,0,.772.772,0,1,0,1.09,1.09,7.482,7.482,0,0,1,10.584,0A.772.772,0,0,0,204.679,156.573Z" transform="translate(-171.989 -138.283)"/>
        <path id="Trazado_100685" data-name="Trazado 100685" d="M224.157,199.7a.772.772,0,1,0,1.09,1.09,2.8,2.8,0,0,1,3.955,0,.772.772,0,1,0,1.09-1.09,4.338,4.338,0,0,0-6.135,0Z" transform="translate(-200.915 -179.191)"/>
        <path id="Trazado_100686" data-name="Trazado 100686" d="M50.846,43.2v-.638a2.357,2.357,0,0,0-2.354-2.354H47.36l2.811-26.533a2.219,2.219,0,0,0-4.391-.628L40.87,40.212H11.749L8.65,23.068a.772.772,0,1,0-1.517.276l3.05,16.872H6.809l-2.827-26.7a.678.678,0,0,1,1.341-.192l1.169,6.464a.772.772,0,1,0,1.517-.276L6.84,13.05a2.219,2.219,0,0,0-4.391.628L5.26,40.212H4.127a2.357,2.357,0,0,0-2.354,2.354V43.2A2.548,2.548,0,0,0,0,45.628v7.456a2.548,2.548,0,0,0,1.773,2.426v.639A2.357,2.357,0,0,0,4.127,58.5H5.457v1.174a1.863,1.863,0,0,0,1.861,1.861H9.2a1.863,1.863,0,0,0,1.861-1.861V58.5h30.5v1.174a1.863,1.863,0,0,0,1.861,1.861H45.3a1.863,1.863,0,0,0,1.861-1.861V58.5h1.33a2.357,2.357,0,0,0,2.354-2.354v-.641a2.548,2.548,0,0,0,1.773-2.426V45.628A2.547,2.547,0,0,0,50.846,43.2ZM47.3,13.327a.678.678,0,0,1,1.341.192L45.809,40.212H42.436ZM3.315,42.566a.814.814,0,0,1,.813-.813H48.492a.814.814,0,0,1,.813.813v.519H3.315Zm6.2,17.109a.32.32,0,0,1-.319.319H7.318A.32.32,0,0,1,7,59.675V58.5h2.52Zm36.1,0a.32.32,0,0,1-.319.319H43.419a.32.32,0,0,1-.319-.319V58.5h2.52ZM49.3,56.147a.813.813,0,0,1-.813.813H4.127a.814.814,0,0,1-.813-.813v-.519H49.3v.519Zm1.773-3.063a1,1,0,0,1-1,1H2.543a1,1,0,0,1-1-1V45.628a1,1,0,0,1,1-1h47.53a1,1,0,0,1,1,1Z" transform="translate(0 -11.221)"/>
        <path id="Trazado_100687" data-name="Trazado 100687" d="M50.532,348.794a3.439,3.439,0,1,0,3.439,3.439,3.439,3.439,0,0,0-3.439-3.439Zm0,5.337a1.9,1.9,0,1,1,1.9-1.9,1.9,1.9,0,0,1-1.9,1.9Z" transform="translate(-42.253 -314.098)"/>
        <path id="Trazado_100688" data-name="Trazado 100688" d="M241.97,355.159H218.719a1.451,1.451,0,0,0-1.45,1.45v2.671a1.451,1.451,0,0,0,1.45,1.45h15.41a.772.772,0,1,0,0-1.543H218.813V356.7h23.065v2.488H237.74a.772.772,0,1,0,0,1.543h4.229a1.451,1.451,0,0,0,1.45-1.45v-2.671A1.451,1.451,0,0,0,241.97,355.159Z" transform="translate(-194.942 -319.809)"/>
      </g>
    </g>
  </g>
</svg>
